<?xml version="1.0" encoding="UTF-8"?><svg id="a" xmlns="http://www.w3.org/2000/svg" viewBox="0 0 342.21 246.71"><g><path d="M24.95,96.88v-4.32h4.23v-22.84h-4.23v-4.32h12.59c4.2,0,7.41,1.06,9.64,3.19,2.23,2.13,3.35,5.34,3.35,9.62v5.89c0,4.29-1.12,7.49-3.35,9.6-2.23,2.11-5.45,3.17-9.64,3.17h-12.59Zm9.13-4.41h3.51c2.73,0,4.75-.69,6.07-2.07,1.32-1.38,1.98-3.43,1.98-6.16v-6.2c0-2.76-.66-4.81-1.98-6.16-1.32-1.35-3.34-2.02-6.07-2.02h-3.51v22.61Z"/><path d="M58.49,71.7c-.9,0-1.66-.29-2.27-.88-.61-.58-.92-1.34-.92-2.27s.31-1.69,.92-2.27c.62-.58,1.37-.88,2.27-.88s1.69,.29,2.29,.88,.9,1.34,.9,2.27-.3,1.69-.9,2.27-1.37,.88-2.29,.88Zm-2.34,25.18v-22.17h4.63v22.17h-4.63Z"/><path d="M66.58,85.91v-.67c0-2.34,.47-4.33,1.42-5.98,.95-1.65,2.2-2.92,3.76-3.82,1.56-.9,3.27-1.35,5.12-1.35,2.16,0,3.81,.4,4.97,1.21,1.15,.81,2,1.68,2.54,2.61h.72v-3.19h4.5v26.71c0,1.35-.4,2.43-1.19,3.24-.79,.81-1.88,1.21-3.26,1.21h-14.93v-4.05h13.49c.87,0,1.3-.45,1.3-1.35v-7.06h-.72c-.33,.54-.79,1.09-1.39,1.66-.6,.57-1.39,1.03-2.36,1.39-.97,.36-2.2,.54-3.66,.54-1.86,0-3.57-.44-5.15-1.33-1.57-.88-2.83-2.16-3.75-3.82-.93-1.66-1.39-3.65-1.39-5.96Zm11.55,7.06c2.01,0,3.66-.64,4.97-1.91,1.3-1.27,1.96-3.03,1.96-5.28v-.4c0-2.31-.64-4.08-1.93-5.33-1.29-1.24-2.95-1.87-4.99-1.87s-3.62,.62-4.92,1.87c-1.3,1.24-1.96,3.02-1.96,5.33v.4c0,2.25,.65,4.01,1.96,5.28,1.3,1.27,2.94,1.91,4.92,1.91Z"/><path d="M98.77,71.7c-.9,0-1.66-.29-2.27-.88-.62-.58-.92-1.34-.92-2.27s.31-1.69,.92-2.27c.61-.58,1.37-.88,2.27-.88s1.69,.29,2.29,.88,.9,1.34,.9,2.27-.3,1.69-.9,2.27-1.36,.88-2.29,.88Zm-2.34,25.18v-22.17h4.63v22.17h-4.63Z"/><path d="M116.26,96.88c-1.35,0-2.42-.4-3.21-1.21-.79-.81-1.19-1.89-1.19-3.24v-13.8h-6.12v-3.91h6.12v-7.33h4.63v7.33h6.61v3.91h-6.61v12.99c0,.9,.42,1.35,1.26,1.35h4.63v3.91h-6.12Z"/><path d="M135.37,97.51c-1.59,0-3-.27-4.25-.81s-2.23-1.33-2.97-2.38c-.74-1.05-1.1-2.32-1.1-3.82s.37-2.79,1.1-3.8c.73-1,1.74-1.76,3.01-2.27,1.27-.51,2.72-.76,4.34-.76h6.74v-1.44c0-1.29-.39-2.32-1.17-3.1-.78-.78-1.98-1.17-3.6-1.17s-2.8,.38-3.64,1.12c-.84,.75-1.39,1.72-1.66,2.92l-4.32-1.39c.36-1.2,.94-2.29,1.73-3.26,.79-.97,1.85-1.76,3.17-2.36,1.32-.6,2.91-.9,4.77-.9,2.88,0,5.14,.73,6.79,2.2,1.65,1.47,2.47,3.55,2.47,6.25v9.13c0,.9,.42,1.35,1.26,1.35h1.89v3.87h-3.46c-1.05,0-1.9-.27-2.56-.81-.66-.54-.99-1.27-.99-2.2v-.13h-.68c-.24,.45-.6,.97-1.08,1.57-.48,.6-1.19,1.12-2.11,1.55-.93,.43-2.16,.65-3.69,.65Zm.68-3.82c1.86,0,3.36-.53,4.49-1.6,1.14-1.06,1.71-2.52,1.71-4.38v-.45h-6.47c-1.23,0-2.22,.26-2.97,.79s-1.12,1.3-1.12,2.32,.39,1.83,1.17,2.43c.78,.6,1.84,.9,3.19,.9Z"/><path d="M154.43,96.88v-31.47h4.63v31.47h-4.63Z"/><path d="M177.27,96.88v-31.47h9.35l8.54,28.23h.72v-28.23h4.81v31.47h-9.35l-8.54-28.28h-.72v28.28h-4.81Z"/><path d="M217.78,97.51c-2.22,0-4.19-.46-5.91-1.37-1.72-.91-3.08-2.23-4.07-3.93-.99-1.71-1.48-3.73-1.48-6.07v-.67c0-2.34,.49-4.35,1.48-6.05,.99-1.69,2.35-3,4.07-3.93,1.72-.93,3.69-1.39,5.91-1.39s4.2,.47,5.94,1.39c1.74,.93,3.1,2.24,4.09,3.93,.99,1.69,1.48,3.71,1.48,6.05v.67c0,2.34-.49,4.36-1.48,6.07-.99,1.71-2.35,3.02-4.09,3.93-1.74,.91-3.72,1.37-5.94,1.37Zm0-4.14c2.04,0,3.69-.65,4.97-1.96,1.27-1.3,1.91-3.11,1.91-5.42v-.4c0-2.31-.63-4.11-1.89-5.42-1.26-1.3-2.92-1.96-4.99-1.96s-3.65,.65-4.92,1.96c-1.28,1.3-1.91,3.11-1.91,5.42v.4c0,2.31,.64,4.11,1.91,5.42,1.27,1.3,2.91,1.96,4.92,1.96Z"/><path d="M235.05,96.88v-22.17h4.54v2.61h.72c.42-.78,1.09-1.47,2.02-2.07,.93-.6,2.19-.9,3.78-.9s2.97,.34,3.98,1.01c1,.67,1.76,1.54,2.27,2.58h.72c.51-1.02,1.25-1.87,2.22-2.56s2.36-1.03,4.16-1.03c1.44,0,2.71,.29,3.82,.88s1.99,1.45,2.65,2.61c.66,1.15,.99,2.58,.99,4.29v14.75h-4.63v-14.39c0-1.35-.37-2.39-1.1-3.12-.74-.73-1.78-1.1-3.12-1.1-1.44,0-2.59,.46-3.46,1.39-.87,.93-1.3,2.26-1.3,4v13.22h-4.63v-14.39c0-1.35-.37-2.39-1.1-3.12-.74-.73-1.78-1.1-3.12-1.1-1.44,0-2.59,.46-3.46,1.39-.87,.93-1.3,2.26-1.3,4v13.22h-4.63Z"/><path d="M280.45,97.51c-1.59,0-3-.27-4.25-.81s-2.23-1.33-2.97-2.38c-.74-1.05-1.1-2.32-1.1-3.82s.37-2.79,1.1-3.8c.73-1,1.74-1.76,3.01-2.27,1.27-.51,2.72-.76,4.34-.76h6.74v-1.44c0-1.29-.39-2.32-1.17-3.1-.78-.78-1.98-1.17-3.6-1.17s-2.8,.38-3.64,1.12c-.84,.75-1.39,1.72-1.66,2.92l-4.32-1.39c.36-1.2,.94-2.29,1.73-3.26,.79-.97,1.85-1.76,3.17-2.36,1.32-.6,2.91-.9,4.77-.9,2.88,0,5.14,.73,6.79,2.2,1.65,1.47,2.47,3.55,2.47,6.25v9.13c0,.9,.42,1.35,1.26,1.35h1.89v3.87h-3.46c-1.05,0-1.9-.27-2.56-.81-.66-.54-.99-1.27-.99-2.2v-.13h-.68c-.24,.45-.6,.97-1.08,1.57-.48,.6-1.19,1.12-2.11,1.55-.93,.43-2.16,.65-3.69,.65Zm.68-3.82c1.86,0,3.36-.53,4.49-1.6,1.14-1.06,1.71-2.52,1.71-4.38v-.45h-6.47c-1.23,0-2.22,.26-2.97,.79s-1.12,1.3-1.12,2.32,.39,1.83,1.17,2.43c.78,.6,1.84,.9,3.19,.9Z"/><path d="M308.15,97.51c-1.83,0-3.52-.45-5.08-1.35-1.56-.9-2.81-2.2-3.75-3.89-.95-1.69-1.42-3.74-1.42-6.14v-.67c0-2.37,.46-4.41,1.39-6.11,.93-1.71,2.17-3.01,3.73-3.91,1.56-.9,3.27-1.35,5.12-1.35,1.44,0,2.64,.18,3.62,.54,.97,.36,1.78,.82,2.41,1.37,.63,.55,1.11,1.13,1.44,1.73h.72v-12.32h4.63v31.47h-4.54v-3.15h-.72c-.57,.96-1.43,1.83-2.59,2.61-1.15,.78-2.81,1.17-4.97,1.17Zm1.3-4.05c2.01,0,3.66-.64,4.97-1.93,1.3-1.29,1.96-3.13,1.96-5.53v-.4c0-2.37-.64-4.2-1.93-5.48-1.29-1.29-2.95-1.93-4.99-1.93s-3.62,.65-4.92,1.93c-1.3,1.29-1.96,3.12-1.96,5.48v.4c0,2.4,.65,4.24,1.96,5.53,1.3,1.29,2.95,1.93,4.92,1.93Z"/></g><g><path d="M60.85,115.22l5.06,21.79,6.06-21.79h3.93l6.08,21.83,5.06-21.83h3.98l-7.05,26.83h-3.82l-6.19-22.24-6.23,22.24h-3.82l-7.01-26.83h3.95Z"/><path d="M93.93,115.22h3.34v3.73h-3.34v-3.73Zm0,7.36h3.34v19.47h-3.34v-19.47Z"/><path d="M102.9,117.03h3.32v5.46h3.12v2.68h-3.12v12.76c0,.68,.23,1.14,.69,1.37,.26,.13,.68,.2,1.28,.2,.16,0,.33,0,.51-.01s.4-.03,.64-.06v2.61c-.38,.11-.77,.19-1.18,.24s-.85,.07-1.32,.07c-1.53,0-2.57-.39-3.12-1.18-.55-.79-.82-1.8-.82-3.06v-12.95h-2.65v-2.68h2.65v-5.46Z"/><path d="M112.63,115.13h3.29v10.01c.78-.99,1.48-1.68,2.1-2.08,1.06-.69,2.38-1.04,3.96-1.04,2.84,0,4.76,.99,5.77,2.98,.55,1.08,.82,2.59,.82,4.51v12.55h-3.38v-12.33c0-1.44-.18-2.49-.55-3.16-.6-1.07-1.72-1.61-3.36-1.61-1.36,0-2.6,.47-3.71,1.41-1.11,.94-1.66,2.71-1.66,5.31v10.37h-3.29v-26.92Z"/><path d="M154.3,130.21c.75-.1,1.26-.41,1.52-.95,.15-.29,.22-.71,.22-1.26,0-1.12-.4-1.94-1.19-2.45-.8-.51-1.94-.76-3.42-.76-1.71,0-2.93,.46-3.65,1.39-.4,.51-.66,1.28-.78,2.29h-3.07c.06-2.42,.84-4.1,2.34-5.04,1.5-.95,3.24-1.42,5.23-1.42,2.3,0,4.17,.44,5.6,1.31,1.42,.88,2.13,2.24,2.13,4.09v11.27c0,.34,.07,.62,.21,.82,.14,.21,.44,.31,.89,.31,.15,0,.31,0,.49-.03,.18-.02,.38-.05,.58-.08v2.43c-.51,.15-.9,.24-1.17,.27-.27,.04-.63,.05-1.1,.05-1.13,0-1.95-.4-2.47-1.21-.27-.43-.46-1.03-.57-1.81-.67,.88-1.63,1.64-2.89,2.28-1.25,.64-2.64,.97-4.14,.97-1.81,0-3.3-.55-4.45-1.65s-1.73-2.48-1.73-4.13c0-1.81,.57-3.22,1.7-4.21,1.13-1,2.62-1.61,4.46-1.84l5.24-.66Zm-6.92,8.88c.69,.55,1.52,.82,2.46,.82,1.16,0,2.28-.27,3.36-.8,1.83-.89,2.74-2.34,2.74-4.36v-2.64c-.4,.26-.92,.47-1.55,.64s-1.25,.29-1.86,.37l-1.99,.26c-1.19,.16-2.09,.41-2.69,.75-1.02,.57-1.52,1.48-1.52,2.73,0,.95,.35,1.69,1.04,2.24Z"/><path d="M175.79,115.22h12c2.37,0,4.29,.67,5.75,2.02,1.46,1.35,2.19,3.23,2.19,5.67,0,2.09-.65,3.92-1.95,5.47-1.3,1.55-3.29,2.33-5.98,2.33h-8.38v11.34h-3.63v-26.83Zm14.09,3.69c-.8-.38-1.89-.57-3.28-.57h-7.18v9.29h7.18c1.62,0,2.93-.35,3.94-1.04s1.51-1.92,1.51-3.67c0-1.97-.72-3.31-2.18-4.02Z"/><path d="M200.05,122.49h3.12v3.38c.26-.66,.88-1.46,1.88-2.4,1-.94,2.15-1.42,3.45-1.42,.06,0,.17,0,.31,.02,.15,.01,.4,.04,.75,.07v3.47c-.2-.04-.37-.06-.54-.07-.16-.01-.34-.02-.54-.02-1.66,0-2.93,.53-3.82,1.6-.89,1.07-1.33,2.29-1.33,3.68v11.25h-3.29v-19.56Z"/><path d="M226.58,124.44c1.73,1.68,2.59,4.15,2.59,7.41s-.76,5.75-2.29,7.81c-1.52,2.06-3.89,3.08-7.09,3.08-2.67,0-4.79-.91-6.36-2.73s-2.36-4.26-2.36-7.33c0-3.28,.83-5.9,2.48-7.85,1.66-1.95,3.88-2.92,6.67-2.92,2.5,0,4.62,.84,6.35,2.52Zm-2.04,13c.8-1.65,1.2-3.48,1.2-5.5,0-1.82-.29-3.31-.87-4.45-.92-1.8-2.49-2.7-4.73-2.7-1.99,0-3.43,.77-4.33,2.3-.9,1.53-1.35,3.38-1.35,5.54s.45,3.81,1.35,5.2c.9,1.39,2.33,2.08,4.3,2.08,2.15,0,3.63-.82,4.43-2.47Z"/><path d="M230.1,147c1.47-.05,2.36-.18,2.66-.39,.3-.21,.45-.88,.45-2v-22.02h3.29v22.37c0,1.42-.23,2.49-.69,3.2-.77,1.19-2.22,1.79-4.37,1.79-.16,0-.33,0-.5-.02-.18-.01-.45-.04-.83-.07v-2.85Zm6.39-27.98h-3.29v-3.8h3.29v3.8Z"/><path d="M253.6,123.03c1.29,.65,2.28,1.49,2.96,2.53,.65,.99,1.09,2.14,1.31,3.45,.19,.9,.29,2.34,.29,4.31h-14.22c.06,1.99,.53,3.59,1.39,4.79,.87,1.2,2.22,1.8,4.04,1.8,1.7,0,3.06-.57,4.08-1.71,.57-.66,.97-1.42,1.21-2.29h3.23c-.09,.72-.37,1.52-.85,2.4-.48,.88-1.02,1.6-1.61,2.16-.99,.97-2.22,1.63-3.68,1.97-.79,.19-1.67,.29-2.66,.29-2.42,0-4.47-.89-6.15-2.66-1.68-1.77-2.52-4.25-2.52-7.44s.85-5.69,2.54-7.65c1.69-1.96,3.91-2.94,6.64-2.94,1.38,0,2.72,.33,4.01,.98Zm1.18,7.68c-.13-1.42-.44-2.56-.92-3.42-.89-1.58-2.38-2.37-4.47-2.37-1.5,0-2.75,.54-3.77,1.63-1.01,1.09-1.55,2.47-1.61,4.15h10.77Z"/><path d="M275.23,123.53c1.38,1.07,2.21,2.92,2.49,5.53h-3.2c-.2-1.21-.64-2.21-1.33-3-.69-.8-1.81-1.2-3.34-1.2-2.09,0-3.59,1.02-4.49,3.06-.58,1.33-.88,2.96-.88,4.91s.41,3.61,1.24,4.94c.83,1.34,2.13,2.01,3.91,2.01,1.36,0,2.44-.42,3.24-1.25,.8-.83,1.35-1.97,1.65-3.41h3.2c-.37,2.59-1.28,4.49-2.74,5.69-1.46,1.2-3.33,1.8-5.61,1.8-2.56,0-4.6-.93-6.12-2.8-1.52-1.87-2.28-4.2-2.28-7,0-3.43,.83-6.11,2.5-8.02s3.79-2.87,6.37-2.87c2.2,0,4,.54,5.38,1.61Z"/><path d="M281.67,117.03h3.32v5.46h3.12v2.68h-3.12v12.76c0,.68,.23,1.14,.69,1.37,.26,.13,.68,.2,1.28,.2,.16,0,.33,0,.51-.01s.4-.03,.64-.06v2.61c-.38,.11-.77,.19-1.18,.24s-.85,.07-1.32,.07c-1.53,0-2.57-.39-3.12-1.18-.55-.79-.82-1.8-.82-3.06v-12.95h-2.65v-2.68h2.65v-5.46Z"/><path d="M107.47,152.23h3.34v3.73h-3.34v-3.73Zm0,7.36h3.34v19.47h-3.34v-19.47Z"/><path d="M115.78,159.5h3.12v2.78c.92-1.14,1.91-1.97,2.94-2.47,1.04-.5,2.19-.75,3.45-.75,2.78,0,4.65,.97,5.62,2.9,.54,1.06,.8,2.57,.8,4.55v12.55h-3.34v-12.33c0-1.19-.18-2.15-.53-2.89-.58-1.22-1.64-1.83-3.18-1.83-.78,0-1.42,.08-1.92,.24-.9,.27-1.69,.8-2.37,1.61-.55,.65-.9,1.31-1.07,2-.17,.69-.25,1.67-.25,2.95v10.24h-3.29v-19.56Z"/><path d="M147.75,152.23h19.47v3.29h-15.92v8.14h14.72v3.1h-14.72v9.09h16.2v3.2h-19.74v-26.83Z"/><path d="M173.53,159.5l5.22,15.92,5.44-15.92h3.6l-7.36,19.56h-3.5l-7.21-19.56h3.82Z"/><path d="M202.69,160.04c1.29,.65,2.28,1.49,2.96,2.53,.65,.99,1.09,2.14,1.31,3.45,.19,.9,.29,2.34,.29,4.31h-14.22c.06,1.99,.53,3.59,1.39,4.79,.87,1.2,2.22,1.8,4.04,1.8,1.7,0,3.06-.57,4.08-1.71,.57-.66,.97-1.42,1.21-2.29h3.23c-.09,.72-.37,1.52-.85,2.4-.48,.88-1.02,1.6-1.61,2.16-.99,.97-2.22,1.63-3.68,1.97-.79,.19-1.67,.29-2.66,.29-2.42,0-4.47-.89-6.15-2.66-1.68-1.77-2.52-4.25-2.52-7.44s.85-5.69,2.54-7.65c1.69-1.96,3.91-2.94,6.64-2.94,1.38,0,2.72,.33,4.01,.98Zm1.18,7.68c-.13-1.42-.44-2.56-.92-3.42-.89-1.58-2.38-2.37-4.47-2.37-1.5,0-2.75,.54-3.77,1.63-1.01,1.09-1.55,2.47-1.61,4.15h10.77Z"/><path d="M211.5,159.5h3.12v3.38c.26-.66,.88-1.46,1.88-2.4,1-.94,2.15-1.42,3.45-1.42,.06,0,.17,0,.31,.02,.15,.01,.4,.04,.75,.07v3.47c-.2-.04-.37-.06-.54-.07-.16-.01-.34-.02-.54-.02-1.66,0-2.93,.53-3.82,1.6-.89,1.07-1.33,2.29-1.33,3.68v11.25h-3.29v-19.56Z"/><path d="M236.09,159.5h3.63c-.46,1.25-1.49,4.12-3.09,8.59-1.19,3.36-2.19,6.1-2.99,8.22-1.9,4.99-3.24,8.03-4.01,9.12s-2.12,1.64-4.01,1.64c-.46,0-.82-.02-1.07-.05-.25-.04-.56-.1-.92-.2v-2.99c.57,.16,.98,.26,1.24,.29,.26,.04,.48,.05,.67,.05,.61,0,1.05-.1,1.34-.3,.29-.2,.53-.45,.72-.74,.06-.1,.28-.6,.66-1.49,.38-.9,.65-1.57,.82-2l-7.23-20.13h3.73l5.24,15.93,5.28-15.93Z"/><path d="M105.24,190.53v3.2h-9.04v23.63h-3.67v-23.63h-9.04v-3.2h21.75Z"/><path d="M106.78,190.53h3.34v3.73h-3.34v-3.73Zm0,7.36h3.34v19.47h-3.34v-19.47Z"/><path d="M115.09,197.8h3.25v2.78c.78-.96,1.48-1.66,2.12-2.1,1.08-.74,2.31-1.11,3.69-1.11,1.56,0,2.81,.38,3.76,1.15,.54,.44,1.02,1.08,1.46,1.94,.73-1.05,1.59-1.82,2.58-2.33,.99-.5,2.09-.76,3.32-.76,2.63,0,4.42,.95,5.37,2.85,.51,1.02,.77,2.4,.77,4.13v13.02h-3.42v-13.59c0-1.3-.33-2.2-.98-2.68-.65-.49-1.45-.73-2.38-.73-1.29,0-2.4,.43-3.33,1.3-.93,.86-1.4,2.31-1.4,4.33v11.38h-3.34v-12.76c0-1.33-.16-2.29-.47-2.9-.5-.91-1.43-1.37-2.79-1.37-1.24,0-2.37,.48-3.39,1.44-1.02,.96-1.52,2.7-1.52,5.22v10.37h-3.29v-19.56Z"/><path d="M158.32,198.34c1.29,.65,2.28,1.49,2.96,2.53,.65,.99,1.09,2.14,1.31,3.45,.19,.9,.29,2.34,.29,4.31h-14.22c.06,1.99,.53,3.59,1.39,4.79,.87,1.2,2.22,1.8,4.04,1.8,1.7,0,3.06-.57,4.08-1.71,.57-.66,.97-1.42,1.21-2.29h3.23c-.09,.72-.37,1.52-.85,2.4-.48,.88-1.02,1.6-1.61,2.16-.99,.97-2.22,1.63-3.68,1.97-.79,.19-1.67,.29-2.66,.29-2.42,0-4.47-.89-6.15-2.66-1.68-1.77-2.52-4.25-2.52-7.44s.85-5.69,2.54-7.65c1.69-1.96,3.91-2.94,6.64-2.94,1.38,0,2.72,.33,4.01,.98Zm1.18,7.68c-.13-1.42-.44-2.56-.92-3.42-.89-1.58-2.38-2.37-4.47-2.37-1.5,0-2.75,.54-3.77,1.63-1.01,1.09-1.55,2.47-1.61,4.15h10.77Z"/><path d="M166.18,205.25h9.17v3.38h-9.17v-3.38Z"/><path d="M177.94,214.34l16.5-20.62h-15.29v-3.2h19.98v3.12l-16.59,20.51h16.59v3.2h-21.18v-3.01Z"/><path d="M216.51,199.75c1.73,1.68,2.59,4.15,2.59,7.41s-.76,5.75-2.29,7.81c-1.52,2.06-3.89,3.08-7.09,3.08-2.67,0-4.79-.91-6.36-2.73s-2.36-4.26-2.36-7.33c0-3.28,.83-5.9,2.48-7.85,1.66-1.95,3.88-2.92,6.67-2.92,2.5,0,4.62,.84,6.35,2.52Zm-2.04,13c.8-1.65,1.2-3.48,1.2-5.5,0-1.82-.29-3.31-.87-4.45-.92-1.8-2.49-2.7-4.73-2.7-1.99,0-3.43,.77-4.33,2.3-.9,1.53-1.35,3.38-1.35,5.54s.45,3.81,1.35,5.2c.9,1.39,2.33,2.08,4.3,2.08,2.15,0,3.63-.82,4.43-2.47Z"/><path d="M223.14,197.8h3.12v2.78c.92-1.14,1.91-1.97,2.94-2.47,1.04-.5,2.19-.75,3.45-.75,2.78,0,4.65,.97,5.62,2.9,.54,1.06,.8,2.57,.8,4.55v12.55h-3.34v-12.33c0-1.19-.18-2.15-.53-2.89-.58-1.22-1.64-1.83-3.18-1.83-.78,0-1.42,.08-1.92,.24-.9,.27-1.69,.8-2.37,1.61-.55,.65-.9,1.31-1.07,2-.17,.69-.25,1.67-.25,2.95v10.24h-3.29v-19.56Z"/><path d="M256.02,198.34c1.29,.65,2.28,1.49,2.96,2.53,.65,.99,1.09,2.14,1.31,3.45,.19,.9,.29,2.34,.29,4.31h-14.22c.06,1.99,.53,3.59,1.39,4.79,.87,1.2,2.22,1.8,4.04,1.8,1.7,0,3.06-.57,4.08-1.71,.57-.66,.97-1.42,1.21-2.29h3.23c-.09,.72-.37,1.52-.85,2.4-.48,.88-1.02,1.6-1.61,2.16-.99,.97-2.22,1.63-3.68,1.97-.79,.19-1.67,.29-2.66,.29-2.42,0-4.47-.89-6.15-2.66-1.68-1.77-2.52-4.25-2.52-7.44s.85-5.69,2.54-7.65c1.69-1.96,3.91-2.94,6.64-2.94,1.38,0,2.72,.33,4.01,.98Zm1.18,7.68c-.13-1.42-.44-2.56-.92-3.42-.89-1.58-2.38-2.37-4.47-2.37-1.5,0-2.75,.54-3.77,1.63-1.01,1.09-1.55,2.47-1.61,4.15h10.77Z"/></g><g><path d="M146.68,53.5V31.61h-7.82v-3.56h19.56v3.56h-7.82v21.89h-3.93Z"/><path d="M162.1,53.5V28.05h3.75v10.07h.58c.24-.46,.59-.91,1.04-1.35,.45-.44,1.04-.79,1.78-1.07,.74-.28,1.68-.42,2.82-.42,1.36,0,2.56,.3,3.62,.91,1.05,.61,1.88,1.46,2.49,2.56s.91,2.43,.91,3.98v10.76h-3.75v-10.47c0-1.55-.39-2.7-1.16-3.44-.78-.74-1.84-1.11-3.2-1.11-1.55,0-2.79,.51-3.73,1.53-.93,1.02-1.4,2.5-1.4,4.44v9.05h-3.75Z"/><path d="M192.68,54.01c-1.82,0-3.41-.38-4.76-1.15s-2.42-1.84-3.18-3.24-1.15-3.01-1.15-4.85v-.44c0-1.87,.38-3.5,1.13-4.89,.75-1.39,1.8-2.47,3.14-3.24s2.9-1.15,4.67-1.15,3.23,.38,4.53,1.15,2.31,1.82,3.04,3.18c.73,1.36,1.09,2.95,1.09,4.76v1.42h-13.78c.05,1.58,.58,2.83,1.58,3.76,1.01,.93,2.26,1.4,3.76,1.4,1.41,0,2.47-.31,3.18-.95,.71-.63,1.27-1.36,1.65-2.18l3.09,1.6c-.34,.68-.83,1.39-1.47,2.15-.64,.75-1.49,1.38-2.53,1.89-1.04,.51-2.38,.76-4,.76Zm-5.24-11.31h9.93c-.1-1.36-.58-2.42-1.46-3.18s-2.01-1.15-3.42-1.15-2.55,.38-3.44,1.15-1.42,1.82-1.62,3.18Z"/></g></svg>