<svg width="260" height="174" xmlns="http://www.w3.org/2000/svg" viewBox="0 0 260 174"><path d="M49.5 83.2l3.8 15.4 3.8-15.4h3.7l3.8 15.3 4-15.3h3.3l-5.7 19.6h-3.4l-4-15.1-3.9 15.1h-3.4l-5.6-19.6h3.6zM75 75.9h3.3v10c.8-1 1.5-1.7 2.1-2.1 1.1-.7 2.4-1 4-1 2.8 0 4.8 1 5.8 3 .5 1.1.8 2.6.8 4.5v12.5h-3.4V90.5c0-1.4-.2-2.5-.5-3.2-.6-1.1-1.7-1.6-3.4-1.6-1.4 0-2.6.5-3.7 1.4-1.1.9-1.7 2.7-1.7 5.3v10.4H75V75.9zm34.9 9.3c1.7 1.7 2.6 4.1 2.6 7.4 0 3.2-.8 5.8-2.3 7.8-1.5 2.1-3.9 3.1-7.1 3.1-2.7 0-4.8-.9-6.4-2.7-1.6-1.8-2.4-4.3-2.4-7.3 0-3.3.8-5.9 2.5-7.8 1.7-1.9 3.9-2.9 6.7-2.9 2.6-.1 4.7.7 6.4 2.4zm-2 13c.8-1.6 1.2-3.5 1.2-5.5 0-1.8-.3-3.3-.9-4.5-.9-1.8-2.5-2.7-4.7-2.7-2 0-3.4.8-4.3 2.3-.9 1.5-1.4 3.4-1.4 5.5s.5 3.8 1.4 5.2c.9 1.4 2.3 2.1 4.3 2.1 2.1 0 3.6-.8 4.4-2.4zm20.6-20.9c.8-1.1 2.2-1.7 4.4-1.7h.6c.2 0 .5 0 .7.1v3h-1.1c-1 0-1.6.3-1.8.8-.2.5-.3 1.8-.3 4h3.3v2.6H131V103h-3.3V85.9H125v-2.6h2.7v-3.1c.1-1.3.4-2.3.8-2.9zm20.9 6.5c1.3.7 2.3 1.5 3 2.5.7 1 1.1 2.1 1.3 3.5.2.9.3 2.3.3 4.3h-14.2c.1 2 .5 3.6 1.4 4.8.9 1.2 2.2 1.8 4 1.8 1.7 0 3.1-.6 4.1-1.7.6-.7 1-1.4 1.2-2.3h3.2c-.1.7-.4 1.5-.8 2.4s-1 1.6-1.6 2.2c-1 1-2.2 1.6-3.7 2-.8.2-1.7.3-2.7.3-2.4 0-4.5-.9-6.2-2.7-1.7-1.8-2.5-4.3-2.5-7.4 0-3.1.8-5.7 2.5-7.7s3.9-2.9 6.6-2.9c1.5-.1 2.8.2 4.1.9zm1.2 7.6c-.1-1.4-.4-2.6-.9-3.4-.9-1.6-2.4-2.4-4.5-2.4-1.5 0-2.8.5-3.8 1.6s-1.6 2.5-1.6 4.2h10.8zm7.6-15.4h3.3v26.8h-3.3V76zm8.3 0h3.3v26.8h-3.3V76zm18.7 0h3.3v3.7h-3.3V76zm0 7.3h3.3v19.5h-3.3V83.3zm8.3-.1h3.1V86c.9-1.1 1.9-2 2.9-2.5s2.2-.7 3.5-.7c2.8 0 4.6 1 5.6 2.9.5 1.1.8 2.6.8 4.5v12.5h-3.3V90.5c0-1.2-.2-2.2-.5-2.9-.6-1.2-1.6-1.8-3.2-1.8-.8 0-1.4.1-1.9.2-.9.3-1.7.8-2.4 1.6-.5.6-.9 1.3-1.1 2-.2.7-.2 1.7-.2 2.9v10.2h-3.3V83.2zM58.4 111h3.3v26.8h-3.3V111zm22.4 9.2c1.7 1.7 2.6 4.1 2.6 7.4 0 3.2-.8 5.8-2.3 7.8-1.5 2.1-3.9 3.1-7.1 3.1-2.7 0-4.8-.9-6.4-2.7-1.6-1.8-2.4-4.3-2.4-7.3 0-3.3.8-5.9 2.5-7.8 1.7-1.9 3.9-2.9 6.7-2.9 2.6-.1 4.7.7 6.4 2.4zm-2 13c.8-1.6 1.2-3.5 1.2-5.5 0-1.8-.3-3.3-.9-4.5-.9-1.8-2.5-2.7-4.7-2.7-2 0-3.4.8-4.3 2.3-.9 1.5-1.4 3.4-1.4 5.5s.5 3.8 1.4 5.2c.9 1.4 2.3 2.1 4.3 2.1 2.1.1 3.6-.8 4.4-2.4zm10.3-15l5.2 15.9 5.4-15.9h3.6L96 137.8h-3.5l-7.2-19.6h3.8zm29.1.6c1.3.7 2.3 1.5 3 2.5.7 1 1.1 2.1 1.3 3.5.2.9.3 2.3.3 4.3h-14.2c.1 2 .5 3.6 1.4 4.8.9 1.2 2.2 1.8 4 1.8 1.7 0 3.1-.6 4.1-1.7.6-.7 1-1.4 1.2-2.3h3.2c-.1.7-.4 1.5-.8 2.4s-1 1.6-1.6 2.2c-1 1-2.2 1.6-3.7 2-.8.2-1.7.3-2.7.3-2.4 0-4.5-.9-6.2-2.7s-2.5-4.3-2.5-7.4c0-3.1.8-5.7 2.5-7.7s3.9-2.9 6.6-2.9c1.5-.1 2.8.2 4.1.9zm1.2 7.6c-.1-1.4-.4-2.6-.9-3.4-.9-1.6-2.4-2.4-4.5-2.4-1.5 0-2.8.5-3.8 1.6s-1.6 2.5-1.6 4.2h10.8zm19.5-8.2l3.8 15.4 3.8-15.4h3.7l3.8 15.3 4-15.3h3.3l-5.7 19.6h-3.4l-4-15.1-3.9 15.1h-3.4l-5.6-19.6h3.6zm25.5-7.2h3.3v3.7h-3.3V111zm0 7.3h3.3v19.5h-3.3v-19.5zm8.9-5.5h3.3v5.5h3.1v2.7h-3.1v12.8c0 .7.2 1.1.7 1.4.3.1.7.2 1.3.2h.5c.2 0 .4 0 .6-.1v2.6c-.4.1-.8.2-1.2.2s-.8.1-1.3.1c-1.5 0-2.6-.4-3.1-1.2s-.8-1.8-.8-3.1V121h-2.6v-2.7h2.6v-5.5zm9.8-1.9h3.3v10c.8-1 1.5-1.7 2.1-2.1 1.1-.7 2.4-1 4-1 2.8 0 4.8 1 5.8 3 .5 1.1.8 2.6.8 4.5v12.5h-3.4v-12.3c0-1.4-.2-2.5-.5-3.2-.6-1.1-1.7-1.6-3.4-1.6-1.4 0-2.6.5-3.7 1.4-1.1.9-1.7 2.7-1.7 5.3v10.4h-3.3v-26.9zM80.3 146h3.3v26.8h-3.3V146zm20.3 7.8c1.3.7 2.3 1.5 3 2.5.7 1 1.1 2.1 1.3 3.5.2.9.3 2.3.3 4.3H90.9c.1 2 .5 3.6 1.4 4.8.9 1.2 2.2 1.8 4 1.8 1.7 0 3.1-.6 4.1-1.7.6-.7 1-1.4 1.2-2.3h3.2c-.1.7-.4 1.5-.8 2.4s-1 1.6-1.6 2.2c-1 1-2.2 1.6-3.7 2-.8.2-1.7.3-2.7.3-2.4 0-4.5-.9-6.2-2.7s-2.5-4.3-2.5-7.4c0-3.1.8-5.7 2.5-7.7s3.9-2.9 6.6-2.9c1.5-.1 2.9.2 4.2.9zm1.2 7.7c-.1-1.4-.4-2.6-.9-3.4-.9-1.6-2.4-2.4-4.5-2.4-1.5 0-2.8.5-3.8 1.6s-1.6 2.5-1.6 4.2h10.8zm8.2-13.7h3.3v5.5h3.1v2.7h-3.1v12.8c0 .7.2 1.1.7 1.4.3.1.7.2 1.3.2h.5c.2 0 .4 0 .6-.1v2.6c-.4.1-.8.2-1.2.2s-.8.1-1.3.1c-1.5 0-2.6-.4-3.1-1.2s-.8-1.8-.8-3.1V156h-2.6v-2.7h2.6v-5.5zm10.3 0h3.3v5.5h3.1v2.7h-3.1v12.8c0 .7.2 1.1.7 1.4.3.1.7.2 1.3.2h.5c.2 0 .4 0 .6-.1v2.6c-.4.1-.8.2-1.2.2s-.8.1-1.3.1c-1.5 0-2.6-.4-3.1-1.2s-.8-1.8-.8-3.1V156h-2.6v-2.7h2.6v-5.5zm21.9 6c1.3.7 2.3 1.5 3 2.5.7 1 1.1 2.1 1.3 3.5.2.9.3 2.3.3 4.3h-14.2c.1 2 .5 3.6 1.4 4.8.9 1.2 2.2 1.8 4 1.8 1.7 0 3.1-.6 4.1-1.7.6-.7 1-1.4 1.2-2.3h3.2c-.1.7-.4 1.5-.8 2.4s-1 1.6-1.6 2.2c-1 1-2.2 1.6-3.7 2-.8.2-1.7.3-2.7.3-2.4 0-4.5-.9-6.2-2.7-1.7-1.8-2.5-4.3-2.5-7.4 0-3.1.8-5.7 2.5-7.7s3.9-2.9 6.6-2.9c1.4-.1 2.8.2 4.1.9zm1.1 7.7c-.1-1.4-.4-2.6-.9-3.4-.9-1.6-2.4-2.4-4.5-2.4-1.5 0-2.8.5-3.8 1.6s-1.6 2.5-1.6 4.2h10.8zm7.7-8.3h3.1v3.4c.3-.7.9-1.5 1.9-2.4s2.1-1.4 3.5-1.4h.3c.1 0 .4 0 .7.1v3.5c-.2 0-.4-.1-.5-.1h-.5c-1.7 0-2.9.5-3.8 1.6-.9 1.1-1.3 2.3-1.3 3.7v11.2H151v-19.6zm14.3 13.5c.1 1.1.4 1.9.8 2.5.8 1.1 2.3 1.6 4.4 1.6 1.2 0 2.3-.3 3.3-.8s1.4-1.3 1.4-2.5c0-.8-.4-1.5-1.1-1.9-.5-.3-1.4-.6-2.9-.9l-2.7-.7c-1.7-.4-2.9-.9-3.7-1.4-1.4-.9-2.2-2.1-2.2-3.7 0-1.8.7-3.3 2-4.5 1.4-1.1 3.2-1.7 5.5-1.7 3 0 5.1.9 6.5 2.6.8 1.1 1.2 2.3 1.2 3.5h-3.1c-.1-.7-.3-1.4-.8-2-.8-.9-2.1-1.3-4-1.3-1.3 0-2.2.2-2.9.7-.7.5-1 1.1-1 1.9 0 .8.4 1.5 1.3 2 .5.3 1.2.6 2.2.8l2.2.5c2.4.6 4 1.1 4.8 1.7 1.3.8 1.9 2.2 1.9 4 0 1.7-.7 3.2-2 4.5-1.3 1.3-3.4 1.9-6.1 1.9-2.9 0-5-.7-6.3-2-1.2-1.3-1.9-3-2-4.9h3.3zM112.7.2H90.1v7.2h.4s.2-1.8 1.1-3.4C92.7 1.9 94.4.8 96.7.6v22.2c0 4-2.3 4-2.4 4v.4h14v-.4s-.6 0-1.2-.5c-.8-.7-1.2-1.9-1.2-3.6V.6c2.4 0 4.2 1.2 5.3 3.4.9 1.7 1.1 3.4 1.1 3.4h.4V.2zm22 22.6v-9.5c0-4-2-6-5.8-6-.6 0-5-.3-6.2 5.5V0l-.3.2c-3.2 2-9.2 2.6-9.3 2.6v.4s.6 0 1.1.4c.4.4.7 1.1.7 2.1v17c0 4-1.5 4.1-1.6 4.1v.4h11v-.4s-1.6-.1-1.6-4.1v-4.9c0-8 4.2-12.1 4.2-4.6v9.5c0 4-1.5 4.1-1.5 4.1v.4h10.9v-.4c0 .1-1.6 0-1.6-4zm22.3-2.6h-.4c-.2 2.9-2.4 4.9-5.1 4.9-2.7 0-4.3-2.4-5-4.4 3.1-.1 5.6-.9 7.5-2.3 1.7-1.3 2.6-3.1 2.6-5 0-3.4-3.1-6.2-7.6-6.1-7.3.1-11.1 4.1-11.1 10.3 0 5.3 3.7 10.1 10 10.1 4.7 0 9.1-2.7 9.1-7.5zm-11.5-5.3c0-3.6 1.1-7.1 3.4-7.2 1.8 0 1.9 3.5 1.9 4.2 0 2-.4 4-1.2 5.6-.6 1.2-1.6 2.6-3.2 2.7-.7-1.5-.9-3.4-.9-5.3zM11.6 33.8H0v.4s.6 0 1.2.5c.8.6 1.2 1.9 1.2 3.6v18.2c0 4-2.3 4-2.4 4v.5h11.6C23.1 61 29 56.6 29 47.4s-6-13.6-17.4-13.6zm0 26.7V34.2c3.6 0 8.2 2.5 8.2 13.1 0 12.6-6.4 13.2-8.2 13.2zm33.2-10.2c8.8 0 9.2-9.4 2-9.4-2.2 0-3.8.7-4.8 2.1-.7 1-1.2 2-1.5 3.2v-5.5l-.2.3c-3 2.3-9.2 2.6-9.3 2.6v.4s.6-.1 1.1.4c.4.4.7 1.2.7 2.1v9.9c0 4-1.5 4-1.6 4v.6h11v-.4s-1.6-.1-1.6-4v-5.4c0-5.6 1.7-8.3 3.4-8.2 3.1-.1 2.9 6.1.8 7.3zm27.4 3.5h-.4c-.2 2.9-2.4 4.9-5.1 4.9-2.7 0-4.3-2.4-5-4.4 3.1-.1 5.6-.9 7.5-2.3 1.7-1.3 2.6-3.1 2.6-5 0-3.4-3.1-6.2-7.6-6.1C56.8 41 53 45 53 51.2c0 5.3 3.7 10.1 10 10.1 4.8 0 9.2-2.7 9.2-7.5zm-11.6-5.3c0-3.6 1.1-7.1 3.4-7.2 1.8 0 1.9 3.5 1.9 4.2 0 2-.4 4-1.2 5.6-.6 1.2-1.6 2.6-3.2 2.7-.6-1.5-.9-3.4-.9-5.3zm33.7 10.2v-.3l-.3.1c-.9.4-1.4-.2-1.4-1.6v-3.6c0-4.6-.8-7.6-2.4-9.4-3.3-3.8-13.6-4.4-15.5.6-.6 1.7-.2 3.5 1.1 4.6 1.9 1.6 4.8.8 5.3-.4-1.2 0-2.2-1.8-2.2-4.2 0-4.8 5.5-4.2 5.5 2 0 2.3-3 3.7-5.8 4.8-2.8 1.1-5.8 2.2-5.8 5.3 0 1.6.6 2.8 1.7 3.7.9.8 2.3 1.2 3.7 1.2 1.7 0 3.4-.6 4.6-1.5.8-.6 1.5-1.4 1.8-2.3.2 1.1.7 2 1.7 2.7.9.6 2.2 1 3.6 1 2.2-.2 4.4-1.1 4.4-2.7zm-9.5-3.1c0 .9-.6 1.5-1.8 1.5-1.2 0-2.4-.7-2.4-2 0-1.5.9-2.6 1.9-3.7.8-1 1.7-2 2.1-3.4.1 1.3.2 5.2.2 7.6zm43.5.8v-9.5c0-4-2-6-5.8-6-.6 0-4.9-.3-6.3 5.4-.2-3.6-2.1-5.4-5.8-5.4-2.3 0-5.1.8-6.2 5.3v-5.5l-.3.2c-3.2 2-9.2 2.6-9.3 2.7v.4s.6 0 1.1.4c.4.4.7 1.1.7 2.1v9.9c0 4-1.5 4.1-1.6 4.1v.5h11v-.4s-1.6-.1-1.6-4.1v-5.4c0-6.5 4.2-12.3 4.2-4.2v9.5c0 4-1.5 4.1-1.5 4.1v.5h10.9v-.4s-1.5-.1-1.5-4.1v-5.4c0-6.2 4.2-12.4 4.2-4.2v9.5c0 4-1.5 4.1-1.5 4.1v.5h10.9v-.4c0-.1-1.6-.2-1.6-4.2zm22.3-2.6h-.4c-.2 2.9-2.4 4.9-5.1 4.9-2.7 0-4.3-2.4-5-4.4 3.1-.1 5.6-.9 7.5-2.3 1.7-1.3 2.6-3.1 2.6-5 0-3.4-3.1-6.2-7.6-6.1-7.3.1-11.1 4.1-11.1 10.3 0 5.3 3.7 10.1 10 10.1 4.6 0 9.1-2.7 9.1-7.5zM139 48.5c0-3.6 1.1-7.1 3.4-7.2 1.8 0 1.9 3.5 1.9 4.2 0 2-.4 4-1.2 5.6-.6 1.2-1.6 2.6-3.2 2.7-.6-1.5-.9-3.4-.9-5.3zm27.1 1.8c8.8 0 9.2-9.4 2-9.4-2.2 0-3.8.7-4.8 2.1-.7 1-1.2 2-1.5 3.2v-5.5l-.3.2c-3 2.3-9.2 2.6-9.3 2.6v.4s.6-.1 1.1.4c.4.4.7 1.2.7 2.1v9.9c0 4-1.5 4-1.6 4v.7h11v-.4s-1.6-.1-1.6-4v-5.4c0-5.6 1.7-8.3 3.4-8.2 3.2-.1 2.9 6.1.9 7.3zm46.6-2.1h-11.1l.4.4c3.2 3.3 2 12.3-1.1 12.3-2.2 0-5.9-2.6-5.9-13.5 0-3.2.5-13.5 5.9-13.5 6 0 6.3 8.6 4.6 10.8 10.2 0 8.1-11.2-4.6-11.2-8 0-15.1 6.2-15.1 13.9 0 7.5 7 14 15.1 14 2.5 0 4.1-1.3 6.8-1.3 3.5 0 4.1 1.1 4.1 1.1l.3-.3c0-.1-2.3-6.5.6-12.7zm7.3-7c2.4 0 4.4-1.7 4.4-3.8 0-2.2-2-3.9-4.4-3.9s-4.4 1.7-4.4 3.9c-.1 2.1 1.9 3.8 4.4 3.8zm4 15.2V40.8l-.3.2c-3.2 2-9.2 2.6-9.3 2.7v.4s.6 0 1.1.4c.4.4.7 1.1.7 2.1v9.9c0 4-1.5 4.1-1.6 4.1v.4h11v-.4c-.1-.1-1.6-.2-1.6-4.2zm16.9-6.1c8.8 0 9.2-9.4 2-9.4-2.2 0-3.8.7-4.8 2.1-.7 1-1.2 2-1.5 3.2v-5.5l-.3.2c-3 2.3-9.2 2.6-9.3 2.6v.4s.6-.1 1.1.4c.4.4.7 1.2.7 2.1v9.9c0 4-1.5 4-1.6 4v.7h11v-.4s-1.6-.1-1.6-4v-5.4c0-5.6 1.7-8.3 3.4-8.2 3.2-.1 3 6.1.9 7.3z"/><path d="M258.3 56.4V33.6l-.3.2c-3.2 2-9.2 2.6-9.3 2.6v.4s.6 0 1 .4c.5.4.7 1.2.7 2.1v17c0 4-1.5 4.1-1.6 4.1v.6h11v-.4c0-.1-1.5-.2-1.5-4.2z"/></svg>