<svg width="265" height="157" viewBox="0 0 265 157" fill="none" xmlns="http://www.w3.org/2000/svg">
<g clip-path="url(#clip0_227_12)">
<path d="M36.9943 109.04H42.8403C43.2349 109.04 43.7283 109.015 44.3203 108.966C44.9123 108.892 45.5413 108.744 46.2073 108.522C46.8733 108.275 47.5269 107.93 48.1683 107.486C48.8343 107.042 49.4263 106.438 49.9443 105.673C50.4623 104.908 50.8816 103.959 51.2023 102.824C51.5476 101.665 51.7203 100.271 51.7203 98.643C51.7203 97.0643 51.5599 95.6583 51.2393 94.425C50.9433 93.167 50.4376 92.1063 49.7223 91.243C49.0316 90.355 48.1313 89.689 47.0213 89.245C45.9113 88.7763 44.5423 88.542 42.9143 88.542H36.9943V109.04ZM33.4793 85.582H42.5443C46.6143 85.582 49.7469 86.618 51.9423 88.69C54.1376 90.762 55.2353 93.9193 55.2353 98.162C55.2353 100.382 54.9886 102.355 54.4953 104.082C54.0019 105.784 53.2373 107.227 52.2013 108.411C51.1653 109.57 49.8456 110.458 48.2423 111.075C46.6389 111.692 44.7396 112 42.5443 112H33.4793V85.582ZM62.343 89.43H59.198V85.582H62.343V89.43ZM59.198 92.871H62.343V112H59.198V92.871ZM69.1392 105.969C69.1638 106.66 69.3242 107.252 69.6202 107.745C69.9162 108.214 70.2985 108.596 70.7672 108.892C71.2605 109.163 71.8032 109.361 72.3952 109.484C73.0118 109.607 73.6408 109.669 74.2822 109.669C74.7755 109.669 75.2935 109.632 75.8362 109.558C76.3788 109.484 76.8722 109.348 77.3162 109.151C77.7848 108.954 78.1672 108.67 78.4632 108.3C78.7592 107.905 78.9072 107.412 78.9072 106.82C78.9072 106.006 78.5988 105.389 77.9822 104.97C77.3655 104.551 76.5885 104.218 75.6512 103.971C74.7385 103.7 73.7395 103.465 72.6542 103.268C71.5688 103.046 70.5575 102.75 69.6202 102.38C68.7075 101.985 67.9428 101.443 67.3262 100.752C66.7095 100.061 66.4012 99.0993 66.4012 97.866C66.4012 96.904 66.6108 96.0777 67.0302 95.387C67.4742 94.6963 68.0292 94.1413 68.6952 93.722C69.3858 93.278 70.1505 92.9573 70.9892 92.76C71.8525 92.538 72.7035 92.427 73.5422 92.427C74.6275 92.427 75.6265 92.5257 76.5392 92.723C77.4518 92.8957 78.2535 93.2163 78.9442 93.685C79.6595 94.129 80.2268 94.7457 80.6462 95.535C81.0655 96.2997 81.3122 97.2617 81.3862 98.421H78.2412C78.1918 97.8043 78.0315 97.2987 77.7602 96.904C77.4888 96.4847 77.1435 96.1517 76.7242 95.905C76.3048 95.6583 75.8362 95.4857 75.3182 95.387C74.8248 95.2637 74.3192 95.202 73.8012 95.202C73.3325 95.202 72.8515 95.239 72.3582 95.313C71.8895 95.387 71.4578 95.5227 71.0632 95.72C70.6685 95.8927 70.3478 96.1393 70.1012 96.46C69.8545 96.756 69.7312 97.1507 69.7312 97.644C69.7312 98.1867 69.9162 98.643 70.2862 99.013C70.6808 99.3583 71.1742 99.6543 71.7662 99.901C72.3582 100.123 73.0242 100.32 73.7642 100.493C74.5042 100.641 75.2442 100.801 75.9842 100.974C76.7735 101.147 77.5382 101.356 78.2782 101.603C79.0428 101.85 79.7088 102.183 80.2762 102.602C80.8682 102.997 81.3368 103.502 81.6822 104.119C82.0522 104.736 82.2372 105.5 82.2372 106.413C82.2372 107.572 81.9905 108.534 81.4972 109.299C81.0285 110.064 80.3995 110.68 79.6102 111.149C78.8455 111.618 77.9698 111.938 76.9832 112.111C76.0212 112.308 75.0592 112.407 74.0972 112.407C73.0365 112.407 72.0252 112.296 71.0632 112.074C70.1012 111.852 69.2502 111.494 68.5102 111.001C67.7702 110.483 67.1782 109.817 66.7342 109.003C66.2902 108.164 66.0435 107.153 65.9942 105.969H69.1392ZM87.6392 105.969C87.6638 106.66 87.8242 107.252 88.1202 107.745C88.4162 108.214 88.7985 108.596 89.2672 108.892C89.7605 109.163 90.3032 109.361 90.8952 109.484C91.5118 109.607 92.1408 109.669 92.7822 109.669C93.2755 109.669 93.7935 109.632 94.3362 109.558C94.8788 109.484 95.3722 109.348 95.8162 109.151C96.2848 108.954 96.6672 108.67 96.9632 108.3C97.2592 107.905 97.4072 107.412 97.4072 106.82C97.4072 106.006 97.0988 105.389 96.4822 104.97C95.8655 104.551 95.0885 104.218 94.1512 103.971C93.2385 103.7 92.2395 103.465 91.1542 103.268C90.0688 103.046 89.0575 102.75 88.1202 102.38C87.2075 101.985 86.4428 101.443 85.8262 100.752C85.2095 100.061 84.9012 99.0993 84.9012 97.866C84.9012 96.904 85.1108 96.0777 85.5302 95.387C85.9742 94.6963 86.5292 94.1413 87.1952 93.722C87.8858 93.278 88.6505 92.9573 89.4892 92.76C90.3525 92.538 91.2035 92.427 92.0422 92.427C93.1275 92.427 94.1265 92.5257 95.0392 92.723C95.9518 92.8957 96.7535 93.2163 97.4442 93.685C98.1595 94.129 98.7268 94.7457 99.1462 95.535C99.5655 96.2997 99.8122 97.2617 99.8862 98.421H96.7412C96.6918 97.8043 96.5315 97.2987 96.2602 96.904C95.9888 96.4847 95.6435 96.1517 95.2242 95.905C94.8048 95.6583 94.3362 95.4857 93.8182 95.387C93.3248 95.2637 92.8192 95.202 92.3012 95.202C91.8325 95.202 91.3515 95.239 90.8582 95.313C90.3895 95.387 89.9578 95.5227 89.5632 95.72C89.1685 95.8927 88.8478 96.1393 88.6012 96.46C88.3545 96.756 88.2312 97.1507 88.2312 97.644C88.2312 98.1867 88.4162 98.643 88.7862 99.013C89.1808 99.3583 89.6742 99.6543 90.2662 99.901C90.8582 100.123 91.5242 100.32 92.2642 100.493C93.0042 100.641 93.7442 100.801 94.4842 100.974C95.2735 101.147 96.0382 101.356 96.7782 101.603C97.5428 101.85 98.2088 102.183 98.7762 102.602C99.3682 102.997 99.8368 103.502 100.182 104.119C100.552 104.736 100.737 105.5 100.737 106.413C100.737 107.572 100.491 108.534 99.9972 109.299C99.5285 110.064 98.8995 110.68 98.1102 111.149C97.3455 111.618 96.4698 111.938 95.4832 112.111C94.5212 112.308 93.5592 112.407 92.5972 112.407C91.5365 112.407 90.5252 112.296 89.5632 112.074C88.6012 111.852 87.7502 111.494 87.0102 111.001C86.2702 110.483 85.6782 109.817 85.2342 109.003C84.7902 108.164 84.5435 107.153 84.4942 105.969H87.6392ZM117.498 100.604C117.449 99.864 117.276 99.161 116.98 98.495C116.709 97.829 116.327 97.2617 115.833 96.793C115.365 96.2997 114.797 95.9173 114.131 95.646C113.49 95.35 112.775 95.202 111.985 95.202C111.171 95.202 110.431 95.35 109.765 95.646C109.124 95.9173 108.569 96.2997 108.1 96.793C107.632 97.2863 107.262 97.866 106.99 98.532C106.719 99.1733 106.559 99.864 106.509 100.604H117.498ZM120.532 105.932C120.113 108.078 119.188 109.694 117.757 110.779C116.327 111.864 114.526 112.407 112.355 112.407C110.826 112.407 109.494 112.16 108.359 111.667C107.249 111.174 106.312 110.483 105.547 109.595C104.783 108.707 104.203 107.646 103.808 106.413C103.438 105.18 103.229 103.835 103.179 102.38C103.179 100.925 103.401 99.5927 103.845 98.384C104.289 97.1753 104.906 96.127 105.695 95.239C106.509 94.351 107.459 93.6603 108.544 93.167C109.654 92.6737 110.863 92.427 112.17 92.427C113.872 92.427 115.278 92.7847 116.388 93.5C117.523 94.1907 118.423 95.0787 119.089 96.164C119.78 97.2493 120.249 98.4333 120.495 99.716C120.767 100.999 120.878 102.22 120.828 103.379H106.509C106.485 104.218 106.583 105.019 106.805 105.784C107.027 106.524 107.385 107.19 107.878 107.782C108.372 108.349 109.001 108.806 109.765 109.151C110.53 109.496 111.43 109.669 112.466 109.669C113.798 109.669 114.884 109.361 115.722 108.744C116.586 108.127 117.153 107.19 117.424 105.932H120.532ZM124.088 92.871H127.048V95.683H127.122C128.553 93.5123 130.613 92.427 133.301 92.427C134.485 92.427 135.558 92.6737 136.52 93.167C137.482 93.6603 138.161 94.499 138.555 95.683C139.197 94.647 140.035 93.8453 141.071 93.278C142.132 92.7107 143.291 92.427 144.549 92.427C145.511 92.427 146.375 92.538 147.139 92.76C147.929 92.9573 148.595 93.278 149.137 93.722C149.705 94.166 150.136 94.7457 150.432 95.461C150.753 96.1517 150.913 96.9903 150.913 97.977V112H147.768V99.457C147.768 98.865 147.719 98.31 147.62 97.792C147.522 97.274 147.337 96.83 147.065 96.46C146.794 96.0653 146.412 95.757 145.918 95.535C145.45 95.313 144.833 95.202 144.068 95.202C142.514 95.202 141.293 95.646 140.405 96.534C139.517 97.422 139.073 98.606 139.073 100.086V112H135.928V99.457C135.928 98.8403 135.867 98.273 135.743 97.755C135.645 97.237 135.46 96.793 135.188 96.423C134.917 96.0283 134.547 95.7323 134.078 95.535C133.634 95.313 133.055 95.202 132.339 95.202C131.427 95.202 130.637 95.387 129.971 95.757C129.33 96.127 128.8 96.571 128.38 97.089C127.986 97.607 127.69 98.1497 127.492 98.717C127.32 99.2597 127.233 99.716 127.233 100.086V112H124.088V92.871ZM155.743 85.582H158.888V95.461H158.962C159.48 94.4003 160.294 93.6357 161.404 93.167C162.514 92.6737 163.735 92.427 165.067 92.427C166.547 92.427 167.83 92.6983 168.915 93.241C170.025 93.7837 170.938 94.5237 171.653 95.461C172.393 96.3737 172.948 97.4343 173.318 98.643C173.688 99.8517 173.873 101.134 173.873 102.491C173.873 103.848 173.688 105.13 173.318 106.339C172.973 107.548 172.43 108.608 171.69 109.521C170.975 110.409 170.062 111.112 168.952 111.63C167.867 112.148 166.596 112.407 165.141 112.407C164.672 112.407 164.142 112.358 163.55 112.259C162.983 112.16 162.415 112 161.848 111.778C161.281 111.556 160.738 111.26 160.22 110.89C159.727 110.495 159.307 110.014 158.962 109.447H158.888V112H155.743V85.582ZM170.543 102.269C170.543 101.381 170.42 100.518 170.173 99.679C169.951 98.8157 169.593 98.051 169.1 97.385C168.631 96.719 168.015 96.1887 167.25 95.794C166.51 95.3993 165.634 95.202 164.623 95.202C163.562 95.202 162.662 95.4117 161.922 95.831C161.182 96.2503 160.578 96.8053 160.109 97.496C159.64 98.162 159.295 98.9267 159.073 99.79C158.876 100.653 158.777 101.529 158.777 102.417C158.777 103.354 158.888 104.267 159.11 105.155C159.332 106.018 159.677 106.783 160.146 107.449C160.639 108.115 161.268 108.658 162.033 109.077C162.798 109.472 163.723 109.669 164.808 109.669C165.893 109.669 166.794 109.459 167.509 109.04C168.249 108.621 168.841 108.066 169.285 107.375C169.729 106.684 170.05 105.895 170.247 105.007C170.444 104.119 170.543 103.206 170.543 102.269ZM177.75 85.582H180.895V112H177.75V85.582ZM189.097 89.43H185.952V85.582H189.097V89.43ZM185.952 92.871H189.097V112H185.952V92.871ZM193.969 92.871H196.929V95.905H197.003C198.31 93.5863 200.382 92.427 203.219 92.427C204.477 92.427 205.525 92.5997 206.364 92.945C207.203 93.2903 207.881 93.7713 208.399 94.388C208.917 95.0047 209.275 95.7447 209.472 96.608C209.694 97.4467 209.805 98.384 209.805 99.42V112H206.66V99.05C206.66 97.866 206.315 96.9287 205.624 96.238C204.933 95.5473 203.984 95.202 202.775 95.202C201.813 95.202 200.974 95.35 200.259 95.646C199.568 95.942 198.989 96.3613 198.52 96.904C198.051 97.4467 197.694 98.088 197.447 98.828C197.225 99.5433 197.114 100.333 197.114 101.196V112H193.969V92.871ZM231.031 110.372C231.031 113.505 230.315 115.848 228.885 117.402C227.454 118.956 225.209 119.733 222.151 119.733C221.263 119.733 220.35 119.634 219.413 119.437C218.5 119.24 217.661 118.919 216.897 118.475C216.157 118.031 215.54 117.451 215.047 116.736C214.553 116.021 214.282 115.145 214.233 114.109H217.378C217.402 114.676 217.575 115.157 217.896 115.552C218.241 115.947 218.648 116.267 219.117 116.514C219.61 116.761 220.14 116.933 220.708 117.032C221.275 117.155 221.818 117.217 222.336 117.217C223.372 117.217 224.247 117.032 224.963 116.662C225.678 116.317 226.27 115.823 226.739 115.182C227.207 114.565 227.54 113.813 227.738 112.925C227.96 112.037 228.071 111.063 228.071 110.002V108.744H227.997C227.454 109.928 226.628 110.804 225.518 111.371C224.432 111.914 223.273 112.185 222.04 112.185C220.609 112.185 219.363 111.926 218.303 111.408C217.242 110.89 216.354 110.199 215.639 109.336C214.923 108.448 214.381 107.424 214.011 106.265C213.665 105.081 213.493 103.835 213.493 102.528C213.493 101.393 213.641 100.234 213.937 99.05C214.233 97.8413 214.726 96.756 215.417 95.794C216.107 94.8073 217.02 94.0057 218.155 93.389C219.289 92.7477 220.683 92.427 222.336 92.427C223.544 92.427 224.654 92.6983 225.666 93.241C226.677 93.759 227.466 94.5483 228.034 95.609H228.071V92.871H231.031V110.372ZM222.225 109.447C223.261 109.447 224.136 109.237 224.852 108.818C225.592 108.374 226.184 107.807 226.628 107.116C227.072 106.401 227.392 105.599 227.59 104.711C227.812 103.823 227.923 102.935 227.923 102.047C227.923 101.208 227.824 100.382 227.627 99.568C227.429 98.754 227.109 98.0263 226.665 97.385C226.245 96.719 225.69 96.1887 225 95.794C224.309 95.3993 223.47 95.202 222.484 95.202C221.472 95.202 220.609 95.3993 219.894 95.794C219.178 96.164 218.586 96.6697 218.118 97.311C217.674 97.9523 217.341 98.6923 217.119 99.531C216.921 100.37 216.823 101.245 216.823 102.158C216.823 103.021 216.909 103.885 217.082 104.748C217.254 105.611 217.55 106.401 217.97 107.116C218.389 107.807 218.944 108.374 219.635 108.818C220.325 109.237 221.189 109.447 222.225 109.447ZM80.4982 131.941H87.5282C89.5262 131.941 90.9568 131.596 91.8202 130.905C92.7082 130.19 93.1522 129.129 93.1522 127.723C93.1522 126.786 93.0042 126.046 92.7082 125.503C92.4122 124.96 92.0052 124.541 91.4872 124.245C90.9692 123.949 90.3648 123.764 89.6742 123.69C89.0082 123.591 88.2928 123.542 87.5282 123.542H80.4982V131.941ZM76.9832 120.582H86.5662C87.1335 120.582 87.7378 120.594 88.3792 120.619C89.0452 120.619 89.6988 120.656 90.3402 120.73C90.9815 120.779 91.5735 120.866 92.1162 120.989C92.6835 121.112 93.1645 121.297 93.5592 121.544C94.4225 122.062 95.1502 122.777 95.7422 123.69C96.3588 124.603 96.6672 125.725 96.6672 127.057C96.6672 128.463 96.3218 129.684 95.6312 130.72C94.9652 131.731 94.0032 132.484 92.7452 132.977V133.051C94.3732 133.396 95.6188 134.136 96.4822 135.271C97.3455 136.406 97.7772 137.787 97.7772 139.415C97.7772 140.377 97.6045 141.314 97.2592 142.227C96.9138 143.14 96.3958 143.954 95.7052 144.669C95.0392 145.36 94.2005 145.927 93.1892 146.371C92.2025 146.79 91.0555 147 89.7482 147H76.9832V120.582ZM80.4982 144.04H89.3042C90.8582 144.04 92.0668 143.621 92.9302 142.782C93.8182 141.943 94.2622 140.784 94.2622 139.304C94.2622 138.441 94.1018 137.725 93.7812 137.158C93.4605 136.591 93.0288 136.147 92.4862 135.826C91.9682 135.481 91.3638 135.246 90.6732 135.123C89.9825 134.975 89.2672 134.901 88.5272 134.901H80.4982V144.04ZM115.077 135.604C115.028 134.864 114.855 134.161 114.559 133.495C114.288 132.829 113.906 132.262 113.412 131.793C112.944 131.3 112.376 130.917 111.71 130.646C111.069 130.35 110.354 130.202 109.564 130.202C108.75 130.202 108.01 130.35 107.344 130.646C106.703 130.917 106.148 131.3 105.679 131.793C105.211 132.286 104.841 132.866 104.569 133.532C104.298 134.173 104.138 134.864 104.088 135.604H115.077ZM118.111 140.932C117.692 143.078 116.767 144.694 115.336 145.779C113.906 146.864 112.105 147.407 109.934 147.407C108.405 147.407 107.073 147.16 105.938 146.667C104.828 146.174 103.891 145.483 103.126 144.595C102.362 143.707 101.782 142.646 101.387 141.413C101.017 140.18 100.808 138.835 100.758 137.38C100.758 135.925 100.98 134.593 101.424 133.384C101.868 132.175 102.485 131.127 103.274 130.239C104.088 129.351 105.038 128.66 106.123 128.167C107.233 127.674 108.442 127.427 109.749 127.427C111.451 127.427 112.857 127.785 113.967 128.5C115.102 129.191 116.002 130.079 116.668 131.164C117.359 132.249 117.828 133.433 118.074 134.716C118.346 135.999 118.457 137.22 118.407 138.379H104.088C104.064 139.218 104.162 140.019 104.384 140.784C104.606 141.524 104.964 142.19 105.457 142.782C105.951 143.349 106.58 143.806 107.344 144.151C108.109 144.496 109.009 144.669 110.045 144.669C111.377 144.669 112.463 144.361 113.301 143.744C114.165 143.127 114.732 142.19 115.003 140.932H118.111ZM138.613 146.926C138.071 147.247 137.318 147.407 136.356 147.407C135.542 147.407 134.889 147.185 134.395 146.741C133.927 146.272 133.692 145.52 133.692 144.484C132.829 145.52 131.818 146.272 130.658 146.741C129.524 147.185 128.29 147.407 126.958 147.407C126.095 147.407 125.269 147.308 124.479 147.111C123.715 146.914 123.049 146.605 122.481 146.186C121.914 145.767 121.458 145.224 121.112 144.558C120.792 143.867 120.631 143.041 120.631 142.079C120.631 140.994 120.816 140.106 121.186 139.415C121.556 138.724 122.037 138.169 122.629 137.75C123.246 137.306 123.937 136.973 124.701 136.751C125.491 136.529 126.292 136.344 127.106 136.196C127.97 136.023 128.784 135.9 129.548 135.826C130.338 135.727 131.028 135.604 131.62 135.456C132.212 135.283 132.681 135.049 133.026 134.753C133.372 134.432 133.544 133.976 133.544 133.384C133.544 132.693 133.409 132.138 133.137 131.719C132.891 131.3 132.558 130.979 132.138 130.757C131.744 130.535 131.287 130.387 130.769 130.313C130.276 130.239 129.783 130.202 129.289 130.202C127.957 130.202 126.847 130.461 125.959 130.979C125.071 131.472 124.59 132.422 124.516 133.828H121.371C121.421 132.644 121.667 131.645 122.111 130.831C122.555 130.017 123.147 129.363 123.887 128.87C124.627 128.352 125.466 127.982 126.403 127.76C127.365 127.538 128.389 127.427 129.474 127.427C130.338 127.427 131.189 127.489 132.027 127.612C132.891 127.735 133.668 127.994 134.358 128.389C135.049 128.759 135.604 129.289 136.023 129.98C136.443 130.671 136.652 131.571 136.652 132.681V142.523C136.652 143.263 136.689 143.806 136.763 144.151C136.862 144.496 137.158 144.669 137.651 144.669C137.923 144.669 138.243 144.607 138.613 144.484V146.926ZM133.507 137.121C133.113 137.417 132.595 137.639 131.953 137.787C131.312 137.91 130.634 138.021 129.918 138.12C129.228 138.194 128.525 138.293 127.809 138.416C127.094 138.515 126.453 138.687 125.885 138.934C125.318 139.181 124.849 139.538 124.479 140.007C124.134 140.451 123.961 141.068 123.961 141.857C123.961 142.375 124.06 142.819 124.257 143.189C124.479 143.534 124.751 143.818 125.071 144.04C125.417 144.262 125.811 144.422 126.255 144.521C126.699 144.62 127.168 144.669 127.661 144.669C128.697 144.669 129.585 144.533 130.325 144.262C131.065 143.966 131.67 143.608 132.138 143.189C132.607 142.745 132.952 142.276 133.174 141.783C133.396 141.265 133.507 140.784 133.507 140.34V137.121ZM157.376 147H154.416V143.966H154.342C153.676 145.15 152.825 146.026 151.789 146.593C150.753 147.136 149.532 147.407 148.126 147.407C146.868 147.407 145.82 147.247 144.981 146.926C144.143 146.581 143.464 146.1 142.946 145.483C142.428 144.866 142.058 144.139 141.836 143.3C141.639 142.437 141.54 141.487 141.54 140.451V127.871H144.685V140.821C144.685 142.005 145.031 142.942 145.721 143.633C146.412 144.324 147.362 144.669 148.57 144.669C149.532 144.669 150.359 144.521 151.049 144.225C151.765 143.929 152.357 143.51 152.825 142.967C153.294 142.424 153.639 141.795 153.861 141.08C154.108 140.34 154.231 139.538 154.231 138.675V127.871H157.376V147ZM166.466 127.871H170.277V130.646H166.466V142.523C166.466 142.893 166.491 143.189 166.54 143.411C166.614 143.633 166.737 143.806 166.91 143.929C167.083 144.052 167.317 144.139 167.613 144.188C167.934 144.213 168.341 144.225 168.834 144.225H170.277V147H167.872C167.058 147 166.355 146.951 165.763 146.852C165.196 146.729 164.727 146.519 164.357 146.223C164.012 145.927 163.753 145.508 163.58 144.965C163.407 144.422 163.321 143.707 163.321 142.819V130.646H160.065V127.871H163.321V122.136H166.466V127.871ZM181.282 149.553C180.912 150.49 180.542 151.28 180.172 151.921C179.826 152.562 179.432 153.08 178.988 153.475C178.568 153.894 178.087 154.19 177.545 154.363C177.027 154.56 176.422 154.659 175.732 154.659C175.362 154.659 174.992 154.634 174.622 154.585C174.252 154.536 173.894 154.449 173.549 154.326V151.44C173.82 151.563 174.128 151.662 174.474 151.736C174.844 151.835 175.152 151.884 175.399 151.884C176.04 151.884 176.57 151.724 176.99 151.403C177.434 151.107 177.767 150.675 177.989 150.108L179.284 146.889L171.699 127.871H175.251L180.838 143.522H180.912L186.277 127.871H189.607L181.282 149.553Z" fill="black"/>
<path d="M103.272 12.91V35.212C103.272 37.816 102.6 38.656 99.954 38.824V40H115.746V38.824C113.1 38.656 112.47 37.816 112.47 35.212V12.91C115.536 13.414 117.762 15.346 119.358 19.168L120.282 18.832L118.602 10.264C117.846 10.768 116.628 11.02 114.948 11.02H100.794C99.114 11.02 97.854 10.768 97.098 10.264L95.46 18.832L96.384 19.168C97.896 15.472 100.122 13.456 103.272 12.91ZM136.266 26.602V35.842C136.266 37.564 135.846 38.446 134.502 38.824V40H146.808V38.824C146.766 38.824 146.724 38.824 146.682 38.824C144.834 38.824 144.162 37.942 144.162 35.842V25.93C144.162 21.394 141.978 19 138.114 19C135.552 19 133.242 20.218 131.31 22.612V10.642C126.606 12.616 122.952 14.044 120.348 14.8L122.574 16.606C123.582 17.404 123.75 17.74 123.75 19V35.842C123.75 37.942 123.078 38.824 121.23 38.824C121.188 38.824 121.146 38.824 121.104 38.824V40H133.41V38.824C132.108 38.488 131.646 37.564 131.646 35.842V26.602C131.646 23.956 132.192 22.654 133.914 22.654C135.804 22.654 136.266 23.914 136.266 26.602ZM155.413 26.476C155.413 22.444 156.379 20.512 158.731 20.512C160.495 20.512 161.377 21.73 161.377 24.166C161.377 26.434 160.243 26.476 157.303 26.476H155.413ZM167.257 36.598V34.666C166.165 35.884 164.863 36.43 163.267 36.43C159.193 36.43 155.623 32.986 155.455 27.946H167.341C167.341 22.402 163.813 18.958 158.563 18.958C155.455 18.958 152.221 20.596 150.499 22.948C148.861 25.132 148.105 27.526 148.105 30.256C148.105 32.944 148.903 35.296 150.541 37.228C152.515 39.58 155.329 40.882 158.437 40.882C161.839 40.882 164.905 39.412 167.257 36.598ZM50.0688 70.034C53.3028 71.252 56.6628 71.882 60.0228 71.882C67.5408 71.882 71.9088 67.934 71.9088 61.97C71.9088 58.61 70.5648 56.468 67.5408 54.41C66.1548 53.444 63.6768 52.73 60.4428 51.428C57.7128 50.336 56.4108 48.782 56.4108 46.724C56.4108 44.414 58.1328 42.734 60.6948 42.734C64.0128 42.734 66.3648 45.548 67.8768 51.302H69.0108V42.65C65.9448 41.684 63.3408 41.138 61.0308 41.138C54.3948 41.138 49.9428 45.212 49.9428 50.714C49.9428 52.856 50.6148 54.746 51.9588 56.258C53.6808 58.232 55.9068 59.03 58.2168 60.038C62.4168 61.886 64.8528 62.726 64.8528 66.002C64.8528 68.648 63.1728 70.286 60.4848 70.286C56.3688 70.286 53.0508 66.548 51.4128 59.366H50.0688V70.034ZM88.8506 59.114V64.7C88.8506 67.346 88.3046 68.648 86.5826 68.648C84.6926 68.648 84.1886 67.388 84.1886 64.7V49.79C79.6946 51.932 75.8726 53.696 72.5546 54.914L75.1166 56.72C76.1666 57.434 76.2926 57.98 76.2926 59.114V64.952C76.2926 69.572 78.4766 71.882 82.7606 71.882C85.6586 71.882 87.9266 70.748 89.5226 68.564V71H99.3926V69.824C99.3506 69.824 99.3086 69.824 99.2666 69.824C97.4186 69.824 96.7046 68.942 96.7046 66.842V49.79C92.1266 51.932 88.5146 53.654 85.7006 54.704L87.9266 56.552C88.6826 57.182 88.8506 57.938 88.8506 59.114ZM110.763 53.402V49.79C106.353 52.1 102.699 53.864 99.6748 54.914L102.237 56.72C103.287 57.434 103.413 57.98 103.413 59.114V66.842C103.413 68.942 102.741 69.824 100.893 69.824C100.851 69.824 100.809 69.824 100.767 69.824V71H114.207V69.824C114.165 69.824 114.123 69.824 114.081 69.824C112.065 69.824 111.309 68.942 111.309 66.842V58.358C111.309 55.586 111.561 54.242 112.569 54.242C113.409 54.242 114.123 56.09 116.097 56.09C117.819 56.09 118.911 54.956 118.911 53.234C118.911 51.26 117.567 49.958 115.551 49.958C113.703 49.958 112.107 51.134 110.763 53.402ZM123.304 62.684C120.532 63.692 119.104 65.582 119.104 68.228C119.104 70.16 119.902 71.714 121.372 72.722C120.448 73.436 120.028 74.276 120.028 75.326C120.028 78.014 123.304 79.862 129.436 79.862C136.828 79.862 141.238 76.418 141.238 71.504C141.238 67.64 138.466 64.91 134.308 64.91C132.292 64.91 130.486 65.54 128.638 66.254C127.126 66.842 125.992 67.304 124.984 67.304C123.598 67.304 122.716 66.548 122.716 65.456C122.716 64.574 123.472 63.818 124.816 63.566C126.454 64.154 128.092 64.448 129.73 64.448C135.946 64.448 139.852 61.382 139.852 57.224C139.852 54.074 137.878 51.68 134.182 50.42C134.392 50.042 134.686 49.874 135.106 49.874C136.156 49.874 137.248 51.26 138.76 51.26C140.02 51.26 140.986 50.294 140.986 48.992C140.986 47.522 139.768 46.388 138.046 46.388C135.778 46.388 133.804 47.774 132.88 50.168C132.04 50 131.242 49.916 130.528 49.916C124.27 49.916 120.364 53.15 120.364 57.392C120.364 59.534 121.372 61.424 123.304 62.684ZM123.178 73.688C123.934 73.94 124.69 74.066 125.404 74.066C128.68 74.066 131.242 72.638 133.048 72.638C134.602 72.638 135.568 73.478 135.568 74.738C135.568 76.67 133.384 78.182 129.562 78.182C125.446 78.182 123.01 76.25 123.01 74.444C123.01 74.234 123.052 73.982 123.178 73.688ZM130.108 62.852C127.924 62.852 127.126 61.088 127.126 57.182C127.126 53.234 127.84 51.386 130.108 51.386C132.292 51.386 133.09 53.234 133.09 57.224C133.09 61.088 132.292 62.852 130.108 62.852ZM150.122 57.476C150.122 53.444 151.088 51.512 153.44 51.512C155.204 51.512 156.086 52.73 156.086 55.166C156.086 57.434 154.952 57.476 152.012 57.476H150.122ZM161.966 67.598V65.666C160.874 66.884 159.572 67.43 157.976 67.43C153.902 67.43 150.332 63.986 150.164 58.946H162.05C162.05 53.402 158.522 49.958 153.272 49.958C150.164 49.958 146.93 51.596 145.208 53.948C143.57 56.132 142.814 58.526 142.814 61.256C142.814 63.944 143.612 66.296 145.25 68.228C147.224 70.58 150.038 71.882 153.146 71.882C156.548 71.882 159.614 70.412 161.966 67.598ZM176.563 71.882C183.787 71.882 188.533 67.43 188.533 60.92C188.533 54.41 183.787 50 176.563 50C169.339 50 164.635 54.368 164.635 60.92C164.635 67.472 169.339 71.882 176.563 71.882ZM176.563 70.328C173.539 70.328 173.287 67.304 173.287 60.92C173.287 54.536 173.539 51.554 176.563 51.554C179.545 51.554 179.881 54.536 179.881 60.92C179.881 67.304 179.545 70.328 176.563 70.328ZM201.133 66.842V57.14C201.133 54.494 201.637 53.192 203.359 53.192C205.249 53.192 205.753 54.452 205.753 57.14V71H216.295V69.824C216.253 69.824 216.211 69.824 216.169 69.824C214.321 69.824 213.649 68.942 213.649 66.842V56.93C213.649 52.268 211.465 50 206.971 50C204.241 50 202.057 51.092 200.419 53.276V49.79C196.639 51.932 193.027 53.654 189.499 54.914L192.061 56.72C193.111 57.434 193.237 57.98 193.237 59.114V66.842C193.237 68.942 192.565 69.824 190.717 69.824C190.675 69.824 190.633 69.824 190.591 69.824V71H203.569V69.824C201.805 69.782 201.133 68.9 201.133 66.842Z" fill="black"/>
</g>
<defs>
<clipPath id="clip0_227_12">
<rect width="265" height="157" fill="white"/>
</clipPath>
</defs>
</svg>
