<svg enable-background="new 0 0 265 182" viewBox="0 0 265 182" xmlns="http://www.w3.org/2000/svg"><g fill="#010101"><path d="m110.2 2.6v24.3h-2.8v-24.3h-8.9l.3-2.4h20l.3 2.4z"/><path d="m141 26.8v-12.7h-15v12.8h-2.8v-26.8h2.8v11.5h15v-11.5h2.8v26.7z"/><path d="m164.3 26.8h-13.3v-26.7h12.1l.2 2.4h-9.6v9.1h8.6l-.2 2.4h-8.4v10.3h10.9z"/><path d="m15.4 55.7c0 1.1-.2 2.1-.7 3-.4.9-1 1.7-1.7 2.3-.7.7-1.6 1.2-2.6 1.5-1 .4-2 .6-3.1.6-.4 0-.8 0-1.3-.1s-.9-.1-1.4-.2-1-.2-1.5-.3c-.5-.2-.9-.3-1.3-.6v-2.7l.1-.1c1 .5 2 .8 2.8 1s1.8.3 2.8.3c1.5 0 2.6-.4 3.4-1.2s1.3-1.8 1.3-2.9c0-.6-.1-1.1-.3-1.6s-.4-.9-.7-1.3-.7-.8-1.1-1.1c-.4-.4-.8-.8-1.3-1.1l-4.3-3.6c-.9-.7-1.6-1.6-2.1-2.5-.1-1.1-.4-2.2-.4-3.3s.2-2.1.6-2.9 1-1.5 1.6-2.1c.7-.6 1.5-1 2.5-1.3.9-.3 1.9-.4 2.9-.4.9 0 1.7.1 2.6.3s1.8.4 2.6.8v2.8l-.2.1c-.4-.2-.8-.4-1.2-.6-.5-.2-.9-.4-1.4-.5s-1-.2-1.4-.3-.8-.1-1.1-.1c-.5 0-1 .1-1.6.2-.5.2-1 .4-1.5.7-.4.3-.8.7-1 1.2-.3.5-.4 1.1-.4 1.8 0 1 .3 1.8.8 2.4s1.2 1.3 2 1.9l2.5 2.1c.6.5 1.2 1.1 1.9 1.6.6.5 1.2 1.1 1.7 1.8.5.6.9 1.3 1.2 2 .2.7.3 1.5.3 2.4z"/><path d="m32.9 43.6c0-1.8-.6-3.2-1.8-4-1.2-.9-2.7-1.4-4.6-1.4h-3.3v10.8h4.1c1.6 0 2.9-.5 3.9-1.4 1.2-1 1.7-2.3 1.7-4zm2.7-.2c0 1.1-.2 2.2-.6 3.1s-1 1.8-1.7 2.5-1.6 1.3-2.6 1.7-2.1.6-3.3.6h-4.3v11.1h-2.8v-26.7h6.7c1.1 0 2.2.2 3.3.5 1 .3 1.9.8 2.7 1.5s1.4 1.5 1.8 2.4c.6 1 .8 2.1.8 3.3z"/><path d="m49 39.6-3.9 10.1h7.8zm8.8 22.8-4-10.4h-9.6l-4 10.4h-2.6l10.6-27.1h1.8l10.7 27.1z"/><path d="m87.2 62.4v-26.7h2.8v26.7z"/><path d="m105.7 39.6-3.9 10.1h7.8zm8.8 22.8-4-10.4h-9.6l-4 10.4h-2.6l10.6-27.1h1.8l10.7 27.1z"/><path d="m134.9 62.4h-13.3v-26.7h2.8v24.3h10.9z"/><path d="m157.5 39.6-3.9 10.1h7.8zm8.8 22.8-4-10.4h-9.6l-4 10.4h-2.7l10.6-27.1h1.8l10.7 27.1z"/><path d="m185.1 43.4c0-1.8-.5-3.1-1.6-4-1-.8-2.4-1.3-4.2-1.3h-3.2v10.2h4.3c.7 0 1.4-.1 2-.4s1.1-.6 1.5-1.1.7-1 .9-1.6c.2-.5.3-1.1.3-1.8zm6 19-11.1-11.6h-3.8v11.7h-2.8v-26.8h6.7c.6 0 1.3 0 1.9.1.7.1 1.3.2 1.9.5 1.4.6 2.4 1.5 3.1 2.8.7 1.2 1 2.6 1 4 0 .8-.1 1.5-.4 2.3-.2.7-.6 1.4-1 2.1-.4.6-1 1.2-1.6 1.7s-1.3.8-2.1 1l11.5 12.1v.2h-3.3z"/><path d="m205.9 38.2v24.3h-2.8v-24.3h-8.9l.3-2.4h20l.3 2.4z"/><path d="m219 62.4v-26.7h2.8v26.7z"/><path d="m240.3 55.7c0 1.1-.2 2.1-.7 3-.4.9-1 1.7-1.7 2.3-.7.7-1.6 1.2-2.6 1.5-1 .4-2 .6-3.1.6-.4 0-.8 0-1.3-.1s-.9-.1-1.4-.2-1-.2-1.5-.3c-.5-.2-.9-.3-1.3-.6v-2.7l.1-.1c1 .5 2 .8 2.8 1s1.8.3 2.8.3c1.5 0 2.6-.4 3.4-1.2s1.3-1.8 1.3-2.9c0-.6-.1-1.1-.3-1.6s-.4-.9-.7-1.3-.7-.8-1.1-1.1c-.4-.4-.8-.8-1.3-1.1l-4.3-3.6c-.9-.7-1.6-1.6-2.1-2.5s-.8-2-.8-3.2c0-1.1.2-2.1.6-2.9s1-1.5 1.6-2.1c.7-.6 1.5-1 2.5-1.3.9-.3 1.9-.4 2.9-.4.9 0 1.7.1 2.6.3s1.8.4 2.6.8v2.7l-.2.1c-.4-.2-.8-.4-1.2-.6-.5-.2-.9-.4-1.4-.5s-1-.2-1.4-.3-.8-.1-1.1-.1c-.5 0-1 .1-1.6.2-.5.2-1 .4-1.5.7-.4.3-.8.7-1 1.2-.3.5-.4 1.1-.4 1.8 0 1 .3 1.8.8 2.4s1.2 1.3 2 1.9l2.5 2.1c.6.5 1.2 1.1 1.9 1.6.6.5 1.2 1.1 1.7 1.8.5.6.9 1.3 1.2 2 .6.7.7 1.5.7 2.4z"/><path d="m254.1 38.2v24.3h-2.8v-24.3h-8.9l.3-2.4h20l.3 2.4z"/><path d="m71.9 38.2v24.3h-2.8v-24.3h-6.9l-1.7-2.4h20l.3 2.4z"/><path d="m42 76.1h11.6c3.2 0 5.4.9 6.7 2.8.8 1.1 1.2 2.4 1.2 3.8 0 1.7-.5 3.1-1.4 4.2-.5.6-1.2 1.1-2.2 1.6 1.4.5 2.4 1.1 3.1 1.8 1.2 1.2 1.8 2.8 1.8 4.8 0 1.7-.5 3.3-1.6 4.7-1.6 2.1-4.2 3.1-7.8 3.1h-11.4zm10.3 11.3c1.5 0 2.8-.2 3.6-.6 1.4-.7 2-1.9 2-3.6 0-1.8-.7-2.9-2.2-3.5-.8-.3-2-.5-3.6-.5h-6.6v8.3h6.8zm1.2 12.4c2.2 0 3.9-.6 4.8-1.9.6-.8.9-1.8.9-3 0-1.9-.9-3.3-2.6-4-.9-.4-2.2-.6-3.7-.6h-7.3v9.4h7.9z"/><path d="m78.7 83.9c1.3.7 2.3 1.5 3 2.5s1.1 2.1 1.3 3.5c.2.9.3 2.3.3 4.3h-14.3c.1 2 .5 3.6 1.4 4.8s2.2 1.8 4 1.8c1.7 0 3.1-.6 4.1-1.7.6-.7 1-1.4 1.2-2.3h3.3c-.1.7-.4 1.5-.8 2.4s-1 1.6-1.6 2.2c-1 1-2.2 1.6-3.7 2-.8.2-1.7.3-2.7.3-2.4 0-4.5-.9-6.2-2.7s-2.5-4.3-2.5-7.4.8-5.7 2.5-7.7 3.9-2.9 6.6-2.9c1.5-.1 2.8.2 4.1.9zm1.2 7.7c-.1-1.4-.4-2.6-.9-3.4-.9-1.6-2.4-2.4-4.5-2.4-1.5 0-2.8.5-3.8 1.6s-1.6 2.5-1.6 4.2z"/><path d="m87.4 76h3.3v10c.8-1 1.5-1.7 2.1-2.1 1.1-.7 2.4-1 4-1 2.8 0 4.8 1 5.8 3 .5 1.1.8 2.6.8 4.5v12.5h-3.4v-12.3c0-1.4-.2-2.5-.5-3.2-.6-1.1-1.7-1.6-3.4-1.6-1.4 0-2.6.5-3.7 1.4s-1.7 2.7-1.7 5.3v10.4h-3.3z"/><path d="m108.2 76.1h3.3v3.7h-3.3zm0 7.3h3.3v19.5h-3.3z"/><path d="m116.5 83.4h3.1v2.8c.9-1.1 1.9-2 2.9-2.5s2.2-.7 3.5-.7c2.8 0 4.7 1 5.6 2.9.5 1.1.8 2.6.8 4.5v12.5h-3.3v-12.3c0-1.2-.2-2.2-.5-2.9-.6-1.2-1.6-1.8-3.2-1.8-.8 0-1.4.1-1.9.2-.9.3-1.7.8-2.4 1.6-.5.6-.9 1.3-1.1 2s-.2 1.7-.2 2.9v10.2h-3.3z"/><path d="m148.1 84c.6.4 1.2 1 2 1.9v-9.9h3.2v26.9h-3v-2.7c-.8 1.2-1.7 2.1-2.7 2.6s-2.2.8-3.6.8c-2.2 0-4.1-.9-5.6-2.7-1.6-1.8-2.4-4.3-2.4-7.3 0-2.8.7-5.3 2.2-7.4s3.5-3.1 6.2-3.1c1.4-.1 2.7.2 3.7.9zm-7.3 14.6c.9 1.4 2.3 2.1 4.3 2.1 1.5 0 2.8-.7 3.7-2 1-1.3 1.5-3.2 1.5-5.6 0-2.5-.5-4.3-1.5-5.5s-2.2-1.8-3.7-1.8c-1.6 0-3 .6-4 1.9s-1.5 3.1-1.5 5.6c-.2 2.2.3 3.9 1.2 5.3z"/><path d="m169.2 77.9h3.3v5.5h3.1v2.6h-3.1v12.8c0 .7.2 1.1.7 1.4.3.1.7.2 1.3.2h.5c.2 0 .4 0 .6-.1v2.6c-.4.1-.8.2-1.2.2s-.8.1-1.3.1c-1.5 0-2.6-.4-3.1-1.2s-.8-1.8-.8-3.1v-12.9h-2.6v-2.7h2.6z"/><path d="m178.9 76h3.3v10c.8-1 1.5-1.7 2.1-2.1 1.1-.7 2.4-1 4-1 2.8 0 4.8 1 5.8 3 .5 1.1.8 2.6.8 4.5v12.5h-3.4v-12.3c0-1.4-.2-2.5-.5-3.2-.6-1.1-1.7-1.6-3.4-1.6-1.4 0-2.6.5-3.7 1.4s-1.7 2.7-1.7 5.3v10.4h-3.3z"/><path d="m211.8 83.9c1.3.7 2.3 1.5 3 2.5s1.1 2.1 1.3 3.5c.2.9.3 2.3.3 4.3h-14.2c.1 2 .5 3.6 1.4 4.8s2.2 1.8 4 1.8c1.7 0 3.1-.6 4.1-1.7.6-.7 1-1.4 1.2-2.3h3.2c-.1.7-.4 1.5-.8 2.4s-1 1.6-1.6 2.2c-1 1-2.2 1.6-3.7 2-.8.2-1.7.3-2.7.3-2.4 0-4.5-.9-6.2-2.7s-2.5-4.3-2.5-7.4.8-5.7 2.5-7.7 3.9-2.9 6.6-2.9c1.5-.1 2.8.2 4.1.9zm1.2 7.7c-.1-1.4-.4-2.6-.9-3.4-.9-1.6-2.4-2.4-4.5-2.4-1.5 0-2.8.5-3.8 1.6s-1.6 2.5-1.6 4.2z"/><path d="m32.1 111.1h19.5v3.3h-16v8.1h14.7v3.1h-14.7v9.1h16.2v3.2h-19.7z"/><path d="m56.2 118.4h3.1v2.8c.9-1.1 1.9-2 2.9-2.5s2.2-.7 3.5-.7c2.8 0 4.7 1 5.6 2.9.5 1.1.8 2.6.8 4.5v12.5h-3.3v-12.3c0-1.2-.2-2.2-.5-2.9-.6-1.2-1.6-1.8-3.2-1.8-.8 0-1.4.1-1.9.2-.9.3-1.7.8-2.4 1.6-.5.6-.9 1.3-1.1 2s-.2 1.7-.2 2.9v10.2h-3.3z"/><path d="m87.9 119.1c.6.4 1.2 1 1.9 1.9v-2.5h3v17.8c0 2.5-.4 4.4-1.1 5.9-1.4 2.7-3.9 4-7.7 4-2.1 0-3.9-.5-5.3-1.4s-2.2-2.4-2.4-4.4h3.3c.2.9.5 1.6.9 2 .7.7 1.9 1.1 3.5 1.1 2.5 0 4.1-.9 4.9-2.7.5-1 .7-2.9.6-5.6-.7 1-1.4 1.7-2.4 2.2-.9.5-2.1.7-3.7.7-2.1 0-4-.8-5.5-2.3-1.6-1.5-2.4-4-2.4-7.5 0-3.3.8-5.8 2.4-7.7 1.6-1.8 3.5-2.8 5.8-2.8 1.7.2 3.1.6 4.2 1.3zm.4 3.6c-1-1.2-2.3-1.8-3.8-1.8-2.3 0-3.9 1.1-4.7 3.3-.4 1.2-.7 2.7-.7 4.5 0 2.2.4 3.9 1.3 5s2.1 1.7 3.6 1.7c2.3 0 4-1.1 5-3.2.5-1.2.8-2.6.8-4.2 0-2.4-.5-4.2-1.5-5.3z"/><path d="m97.8 111.1h3.3v3.7h-3.3zm0 7.4h3.3v19.5h-3.3z"/><path d="m106.2 118.4h3.1v2.8c.9-1.1 1.9-2 2.9-2.5s2.2-.7 3.5-.7c2.8 0 4.7 1 5.6 2.9.5 1.1.8 2.6.8 4.5v12.5h-3.3v-12.3c0-1.2-.2-2.2-.5-2.9-.6-1.2-1.6-1.8-3.2-1.8-.8 0-1.4.1-1.9.2-.9.3-1.7.8-2.4 1.6-.5.6-.9 1.3-1.1 2s-.2 1.7-.2 2.9v10.2h-3.3z"/><path d="m139 118.9c1.3.7 2.3 1.5 3 2.5s1.1 2.1 1.3 3.5c.2.9.3 2.3.3 4.3h-14.2c.1 2 .5 3.6 1.4 4.8s2.2 1.8 4 1.8c1.7 0 3.1-.6 4.1-1.7.6-.7 1-1.4 1.2-2.3h3.2c-.1.7-.4 1.5-.8 2.4s-1 1.6-1.6 2.2c-1 1-2.2 1.6-3.7 2-.8.2-1.7.3-2.7.3-2.4 0-4.5-.9-6.2-2.7s-2.5-4.3-2.5-7.4.8-5.7 2.5-7.7 3.9-2.9 6.6-2.9c1.5-.1 2.8.2 4.1.9zm1.2 7.7c-.1-1.4-.4-2.6-.9-3.4-.9-1.6-2.4-2.4-4.5-2.4-1.5 0-2.8.5-3.8 1.6s-1.6 2.5-1.6 4.2z"/><path d="m159.8 118.9c1.3.7 2.3 1.5 3 2.5s1.1 2.1 1.3 3.5c.2.9.3 2.3.3 4.3h-14.2c.1 2 .5 3.6 1.4 4.8s2.2 1.8 4 1.8c1.7 0 3.1-.6 4.1-1.7.6-.7 1-1.4 1.2-2.3h3.2c-.1.7-.4 1.5-.8 2.4s-1 1.6-1.6 2.2c-1 1-2.2 1.6-3.7 2-.8.2-1.7.3-2.7.3-2.4 0-4.5-.9-6.2-2.7s-2.5-4.3-2.5-7.4.8-5.7 2.5-7.7 3.9-2.9 6.6-2.9c1.5-.1 2.8.2 4.1.9zm1.2 7.7c-.1-1.4-.4-2.6-.9-3.4-.9-1.6-2.4-2.4-4.5-2.4-1.5 0-2.8.5-3.8 1.6s-1.6 2.5-1.6 4.2z"/><path d="m168.6 118.4h3.1v3.4c.3-.7.9-1.5 1.9-2.4s2.1-1.4 3.5-1.4h.3c.1 0 .4 0 .7.1v3.5c-.2 0-.4-.1-.5-.1-.2 0-.3 0-.5 0-1.7 0-2.9.5-3.8 1.6s-1.3 2.3-1.3 3.7v11.2h-3.3v-19.6z"/><path d="m181 111.1h3.3v3.7h-3.3zm0 7.4h3.3v19.5h-3.3z"/><path d="m189.3 118.4h3.1v2.8c.9-1.1 1.9-2 2.9-2.5s2.2-.7 3.5-.7c2.8 0 4.6 1 5.6 2.9.5 1.1.8 2.6.8 4.5v12.5h-3.3v-12.3c0-1.2-.2-2.2-.5-2.9-.6-1.2-1.6-1.8-3.2-1.8-.8 0-1.4.1-1.9.2-.9.3-1.7.8-2.4 1.6-.5.6-.9 1.3-1.1 2s-.2 1.7-.2 2.9v10.2h-3.3z"/><path d="m221 119.1c.6.4 1.2 1 1.9 1.9v-2.5h3v17.8c0 2.5-.4 4.4-1.1 5.9-1.4 2.7-3.9 4-7.7 4-2.1 0-3.9-.5-5.3-1.4s-2.2-2.4-2.4-4.4h3.3c.2.9.5 1.6.9 2 .7.7 1.9 1.1 3.5 1.1 2.5 0 4.1-.9 4.9-2.7.5-1 .7-2.9.6-5.6-.7 1-1.4 1.7-2.4 2.2-.9.5-2.1.7-3.7.7-2.1 0-4-.8-5.5-2.3-1.6-1.5-2.4-4-2.4-7.5 0-3.3.8-5.8 2.4-7.7 1.6-1.8 3.5-2.8 5.8-2.8 1.7.2 3 .6 4.2 1.3zm.4 3.6c-1-1.2-2.3-1.8-3.8-1.8-2.3 0-3.9 1.1-4.7 3.3-.4 1.2-.7 2.7-.7 4.5 0 2.2.4 3.9 1.3 5 .9 1.2 2.1 1.7 3.6 1.7 2.3 0 4-1.1 5-3.2.5-1.2.8-2.6.8-4.2 0-2.4-.5-4.2-1.5-5.3z"/><path d="m66.3 155.3c1.7 1.7 2.6 4.1 2.6 7.4 0 3.2-.8 5.8-2.3 7.8-1.5 2.1-3.9 3.1-7.1 3.1-2.7 0-4.8-.9-6.4-2.7s-2.4-4.3-2.4-7.3c0-3.3.8-5.9 2.5-7.8s3.9-2.9 6.7-2.9c2.5-.1 4.6.7 6.4 2.4zm-2.1 13c.8-1.6 1.2-3.5 1.2-5.5 0-1.8-.3-3.3-.9-4.5-.9-1.8-2.5-2.7-4.7-2.7-2 0-3.4.8-4.3 2.3s-1.4 3.4-1.4 5.5.5 3.8 1.4 5.2 2.3 2.1 4.3 2.1c2.2.1 3.6-.7 4.4-2.4z"/><path d="m74.4 147.4c.8-1.1 2.2-1.7 4.4-1.7h.6c.2 0 .5 0 .7.1v3c-.3 0-.6 0-.7 0s-.3 0-.4 0c-1 0-1.6.3-1.8.8s-.3 1.8-.3 4h3.3v2.6h-3.2v16.9h-3.3v-16.9h-2.7v-2.6h2.7v-3.1c.1-1.5.3-2.5.7-3.1z"/><path d="m94 146.1h11.6c3.2 0 5.4.9 6.7 2.8.8 1.1 1.2 2.4 1.2 3.8 0 1.7-.5 3.1-1.4 4.2-.5.6-1.2 1.1-2.2 1.6 1.4.5 2.4 1.1 3.1 1.8 1.2 1.2 1.8 2.8 1.8 4.8 0 1.7-.5 3.3-1.6 4.7-1.6 2.1-4.2 3.1-7.8 3.1h-11.4zm10.3 11.3c1.5 0 2.8-.2 3.6-.6 1.4-.7 2-1.9 2-3.6 0-1.8-.7-2.9-2.2-3.5-.8-.3-2-.5-3.6-.5h-6.6v8.3h6.8zm1.2 12.4c2.2 0 3.9-.6 4.8-1.9.6-.8.9-1.8.9-3 0-1.9-.9-3.3-2.6-4-.9-.4-2.2-.6-3.7-.6h-7.3v9.4h7.9z"/><path d="m130.7 153.9c1.3.7 2.3 1.5 3 2.5s1.1 2.1 1.3 3.5c.2.9.3 2.3.3 4.3h-14.3c.1 2 .5 3.6 1.4 4.8s2.2 1.8 4 1.8c1.7 0 3.1-.6 4.1-1.7.6-.7 1-1.4 1.2-2.3h3.2c-.1.7-.4 1.5-.8 2.4s-1 1.6-1.6 2.2c-1 1-2.2 1.6-3.7 2-.8.2-1.7.3-2.7.3-2.4 0-4.5-.9-6.2-2.7s-2.5-4.3-2.5-7.4.8-5.7 2.5-7.7 3.9-2.9 6.6-2.9c1.6-.1 2.9.3 4.2.9zm1.2 7.7c-.1-1.4-.4-2.6-.9-3.4-.9-1.6-2.4-2.4-4.5-2.4-1.5 0-2.8.5-3.8 1.6s-1.6 2.5-1.6 4.2z"/><path d="m149.9 161.1c.8-.1 1.3-.4 1.5-.9.1-.3.2-.7.2-1.3 0-1.1-.4-1.9-1.2-2.4s-1.9-.8-3.4-.8c-1.7 0-2.9.5-3.6 1.4-.4.5-.7 1.3-.8 2.3h-3.1c.1-2.4.8-4.1 2.3-5s3.2-1.4 5.2-1.4c2.3 0 4.2.4 5.6 1.3s2.1 2.2 2.1 4.1v11.3c0 .3.1.6.2.8s.4.3.9.3h.5c.2 0 .4 0 .6-.1v2.4c-.5.1-.9.2-1.2.3-.3 0-.6.1-1.1.1-1.1 0-2-.4-2.5-1.2-.3-.4-.5-1-.6-1.8-.7.9-1.6 1.6-2.9 2.3-1.3.6-2.6 1-4.1 1-1.8 0-3.3-.5-4.4-1.7s-1.7-2.5-1.7-4.1c0-1.8.6-3.2 1.7-4.2s2.6-1.6 4.5-1.8zm-6.9 8.9c.7.5 1.5.8 2.5.8 1.2 0 2.3-.3 3.4-.8 1.8-.9 2.7-2.3 2.7-4.4v-2.6c-.4.3-.9.5-1.5.6-.6.2-1.3.3-1.9.4l-2 .3c-1.2.2-2.1.4-2.7.7-1 .6-1.5 1.5-1.5 2.7-.1 1 .3 1.7 1 2.3z"/><path d="m163.5 153.4v13c0 1 .2 1.8.5 2.4.6 1.2 1.6 1.8 3.2 1.8 2.2 0 3.7-1 4.6-3.1.4-1.1.7-2.6.7-4.5v-9.6h3.3v19.6h-3.1v-2.9c-.4.7-.9 1.4-1.6 1.9-1.2 1-2.7 1.5-4.5 1.5-2.7 0-4.6-.9-5.6-2.8-.5-1-.8-2.3-.8-4v-13.3z"/><path d="m181.7 147.9h3.3v5.5h3.1v2.7h-3.1v12.8c0 .7.2 1.1.7 1.4.3.1.7.2 1.3.2h.5c.2 0 .4 0 .6-.1v2.6c-.4.1-.8.2-1.2.2s-.8.1-1.3.1c-1.5 0-2.6-.4-3.1-1.2s-.8-1.8-.8-3.1v-12.9h-2.7v-2.7h2.6v-5.5z"/><path d="m203.6 153.4h3.6c-.5 1.3-1.5 4.1-3.1 8.6-1.2 3.4-2.2 6.1-3 8.2-1.9 5-3.2 8-4 9.1s-2.1 1.6-4 1.6c-.5 0-.8 0-1.1-.1-.2 0-.6-.1-.9-.2v-3c.6.2 1 .3 1.2.3.3 0 .5.1.7.1.6 0 1.1-.1 1.3-.3.3-.2.5-.4.7-.7.1-.1.3-.6.7-1.5s.6-1.6.8-2l-7.2-20.1h3.7l5.2 15.9z"/></g></svg>