<svg width="265" height="157" viewBox="0 0 265 157" fill="none" xmlns="http://www.w3.org/2000/svg">
<path d="M217.661 141.094C217.686 141.785 217.846 142.377 218.142 142.87C218.438 143.339 218.82 143.721 219.289 144.017C219.782 144.288 220.325 144.486 220.917 144.609C221.534 144.732 222.163 144.794 222.804 144.794C223.297 144.794 223.815 144.757 224.358 144.683C224.901 144.609 225.394 144.473 225.838 144.276C226.307 144.079 226.689 143.795 226.985 143.425C227.281 143.03 227.429 142.537 227.429 141.945C227.429 141.131 227.121 140.514 226.504 140.095C225.887 139.676 225.11 139.343 224.173 139.096C223.26 138.825 222.261 138.59 221.176 138.393C220.091 138.171 219.079 137.875 218.142 137.505C217.229 137.11 216.465 136.568 215.848 135.877C215.231 135.186 214.923 134.224 214.923 132.991C214.923 132.029 215.133 131.203 215.552 130.512C215.996 129.821 216.551 129.266 217.217 128.847C217.908 128.403 218.672 128.082 219.511 127.885C220.374 127.663 221.225 127.552 222.064 127.552C223.149 127.552 224.148 127.651 225.061 127.848C225.974 128.021 226.775 128.341 227.466 128.81C228.181 129.254 228.749 129.871 229.168 130.66C229.587 131.425 229.834 132.387 229.908 133.546H226.763C226.714 132.929 226.553 132.424 226.282 132.029C226.011 131.61 225.665 131.277 225.246 131.03C224.827 130.783 224.358 130.611 223.84 130.512C223.347 130.389 222.841 130.327 222.323 130.327C221.854 130.327 221.373 130.364 220.88 130.438C220.411 130.512 219.98 130.648 219.585 130.845C219.19 131.018 218.87 131.264 218.623 131.585C218.376 131.881 218.253 132.276 218.253 132.769C218.253 133.312 218.438 133.768 218.808 134.138C219.203 134.483 219.696 134.779 220.288 135.026C220.88 135.248 221.546 135.445 222.286 135.618C223.026 135.766 223.766 135.926 224.506 136.099C225.295 136.272 226.06 136.481 226.8 136.728C227.565 136.975 228.231 137.308 228.798 137.727C229.39 138.122 229.859 138.627 230.204 139.244C230.574 139.861 230.759 140.625 230.759 141.538C230.759 142.697 230.512 143.659 230.019 144.424C229.55 145.189 228.921 145.805 228.132 146.274C227.367 146.743 226.492 147.063 225.505 147.236C224.543 147.433 223.581 147.532 222.619 147.532C221.558 147.532 220.547 147.421 219.585 147.199C218.623 146.977 217.772 146.619 217.032 146.126C216.292 145.608 215.7 144.942 215.256 144.128C214.812 143.289 214.565 142.278 214.516 141.094H217.661Z" fill="black"/>
<path d="M209.147 135.729C209.097 134.989 208.925 134.286 208.629 133.62C208.357 132.954 207.975 132.387 207.482 131.918C207.013 131.425 206.446 131.042 205.78 130.771C205.138 130.475 204.423 130.327 203.634 130.327C202.82 130.327 202.08 130.475 201.414 130.771C200.772 131.042 200.217 131.425 199.749 131.918C199.28 132.411 198.91 132.991 198.639 133.657C198.367 134.298 198.207 134.989 198.158 135.729H209.147ZM212.181 141.057C211.761 143.203 210.836 144.819 209.406 145.904C207.975 146.989 206.174 147.532 204.004 147.532C202.474 147.532 201.142 147.285 200.008 146.792C198.898 146.299 197.96 145.608 197.196 144.72C196.431 143.832 195.851 142.771 195.457 141.538C195.087 140.305 194.877 138.96 194.828 137.505C194.828 136.05 195.05 134.718 195.494 133.509C195.938 132.3 196.554 131.252 197.344 130.364C198.158 129.476 199.107 128.785 200.193 128.292C201.303 127.799 202.511 127.552 203.819 127.552C205.521 127.552 206.927 127.91 208.037 128.625C209.171 129.316 210.072 130.204 210.738 131.289C211.428 132.374 211.897 133.558 212.144 134.841C212.415 136.124 212.526 137.345 212.477 138.504H198.158C198.133 139.343 198.232 140.144 198.454 140.909C198.676 141.649 199.033 142.315 199.527 142.907C200.02 143.474 200.649 143.931 201.414 144.276C202.178 144.621 203.079 144.794 204.115 144.794C205.447 144.794 206.532 144.486 207.371 143.869C208.234 143.252 208.801 142.315 209.073 141.057H212.181Z" fill="black"/>
<path d="M190.992 124.555H187.847V120.707H190.992V124.555ZM187.847 127.996H190.992V147.125H187.847V127.996Z" fill="black"/>
<path d="M175.229 127.996H178.189V132.029H178.263C179.028 130.475 179.965 129.328 181.075 128.588C182.185 127.848 183.591 127.503 185.293 127.552V130.882C184.035 130.882 182.962 131.055 182.074 131.4C181.186 131.745 180.471 132.251 179.928 132.917C179.386 133.583 178.991 134.397 178.744 135.359C178.498 136.296 178.374 137.382 178.374 138.615V147.125H175.229V127.996Z" fill="black"/>
<path d="M156.388 137.579C156.388 138.738 156.536 139.774 156.832 140.687C157.153 141.575 157.584 142.327 158.127 142.944C158.67 143.536 159.299 143.992 160.014 144.313C160.754 144.634 161.531 144.794 162.345 144.794C163.159 144.794 163.924 144.634 164.639 144.313C165.379 143.992 166.02 143.536 166.563 142.944C167.106 142.327 167.525 141.575 167.821 140.687C168.142 139.774 168.302 138.738 168.302 137.579C168.302 136.42 168.142 135.396 167.821 134.508C167.525 133.595 167.106 132.831 166.563 132.214C166.02 131.597 165.379 131.129 164.639 130.808C163.924 130.487 163.159 130.327 162.345 130.327C161.531 130.327 160.754 130.487 160.014 130.808C159.299 131.129 158.67 131.597 158.127 132.214C157.584 132.831 157.153 133.595 156.832 134.508C156.536 135.396 156.388 136.42 156.388 137.579ZM153.058 137.579C153.058 136.173 153.255 134.866 153.65 133.657C154.045 132.424 154.637 131.363 155.426 130.475C156.215 129.562 157.19 128.847 158.349 128.329C159.508 127.811 160.84 127.552 162.345 127.552C163.874 127.552 165.206 127.811 166.341 128.329C167.5 128.847 168.475 129.562 169.264 130.475C170.053 131.363 170.645 132.424 171.04 133.657C171.435 134.866 171.632 136.173 171.632 137.579C171.632 138.985 171.435 140.292 171.04 141.501C170.645 142.71 170.053 143.77 169.264 144.683C168.475 145.571 167.5 146.274 166.341 146.792C165.206 147.285 163.874 147.532 162.345 147.532C160.84 147.532 159.508 147.285 158.349 146.792C157.19 146.274 156.215 145.571 155.426 144.683C154.637 143.77 154.045 142.71 153.65 141.501C153.255 140.292 153.058 138.985 153.058 137.579Z" fill="black"/>
<path d="M146.789 127.996H150.6V130.771H146.789V142.648C146.789 143.018 146.814 143.314 146.863 143.536C146.937 143.758 147.061 143.931 147.233 144.054C147.406 144.177 147.64 144.264 147.936 144.313C148.257 144.338 148.664 144.35 149.157 144.35H150.6V147.125H148.195C147.381 147.125 146.678 147.076 146.086 146.977C145.519 146.854 145.05 146.644 144.68 146.348C144.335 146.052 144.076 145.633 143.903 145.09C143.731 144.547 143.644 143.832 143.644 142.944V130.771H140.388V127.996H143.644V122.261H146.789V127.996Z" fill="black"/>
<path d="M134.23 128.44C134.033 126.541 133.342 125.172 132.158 124.333C130.999 123.47 129.506 123.038 127.681 123.038C126.941 123.038 126.213 123.112 125.498 123.26C124.783 123.408 124.141 123.655 123.574 124C123.031 124.345 122.587 124.814 122.242 125.406C121.921 125.973 121.761 126.689 121.761 127.552C121.761 128.366 121.995 129.032 122.464 129.55C122.957 130.043 123.599 130.45 124.388 130.771C125.202 131.092 126.115 131.363 127.126 131.585C128.137 131.782 129.161 132.004 130.197 132.251C131.258 132.498 132.294 132.794 133.305 133.139C134.316 133.46 135.217 133.904 136.006 134.471C136.82 135.038 137.461 135.754 137.93 136.617C138.423 137.48 138.67 138.566 138.67 139.873C138.67 141.279 138.349 142.488 137.708 143.499C137.091 144.486 136.29 145.3 135.303 145.941C134.316 146.558 133.206 147.002 131.973 147.273C130.764 147.569 129.556 147.717 128.347 147.717C126.867 147.717 125.461 147.532 124.129 147.162C122.822 146.792 121.662 146.237 120.651 145.497C119.664 144.732 118.875 143.77 118.283 142.611C117.716 141.427 117.432 140.033 117.432 138.43H120.762C120.762 139.54 120.972 140.502 121.391 141.316C121.835 142.105 122.402 142.759 123.093 143.277C123.808 143.795 124.635 144.177 125.572 144.424C126.509 144.671 127.471 144.794 128.458 144.794C129.247 144.794 130.037 144.72 130.826 144.572C131.64 144.424 132.368 144.177 133.009 143.832C133.65 143.462 134.168 142.969 134.563 142.352C134.958 141.735 135.155 140.946 135.155 139.984C135.155 139.071 134.908 138.331 134.415 137.764C133.946 137.197 133.305 136.74 132.491 136.395C131.702 136.025 130.801 135.729 129.79 135.507C128.779 135.285 127.743 135.063 126.682 134.841C125.646 134.594 124.622 134.323 123.611 134.027C122.6 133.706 121.687 133.299 120.873 132.806C120.084 132.288 119.442 131.634 118.949 130.845C118.48 130.031 118.246 129.02 118.246 127.811C118.246 126.479 118.517 125.332 119.06 124.37C119.603 123.383 120.318 122.582 121.206 121.965C122.119 121.324 123.142 120.855 124.277 120.559C125.436 120.238 126.62 120.078 127.829 120.078C129.186 120.078 130.444 120.238 131.603 120.559C132.762 120.88 133.774 121.385 134.637 122.076C135.525 122.767 136.216 123.642 136.709 124.703C137.227 125.739 137.511 126.985 137.56 128.44H134.23Z" fill="black"/>
<path d="M99.0382 147.125H95.7082L91.8232 131.918H91.7492L87.9012 147.125H84.4972L78.3552 127.996H81.8332L86.1622 143.647H86.2362L90.0842 127.996H93.5252L97.5212 143.647H97.5952L101.887 127.996H105.143L99.0382 147.125Z" fill="black"/>
<path d="M73.5041 135.729C73.4547 134.989 73.2821 134.286 72.9861 133.62C72.7147 132.954 72.3324 132.387 71.8391 131.918C71.3704 131.425 70.8031 131.042 70.1371 130.771C69.4957 130.475 68.7804 130.327 67.9911 130.327C67.1771 130.327 66.4371 130.475 65.7711 130.771C65.1297 131.042 64.5747 131.425 64.1061 131.918C63.6374 132.411 63.2674 132.991 62.9961 133.657C62.7247 134.298 62.5644 134.989 62.5151 135.729H73.5041ZM76.5381 141.057C76.1187 143.203 75.1937 144.819 73.7631 145.904C72.3324 146.989 70.5317 147.532 68.3611 147.532C66.8317 147.532 65.4997 147.285 64.3651 146.792C63.2551 146.299 62.3177 145.608 61.5531 144.72C60.7884 143.832 60.2087 142.771 59.8141 141.538C59.4441 140.305 59.2344 138.96 59.1851 137.505C59.1851 136.05 59.4071 134.718 59.8511 133.509C60.2951 132.3 60.9117 131.252 61.7011 130.364C62.5151 129.476 63.4647 128.785 64.5501 128.292C65.6601 127.799 66.8687 127.552 68.1761 127.552C69.8781 127.552 71.2841 127.91 72.3941 128.625C73.5287 129.316 74.4291 130.204 75.0951 131.289C75.7857 132.374 76.2544 133.558 76.5011 134.841C76.7724 136.124 76.8834 137.345 76.8341 138.504H62.5151C62.4904 139.343 62.5891 140.144 62.8111 140.909C63.0331 141.649 63.3907 142.315 63.8841 142.907C64.3774 143.474 65.0064 143.931 65.7711 144.276C66.5357 144.621 67.4361 144.794 68.4721 144.794C69.8041 144.794 70.8894 144.486 71.7281 143.869C72.5914 143.252 73.1587 142.315 73.4301 141.057H76.5381Z" fill="black"/>
<path d="M34 120.707H37.737L51.649 142.13H51.723V120.707H55.053V147.125H51.205L37.404 125.924H37.33V147.125H34V120.707Z" fill="black"/>
<path d="M199.033 110.497C199.033 113.63 198.317 115.973 196.887 117.527C195.456 119.081 193.211 119.858 190.153 119.858C189.265 119.858 188.352 119.759 187.415 119.562C186.502 119.365 185.663 119.044 184.899 118.6C184.159 118.156 183.542 117.576 183.049 116.861C182.555 116.146 182.284 115.27 182.235 114.234H185.38C185.404 114.801 185.577 115.282 185.898 115.677C186.243 116.072 186.65 116.392 187.119 116.639C187.612 116.886 188.142 117.058 188.71 117.157C189.277 117.28 189.82 117.342 190.338 117.342C191.374 117.342 192.249 117.157 192.965 116.787C193.68 116.442 194.272 115.948 194.741 115.307C195.209 114.69 195.542 113.938 195.74 113.05C195.962 112.162 196.073 111.188 196.073 110.127V108.869H195.999C195.456 110.053 194.63 110.929 193.52 111.496C192.434 112.039 191.275 112.31 190.042 112.31C188.611 112.31 187.365 112.051 186.305 111.533C185.244 111.015 184.356 110.324 183.641 109.461C182.925 108.573 182.383 107.549 182.013 106.39C181.667 105.206 181.495 103.96 181.495 102.653C181.495 101.518 181.643 100.359 181.939 99.175C182.235 97.9663 182.728 96.881 183.419 95.919C184.109 94.9323 185.022 94.1307 186.157 93.514C187.291 92.8727 188.685 92.552 190.338 92.552C191.546 92.552 192.656 92.8233 193.668 93.366C194.679 93.884 195.468 94.6733 196.036 95.734H196.073V92.996H199.033V110.497ZM190.227 109.572C191.263 109.572 192.138 109.362 192.854 108.943C193.594 108.499 194.186 107.932 194.63 107.241C195.074 106.526 195.394 105.724 195.592 104.836C195.814 103.948 195.925 103.06 195.925 102.172C195.925 101.333 195.826 100.507 195.629 99.693C195.431 98.879 195.111 98.1513 194.667 97.51C194.247 96.844 193.692 96.3137 193.002 95.919C192.311 95.5243 191.472 95.327 190.486 95.327C189.474 95.327 188.611 95.5243 187.896 95.919C187.18 96.289 186.588 96.7947 186.12 97.436C185.676 98.0773 185.343 98.8173 185.121 99.656C184.923 100.495 184.825 101.37 184.825 102.283C184.825 103.146 184.911 104.01 185.084 104.873C185.256 105.736 185.552 106.526 185.972 107.241C186.391 107.932 186.946 108.499 187.637 108.943C188.327 109.362 189.191 109.572 190.227 109.572Z" fill="black"/>
<path d="M161.971 92.996H164.931V96.03H165.005C166.313 93.7113 168.385 92.552 171.221 92.552C172.479 92.552 173.528 92.7247 174.366 93.07C175.205 93.4153 175.883 93.8963 176.401 94.513C176.919 95.1297 177.277 95.8697 177.474 96.733C177.696 97.5717 177.807 98.509 177.807 99.545V112.125H174.662V99.175C174.662 97.991 174.317 97.0537 173.626 96.363C172.936 95.6723 171.986 95.327 170.777 95.327C169.815 95.327 168.977 95.475 168.261 95.771C167.571 96.067 166.991 96.4863 166.522 97.029C166.054 97.5717 165.696 98.213 165.449 98.953C165.227 99.6683 165.116 100.458 165.116 101.321V112.125H161.971V92.996Z" fill="black"/>
<path d="M157.099 89.555H153.954V85.707H157.099V89.555ZM153.954 92.996H157.099V112.125H153.954V92.996Z" fill="black"/>
<path d="M146.464 92.996H150.275V95.771H146.464V107.648C146.464 108.018 146.489 108.314 146.538 108.536C146.612 108.758 146.735 108.931 146.908 109.054C147.081 109.177 147.315 109.264 147.611 109.313C147.932 109.338 148.339 109.35 148.832 109.35H150.275V112.125H147.87C147.056 112.125 146.353 112.076 145.761 111.977C145.194 111.854 144.725 111.644 144.355 111.348C144.01 111.052 143.751 110.633 143.578 110.09C143.405 109.547 143.319 108.832 143.319 107.944V95.771H140.063V92.996H143.319V87.261H146.464V92.996Z" fill="black"/>
<path d="M139.171 112.051C138.628 112.372 137.876 112.532 136.914 112.532C136.1 112.532 135.446 112.31 134.953 111.866C134.484 111.397 134.25 110.645 134.25 109.609C133.387 110.645 132.375 111.397 131.216 111.866C130.081 112.31 128.848 112.532 127.516 112.532C126.653 112.532 125.826 112.433 125.037 112.236C124.272 112.039 123.606 111.73 123.039 111.311C122.472 110.892 122.015 110.349 121.67 109.683C121.349 108.992 121.189 108.166 121.189 107.204C121.189 106.119 121.374 105.231 121.744 104.54C122.114 103.849 122.595 103.294 123.187 102.875C123.804 102.431 124.494 102.098 125.259 101.876C126.048 101.654 126.85 101.469 127.664 101.321C128.527 101.148 129.341 101.025 130.106 100.951C130.895 100.852 131.586 100.729 132.178 100.581C132.77 100.408 133.239 100.174 133.584 99.878C133.929 99.5573 134.102 99.101 134.102 98.509C134.102 97.8183 133.966 97.2633 133.695 96.844C133.448 96.4247 133.115 96.104 132.696 95.882C132.301 95.66 131.845 95.512 131.327 95.438C130.834 95.364 130.34 95.327 129.847 95.327C128.515 95.327 127.405 95.586 126.517 96.104C125.629 96.5973 125.148 97.547 125.074 98.953H121.929C121.978 97.769 122.225 96.77 122.669 95.956C123.113 95.142 123.705 94.4883 124.445 93.995C125.185 93.477 126.024 93.107 126.961 92.885C127.923 92.663 128.947 92.552 130.032 92.552C130.895 92.552 131.746 92.6137 132.585 92.737C133.448 92.8603 134.225 93.1193 134.916 93.514C135.607 93.884 136.162 94.4143 136.581 95.105C137 95.7957 137.21 96.696 137.21 97.806V107.648C137.21 108.388 137.247 108.931 137.321 109.276C137.42 109.621 137.716 109.794 138.209 109.794C138.48 109.794 138.801 109.732 139.171 109.609V112.051ZM134.065 102.246C133.67 102.542 133.152 102.764 132.511 102.912C131.87 103.035 131.191 103.146 130.476 103.245C129.785 103.319 129.082 103.418 128.367 103.541C127.652 103.64 127.01 103.812 126.443 104.059C125.876 104.306 125.407 104.663 125.037 105.132C124.692 105.576 124.519 106.193 124.519 106.982C124.519 107.5 124.618 107.944 124.815 108.314C125.037 108.659 125.308 108.943 125.629 109.165C125.974 109.387 126.369 109.547 126.813 109.646C127.257 109.745 127.726 109.794 128.219 109.794C129.255 109.794 130.143 109.658 130.883 109.387C131.623 109.091 132.227 108.733 132.696 108.314C133.165 107.87 133.51 107.401 133.732 106.908C133.954 106.39 134.065 105.909 134.065 105.465V102.246Z" fill="black"/>
<path d="M115.635 100.729C115.586 99.989 115.413 99.286 115.117 98.62C114.846 97.954 114.463 97.3867 113.97 96.918C113.501 96.4247 112.934 96.0423 112.268 95.771C111.627 95.475 110.911 95.327 110.122 95.327C109.308 95.327 108.568 95.475 107.902 95.771C107.261 96.0423 106.706 96.4247 106.237 96.918C105.768 97.4113 105.398 97.991 105.127 98.657C104.856 99.2983 104.695 99.989 104.646 100.729H115.635ZM118.669 106.057C118.25 108.203 117.325 109.819 115.894 110.904C114.463 111.989 112.663 112.532 110.492 112.532C108.963 112.532 107.631 112.285 106.496 111.792C105.386 111.299 104.449 110.608 103.684 109.72C102.919 108.832 102.34 107.771 101.945 106.538C101.575 105.305 101.365 103.96 101.316 102.505C101.316 101.05 101.538 99.7177 101.982 98.509C102.426 97.3003 103.043 96.252 103.832 95.364C104.646 94.476 105.596 93.7853 106.681 93.292C107.791 92.7987 109 92.552 110.307 92.552C112.009 92.552 113.415 92.9097 114.525 93.625C115.66 94.3157 116.56 95.2037 117.226 96.289C117.917 97.3743 118.385 98.5583 118.632 99.841C118.903 101.124 119.014 102.345 118.965 103.504H104.646C104.621 104.343 104.72 105.144 104.942 105.909C105.164 106.649 105.522 107.315 106.015 107.907C106.508 108.474 107.137 108.931 107.902 109.276C108.667 109.621 109.567 109.794 110.603 109.794C111.935 109.794 113.02 109.486 113.859 108.869C114.722 108.252 115.29 107.315 115.561 106.057H118.669Z" fill="black"/>
<path d="M90.5701 92.996H93.5301V97.029H93.6041C94.3687 95.475 95.3061 94.328 96.4161 93.588C97.5261 92.848 98.9321 92.5027 100.634 92.552V95.882C99.3761 95.882 98.3031 96.0547 97.4151 96.4C96.5271 96.7453 95.8117 97.251 95.2691 97.917C94.7264 98.583 94.3317 99.397 94.0851 100.359C93.8384 101.296 93.7151 102.382 93.7151 103.615V112.125H90.5701V92.996Z" fill="black"/>
<path d="M83.0709 93.662C82.6762 91.7873 81.8006 90.3813 80.4439 89.444C79.1119 88.5067 77.5209 88.038 75.6709 88.038C74.0922 88.038 72.7356 88.334 71.6009 88.926C70.4909 89.518 69.5659 90.3197 68.8259 91.331C68.1106 92.3177 67.5802 93.4523 67.2349 94.735C66.8896 96.0177 66.7169 97.3497 66.7169 98.731C66.7169 100.236 66.8896 101.666 67.2349 103.023C67.5802 104.355 68.1106 105.527 68.8259 106.538C69.5659 107.525 70.5032 108.314 71.6379 108.906C72.7726 109.498 74.1292 109.794 75.7079 109.794C76.8672 109.794 77.8909 109.609 78.7789 109.239C79.6916 108.844 80.4686 108.314 81.1099 107.648C81.7759 106.957 82.2939 106.143 82.6639 105.206C83.0339 104.269 83.2559 103.257 83.3299 102.172H86.8449C86.4996 105.502 85.3526 108.092 83.4039 109.942C81.4552 111.792 78.7912 112.717 75.4119 112.717C73.3646 112.717 71.5762 112.372 70.0469 111.681C68.5176 110.966 67.2472 109.991 66.2359 108.758C65.2246 107.525 64.4599 106.069 63.9419 104.392C63.4486 102.715 63.2019 100.914 63.2019 98.99C63.2019 97.066 63.4732 95.2653 64.0159 93.588C64.5586 91.886 65.3479 90.406 66.3839 89.148C67.4446 87.89 68.7519 86.9033 70.3059 86.188C71.8846 85.448 73.6852 85.078 75.7079 85.078C77.0892 85.078 78.3966 85.263 79.6299 85.633C80.8632 86.003 81.9609 86.5457 82.9229 87.261C83.8849 87.9763 84.6866 88.8767 85.3279 89.962C85.9692 91.0227 86.3886 92.256 86.5859 93.662H83.0709Z" fill="black"/>
<path d="M168.559 58.295C168.559 57.735 169.329 56.79 170.204 55.775L174.159 51.225C174.894 50.385 175.909 50 176.924 50C178.709 50 180.424 51.225 180.424 53.325C180.424 55.285 179.234 56.195 177.554 56.79L173.704 58.12C173.249 58.26 173.039 58.575 173.039 58.925C173.039 59.52 173.634 59.52 173.949 59.485L176.329 59.205C179.864 58.785 181.054 61.76 178.744 64.42L172.059 72.05C171.499 72.68 171.324 72.96 171.324 73.31C171.324 74.01 171.919 74.605 172.584 74.325L176.784 72.505C178.254 71.875 179.969 72.085 180.179 74.115C180.424 76.46 177.624 77.65 174.929 77.65C170.939 77.65 169.084 74.99 170.029 71.49L172.864 61.13C172.934 60.885 172.969 60.675 172.969 60.5C172.969 59.695 172.339 59.415 171.219 59.415H169.714C168.839 59.415 168.559 58.925 168.559 58.295Z" fill="black"/>
<path d="M147.086 57.21L148.101 58.505C149.431 60.185 149.291 62.04 147.156 63.475L141.521 67.325C138.896 69.11 141.206 73.38 143.901 71.77L158.706 62.95C162.066 60.955 164.586 62.145 164.726 65.015L165.076 72.365C165.251 76.145 163.536 77.65 160.946 77.65C158.356 77.65 156.291 74.955 158.601 71.42L162.346 65.645C163.081 64.525 162.206 63.72 161.436 63.72C160.771 63.72 160.246 63.79 158.986 65.47L153.246 72.96C150.551 76.495 149.081 77.65 145.931 77.65C141.801 77.65 137.951 73.17 137.951 64.315C137.951 55.215 143.446 50 151.391 50C158.041 50 162.451 52.17 163.536 55.88C164.516 59.17 159.721 61.235 157.516 58.33L153.631 53.22C152.476 51.715 150.201 50.98 148.101 51.89C145.651 52.94 145.791 55.6 147.086 57.21Z" fill="black"/>
<path d="M121.664 77.65C113.544 77.65 109.274 72.925 109.274 63.755C109.274 54.585 113.544 50 121.664 50C129.819 50 134.089 54.585 134.089 63.755C134.089 72.925 129.819 77.65 121.664 77.65ZM131.499 63.44C132.689 62.005 132.339 60.43 130.659 59.765L117.394 54.445C114.594 53.325 112.389 55.145 113.404 58.435L118.129 73.52C118.689 75.34 120.929 76.18 122.259 74.605L131.499 63.44Z" fill="black"/>
<path d="M99.9307 53.5C99.7907 48.635 107.806 48.95 107.701 53.71C107.666 55.145 106.546 57 105.566 58.575L96.9907 72.645C95.5907 74.955 93.5607 77.65 91.0407 77.65C85.8957 77.65 85.3007 70.16 90.8657 70.16H94.1557C96.5357 70.16 96.3257 69.11 95.8007 68.41L85.0207 53.99C84.0407 52.695 82.7807 53.64 83.2707 54.935L84.8457 59.03C85.5107 60.78 85.0207 61.76 83.9007 62.145C83.4107 62.32 82.5007 61.935 82.1157 60.92C80.8557 57.595 81.5557 50 86.6657 50C88.6607 50 89.6057 50.98 91.1457 53.185L98.1807 63.335C99.5107 65.225 100.246 64 100.211 62.88L99.9307 53.5Z" fill="black"/>
<path d="M169.232 20.6L153.832 19.235C151.802 19.06 150.892 20.005 150.892 20.985C150.892 22 151.697 22.7 153.832 22.98L166.362 24.52C169.022 24.835 169.932 26.445 169.932 28.125C169.932 29.42 169.442 31.065 166.362 32.045L152.712 36.385C151.067 36.91 150.787 37.61 150.787 38.485C150.787 39.255 151.732 40.69 153.447 40.095L167.762 35.09C170.772 34.04 172.347 34.88 172.452 36.98C172.557 38.975 171.577 40.095 169.722 40.97C167.692 41.915 162.442 42.72 157.752 42.685C153.097 42.685 148.897 41.635 148.897 38.135C148.897 36.84 149.772 35.58 151.347 34.46L161.777 27.215C163.177 26.235 162.477 24.94 160.867 25.605L153.867 28.475C150.437 29.875 147.462 28.195 147.462 25.01C147.462 18.64 155.092 15.035 164.052 15.035C170.317 15.035 172.452 16.47 172.452 18.675C172.452 19.795 171.857 20.845 169.232 20.6Z" fill="black"/>
<path d="M135.799 39.185C135.799 38.1 136.429 36.98 137.514 35.72L139.019 34.005C139.684 33.27 140.384 32.85 140.139 31.695C139.929 30.68 139.159 30.33 137.724 30.33H122.849C121.659 30.33 120.819 30.82 120.819 31.765C120.819 32.43 120.994 32.955 122.044 33.55L126.034 35.825C127.259 36.525 128.134 37.855 128.134 39.43C128.134 41.32 126.769 42.65 124.389 42.65C120.644 42.65 119.664 39.325 119.384 36.805L117.529 19.55C117.179 16.225 119.069 15 121.064 15C123.164 15 125.194 16.575 125.194 18.605C125.194 19.725 124.599 20.985 123.479 22.21C122.604 23.155 121.659 23.785 121.659 24.625C121.659 25.15 121.939 25.535 123.479 25.85L136.779 28.475C137.969 28.755 139.229 28.685 139.229 27.705C139.229 27.145 138.949 26.34 138.179 25.64L134.924 22.56C133.279 21.02 132.999 19.725 132.999 18.605C132.999 16.82 134.259 15 136.604 15C140.349 15 141.224 17.275 141.504 19.795L143.604 39.255C143.814 41.355 141.924 42.65 139.929 42.65C137.094 42.65 135.799 41.11 135.799 39.185Z" fill="black"/>
<path d="M101.966 19.76L107.601 36.14C109.036 39.955 108.266 42.65 104.521 42.65C101.161 42.65 100.461 40.725 100.391 37.015L100.006 19.9C99.9714 17.695 99.5864 16.785 98.6414 16.785C97.4514 16.785 97.1014 17.94 97.1014 19.48V21.02C97.1014 25.85 96.0864 28.16 92.9014 28.055C90.6614 27.985 88.9814 26.06 88.9814 23.89C88.9814 19.025 92.8314 15.525 99.1665 15.525H111.136C114.776 15.525 115.931 17.625 115.931 19.41C115.931 23.435 110.751 25.465 107.531 21.895L103.611 17.52C103.261 17.135 102.876 16.96 102.561 16.96C101.616 16.96 101.266 17.765 101.966 19.76Z" fill="black"/>
</svg>
