<svg enable-background="new 0 0 265 145" viewBox="0 0 265 145" xmlns="http://www.w3.org/2000/svg"><path d="m44 89.5 3.8 15.4 3.8-15.4h3.7l3.8 15.3 4-15.3h3.3l-5.7 19.6h-3.4l-4-15.1-3.9 15.1h-3.4l-5.6-19.6z"/><path d="m69.4 82.2h3.3v3.8h-3.3zm0 7.4h3.3v19.5h-3.3z"/><path d="m78.4 84h3.3v5.5h3.1v2.7h-3.1v12.8c0 .7.2 1.1.7 1.4.3.1.7.2 1.3.2h.5c.2 0 .4 0 .6-.1v2.6c-.4.1-.8.2-1.2.2s-.8.1-1.3.1c-1.5 0-2.6-.4-3.1-1.2s-.8-1.8-.8-3.1v-12.9h-2.6v-2.7h2.6z"/><path d="m88.1 82.1h3.3v10c.8-1 1.5-1.7 2.1-2.1 1.1-.7 2.4-1 4-1 2.8 0 4.8 1 5.8 3 .5 1.1.8 2.6.8 4.5v12.5h-3.4v-12.3c0-1.4-.2-2.5-.5-3.2-.6-1.1-1.7-1.6-3.4-1.6-1.4 0-2.6.5-3.7 1.4s-1.7 2.7-1.7 5.3v10.4h-3.3z"/><path d="m122.1 100.4c.1 1.5.4 2.8 1 3.7 1.2 1.8 3.2 2.7 6.1 2.7 1.3 0 2.5-.2 3.6-.6 2.1-.8 3.1-2.1 3.1-4.1 0-1.5-.4-2.5-1.3-3.1s-2.3-1.1-4.2-1.6l-3.5-.8c-2.3-.5-3.9-1.1-4.9-1.8-1.7-1.1-2.5-2.8-2.5-5 0-2.4.8-4.4 2.4-5.9s3.9-2.3 6.9-2.3c2.7 0 5.1.7 7 2 1.9 1.4 2.9 3.5 2.9 6.5h-3.4c-.2-1.4-.5-2.5-1.1-3.3-1.1-1.4-2.9-2.1-5.4-2.1-2.1 0-3.5.5-4.4 1.4s-1.3 1.9-1.3 3.1c0 1.3.5 2.3 1.6 2.9.7.4 2.3.9 4.7 1.5l3.6.9c1.8.4 3.1 1 4.1 1.7 1.7 1.3 2.5 3.1 2.5 5.5 0 3-1.1 5.1-3.2 6.4s-4.6 1.9-7.3 1.9c-3.3 0-5.8-.9-7.6-2.6s-2.7-4-2.7-6.9h3.3z"/><path d="m144.2 82.2h3.2v15.6l8.4-8.3h4.2l-7.5 7.3 7.9 12.3h-4.2l-6.2-10-2.7 2.6v7.3h-3.2v-26.8z"/><path d="m163 82.2h3.3v3.8h-3.3zm0 7.4h3.3v19.5h-3.3z"/><path d="m171.4 82.2h3.3v26.8h-3.3z"/><path d="m179.7 82.2h3.3v26.8h-3.3z"/><path d="m189.4 83.5c.8-1.1 2.2-1.7 4.4-1.7h.6c.2 0 .5 0 .7.1v3c-.3 0-.6 0-.7 0-.2 0-.3 0-.4 0-1 0-1.6.3-1.8.8s-.3 1.8-.3 4h3.3v2.6h-3.2v16.9h-3.2v-17h-2.8v-2.6h2.7v-3.1c.1-1.3.3-2.3.7-3z"/><path d="m201.6 89.5v13c0 1 .2 1.8.5 2.4.6 1.2 1.6 1.8 3.2 1.8 2.2 0 3.7-1 4.6-3.1.4-1.1.7-2.6.7-4.5v-9.6h3.3v19.6h-3.1v-2.9c-.4.7-.9 1.4-1.6 1.9-1.2 1-2.7 1.5-4.5 1.5-2.7 0-4.6-.9-5.6-2.8-.5-1-.8-2.3-.8-4v-13.3z"/><path d="m219.2 82.2h3.3v26.8h-3.3z"/><path d="m81.4 117.2h3.7v11.1h13.8v-11.1h3.7v26.8h-3.7v-12.5h-13.8v12.5h-3.7z"/><path d="m118.3 132.2c.8-.1 1.3-.4 1.5-.9.1-.3.2-.7.2-1.3 0-1.1-.4-1.9-1.2-2.4s-1.9-.8-3.4-.8c-1.7 0-2.9.5-3.6 1.4-.4.5-.7 1.3-.8 2.3h-3c.1-2.4.8-4.1 2.3-5s3.2-1.4 5.2-1.4c2.3 0 4.2.4 5.6 1.3s2.1 2.2 2.1 4.1v11.3c0 .3.1.6.2.8s.4.3.9.3h.5c.2 0 .4 0 .6-.1v2.4c-.5.1-.9.2-1.2.3-.3 0-.6.1-1.1.1-1.1 0-2-.4-2.5-1.2-.3-.4-.5-1-.6-1.8-.7.9-1.6 1.6-2.9 2.3-1.3.6-2.6 1-4.1 1-1.8 0-3.3-.5-4.4-1.7s-1.7-2.5-1.7-4.1c0-1.8.6-3.2 1.7-4.2s2.6-1.6 4.5-1.8zm-6.9 8.9c.7.5 1.5.8 2.5.8 1.2 0 2.3-.3 3.4-.8 1.8-.9 2.7-2.3 2.7-4.4v-2.6c-.4.3-.9.5-1.5.6-.6.2-1.3.3-1.9.4l-2 .3c-1.2.2-2.1.4-2.7.7-1 .6-1.5 1.5-1.5 2.7 0 1 .3 1.8 1 2.3z"/><path d="m128.7 124.5h3.1v2.8c.9-1.1 1.9-2 2.9-2.5s2.2-.7 3.5-.7c2.8 0 4.6 1 5.6 2.9.5 1.1.8 2.6.8 4.5v12.5h-3.3v-12.3c0-1.2-.2-2.2-.5-2.9-.6-1.2-1.6-1.8-3.2-1.8-.8 0-1.4.1-1.9.2-.9.3-1.7.8-2.4 1.6-.5.6-.9 1.3-1.1 2s-.2 1.7-.2 2.9v10.2h-3.3z"/><path d="m160.2 125.1c.6.4 1.2 1 2 1.9v-9.9h3.2v26.9h-3v-2.7c-.8 1.2-1.7 2.1-2.7 2.6s-2.2.8-3.6.8c-2.2 0-4.1-.9-5.6-2.7-1.6-1.8-2.4-4.3-2.4-7.3 0-2.8.7-5.3 2.2-7.4s3.5-3.1 6.2-3.1c1.5 0 2.7.3 3.7.9zm-7.3 14.7c.9 1.4 2.3 2.1 4.3 2.1 1.5 0 2.8-.7 3.7-2 1-1.3 1.5-3.2 1.5-5.6 0-2.5-.5-4.3-1.5-5.5s-2.2-1.8-3.7-1.8c-1.6 0-3 .6-4 1.9s-1.5 3.1-1.5 5.6c-.2 2.1.3 3.9 1.2 5.3z"/><path d="m172.2 137.9c.1 1.1.4 1.9.8 2.5.8 1.1 2.3 1.6 4.4 1.6 1.2 0 2.3-.3 3.3-.8s1.4-1.3 1.4-2.5c0-.8-.4-1.5-1.1-1.9-.5-.3-1.4-.6-2.9-.9l-2.7-.7c-1.7-.4-2.9-.9-3.7-1.4-1.4-.9-2.2-2.1-2.2-3.7 0-1.8.7-3.3 2-4.5 1.4-1.1 3.2-1.7 5.5-1.7 3 0 5.1.9 6.5 2.6.8 1.1 1.2 2.3 1.2 3.5h-3.1c-.1-.7-.3-1.4-.8-2-.8-.9-2.1-1.3-4-1.3-1.3 0-2.2.2-2.9.7s-1 1.1-1 1.9.4 1.5 1.3 2c.5.3 1.2.6 2.2.8l2.2.5c2.4.6 4 1.1 4.8 1.7 1.3.8 1.9 2.2 1.9 4 0 1.7-.7 3.2-2 4.5s-3.4 1.9-6.1 1.9c-2.9 0-5-.7-6.3-2-1.2-1.3-1.9-3-2-4.9h3.3z"/><path d="m105.9 5.9h-9.2v-4.6h24v4.6h-9.3v25.1h-5.5z"/><path d="m123.1 0h5v13.2c.7-1 1.6-1.9 2.7-2.5s2.3-.9 3.8-.9c2.7 0 4.7.9 6.1 2.6s2.1 4.2 2.1 7.4v11.2h-5.1v-11.2c0-1.8-.3-3.2-1-4.3-.7-1-1.7-1.5-3.2-1.5-1.8 0-3.1.6-4 1.7s-1.3 2.8-1.3 4.9v10.4h-5v-31z"/><path d="m166.8 20c0 .4 0 1-.1 1.7h-16c.2 1.7.8 3.1 1.8 4.1s2.3 1.5 3.9 1.5c1.3 0 2.3-.3 3.3-1 .9-.7 1.6-1.6 2.1-2.7l4.5 1.1c-.7 2.2-2 3.9-3.8 5.1s-3.9 1.8-6.2 1.8c-2 0-3.9-.5-5.5-1.4s-2.9-2.2-3.9-3.9c-.9-1.7-1.4-3.6-1.4-5.7s.5-4 1.4-5.7 2.2-3 3.9-3.9c1.6-.9 3.5-1.4 5.5-1.4s3.8.4 5.4 1.3 2.9 2.1 3.8 3.6c.8 1.8 1.3 3.5 1.3 5.5zm-10.7-6.2c-1.4 0-2.6.4-3.5 1.1s-1.4 1.8-1.7 3.1h10.5c-.2-1.3-.8-2.4-1.7-3.1s-2.1-1.1-3.6-1.1z"/><path d="m36.7 70.8c-2.7 0-5.2-.7-7.3-2s-3.8-3.2-5.1-5.5c-1.2-2.4-1.8-5-1.8-8 0-2.9.6-5.6 1.8-7.9 1.2-2.4 2.9-4.2 5.1-5.5 2.2-1.4 4.8-2 7.7-2 3.6 0 6.5.9 8.9 2.6 2.3 1.7 4.1 4.3 5.1 7.6l-5.6.6c-.5-1.9-1.5-3.4-3-4.4-1.4-1.1-3.1-1.6-5-1.6-2 0-3.7.5-5.1 1.4-1.4 1-2.4 2.3-3.1 3.9s-1 3.4-1 5.4c0 1.9.4 3.7 1.1 5.3s1.8 2.9 3.1 3.9c1.4.9 3 1.4 4.8 1.4 2.2 0 4.1-.7 5.6-2 1.5-1.4 2.4-3.3 2.8-5.8h-9.9v-4.3h15.1v16.4h-4.5v-4.6c-.9 1.6-2.3 2.8-4 3.8-1.7.8-3.6 1.3-5.7 1.3z"/><path d="m65.4 70.8c-2.1 0-4-.5-5.6-1.4-1.7-.9-3-2.2-3.9-3.9s-1.4-3.5-1.4-5.6.5-4 1.4-5.6c.9-1.7 2.2-3 3.9-3.9s3.5-1.4 5.6-1.4 4 .5 5.7 1.4 3 2.2 3.9 3.9c.9 1.6 1.4 3.5 1.4 5.6s-.5 3.9-1.4 5.6c-.9 1.6-2.3 2.9-3.9 3.9-1.7.9-3.6 1.4-5.7 1.4zm0-4.2c1.7 0 3-.6 4.1-1.9 1-1.2 1.5-2.9 1.5-4.9s-.5-3.7-1.5-4.9-2.4-1.9-4.1-1.9-3 .6-4 1.9c-1 1.2-1.5 2.9-1.5 4.9s.5 3.6 1.5 4.9 2.3 1.9 4 1.9z"/><path d="m98.9 66.7c.7 0 1.3-.2 1.8-.7v3.4c-.3.3-.8.6-1.4.9s-1.3.4-2 .4c-1.1 0-2.1-.3-2.7-.9-.7-.6-1.1-1.4-1.2-2.4-.8 1-1.8 1.8-3 2.4s-2.5.9-4 .9-2.9-.3-4-.8-2-1.3-2.6-2.2-.9-2-.9-3.1c0-1.9.5-3.3 1.5-4.3s2.4-1.7 4.4-2c2-.4 4.6-.6 7.9-.6 0-1.7-.4-2.9-1.2-3.7-.7-.8-1.9-1.1-3.4-1.1-1.3 0-2.3.3-3 .9s-1.3 1.5-1.7 2.8l-4.4-1.1c.7-2.3 1.7-4 3.3-5.1 1.5-1.1 3.5-1.7 6-1.7 3.1 0 5.5.9 7 2.6s2.3 4.3 2.3 7.9v6.3c0 .4.1.8.4 1 0 .1.4.2.9.2zm-12 .1c1.5 0 2.8-.5 3.9-1.6s1.6-2.5 1.6-4.1h-.9c-1.9.1-3.4.3-4.4.4s-1.8.4-2.4.9c-.6.4-.9 1.1-.9 1.9s.3 1.4.8 1.9c.6.4 1.4.6 2.3.6z"/><path d="m103.3 39.2h5v31h-5z"/><path d="m120.7 61.4-2.1 2v6.9h-5v-30.9h5v18.2l8.1-8h6.4l-8.9 8.5 10.2 12.2h-6.4z"/><path d="m155.1 59.2c0 .4 0 1-.1 1.7h-16c.2 1.7.8 3.1 1.8 4.1s2.3 1.5 3.9 1.5c1.3 0 2.3-.3 3.3-1 .9-.7 1.6-1.6 2.1-2.7l4.5 1.1c-.7 2.2-2 3.9-3.8 5.1s-3.9 1.8-6.2 1.8c-2 0-3.9-.5-5.5-1.4s-2.9-2.2-3.9-3.9c-.9-1.7-1.4-3.6-1.4-5.7s.5-4 1.4-5.7 2.2-3 3.9-3.9c1.6-.9 3.5-1.4 5.5-1.4s3.8.4 5.4 1.3 2.9 2.1 3.8 3.6c.8 1.8 1.3 3.5 1.3 5.5zm-10.6-6.2c-1.4 0-2.6.4-3.5 1.1s-1.4 1.8-1.7 3.1h10.5c-.2-1.3-.8-2.4-1.7-3.1s-2.1-1.1-3.6-1.1z"/><path d="m177.9 59.2c0 .4 0 1-.1 1.7h-16c.2 1.7.8 3.1 1.8 4.1s2.3 1.5 3.9 1.5c1.3 0 2.3-.3 3.3-1 .9-.7 1.6-1.6 2.1-2.7l4.5 1.1c-.7 2.2-2 3.9-3.8 5.1s-3.9 1.8-6.2 1.8c-2 0-3.9-.5-5.5-1.4s-2.9-2.2-3.9-3.9c-.9-1.7-1.4-3.6-1.4-5.7s.5-4 1.4-5.7 2.2-3 3.9-3.9c1.6-.9 3.5-1.4 5.5-1.4s3.8.4 5.4 1.3 2.9 2.1 3.8 3.6c.9 1.8 1.3 3.5 1.3 5.5zm-10.6-6.2c-1.4 0-2.6.4-3.5 1.1s-1.4 1.8-1.7 3.1h10.5c-.2-1.3-.8-2.4-1.7-3.1s-2.1-1.1-3.6-1.1z"/><path d="m181.5 49.5h5v2.5c.6-.9 1.5-1.6 2.7-2.2s2.4-.9 3.7-.9c1.8 0 3.5.5 5 1.4s2.7 2.2 3.5 3.9c.9 1.6 1.3 3.5 1.3 5.6s-.4 3.9-1.3 5.6-2 3-3.5 3.9-3.1 1.4-5 1.4c-1.3 0-2.6-.3-3.7-.8s-2-1.2-2.7-2v12h-5zm10.3 17.1c1.7 0 3-.6 4-1.8s1.5-2.9 1.5-5-.5-3.7-1.5-4.9-2.3-1.8-4-1.8-3 .6-4 1.8-1.5 2.9-1.5 4.9.5 3.7 1.5 5c1 1.2 2.3 1.8 4 1.8z"/><path d="m225.5 59.2c0 .4 0 1-.1 1.7h-16c.2 1.7.8 3.1 1.8 4.1s2.3 1.5 3.9 1.5c1.3 0 2.3-.3 3.3-1 .9-.7 1.6-1.6 2.1-2.7l4.5 1.1c-.7 2.2-2 3.9-3.8 5.1s-3.9 1.8-6.2 1.8c-2 0-3.9-.5-5.5-1.4s-2.9-2.2-3.9-3.9c-.9-1.7-1.4-3.6-1.4-5.7s.5-4 1.4-5.7 2.2-3 3.9-3.9c1.6-.9 3.5-1.4 5.5-1.4s3.8.4 5.4 1.3 2.9 2.1 3.8 3.6c.9 1.8 1.3 3.5 1.3 5.5zm-10.6-6.2c-1.4 0-2.6.4-3.5 1.1s-1.4 1.8-1.7 3.1h10.5c-.2-1.3-.8-2.4-1.7-3.1s-2.1-1.1-3.6-1.1z"/><path d="m229.1 49.5h5v3.1c1.3-2.5 3.3-3.7 5.9-3.7.9 0 1.7.2 2.4.5v4.8c-.9-.3-1.8-.4-2.8-.4-3.7 0-5.6 2.1-5.6 6.2v10.2h-5v-20.7z"/></svg>