<?xml version="1.0" encoding="utf-8"?>
<!-- Generator: Adobe Illustrator 26.0.1, SVG Export Plug-In . SVG Version: 6.00 Build 0)  -->
<svg version="1.1" id="Layer_1" xmlns="http://www.w3.org/2000/svg" xmlns:xlink="http://www.w3.org/1999/xlink" x="0px" y="0px"
	 viewBox="0 0 265 157.7" style="enable-background:new 0 0 265 157.7;" xml:space="preserve">
<g>
	<path d="M14.5,85.4l5.1,21.8l6.1-21.8h3.9l6.1,21.8l5.1-21.8h4l-7,26.8h-3.8L27.6,90l-6.2,22.2h-3.8l-7-26.8H14.5z"/>
	<path d="M47.6,85.3h3.3v10c0.8-1,1.5-1.7,2.1-2.1c1.1-0.7,2.4-1,4-1c2.8,0,4.8,1,5.8,3c0.5,1.1,0.8,2.6,0.8,4.5v12.5h-3.4V99.9
		c0-1.4-0.2-2.5-0.5-3.2c-0.6-1.1-1.7-1.6-3.4-1.6c-1.4,0-2.6,0.5-3.7,1.4s-1.7,2.7-1.7,5.3v10.4h-3.3V85.3z"/>
	<path d="M82.5,94.6c1.7,1.7,2.6,4.1,2.6,7.4c0,3.2-0.8,5.8-2.3,7.8c-1.5,2.1-3.9,3.1-7.1,3.1c-2.7,0-4.8-0.9-6.4-2.7
		c-1.6-1.8-2.4-4.3-2.4-7.3c0-3.3,0.8-5.9,2.5-7.8c1.7-1.9,3.9-2.9,6.7-2.9C78.7,92.1,80.8,93,82.5,94.6z M80.5,107.6
		c0.8-1.6,1.2-3.5,1.2-5.5c0-1.8-0.3-3.3-0.9-4.5c-0.9-1.8-2.5-2.7-4.7-2.7c-2,0-3.4,0.8-4.3,2.3c-0.9,1.5-1.4,3.4-1.4,5.5
		c0,2.1,0.5,3.8,1.4,5.2c0.9,1.4,2.3,2.1,4.3,2.1C78.2,110.1,79.7,109.3,80.5,107.6z"/>
	<path d="M100.2,85.4h10.7c3.6,0,6.5,1.3,8.5,3.9c1.8,2.4,2.7,5.4,2.7,9.1c0,2.8-0.5,5.4-1.6,7.7c-1.9,4.1-5.1,6.1-9.6,6.1h-10.7
		V85.4z M110.2,109.1c1.2,0,2.2-0.1,3-0.4c1.4-0.5,2.5-1.4,3.4-2.7c0.7-1.1,1.2-2.5,1.5-4.2c0.2-1,0.3-1.9,0.3-2.8
		c0-3.3-0.6-5.9-1.9-7.7c-1.3-1.8-3.4-2.8-6.2-2.8h-6.3v20.6H110.2z"/>
	<path d="M138.6,93.2c1.3,0.7,2.3,1.5,3,2.5c0.7,1,1.1,2.1,1.3,3.5c0.2,0.9,0.3,2.3,0.3,4.3H129c0.1,2,0.5,3.6,1.4,4.8
		c0.9,1.2,2.2,1.8,4,1.8c1.7,0,3.1-0.6,4.1-1.7c0.6-0.7,1-1.4,1.2-2.3h3.2c-0.1,0.7-0.4,1.5-0.8,2.4s-1,1.6-1.6,2.2
		c-1,1-2.2,1.6-3.7,2c-0.8,0.2-1.7,0.3-2.7,0.3c-2.4,0-4.5-0.9-6.2-2.7s-2.5-4.3-2.5-7.4c0-3.1,0.8-5.7,2.5-7.7
		c1.7-2,3.9-2.9,6.6-2.9C136,92.2,137.3,92.6,138.6,93.2z M139.8,100.9c-0.1-1.4-0.4-2.6-0.9-3.4c-0.9-1.6-2.4-2.4-4.5-2.4
		c-1.5,0-2.8,0.5-3.8,1.6c-1,1.1-1.6,2.5-1.6,4.2H139.8z"/>
	<path d="M149.3,106.1c0.1,1.1,0.4,1.9,0.8,2.5c0.8,1.1,2.3,1.6,4.4,1.6c1.2,0,2.3-0.3,3.3-0.8s1.4-1.3,1.4-2.5
		c0-0.8-0.4-1.5-1.1-1.9c-0.5-0.3-1.4-0.6-2.9-0.9l-2.7-0.7c-1.7-0.4-2.9-0.9-3.7-1.4c-1.4-0.9-2.2-2.1-2.2-3.7c0-1.8,0.7-3.3,2-4.5
		c1.4-1.1,3.2-1.7,5.5-1.7c3,0,5.1,0.9,6.5,2.6c0.8,1.1,1.2,2.3,1.2,3.5h-3.1c-0.1-0.7-0.3-1.4-0.8-2c-0.8-0.9-2.1-1.3-4-1.3
		c-1.3,0-2.2,0.2-2.9,0.7s-1,1.1-1,1.9c0,0.8,0.4,1.5,1.3,2c0.5,0.3,1.2,0.6,2.2,0.8l2.2,0.5c2.4,0.6,4,1.1,4.8,1.7
		c1.3,0.8,1.9,2.2,1.9,4c0,1.7-0.7,3.2-2,4.5c-1.3,1.3-3.4,1.9-6.1,1.9c-2.9,0-5-0.7-6.3-2c-1.2-1.3-1.9-3-2-4.9H149.3z"/>
	<path d="M166.1,85.4h3.3v3.7h-3.3V85.4z M166.1,92.8h3.3v19.5h-3.3V92.8z"/>
	<path d="M185.2,93.5c0.6,0.4,1.2,1,1.9,1.9v-2.5h3v17.8c0,2.5-0.4,4.4-1.1,5.9c-1.4,2.7-3.9,4-7.7,4c-2.1,0-3.9-0.5-5.3-1.4
		c-1.4-0.9-2.2-2.4-2.4-4.4h3.3c0.2,0.9,0.5,1.6,0.9,2c0.7,0.7,1.9,1.1,3.5,1.1c2.5,0,4.1-0.9,4.9-2.7c0.5-1,0.7-2.9,0.6-5.6
		c-0.7,1-1.4,1.7-2.4,2.2c-0.9,0.5-2.1,0.7-3.7,0.7c-2.1,0-4-0.8-5.5-2.3c-1.6-1.5-2.4-4-2.4-7.5c0-3.3,0.8-5.8,2.4-7.7
		s3.5-2.8,5.8-2.8C182.8,92.3,184.1,92.7,185.2,93.5z M185.6,97c-1-1.2-2.3-1.8-3.8-1.8c-2.3,0-3.9,1.1-4.7,3.3
		c-0.4,1.2-0.7,2.7-0.7,4.5c0,2.2,0.4,3.9,1.3,5c0.9,1.2,2.1,1.7,3.6,1.7c2.3,0,4-1.1,5-3.2c0.5-1.2,0.8-2.6,0.8-4.2
		C187.1,100,186.6,98.2,185.6,97z"/>
	<path d="M195.2,92.7h3.1v2.8c0.9-1.1,1.9-2,2.9-2.5c1-0.5,2.2-0.7,3.5-0.7c2.8,0,4.6,1,5.6,2.9c0.5,1.1,0.8,2.6,0.8,4.5v12.5h-3.3
		V99.9c0-1.2-0.2-2.2-0.5-2.9c-0.6-1.2-1.6-1.8-3.2-1.8c-0.8,0-1.4,0.1-1.9,0.2c-0.9,0.3-1.7,0.8-2.4,1.6c-0.5,0.6-0.9,1.3-1.1,2
		c-0.2,0.7-0.2,1.7-0.2,2.9v10.2h-3.3V92.7z"/>
	<path d="M228,93.2c1.3,0.7,2.3,1.5,3,2.5c0.7,1,1.1,2.1,1.3,3.5c0.2,0.9,0.3,2.3,0.3,4.3h-14.2c0.1,2,0.5,3.6,1.4,4.8
		c0.9,1.2,2.2,1.8,4,1.8c1.7,0,3.1-0.6,4.1-1.7c0.6-0.7,1-1.4,1.2-2.3h3.2c-0.1,0.7-0.4,1.5-0.8,2.4s-1,1.6-1.6,2.2
		c-1,1-2.2,1.6-3.7,2c-0.8,0.2-1.7,0.3-2.7,0.3c-2.4,0-4.5-0.9-6.2-2.7c-1.7-1.8-2.5-4.3-2.5-7.4c0-3.1,0.8-5.7,2.5-7.7
		c1.7-2,3.9-2.9,6.6-2.9C225.4,92.2,226.7,92.6,228,93.2z M229.2,100.9c-0.1-1.4-0.4-2.6-0.9-3.4c-0.9-1.6-2.4-2.4-4.5-2.4
		c-1.5,0-2.8,0.5-3.8,1.6c-1,1.1-1.6,2.5-1.6,4.2H229.2z"/>
	<path d="M247.5,93.3c0.6,0.4,1.2,1,2,1.9v-9.9h3.2v26.9h-3v-2.7c-0.8,1.2-1.7,2.1-2.7,2.6c-1,0.5-2.2,0.8-3.6,0.8
		c-2.2,0-4.1-0.9-5.6-2.7c-1.6-1.8-2.4-4.3-2.4-7.3c0-2.8,0.7-5.3,2.2-7.4c1.4-2.1,3.5-3.1,6.2-3.1
		C245.2,92.3,246.5,92.7,247.5,93.3z M240.2,108c0.9,1.4,2.3,2.1,4.3,2.1c1.5,0,2.8-0.7,3.7-2c1-1.3,1.5-3.2,1.5-5.6
		c0-2.5-0.5-4.3-1.5-5.5c-1-1.2-2.2-1.8-3.7-1.8c-1.6,0-3,0.6-4,1.9c-1,1.3-1.5,3.1-1.5,5.6C238.8,104.8,239.3,106.5,240.2,108z"/>
	<path d="M19.1,121.4h3.7v11.1h13.8v-11.1h3.7v26.8h-3.7v-12.5H22.7v12.5h-3.7V121.4z"/>
	<path d="M45.5,121.4h3.3v3.7h-3.3V121.4z M45.5,128.8h3.3v19.5h-3.3V128.8z"/>
	<path d="M55.8,142.1c0.1,1.1,0.4,1.9,0.8,2.5c0.8,1.1,2.3,1.6,4.4,1.6c1.2,0,2.3-0.3,3.3-0.8c0.9-0.5,1.4-1.3,1.4-2.5
		c0-0.8-0.4-1.5-1.1-1.9c-0.5-0.3-1.4-0.6-2.9-0.9l-2.7-0.7c-1.7-0.4-2.9-0.9-3.7-1.4c-1.4-0.9-2.2-2.1-2.2-3.7c0-1.8,0.7-3.3,2-4.5
		c1.4-1.1,3.2-1.7,5.5-1.7c3,0,5.1,0.9,6.5,2.6c0.8,1.1,1.2,2.3,1.2,3.5h-3.1c-0.1-0.7-0.3-1.4-0.8-2c-0.8-0.9-2.1-1.3-4-1.3
		c-1.3,0-2.2,0.2-2.9,0.7c-0.7,0.5-1,1.1-1,1.9c0,0.8,0.4,1.5,1.3,2c0.5,0.3,1.2,0.6,2.2,0.8l2.2,0.5c2.4,0.6,4,1.1,4.8,1.7
		c1.3,0.8,1.9,2.2,1.9,4c0,1.7-0.7,3.2-2,4.5s-3.4,1.9-6.1,1.9c-2.9,0-5-0.7-6.3-2c-1.2-1.3-1.9-3-2-4.9H55.8z"/>
	<path d="M105.5,125.3c1.8,2.4,2.7,5.4,2.7,9.1c0,4-1,7.3-3,10c-2.4,3.1-5.8,4.7-10.2,4.7c-4.1,0-7.4-1.4-9.7-4.1
		c-2.1-2.6-3.2-6-3.2-10c0-3.6,0.9-6.7,2.7-9.3c2.3-3.3,5.7-5,10.3-5C99.7,120.7,103.2,122.2,105.5,125.3z M102.3,142.4
		c1.4-2.3,2.1-4.9,2.1-7.9c0-3.2-0.8-5.7-2.5-7.6c-1.6-1.9-3.9-2.9-6.8-2.9c-2.8,0-5,1-6.8,2.9c-1.8,1.9-2.6,4.7-2.6,8.4
		c0,3,0.8,5.5,2.3,7.5c1.5,2,3.9,3.1,7.3,3.1C98.5,145.8,100.8,144.6,102.3,142.4z"/>
	<path d="M113.5,128.7l3.8,15.4l3.8-15.4h3.7l3.8,15.3l4-15.3h3.3l-5.7,19.6h-3.4l-4-15.1l-3.9,15.1h-3.4l-5.6-19.6H113.5z"/>
	<path d="M139,128.7h3.1v2.8c0.9-1.1,1.9-2,2.9-2.5c1-0.5,2.2-0.7,3.5-0.7c2.8,0,4.6,1,5.6,2.9c0.5,1.1,0.8,2.6,0.8,4.5v12.5h-3.3
		v-12.3c0-1.2-0.2-2.2-0.5-2.9c-0.6-1.2-1.6-1.8-3.2-1.8c-0.8,0-1.4,0.1-1.9,0.2c-0.9,0.3-1.7,0.8-2.4,1.6c-0.5,0.6-0.9,1.3-1.1,2
		c-0.2,0.7-0.2,1.7-0.2,2.9v10.2H139V128.7z"/>
	<path d="M189.5,121.4v3.2h-9v23.6h-3.7v-23.6h-9v-3.2H189.5z"/>
	<path d="M191,121.4h3.3v3.7H191V121.4z M191,128.8h3.3v19.5H191V128.8z"/>
	<path d="M199.3,128.7h3.3v2.8c0.8-1,1.5-1.7,2.1-2.1c1.1-0.7,2.3-1.1,3.7-1.1c1.6,0,2.8,0.4,3.8,1.2c0.5,0.4,1,1.1,1.5,1.9
		c0.7-1,1.6-1.8,2.6-2.3c1-0.5,2.1-0.8,3.3-0.8c2.6,0,4.4,0.9,5.4,2.8c0.5,1,0.8,2.4,0.8,4.1v13h-3.4v-13.6c0-1.3-0.3-2.2-1-2.7
		c-0.7-0.5-1.4-0.7-2.4-0.7c-1.3,0-2.4,0.4-3.3,1.3c-0.9,0.9-1.4,2.3-1.4,4.3v11.4h-3.3v-12.8c0-1.3-0.2-2.3-0.5-2.9
		c-0.5-0.9-1.4-1.4-2.8-1.4c-1.2,0-2.4,0.5-3.4,1.4s-1.5,2.7-1.5,5.2v10.4h-3.3V128.7z"/>
	<path d="M242.6,129.2c1.3,0.7,2.3,1.5,3,2.5c0.7,1,1.1,2.1,1.3,3.5c0.2,0.9,0.3,2.3,0.3,4.3h-14.2c0.1,2,0.5,3.6,1.4,4.8
		c0.9,1.2,2.2,1.8,4,1.8c1.7,0,3.1-0.6,4.1-1.7c0.6-0.7,1-1.4,1.2-2.3h3.2c-0.1,0.7-0.4,1.5-0.8,2.4s-1,1.6-1.6,2.2
		c-1,1-2.2,1.6-3.7,2c-0.8,0.2-1.7,0.3-2.7,0.3c-2.4,0-4.5-0.9-6.2-2.7c-1.7-1.8-2.5-4.3-2.5-7.4c0-3.1,0.8-5.7,2.5-7.7
		c1.7-2,3.9-2.9,6.6-2.9C239.9,128.2,241.3,128.6,242.6,129.2z M243.8,136.9c-0.1-1.4-0.4-2.6-0.9-3.4c-0.9-1.6-2.4-2.4-4.5-2.4
		c-1.5,0-2.8,0.5-3.8,1.6c-1,1.1-1.6,2.5-1.6,4.2H243.8z"/>
</g>
<g>
	<g>
		<path d="M120.5,1v8h-0.2h-0.6h-1.9c-0.6,0-1-0.3-1.1-0.9c0-0.3-0.1-0.9-0.2-1.9h-6.9v24.1c0.6,0.1,1,0.2,1.4,0.2
			c0.3,0,0.6,0.1,0.7,0.1s0.2,0,0.3,0c0.8,0.2,1.2,0.7,1.2,1.5V35h-3.6h-6.3h-3.5v-2.8c0-0.8,0.4-1.3,1.2-1.5c0,0,0.1,0,0.3,0
			s0.4-0.1,0.7-0.1c0.3,0,0.8-0.1,1.4-0.2V6.2h-6.9c-0.1,1-0.2,1.7-0.2,2c-0.1,0.6-0.5,0.9-1.1,0.9h-2h-0.6h-0.2V1H93h0h26.7H120.5z
			"/>
		<path d="M150.5,32.2V35H147h-5.8V19.7c0-1.5-0.3-2.6-1-3.4c-0.7-0.8-1.7-1.2-3.1-1.2c-1,0-1.9,0.2-2.8,0.7c-0.9,0.5-1.7,1-2.5,1.8
			v12.8c0.6,0.1,1.1,0.2,1.4,0.2c0.3,0,0.6,0.1,0.7,0.1c0.1,0,0.2,0,0.3,0c0.8,0.2,1.2,0.7,1.2,1.5V35h-3.6H126h-3.6v-2.8
			c0-0.8,0.4-1.3,1.2-1.5c0,0,0.1,0,0.3,0c0.1,0,0.4-0.1,0.7-0.1c0.3,0,0.8-0.1,1.4-0.2V4.7c-0.6-0.1-1.1-0.2-1.4-0.2
			s-0.6-0.1-0.7-0.1c-0.1,0-0.2,0-0.3,0c-0.8-0.2-1.2-0.7-1.2-1.5V0.1h3.6h5.8v13.4c0.9-0.9,2-1.6,3.1-2.2c1.1-0.6,2.5-0.8,4-0.8
			c1.3,0,2.4,0.2,3.5,0.7c1,0.4,1.8,1.1,2.5,1.9c0.7,0.8,1.2,1.8,1.6,2.9c0.3,1.1,0.6,2.3,0.6,3.7v10.7c0.6,0.1,1,0.2,1.4,0.2
			c0.3,0,0.6,0.1,0.7,0.1c0.1,0,0.2,0,0.3,0C150.1,31,150.5,31.4,150.5,32.2z"/>
		<path d="M167.8,11.2c1.3,0.5,2.3,1.2,3.3,2.2c0.9,0.9,1.6,2.1,2.2,3.4c0.5,1.4,0.8,2.9,0.8,4.6c0,0.4,0,0.8-0.1,1.1
			c0,0.3-0.1,0.5-0.2,0.7c-0.1,0.2-0.2,0.3-0.4,0.4c-0.2,0.1-0.4,0.1-0.7,0.1h-14.9c0.2,2.5,0.8,4.3,2,5.5c1.2,1.2,2.7,1.7,4.6,1.7
			c0.9,0,1.7-0.1,2.4-0.3c0.7-0.2,1.3-0.5,1.8-0.8c0.5-0.3,1-0.5,1.4-0.7c0.4-0.2,0.7-0.3,1.1-0.3c0.2,0,0.5,0,0.7,0.1
			c0.2,0.1,0.3,0.2,0.4,0.4l1.7,2.1c-0.7,0.8-1.4,1.4-2.2,1.9s-1.6,0.9-2.5,1.2c-0.9,0.3-1.8,0.5-2.7,0.6c-0.9,0.1-1.8,0.2-2.6,0.2
			c-1.7,0-3.2-0.2-4.7-0.8c-1.5-0.6-2.7-1.4-3.8-2.5s-1.9-2.4-2.5-4c-0.6-1.6-0.9-3.5-0.9-5.6c0-1.6,0.3-3.1,0.8-4.6
			c0.5-1.5,1.3-2.7,2.3-3.8s2.2-1.9,3.6-2.5c1.4-0.6,3.1-0.9,4.9-0.9C165.2,10.5,166.6,10.8,167.8,11.2z M159.8,16.1
			c-0.9,0.9-1.6,2.3-1.8,4h10.9c0-0.8-0.1-1.5-0.3-2.1c-0.2-0.7-0.5-1.2-0.9-1.7c-0.4-0.5-0.9-0.9-1.6-1.2c-0.7-0.3-1.4-0.5-2.3-0.5
			C162.1,14.7,160.7,15.2,159.8,16.1z"/>
		<path d="M73.5,43.3c-0.1,0-0.4,0.1-0.7,0.1c-0.3,0-0.8,0.1-1.4,0.2v24.7c0.6,0.1,1,0.2,1.4,0.2c0.3,0,0.6,0.1,0.7,0.1s0.2,0,0.3,0
			c0.8,0.2,1.2,0.7,1.2,1.5V73h-3.5h-5.6h-4.2v-2.8c0-0.8,0.4-1.3,1.2-1.5c0.1,0,1.1-0.1,3.1-0.4V51.1c0-0.4,0-0.8,0-1.3
			c0-0.5,0-1,0.1-1.5L55.7,67.5c-0.2,0.4-0.6,0.8-0.9,1c-0.4,0.2-0.8,0.4-1.3,0.4h-0.8c-0.5,0-0.9-0.1-1.3-0.4
			c-0.4-0.2-0.7-0.6-0.9-1L40,48.2c0,0.5,0,1,0.1,1.5c0,0.5,0,0.9,0,1.4v17.3c2,0.3,3,0.4,3.1,0.4c0.8,0.2,1.2,0.7,1.2,1.5V73h-4.2
			h-5.5H31v-2.8c0-0.8,0.4-1.3,1.2-1.5c0,0,0.1,0,0.3,0c0.1,0,0.4-0.1,0.7-0.1c0.3,0,0.8-0.1,1.4-0.2V43.7c-0.6-0.1-1.1-0.2-1.4-0.2
			c-0.3,0-0.6-0.1-0.7-0.1c-0.1,0-0.2,0-0.3,0c-0.8-0.2-1.2-0.7-1.2-1.5V39h3.6h4.7c0.3,0,0.6,0,0.8,0s0.4,0,0.6,0.1
			c0.2,0,0.3,0.2,0.4,0.3c0.1,0.1,0.3,0.3,0.4,0.6l10.2,18.8c0.3,0.5,0.5,1,0.7,1.6c0.2,0.5,0.5,1.1,0.7,1.6
			c0.2-0.6,0.4-1.1,0.7-1.6c0.2-0.6,0.5-1.1,0.8-1.6l10.1-18.8c0.1-0.2,0.2-0.4,0.4-0.6c0.1-0.1,0.3-0.3,0.5-0.3s0.4-0.1,0.6-0.1
			s0.4,0,0.7,0h4.8H75v2.8c0,0.8-0.4,1.3-1.2,1.5C73.7,43.3,73.6,43.3,73.5,43.3z"/>
		<path d="M99.5,70.2V73h-3H96h-2c-0.6,0-1,0-1.3-0.2c-0.3-0.1-0.6-0.5-0.7-1L91.5,70c-0.6,0.6-1.2,1-1.8,1.5
			c-0.6,0.4-1.2,0.8-1.8,1c-0.6,0.3-1.3,0.5-2,0.6c-0.7,0.1-1.5,0.2-2.3,0.2c-1,0-2-0.1-2.8-0.4c-0.8-0.3-1.6-0.7-2.2-1.2
			c-0.6-0.6-1.1-1.3-1.5-2.1s-0.5-1.7-0.5-2.8c0-0.9,0.2-1.8,0.7-2.7c0.5-0.9,1.3-1.7,2.4-2.4s2.6-1.3,4.4-1.8
			c1.8-0.5,4.2-0.7,6.9-0.7v-1.4c0-1.6-0.4-2.8-1-3.6c-0.7-0.8-1.6-1.2-3-1.2c-0.9,0-1.7,0.1-2.4,0.3s-1.2,0.5-1.6,0.8
			c-0.5,0.3-0.9,0.5-1.3,0.7s-0.8,0.3-1.3,0.3c-0.4,0-0.8-0.1-1-0.3c-0.3-0.2-0.5-0.5-0.7-0.8l-1.1-1.8c2.8-2.5,6.1-3.9,10-3.9
			c1.4,0,2.7,0.2,3.8,0.7c1.1,0.5,2,1.1,2.8,1.9c0.8,0.8,1.4,1.8,1.8,3s0.6,2.4,0.6,3.8v10.7c0.5,0.1,1,0.2,1.3,0.2
			c0.3,0,0.5,0.1,0.5,0.1C99.2,68.9,99.5,69.4,99.5,70.2z M90.9,62.7c-1.7,0-3.1,0.1-4.2,0.3s-2.1,0.5-2.8,0.8
			c-0.7,0.3-1.2,0.7-1.5,1.1c-0.3,0.4-0.4,0.9-0.4,1.5c0,1,0.3,1.8,0.9,2.2c0.6,0.4,1.4,0.7,2.4,0.7c0.6,0,1.1,0,1.6-0.1
			c0.5-0.1,1-0.3,1.5-0.5c0.4-0.2,0.8-0.5,1.3-0.8c0.4-0.3,0.8-0.7,1.3-1.1V62.7z"/>
		<path d="M127.7,48.9v2.8c0,0.8-0.4,1.3-1.2,1.5c-0.4,0-0.2,0.1-2.2,0.4L116.6,73h-5.3l-7.8-19.5c-2-0.4-1.8-0.4-2.2-0.4
			c-0.8-0.2-1.2-0.7-1.2-1.5v-2.8h1.6h4.8h5.4v2.8c0,0.8-0.4,1.3-1.2,1.5c-0.3,0-0.4,0-1.3,0.2l3.4,9.5c0.3,0.8,0.5,1.5,0.7,2.2
			s0.4,1.5,0.5,2.2c0.1-0.7,0.3-1.5,0.5-2.2c0.2-0.7,0.4-1.5,0.7-2.2l3.5-9.4c-1.2-0.2-1.3-0.2-1.6-0.3c-0.8-0.2-1.2-0.7-1.2-1.5
			v-2.8h5.6h4.6H127.7z"/>
		<path d="M144.1,49.2c1.3,0.5,2.3,1.2,3.3,2.2c0.9,0.9,1.6,2.1,2.2,3.4c0.5,1.4,0.8,2.9,0.8,4.6c0,0.4,0,0.8-0.1,1.1
			c0,0.3-0.1,0.5-0.2,0.7c-0.1,0.2-0.2,0.3-0.4,0.4c-0.2,0.1-0.4,0.1-0.7,0.1h-14.9c0.2,2.5,0.8,4.3,2,5.5c1.2,1.2,2.7,1.7,4.6,1.7
			c0.9,0,1.7-0.1,2.4-0.3c0.7-0.2,1.3-0.5,1.8-0.8c0.5-0.3,1-0.5,1.4-0.7c0.4-0.2,0.7-0.3,1.1-0.3c0.2,0,0.5,0,0.7,0.1
			c0.2,0.1,0.3,0.2,0.4,0.4l1.7,2.1c-0.7,0.8-1.4,1.4-2.2,1.9c-0.8,0.5-1.6,0.9-2.5,1.2c-0.9,0.3-1.8,0.5-2.7,0.6
			c-0.9,0.1-1.8,0.2-2.6,0.2c-1.7,0-3.2-0.2-4.7-0.8c-1.5-0.6-2.7-1.4-3.8-2.5s-1.9-2.4-2.5-4c-0.6-1.6-0.9-3.5-0.9-5.6
			c0-1.6,0.3-3.1,0.8-4.6c0.5-1.5,1.3-2.7,2.3-3.8c1-1.1,2.2-1.9,3.6-2.5s3.1-0.9,4.9-0.9C141.5,48.5,142.9,48.8,144.1,49.2z
			 M136.1,54.1c-0.9,0.9-1.6,2.3-1.8,4h10.9c0-0.8-0.1-1.5-0.3-2.1c-0.2-0.7-0.5-1.2-0.9-1.7c-0.4-0.5-0.9-0.9-1.6-1.2
			c-0.7-0.3-1.4-0.5-2.3-0.5C138.4,52.7,137.1,53.2,136.1,54.1z"/>
		<path d="M170.9,49.3l-0.8,4.4c0,0.3-0.1,0.5-0.3,0.6s-0.4,0.2-0.7,0.2c-0.2,0-0.5,0-0.9-0.1c-0.4-0.1-1-0.2-1.6-0.2
			c-1.2,0-2.3,0.3-3.1,1c-0.8,0.7-1.6,1.7-2.2,3v10.3c2,0.4,2,0.4,2.4,0.4c0.8,0.2,1.2,0.7,1.2,1.5V73h-3.5h-5.8H152v-2.8
			c0-0.8,0.4-1.3,1.2-1.5c0.4,0,0.3,0,2.3-0.4V53.6c-2-0.4-2-0.4-2.3-0.4c-0.8-0.2-1.2-0.7-1.2-1.5v-2.8h3.5h3.4
			c0.6,0,1,0.1,1.2,0.3c0.2,0.2,0.4,0.6,0.5,1.1l0.4,2.9c0.8-1.5,1.8-2.7,3-3.5c1.2-0.8,2.4-1.3,3.9-1.3
			C169.2,48.5,170.1,48.7,170.9,49.3z"/>
		<path d="M185.4,70.2V73h-3.6H176h-3.6v-2.8c0-0.8,0.4-1.3,1.2-1.5c0,0,0.1,0,0.3,0c0.1,0,0.4-0.1,0.7-0.1c0.3,0,0.8-0.1,1.4-0.2
			V53.6c-0.6-0.1-1.1-0.2-1.4-0.2c-0.3,0-0.6-0.1-0.7-0.1c-0.1,0-0.2,0-0.3,0c-0.8-0.2-1.2-0.7-1.2-1.5v-2.8h3.6h5.8v19.5
			c0.6,0.1,1.1,0.2,1.4,0.2c0.3,0,0.6,0.1,0.7,0.1c0.1,0,0.2,0,0.3,0C185,69,185.4,69.4,185.4,70.2z M182.4,43.3
			c-0.2,0.4-0.5,0.8-0.8,1.2c-0.3,0.3-0.7,0.6-1.2,0.8c-0.5,0.2-0.9,0.3-1.5,0.3c-0.5,0-1-0.1-1.5-0.3c-0.5-0.2-0.8-0.5-1.1-0.8
			c-0.3-0.3-0.6-0.8-0.8-1.2c-0.2-0.4-0.3-0.9-0.3-1.4c0-0.5,0.1-1,0.3-1.5c0.2-0.5,0.5-0.8,0.8-1.2c0.3-0.3,0.7-0.6,1.1-0.8
			c0.5-0.2,0.9-0.3,1.5-0.3c0.5,0,1,0.1,1.5,0.3c0.5,0.2,0.8,0.4,1.2,0.8c0.3,0.3,0.6,0.7,0.8,1.2c0.2,0.5,0.3,0.9,0.3,1.5
			C182.7,42.4,182.5,42.8,182.4,43.3z"/>
		<path d="M207.2,69.4c-0.7,0.8-1.3,1.4-2.1,1.9c-0.8,0.5-1.6,0.9-2.3,1.2c-0.8,0.3-1.6,0.5-2.5,0.6c-0.8,0.1-1.7,0.2-2.6,0.2
			c-1.5,0-2.9-0.2-4.2-0.8c-1.3-0.6-2.4-1.4-3.4-2.4c-1-1.1-1.8-2.3-2.3-3.9c-0.6-1.6-0.8-3.3-0.8-5.3c0-1.8,0.2-3.4,0.8-4.9
			c0.5-1.5,1.3-2.8,2.3-3.9c1-1.1,2.2-2,3.7-2.6s3.1-0.9,5-0.9c2,0,4.5,0.6,7.6,1.7l0,7.4H206h-0.6h-1.9c-0.6,0-0.9-0.3-1.1-0.9
			c0-0.4-0.2-1.5-0.4-3.4c-1.2-0.3-2.3-0.5-3.1-0.5c-1,0-1.9,0.2-2.7,0.6s-1.4,0.8-1.9,1.6c-0.5,0.7-0.9,1.6-1.2,2.5
			c-0.2,1-0.4,2.1-0.4,3.3c0,1.3,0.1,2.4,0.4,3.4c0.3,1,0.7,1.8,1.2,2.5c0.5,0.7,1.1,1.2,1.9,1.6c0.8,0.3,1.6,0.5,2.5,0.5
			c0.9,0,1.7-0.1,2.3-0.3c0.6-0.2,1.1-0.5,1.5-0.8c0.4-0.3,0.8-0.5,1-0.8c0.3-0.2,0.6-0.3,0.9-0.3c0.5,0,0.8,0.1,1.1,0.5L207.2,69.4
			z"/>
		<path d="M235.4,70.2V73h-0.9h-2.6h-2.6c-0.5,0-0.8-0.1-1.2-0.2c-0.3-0.1-0.6-0.4-0.8-0.8l-6.1-9.2c-0.2-0.4-0.5-0.6-0.7-0.7
			c-0.2-0.1-0.6-0.1-1.1-0.1H218v6.4c0.6,0.1,1.1,0.2,1.4,0.2c0.3,0,0.6,0.1,0.7,0.1c0.1,0,0.2,0,0.3,0c0.8,0.2,1.2,0.7,1.2,1.5V73
			H218h-5.8h-3.6v-2.8c0-0.8,0.4-1.3,1.2-1.5c0,0,0.1,0,0.3,0c0.1,0,0.4-0.1,0.7-0.1c0.3,0,0.8-0.1,1.4-0.2V42.7
			c-0.6-0.1-1.1-0.2-1.4-0.2s-0.6-0.1-0.7-0.1c-0.1,0-0.2,0-0.3,0c-0.8-0.2-1.2-0.7-1.2-1.5v-2.8h3.6h5.8v20h1.1
			c0.4,0,0.7,0,0.9-0.1c0.2-0.1,0.5-0.3,0.7-0.6l3.3-4.1c-0.2,0-0.4-0.1-0.4-0.1c-0.8-0.2-1.2-0.7-1.2-1.5v-2.8h5.8v0
			c0.2,0,0.3,0,0.5,0h5.2v2.8c0,0.8-0.4,1.3-1.2,1.5c-0.1,0-0.2,0-0.4,0c-0.2,0-0.5,0.1-0.9,0.1c-0.4,0-0.8,0.1-1.3,0.2l-3.6,4.3
			c-0.3,0.3-0.6,0.7-0.8,0.9c-0.3,0.3-0.6,0.5-0.9,0.7c0.3,0.2,0.6,0.5,0.8,0.8c0.2,0.3,0.5,0.7,0.8,1l4.8,7c0.5,0.1,1,0.2,1.5,0.2
			c0.5,0,0.8,0,1,0.1c0.2,0,0.4,0.1,0.5,0.1C235,69,235.4,69.4,235.4,70.2z"/>
	</g>
</g>
</svg>
