<?xml version="1.0" encoding="utf-8"?>
<!-- Generator: Adobe Illustrator 24.2.1, SVG Export Plug-In . SVG Version: 6.00 Build 0)  -->
<svg version="1.1" id="Layer_1" xmlns="http://www.w3.org/2000/svg" xmlns:xlink="http://www.w3.org/1999/xlink" x="0px" y="0px"
	 viewBox="0 0 265 182" style="enable-background:new 0 0 265 182;" xml:space="preserve">
<style type="text/css">
	.st0{fill:none;}
	.st1{fill:#010101;}
</style>
<path class="st0" d="M0,0.1"/>
<path class="st0" d="M0,0.1"/>
<path class="st1" d="M110.2,2.6v24.3h-2.8V2.6h-8.9l0.3-2.4h20l0.3,2.4H110.2z"/>
<path class="st1" d="M141,26.8V14.1h-15v12.8h-2.8V0.1h2.8v11.5h15V0.1h2.8v26.7H141z"/>
<path class="st1" d="M164.3,26.8H151V0.1h12.1l0.2,2.4h-9.6v9.1h8.6l-0.2,2.4h-8.4v10.3h10.9L164.3,26.8z"/>
<path class="st1" d="M15.4,55.7c0,1.1-0.2,2.1-0.7,3c-0.4,0.9-1,1.7-1.7,2.3c-0.7,0.7-1.6,1.2-2.6,1.5c-1,0.4-2,0.6-3.1,0.6
	c-0.4,0-0.8,0-1.3-0.1c-0.5-0.1-0.9-0.1-1.4-0.2c-0.5-0.1-1-0.2-1.5-0.3c-0.5-0.2-0.9-0.3-1.3-0.6v-2.7l0.1-0.1c1,0.5,2,0.8,2.8,1
	c0.8,0.2,1.8,0.3,2.8,0.3c1.5,0,2.6-0.4,3.4-1.2c0.8-0.8,1.3-1.8,1.3-2.9c0-0.6-0.1-1.1-0.3-1.6c-0.2-0.5-0.4-0.9-0.7-1.3
	c-0.3-0.4-0.7-0.8-1.1-1.1c-0.4-0.4-0.8-0.8-1.3-1.1l-4.3-3.6c-0.9-0.7-1.6-1.6-2.1-2.5C2.3,44,2,42.9,2,41.8c0-1.1,0.2-2.1,0.6-2.9
	c0.4-0.8,1-1.5,1.6-2.1c0.7-0.6,1.5-1,2.5-1.3c0.9-0.3,1.9-0.4,2.9-0.4c0.9,0,1.7,0.1,2.6,0.3c0.9,0.2,1.8,0.4,2.6,0.8V39l-0.2,0.1
	c-0.4-0.2-0.8-0.4-1.2-0.6c-0.5-0.2-0.9-0.4-1.4-0.5c-0.5-0.1-1-0.2-1.4-0.3c-0.4-0.1-0.8-0.1-1.1-0.1c-0.5,0-1,0.1-1.6,0.2
	c-0.5,0.2-1,0.4-1.5,0.7c-0.4,0.3-0.8,0.7-1,1.2c-0.3,0.5-0.4,1.1-0.4,1.8c0,1,0.3,1.8,0.8,2.4c0.5,0.6,1.2,1.3,2,1.9l2.5,2.1
	c0.6,0.5,1.2,1.1,1.9,1.6c0.6,0.5,1.2,1.1,1.7,1.8c0.5,0.6,0.9,1.3,1.2,2C15.3,54,15.4,54.8,15.4,55.7z"/>
<path class="st1" d="M32.9,43.6c0-1.8-0.6-3.2-1.8-4c-1.2-0.9-2.7-1.4-4.6-1.4h-3.3V49h4.1c1.6,0,2.9-0.5,3.9-1.4
	C32.4,46.6,32.9,45.3,32.9,43.6z M35.6,43.4c0,1.1-0.2,2.2-0.6,3.1c-0.4,0.9-1,1.8-1.7,2.5c-0.7,0.7-1.6,1.3-2.6,1.7
	c-1,0.4-2.1,0.6-3.3,0.6h-4.3v11.1h-2.8V35.7h6.7c1.1,0,2.2,0.2,3.3,0.5c1,0.3,1.9,0.8,2.7,1.5c0.8,0.7,1.4,1.5,1.8,2.4
	C35.4,41.1,35.6,42.2,35.6,43.4z"/>
<path class="st1" d="M49,39.6L49,39.6l-3.9,10.1h7.8L49,39.6z M57.8,62.4l-4-10.4h-9.6l-4,10.4h-2.6l10.6-27.1H50l10.7,27.1H57.8z"
	/>
<path class="st1" d="M87.2,62.4V35.7H90v26.7H87.2z"/>
<path class="st1" d="M105.7,39.6L105.7,39.6l-3.9,10.1h7.8L105.7,39.6z M114.5,62.4l-4-10.4h-9.6l-4,10.4h-2.6l10.6-27.1h1.8
	l10.7,27.1H114.5z"/>
<path class="st1" d="M134.9,62.4h-13.3V35.7h2.8V60h10.9L134.9,62.4z"/>
<path class="st1" d="M157.5,39.6L157.5,39.6l-3.9,10.1h7.8L157.5,39.6z M166.3,62.4l-4-10.4h-9.6l-4,10.4H146l10.6-27.1h1.8
	l10.7,27.1H166.3z"/>
<path class="st1" d="M185.1,43.4c0-1.8-0.5-3.1-1.6-4c-1-0.8-2.4-1.3-4.2-1.3h-3.2v10.2h4.3c0.7,0,1.4-0.1,2-0.4
	c0.6-0.3,1.1-0.6,1.5-1.1c0.4-0.5,0.7-1,0.9-1.6C185,44.7,185.1,44.1,185.1,43.4z M191.1,62.4L180,50.8h-3.8v11.7h-2.8V35.7h6.7
	c0.6,0,1.3,0,1.9,0.1c0.7,0.1,1.3,0.2,1.9,0.5c1.4,0.6,2.4,1.5,3.1,2.8c0.7,1.2,1,2.6,1,4c0,0.8-0.1,1.5-0.4,2.3
	c-0.2,0.7-0.6,1.4-1,2.1c-0.4,0.6-1,1.2-1.6,1.7c-0.6,0.5-1.3,0.8-2.1,1l11.5,12.1v0.2H191.1z"/>
<path class="st1" d="M205.9,38.2v24.3h-2.8V38.2h-8.9l0.3-2.4h20l0.3,2.4H205.9z"/>
<path class="st1" d="M219,62.4V35.7h2.8v26.7H219z"/>
<path class="st1" d="M240.3,55.7c0,1.1-0.2,2.1-0.7,3c-0.4,0.9-1,1.7-1.7,2.3c-0.7,0.7-1.6,1.2-2.6,1.5c-1,0.4-2,0.6-3.1,0.6
	c-0.4,0-0.8,0-1.3-0.1c-0.5-0.1-0.9-0.1-1.4-0.2c-0.5-0.1-1-0.2-1.5-0.3c-0.5-0.2-0.9-0.3-1.3-0.6v-2.7l0.1-0.1c1,0.5,2,0.8,2.8,1
	c0.8,0.2,1.8,0.3,2.8,0.3c1.5,0,2.6-0.4,3.4-1.2c0.8-0.8,1.3-1.8,1.3-2.9c0-0.6-0.1-1.1-0.3-1.6c-0.2-0.5-0.4-0.9-0.7-1.3
	c-0.3-0.4-0.7-0.8-1.1-1.1c-0.4-0.4-0.8-0.8-1.3-1.1l-4.3-3.6c-0.9-0.7-1.6-1.6-2.1-2.5c-0.5-0.9-0.8-2-0.8-3.2
	c0-1.1,0.2-2.1,0.6-2.9c0.4-0.8,1-1.5,1.6-2.1c0.7-0.6,1.5-1,2.5-1.3c0.9-0.3,1.9-0.4,2.9-0.4c0.9,0,1.7,0.1,2.6,0.3
	c0.9,0.2,1.8,0.4,2.6,0.8V39l-0.2,0.1c-0.4-0.2-0.8-0.4-1.2-0.6c-0.5-0.2-0.9-0.4-1.4-0.5c-0.5-0.1-1-0.2-1.4-0.3
	c-0.4-0.1-0.8-0.1-1.1-0.1c-0.5,0-1,0.1-1.6,0.2c-0.5,0.2-1,0.4-1.5,0.7c-0.4,0.3-0.8,0.7-1,1.2c-0.3,0.5-0.4,1.1-0.4,1.8
	c0,1,0.3,1.8,0.8,2.4c0.5,0.6,1.2,1.3,2,1.9l2.5,2.1c0.6,0.5,1.2,1.1,1.9,1.6c0.6,0.5,1.2,1.1,1.7,1.8c0.5,0.6,0.9,1.3,1.2,2
	C240.2,54,240.3,54.8,240.3,55.7z"/>
<path class="st1" d="M254.1,38.2v24.3h-2.8V38.2h-8.9l0.3-2.4h20l0.3,2.4H254.1z"/>
<path class="st1" d="M71.9,38.2v24.3h-2.8V38.2h-6.9l-1.7-2.4h20l0.3,2.4H71.9z"/>
<g>
	<path class="st1" d="M42,76.1h11.6c3.2,0,5.4,0.9,6.7,2.8c0.8,1.1,1.2,2.4,1.2,3.8c0,1.7-0.5,3.1-1.4,4.2c-0.5,0.6-1.2,1.1-2.2,1.6
		c1.4,0.5,2.4,1.1,3.1,1.8c1.2,1.2,1.8,2.8,1.8,4.8c0,1.7-0.5,3.3-1.6,4.7c-1.6,2.1-4.2,3.1-7.8,3.1H42V76.1z M52.3,87.4
		c1.5,0,2.8-0.2,3.6-0.6c1.4-0.7,2-1.9,2-3.6c0-1.8-0.7-2.9-2.2-3.5c-0.8-0.3-2-0.5-3.6-0.5h-6.6v8.3H52.3z M53.5,99.8
		c2.2,0,3.9-0.6,4.8-1.9c0.6-0.8,0.9-1.8,0.9-3c0-1.9-0.9-3.3-2.6-4c-0.9-0.4-2.2-0.6-3.7-0.6h-7.3v9.4H53.5z"/>
	<path class="st1" d="M78.7,83.9c1.3,0.7,2.3,1.5,3,2.5c0.7,1,1.1,2.1,1.3,3.5c0.2,0.9,0.3,2.3,0.3,4.3H69c0.1,2,0.5,3.6,1.4,4.8
		c0.9,1.2,2.2,1.8,4,1.8c1.7,0,3.1-0.6,4.1-1.7c0.6-0.7,1-1.4,1.2-2.3H83c-0.1,0.7-0.4,1.5-0.8,2.4s-1,1.6-1.6,2.2
		c-1,1-2.2,1.6-3.7,2c-0.8,0.2-1.7,0.3-2.7,0.3c-2.4,0-4.5-0.9-6.2-2.7s-2.5-4.3-2.5-7.4c0-3.1,0.8-5.7,2.5-7.7
		c1.7-2,3.9-2.9,6.6-2.9C76.1,82.9,77.4,83.2,78.7,83.9z M79.9,91.6c-0.1-1.4-0.4-2.6-0.9-3.4c-0.9-1.6-2.4-2.4-4.5-2.4
		c-1.5,0-2.8,0.5-3.8,1.6c-1,1.1-1.6,2.5-1.6,4.2H79.9z"/>
	<path class="st1" d="M87.4,76h3.3v10c0.8-1,1.5-1.7,2.1-2.1c1.1-0.7,2.4-1,4-1c2.8,0,4.8,1,5.8,3c0.5,1.1,0.8,2.6,0.8,4.5v12.5H100
		V90.6c0-1.4-0.2-2.5-0.5-3.2c-0.6-1.1-1.7-1.6-3.4-1.6c-1.4,0-2.6,0.5-3.7,1.4c-1.1,0.9-1.7,2.7-1.7,5.3v10.4h-3.3V76z"/>
	<path class="st1" d="M108.2,76.1h3.3v3.7h-3.3V76.1z M108.2,83.4h3.3v19.5h-3.3V83.4z"/>
	<path class="st1" d="M116.5,83.4h3.1v2.8c0.9-1.1,1.9-2,2.9-2.5c1-0.5,2.2-0.7,3.5-0.7c2.8,0,4.7,1,5.6,2.9
		c0.5,1.1,0.8,2.6,0.8,4.5v12.5h-3.3V90.6c0-1.2-0.2-2.2-0.5-2.9c-0.6-1.2-1.6-1.8-3.2-1.8c-0.8,0-1.4,0.1-1.9,0.2
		c-0.9,0.3-1.7,0.8-2.4,1.6c-0.5,0.6-0.9,1.3-1.1,2c-0.2,0.7-0.2,1.7-0.2,2.9v10.2h-3.3V83.4z"/>
	<path class="st1" d="M148.1,84c0.6,0.4,1.2,1,2,1.9V76h3.2v26.9h-3v-2.7c-0.8,1.2-1.7,2.1-2.7,2.6c-1,0.5-2.2,0.8-3.6,0.8
		c-2.2,0-4.1-0.9-5.6-2.7c-1.6-1.8-2.4-4.3-2.4-7.3c0-2.8,0.7-5.3,2.2-7.4s3.5-3.1,6.2-3.1C145.8,83,147.1,83.3,148.1,84z
		 M140.8,98.6c0.9,1.4,2.3,2.1,4.3,2.1c1.5,0,2.8-0.7,3.7-2c1-1.3,1.5-3.2,1.5-5.6c0-2.5-0.5-4.3-1.5-5.5c-1-1.2-2.2-1.8-3.7-1.8
		c-1.6,0-3,0.6-4,1.9s-1.5,3.1-1.5,5.6C139.4,95.5,139.9,97.2,140.8,98.6z"/>
	<path class="st1" d="M169.2,77.9h3.3v5.5h3.1V86h-3.1v12.8c0,0.7,0.2,1.1,0.7,1.4c0.3,0.1,0.7,0.2,1.3,0.2c0.2,0,0.3,0,0.5,0
		c0.2,0,0.4,0,0.6-0.1v2.6c-0.4,0.1-0.8,0.2-1.2,0.2s-0.8,0.1-1.3,0.1c-1.5,0-2.6-0.4-3.1-1.2s-0.8-1.8-0.8-3.1V86h-2.6v-2.7h2.6
		V77.9z"/>
	<path class="st1" d="M178.9,76h3.3v10c0.8-1,1.5-1.7,2.1-2.1c1.1-0.7,2.4-1,4-1c2.8,0,4.8,1,5.8,3c0.5,1.1,0.8,2.6,0.8,4.5v12.5
		h-3.4V90.6c0-1.4-0.2-2.5-0.5-3.2c-0.6-1.1-1.7-1.6-3.4-1.6c-1.4,0-2.6,0.5-3.7,1.4c-1.1,0.9-1.7,2.7-1.7,5.3v10.4h-3.3V76z"/>
	<path class="st1" d="M211.8,83.9c1.3,0.7,2.3,1.5,3,2.5c0.7,1,1.1,2.1,1.3,3.5c0.2,0.9,0.3,2.3,0.3,4.3h-14.2
		c0.1,2,0.5,3.6,1.4,4.8c0.9,1.2,2.2,1.8,4,1.8c1.7,0,3.1-0.6,4.1-1.7c0.6-0.7,1-1.4,1.2-2.3h3.2c-0.1,0.7-0.4,1.5-0.8,2.4
		s-1,1.6-1.6,2.2c-1,1-2.2,1.6-3.7,2c-0.8,0.2-1.7,0.3-2.7,0.3c-2.4,0-4.5-0.9-6.2-2.7c-1.7-1.8-2.5-4.3-2.5-7.4
		c0-3.1,0.8-5.7,2.5-7.7c1.7-2,3.9-2.9,6.6-2.9C209.2,82.9,210.5,83.2,211.8,83.9z M213,91.6c-0.1-1.4-0.4-2.6-0.9-3.4
		c-0.9-1.6-2.4-2.4-4.5-2.4c-1.5,0-2.8,0.5-3.8,1.6c-1,1.1-1.6,2.5-1.6,4.2H213z"/>
	<path class="st1" d="M32.1,111.1h19.5v3.3H35.6v8.1h14.7v3.1H35.6v9.1h16.2v3.2H32.1V111.1z"/>
	<path class="st1" d="M56.2,118.4h3.1v2.8c0.9-1.1,1.9-2,2.9-2.5c1-0.5,2.2-0.7,3.5-0.7c2.8,0,4.7,1,5.6,2.9
		c0.5,1.1,0.8,2.6,0.8,4.5v12.5h-3.3v-12.3c0-1.2-0.2-2.2-0.5-2.9c-0.6-1.2-1.6-1.8-3.2-1.8c-0.8,0-1.4,0.1-1.9,0.2
		c-0.9,0.3-1.7,0.8-2.4,1.6c-0.5,0.6-0.9,1.3-1.1,2c-0.2,0.7-0.2,1.7-0.2,2.9v10.2h-3.3V118.4z"/>
	<path class="st1" d="M87.9,119.1c0.6,0.4,1.2,1,1.9,1.9v-2.5h3v17.8c0,2.5-0.4,4.4-1.1,5.9c-1.4,2.7-3.9,4-7.7,4
		c-2.1,0-3.9-0.5-5.3-1.4c-1.4-0.9-2.2-2.4-2.4-4.4h3.3c0.2,0.9,0.5,1.6,0.9,2c0.7,0.7,1.9,1.1,3.5,1.1c2.5,0,4.1-0.9,4.9-2.7
		c0.5-1,0.7-2.9,0.6-5.6c-0.7,1-1.4,1.7-2.4,2.2c-0.9,0.5-2.1,0.7-3.7,0.7c-2.1,0-4-0.8-5.5-2.3c-1.6-1.5-2.4-4-2.4-7.5
		c0-3.3,0.8-5.8,2.4-7.7c1.6-1.8,3.5-2.8,5.8-2.8C85.4,118,86.8,118.4,87.9,119.1z M88.3,122.7c-1-1.2-2.3-1.8-3.8-1.8
		c-2.3,0-3.9,1.1-4.7,3.3c-0.4,1.2-0.7,2.7-0.7,4.5c0,2.2,0.4,3.9,1.3,5s2.1,1.7,3.6,1.7c2.3,0,4-1.1,5-3.2c0.5-1.2,0.8-2.6,0.8-4.2
		C89.8,125.6,89.3,123.8,88.3,122.7z"/>
	<path class="st1" d="M97.8,111.1h3.3v3.7h-3.3V111.1z M97.8,118.5h3.3v19.5h-3.3V118.5z"/>
	<path class="st1" d="M106.2,118.4h3.1v2.8c0.9-1.1,1.9-2,2.9-2.5c1-0.5,2.2-0.7,3.5-0.7c2.8,0,4.7,1,5.6,2.9
		c0.5,1.1,0.8,2.6,0.8,4.5v12.5h-3.3v-12.3c0-1.2-0.2-2.2-0.5-2.9c-0.6-1.2-1.6-1.8-3.2-1.8c-0.8,0-1.4,0.1-1.9,0.2
		c-0.9,0.3-1.7,0.8-2.4,1.6c-0.5,0.6-0.9,1.3-1.1,2c-0.2,0.7-0.2,1.7-0.2,2.9v10.2h-3.3V118.4z"/>
	<path class="st1" d="M139,118.9c1.3,0.7,2.3,1.5,3,2.5c0.7,1,1.1,2.1,1.3,3.5c0.2,0.9,0.3,2.3,0.3,4.3h-14.2c0.1,2,0.5,3.6,1.4,4.8
		c0.9,1.2,2.2,1.8,4,1.8c1.7,0,3.1-0.6,4.1-1.7c0.6-0.7,1-1.4,1.2-2.3h3.2c-0.1,0.7-0.4,1.5-0.8,2.4s-1,1.6-1.6,2.2
		c-1,1-2.2,1.6-3.7,2c-0.8,0.2-1.7,0.3-2.7,0.3c-2.4,0-4.5-0.9-6.2-2.7s-2.5-4.3-2.5-7.4c0-3.1,0.8-5.7,2.5-7.7s3.9-2.9,6.6-2.9
		C136.4,117.9,137.7,118.2,139,118.9z M140.2,126.6c-0.1-1.4-0.4-2.6-0.9-3.4c-0.9-1.6-2.4-2.4-4.5-2.4c-1.5,0-2.8,0.5-3.8,1.6
		c-1,1.1-1.6,2.5-1.6,4.2H140.2z"/>
	<path class="st1" d="M159.8,118.9c1.3,0.7,2.3,1.5,3,2.5c0.7,1,1.1,2.1,1.3,3.5c0.2,0.9,0.3,2.3,0.3,4.3h-14.2
		c0.1,2,0.5,3.6,1.4,4.8c0.9,1.2,2.2,1.8,4,1.8c1.7,0,3.1-0.6,4.1-1.7c0.6-0.7,1-1.4,1.2-2.3h3.2c-0.1,0.7-0.4,1.5-0.8,2.4
		s-1,1.6-1.6,2.2c-1,1-2.2,1.6-3.7,2c-0.8,0.2-1.7,0.3-2.7,0.3c-2.4,0-4.5-0.9-6.2-2.7c-1.7-1.8-2.5-4.3-2.5-7.4
		c0-3.1,0.8-5.7,2.5-7.7c1.7-2,3.9-2.9,6.6-2.9C157.2,117.9,158.5,118.2,159.8,118.9z M161,126.6c-0.1-1.4-0.4-2.6-0.9-3.4
		c-0.9-1.6-2.4-2.4-4.5-2.4c-1.5,0-2.8,0.5-3.8,1.6c-1,1.1-1.6,2.5-1.6,4.2H161z"/>
	<path class="st1" d="M168.6,118.4h3.1v3.4c0.3-0.7,0.9-1.5,1.9-2.4s2.1-1.4,3.5-1.4c0.1,0,0.2,0,0.3,0c0.1,0,0.4,0,0.7,0.1v3.5
		c-0.2,0-0.4-0.1-0.5-0.1c-0.2,0-0.3,0-0.5,0c-1.7,0-2.9,0.5-3.8,1.6c-0.9,1.1-1.3,2.3-1.3,3.7v11.2h-3.3V118.4z"/>
	<path class="st1" d="M181,111.1h3.3v3.7H181V111.1z M181,118.5h3.3v19.5H181V118.5z"/>
	<path class="st1" d="M189.3,118.4h3.1v2.8c0.9-1.1,1.9-2,2.9-2.5c1-0.5,2.2-0.7,3.5-0.7c2.8,0,4.6,1,5.6,2.9
		c0.5,1.1,0.8,2.6,0.8,4.5v12.5h-3.3v-12.3c0-1.2-0.2-2.2-0.5-2.9c-0.6-1.2-1.6-1.8-3.2-1.8c-0.8,0-1.4,0.1-1.9,0.2
		c-0.9,0.3-1.7,0.8-2.4,1.6c-0.5,0.6-0.9,1.3-1.1,2c-0.2,0.7-0.2,1.7-0.2,2.9v10.2h-3.3V118.4z"/>
	<path class="st1" d="M221,119.1c0.6,0.4,1.2,1,1.9,1.9v-2.5h3v17.8c0,2.5-0.4,4.4-1.1,5.9c-1.4,2.7-3.9,4-7.7,4
		c-2.1,0-3.9-0.5-5.3-1.4c-1.4-0.9-2.2-2.4-2.4-4.4h3.3c0.2,0.9,0.5,1.6,0.9,2c0.7,0.7,1.9,1.1,3.5,1.1c2.5,0,4.1-0.9,4.9-2.7
		c0.5-1,0.7-2.9,0.6-5.6c-0.7,1-1.4,1.7-2.4,2.2c-0.9,0.5-2.1,0.7-3.7,0.7c-2.1,0-4-0.8-5.5-2.3c-1.6-1.5-2.4-4-2.4-7.5
		c0-3.3,0.8-5.8,2.4-7.7c1.6-1.8,3.5-2.8,5.8-2.8C218.5,118,219.8,118.4,221,119.1z M221.4,122.7c-1-1.2-2.3-1.8-3.8-1.8
		c-2.3,0-3.9,1.1-4.7,3.3c-0.4,1.2-0.7,2.7-0.7,4.5c0,2.2,0.4,3.9,1.3,5c0.9,1.2,2.1,1.7,3.6,1.7c2.3,0,4-1.1,5-3.2
		c0.5-1.2,0.8-2.6,0.8-4.2C222.9,125.6,222.4,123.8,221.4,122.7z"/>
	<path class="st1" d="M66.3,155.3c1.7,1.7,2.6,4.1,2.6,7.4c0,3.2-0.8,5.8-2.3,7.8c-1.5,2.1-3.9,3.1-7.1,3.1c-2.7,0-4.8-0.9-6.4-2.7
		c-1.6-1.8-2.4-4.3-2.4-7.3c0-3.3,0.8-5.9,2.5-7.8c1.7-1.9,3.9-2.9,6.7-2.9C62.4,152.8,64.5,153.6,66.3,155.3z M64.2,168.3
		c0.8-1.6,1.2-3.5,1.2-5.5c0-1.8-0.3-3.3-0.9-4.5c-0.9-1.8-2.5-2.7-4.7-2.7c-2,0-3.4,0.8-4.3,2.3c-0.9,1.5-1.4,3.4-1.4,5.5
		c0,2.1,0.5,3.8,1.4,5.2c0.9,1.4,2.3,2.1,4.3,2.1C62,170.8,63.4,170,64.2,168.3z"/>
	<path class="st1" d="M74.4,147.4c0.8-1.1,2.2-1.7,4.4-1.7c0.2,0,0.4,0,0.6,0c0.2,0,0.5,0,0.7,0.1v3c-0.3,0-0.6,0-0.7,0
		s-0.3,0-0.4,0c-1,0-1.6,0.3-1.8,0.8c-0.2,0.5-0.3,1.8-0.3,4h3.3v2.6H77v16.9h-3.3v-16.9H71v-2.6h2.7v-3.1
		C73.8,149,74,148,74.4,147.4z"/>
	<path class="st1" d="M94,146.1h11.6c3.2,0,5.4,0.9,6.7,2.8c0.8,1.1,1.2,2.4,1.2,3.8c0,1.7-0.5,3.1-1.4,4.2
		c-0.5,0.6-1.2,1.1-2.2,1.6c1.4,0.5,2.4,1.1,3.1,1.8c1.2,1.2,1.8,2.8,1.8,4.8c0,1.7-0.5,3.3-1.6,4.7c-1.6,2.1-4.2,3.1-7.8,3.1H94
		V146.1z M104.3,157.4c1.5,0,2.8-0.2,3.6-0.6c1.4-0.7,2-1.9,2-3.6c0-1.8-0.7-2.9-2.2-3.5c-0.8-0.3-2-0.5-3.6-0.5h-6.6v8.3H104.3z
		 M105.5,169.8c2.2,0,3.9-0.6,4.8-1.9c0.6-0.8,0.9-1.8,0.9-3c0-1.9-0.9-3.3-2.6-4c-0.9-0.4-2.2-0.6-3.7-0.6h-7.3v9.4H105.5z"/>
	<path class="st1" d="M130.7,153.9c1.3,0.7,2.3,1.5,3,2.5c0.7,1,1.1,2.1,1.3,3.5c0.2,0.9,0.3,2.3,0.3,4.3H121c0.1,2,0.5,3.6,1.4,4.8
		c0.9,1.2,2.2,1.8,4,1.8c1.7,0,3.1-0.6,4.1-1.7c0.6-0.7,1-1.4,1.2-2.3h3.2c-0.1,0.7-0.4,1.5-0.8,2.4s-1,1.6-1.6,2.2
		c-1,1-2.2,1.6-3.7,2c-0.8,0.2-1.7,0.3-2.7,0.3c-2.4,0-4.5-0.9-6.2-2.7s-2.5-4.3-2.5-7.4c0-3.1,0.8-5.7,2.5-7.7s3.9-2.9,6.6-2.9
		C128.1,152.9,129.4,153.3,130.7,153.9z M131.9,161.6c-0.1-1.4-0.4-2.6-0.9-3.4c-0.9-1.6-2.4-2.4-4.5-2.4c-1.5,0-2.8,0.5-3.8,1.6
		s-1.6,2.5-1.6,4.2H131.9z"/>
	<path class="st1" d="M149.9,161.1c0.8-0.1,1.3-0.4,1.5-0.9c0.1-0.3,0.2-0.7,0.2-1.3c0-1.1-0.4-1.9-1.2-2.4
		c-0.8-0.5-1.9-0.8-3.4-0.8c-1.7,0-2.9,0.5-3.6,1.4c-0.4,0.5-0.7,1.3-0.8,2.3h-3.1c0.1-2.4,0.8-4.1,2.3-5c1.5-0.9,3.2-1.4,5.2-1.4
		c2.3,0,4.2,0.4,5.6,1.3c1.4,0.9,2.1,2.2,2.1,4.1v11.3c0,0.3,0.1,0.6,0.2,0.8c0.1,0.2,0.4,0.3,0.9,0.3c0.1,0,0.3,0,0.5,0
		c0.2,0,0.4,0,0.6-0.1v2.4c-0.5,0.1-0.9,0.2-1.2,0.3c-0.3,0-0.6,0.1-1.1,0.1c-1.1,0-2-0.4-2.5-1.2c-0.3-0.4-0.5-1-0.6-1.8
		c-0.7,0.9-1.6,1.6-2.9,2.3c-1.3,0.6-2.6,1-4.1,1c-1.8,0-3.3-0.5-4.4-1.7s-1.7-2.5-1.7-4.1c0-1.8,0.6-3.2,1.7-4.2
		c1.1-1,2.6-1.6,4.5-1.8L149.9,161.1z M143,170c0.7,0.5,1.5,0.8,2.5,0.8c1.2,0,2.3-0.3,3.4-0.8c1.8-0.9,2.7-2.3,2.7-4.4V163
		c-0.4,0.3-0.9,0.5-1.5,0.6c-0.6,0.2-1.3,0.3-1.9,0.4l-2,0.3c-1.2,0.2-2.1,0.4-2.7,0.7c-1,0.6-1.5,1.5-1.5,2.7
		C141.9,168.7,142.3,169.4,143,170z"/>
	<path class="st1" d="M163.5,153.4v13c0,1,0.2,1.8,0.5,2.4c0.6,1.2,1.6,1.8,3.2,1.8c2.2,0,3.7-1,4.6-3.1c0.4-1.1,0.7-2.6,0.7-4.5
		v-9.6h3.3v19.6h-3.1l0-2.9c-0.4,0.7-0.9,1.4-1.6,1.9c-1.2,1-2.7,1.5-4.5,1.5c-2.7,0-4.6-0.9-5.6-2.8c-0.5-1-0.8-2.3-0.8-4v-13.3
		H163.5z"/>
	<path class="st1" d="M181.7,147.9h3.3v5.5h3.1v2.7H185v12.8c0,0.7,0.2,1.1,0.7,1.4c0.3,0.1,0.7,0.2,1.3,0.2c0.2,0,0.3,0,0.5,0
		c0.2,0,0.4,0,0.6-0.1v2.6c-0.4,0.1-0.8,0.2-1.2,0.2s-0.8,0.1-1.3,0.1c-1.5,0-2.6-0.4-3.1-1.2s-0.8-1.8-0.8-3.1v-12.9H179v-2.7h2.6
		V147.9z"/>
	<path class="st1" d="M203.6,153.4h3.6c-0.5,1.3-1.5,4.1-3.1,8.6c-1.2,3.4-2.2,6.1-3,8.2c-1.9,5-3.2,8-4,9.1s-2.1,1.6-4,1.6
		c-0.5,0-0.8,0-1.1-0.1c-0.2,0-0.6-0.1-0.9-0.2v-3c0.6,0.2,1,0.3,1.2,0.3c0.3,0,0.5,0.1,0.7,0.1c0.6,0,1.1-0.1,1.3-0.3
		c0.3-0.2,0.5-0.4,0.7-0.7c0.1-0.1,0.3-0.6,0.7-1.5c0.4-0.9,0.6-1.6,0.8-2l-7.2-20.1h3.7l5.2,15.9L203.6,153.4z"/>
</g>
</svg>
