<?xml version="1.0" encoding="utf-8"?>
<!-- Generator: Adobe Illustrator 26.2.1, SVG Export Plug-In . SVG Version: 6.00 Build 0)  -->
<svg version="1.1" id="Layer_1" xmlns="http://www.w3.org/2000/svg" xmlns:xlink="http://www.w3.org/1999/xlink" x="0px" y="0px"
	 viewBox="0 0 265 182" style="enable-background:new 0 0 265 182;" xml:space="preserve">
<style type="text/css">
	.st0{fill:#010101;}
</style>
<g>
	<path class="st0" d="M16.9,76.1L22,97.9l6.1-21.8H32l6.1,21.8l5.1-21.8h4l-7,26.8h-3.8l-6.2-22.2l-6.2,22.2H20l-7-26.8H16.9z"/>
	<path class="st0" d="M50,76.1h3.3v3.7H50V76.1z M50,83.4h3.3v19.5H50V83.4z"/>
	<path class="st0" d="M59,77.9h3.3v5.5h3.1V86h-3.1v12.8c0,0.7,0.2,1.1,0.7,1.4c0.3,0.1,0.7,0.2,1.3,0.2c0.2,0,0.3,0,0.5,0
		c0.2,0,0.4,0,0.6-0.1v2.6c-0.4,0.1-0.8,0.2-1.2,0.2s-0.8,0.1-1.3,0.1c-1.5,0-2.6-0.4-3.1-1.2S59,100.2,59,99V86h-2.6v-2.7H59V77.9z
		"/>
	<path class="st0" d="M68.7,76H72v10c0.8-1,1.5-1.7,2.1-2.1c1.1-0.7,2.4-1,4-1c2.8,0,4.8,1,5.8,3c0.5,1.1,0.8,2.6,0.8,4.5v12.5h-3.4
		V90.6c0-1.4-0.2-2.5-0.5-3.2c-0.6-1.1-1.7-1.6-3.4-1.6c-1.4,0-2.6,0.5-3.7,1.4c-1.1,0.9-1.7,2.7-1.7,5.3v10.4h-3.3V76z"/>
	<path class="st0" d="M110.4,91.1c0.8-0.1,1.3-0.4,1.5-0.9c0.1-0.3,0.2-0.7,0.2-1.3c0-1.1-0.4-1.9-1.2-2.4s-1.9-0.8-3.4-0.8
		c-1.7,0-2.9,0.5-3.6,1.4c-0.4,0.5-0.7,1.3-0.8,2.3H100c0.1-2.4,0.8-4.1,2.3-5c1.5-0.9,3.2-1.4,5.2-1.4c2.3,0,4.2,0.4,5.6,1.3
		c1.4,0.9,2.1,2.2,2.1,4.1v11.3c0,0.3,0.1,0.6,0.2,0.8c0.1,0.2,0.4,0.3,0.9,0.3c0.1,0,0.3,0,0.5,0c0.2,0,0.4,0,0.6-0.1v2.4
		c-0.5,0.1-0.9,0.2-1.2,0.3c-0.3,0-0.6,0.1-1.1,0.1c-1.1,0-2-0.4-2.5-1.2c-0.3-0.4-0.5-1-0.6-1.8c-0.7,0.9-1.6,1.6-2.9,2.3
		c-1.3,0.6-2.6,1-4.1,1c-1.8,0-3.3-0.5-4.4-1.7S99,99.4,99,97.8c0-1.8,0.6-3.2,1.7-4.2c1.1-1,2.6-1.6,4.5-1.8L110.4,91.1z
		 M103.5,100c0.7,0.5,1.5,0.8,2.5,0.8c1.2,0,2.3-0.3,3.4-0.8c1.8-0.9,2.7-2.3,2.7-4.4V93c-0.4,0.3-0.9,0.5-1.5,0.6
		c-0.6,0.2-1.3,0.3-1.9,0.4l-2,0.3c-1.2,0.2-2.1,0.4-2.7,0.7c-1,0.6-1.5,1.5-1.5,2.7C102.4,98.7,102.8,99.4,103.5,100z"/>
	<path class="st0" d="M131.9,76.1h12c2.4,0,4.3,0.7,5.7,2c1.5,1.3,2.2,3.2,2.2,5.7c0,2.1-0.7,3.9-2,5.5c-1.3,1.6-3.3,2.3-6,2.3h-8.4
		v11.3h-3.6V76.1z M146,79.8c-0.8-0.4-1.9-0.6-3.3-0.6h-7.2v9.3h7.2c1.6,0,2.9-0.3,3.9-1s1.5-1.9,1.5-3.7
		C148.2,81.8,147.4,80.5,146,79.8z"/>
	<path class="st0" d="M156.1,83.4h3.1v3.4c0.3-0.7,0.9-1.5,1.9-2.4c1-0.9,2.1-1.4,3.5-1.4c0.1,0,0.2,0,0.3,0c0.1,0,0.4,0,0.7,0.1
		v3.5c-0.2,0-0.4-0.1-0.5-0.1c-0.2,0-0.3,0-0.5,0c-1.7,0-2.9,0.5-3.8,1.6c-0.9,1.1-1.3,2.3-1.3,3.7v11.2h-3.3V83.4z"/>
	<path class="st0" d="M182.7,85.3c1.7,1.7,2.6,4.1,2.6,7.4c0,3.2-0.8,5.8-2.3,7.8c-1.5,2.1-3.9,3.1-7.1,3.1c-2.7,0-4.8-0.9-6.4-2.7
		s-2.4-4.3-2.4-7.3c0-3.3,0.8-5.9,2.5-7.8c1.7-1.9,3.9-2.9,6.7-2.9C178.8,82.8,180.9,83.6,182.7,85.3z M180.6,98.3
		c0.8-1.6,1.2-3.5,1.2-5.5c0-1.8-0.3-3.3-0.9-4.5c-0.9-1.8-2.5-2.7-4.7-2.7c-2,0-3.4,0.8-4.3,2.3c-0.9,1.5-1.4,3.4-1.4,5.5
		c0,2.1,0.5,3.8,1.4,5.2c0.9,1.4,2.3,2.1,4.3,2.1C178.3,100.8,179.8,100,180.6,98.3z"/>
	<path class="st0" d="M186.2,107.9c1.5,0,2.4-0.2,2.7-0.4s0.4-0.9,0.4-2v-22h3.3v22.4c0,1.4-0.2,2.5-0.7,3.2
		c-0.8,1.2-2.2,1.8-4.4,1.8c-0.2,0-0.3,0-0.5,0c-0.2,0-0.5,0-0.8-0.1V107.9z M192.6,79.9h-3.3v-3.8h3.3V79.9z"/>
	<path class="st0" d="M209.7,83.9c1.3,0.7,2.3,1.5,3,2.5c0.7,1,1.1,2.1,1.3,3.5c0.2,0.9,0.3,2.3,0.3,4.3H200c0.1,2,0.5,3.6,1.4,4.8
		c0.9,1.2,2.2,1.8,4,1.8c1.7,0,3.1-0.6,4.1-1.7c0.6-0.7,1-1.4,1.2-2.3h3.2c-0.1,0.7-0.4,1.5-0.8,2.4s-1,1.6-1.6,2.2
		c-1,1-2.2,1.6-3.7,2c-0.8,0.2-1.7,0.3-2.7,0.3c-2.4,0-4.5-0.9-6.2-2.7c-1.7-1.8-2.5-4.3-2.5-7.4c0-3.1,0.8-5.7,2.5-7.7
		c1.7-2,3.9-2.9,6.6-2.9C207.1,82.9,208.4,83.2,209.7,83.9z M210.9,91.6c-0.1-1.4-0.4-2.6-0.9-3.4c-0.9-1.6-2.4-2.4-4.5-2.4
		c-1.5,0-2.8,0.5-3.8,1.6c-1,1.1-1.6,2.5-1.6,4.2H210.9z"/>
	<path class="st0" d="M231.3,84.4c1.4,1.1,2.2,2.9,2.5,5.5h-3.2c-0.2-1.2-0.6-2.2-1.3-3c-0.7-0.8-1.8-1.2-3.3-1.2
		c-2.1,0-3.6,1-4.5,3.1c-0.6,1.3-0.9,3-0.9,4.9c0,2,0.4,3.6,1.2,4.9s2.1,2,3.9,2c1.4,0,2.4-0.4,3.2-1.2c0.8-0.8,1.3-2,1.7-3.4h3.2
		c-0.4,2.6-1.3,4.5-2.7,5.7c-1.5,1.2-3.3,1.8-5.6,1.8c-2.6,0-4.6-0.9-6.1-2.8c-1.5-1.9-2.3-4.2-2.3-7c0-3.4,0.8-6.1,2.5-8
		s3.8-2.9,6.4-2.9C228.1,82.8,229.9,83.3,231.3,84.4z"/>
	<path class="st0" d="M237.8,77.9h3.3v5.5h3.1V86h-3.1v12.8c0,0.7,0.2,1.1,0.7,1.4c0.3,0.1,0.7,0.2,1.3,0.2c0.2,0,0.3,0,0.5,0
		c0.2,0,0.4,0,0.6-0.1v2.6c-0.4,0.1-0.8,0.2-1.2,0.2s-0.8,0.1-1.3,0.1c-1.5,0-2.6-0.4-3.1-1.2s-0.8-1.8-0.8-3.1V86h-2.6v-2.7h2.6
		V77.9z"/>
	<path class="st0" d="M63.6,111.1h3.3v3.7h-3.3V111.1z M63.6,118.5h3.3v19.5h-3.3V118.5z"/>
	<path class="st0" d="M71.9,118.4H75v2.8c0.9-1.1,1.9-2,2.9-2.5c1-0.5,2.2-0.7,3.5-0.7c2.8,0,4.7,1,5.6,2.9c0.5,1.1,0.8,2.6,0.8,4.5
		v12.5h-3.3v-12.3c0-1.2-0.2-2.2-0.5-2.9c-0.6-1.2-1.6-1.8-3.2-1.8c-0.8,0-1.4,0.1-1.9,0.2c-0.9,0.3-1.7,0.8-2.4,1.6
		c-0.5,0.6-0.9,1.3-1.1,2c-0.2,0.7-0.2,1.7-0.2,2.9v10.2h-3.3V118.4z"/>
	<path class="st0" d="M103.8,111.1h19.5v3.3h-15.9v8.1h14.7v3.1h-14.7v9.1h16.2v3.2h-19.7V111.1z"/>
	<path class="st0" d="M129.6,118.4l5.2,15.9l5.4-15.9h3.6l-7.4,19.6H133l-7.2-19.6H129.6z"/>
	<path class="st0" d="M158.8,118.9c1.3,0.7,2.3,1.5,3,2.5c0.7,1,1.1,2.1,1.3,3.5c0.2,0.9,0.3,2.3,0.3,4.3h-14.2
		c0.1,2,0.5,3.6,1.4,4.8c0.9,1.2,2.2,1.8,4,1.8c1.7,0,3.1-0.6,4.1-1.7c0.6-0.7,1-1.4,1.2-2.3h3.2c-0.1,0.7-0.4,1.5-0.8,2.4
		s-1,1.6-1.6,2.2c-1,1-2.2,1.6-3.7,2c-0.8,0.2-1.7,0.3-2.7,0.3c-2.4,0-4.5-0.9-6.2-2.7c-1.7-1.8-2.5-4.3-2.5-7.4
		c0-3.1,0.8-5.7,2.5-7.7c1.7-2,3.9-2.9,6.6-2.9C156.2,117.9,157.5,118.2,158.8,118.9z M160,126.6c-0.1-1.4-0.4-2.6-0.9-3.4
		c-0.9-1.6-2.4-2.4-4.5-2.4c-1.5,0-2.8,0.5-3.8,1.6c-1,1.1-1.6,2.5-1.6,4.2H160z"/>
	<path class="st0" d="M167.6,118.4h3.1v3.4c0.3-0.7,0.9-1.5,1.9-2.4s2.1-1.4,3.5-1.4c0.1,0,0.2,0,0.3,0c0.1,0,0.4,0,0.7,0.1v3.5
		c-0.2,0-0.4-0.1-0.5-0.1c-0.2,0-0.3,0-0.5,0c-1.7,0-2.9,0.5-3.8,1.6c-0.9,1.1-1.3,2.3-1.3,3.7v11.2h-3.3V118.4z"/>
	<path class="st0" d="M192.2,118.4h3.6c-0.5,1.3-1.5,4.1-3.1,8.6c-1.2,3.4-2.2,6.1-3,8.2c-1.9,5-3.2,8-4,9.1s-2.1,1.6-4,1.6
		c-0.5,0-0.8,0-1.1-0.1c-0.2,0-0.6-0.1-0.9-0.2v-3c0.6,0.2,1,0.3,1.2,0.3c0.3,0,0.5,0.1,0.7,0.1c0.6,0,1.1-0.1,1.3-0.3
		c0.3-0.2,0.5-0.4,0.7-0.7c0.1-0.1,0.3-0.6,0.7-1.5c0.4-0.9,0.6-1.6,0.8-2l-7.2-20.1h3.7l5.2,15.9L192.2,118.4z"/>
	<path class="st0" d="M61.3,146.1v3.2h-9v23.6h-3.7v-23.6h-9v-3.2H61.3z"/>
	<path class="st0" d="M62.9,146.1h3.3v3.7h-3.3V146.1z M62.9,153.5h3.3v19.5h-3.3V153.5z"/>
	<path class="st0" d="M71.2,153.4h3.2v2.8c0.8-1,1.5-1.7,2.1-2.1c1.1-0.7,2.3-1.1,3.7-1.1c1.6,0,2.8,0.4,3.8,1.2
		c0.5,0.4,1,1.1,1.5,1.9c0.7-1,1.6-1.8,2.6-2.3c1-0.5,2.1-0.8,3.3-0.8c2.6,0,4.4,0.9,5.4,2.8c0.5,1,0.8,2.4,0.8,4.1v13h-3.4v-13.6
		c0-1.3-0.3-2.2-1-2.7c-0.7-0.5-1.4-0.7-2.4-0.7c-1.3,0-2.4,0.4-3.3,1.3c-0.9,0.9-1.4,2.3-1.4,4.3v11.4h-3.3v-12.8
		c0-1.3-0.2-2.3-0.5-2.9c-0.5-0.9-1.4-1.4-2.8-1.4c-1.2,0-2.4,0.5-3.4,1.4c-1,1-1.5,2.7-1.5,5.2v10.4h-3.3V153.4z"/>
	<path class="st0" d="M114.4,153.9c1.3,0.7,2.3,1.5,3,2.5c0.7,1,1.1,2.1,1.3,3.5c0.2,0.9,0.3,2.3,0.3,4.3h-14.2
		c0.1,2,0.5,3.6,1.4,4.8c0.9,1.2,2.2,1.8,4,1.8c1.7,0,3.1-0.6,4.1-1.7c0.6-0.7,1-1.4,1.2-2.3h3.2c-0.1,0.7-0.4,1.5-0.8,2.4
		s-1,1.6-1.6,2.2c-1,1-2.2,1.6-3.7,2c-0.8,0.2-1.7,0.3-2.7,0.3c-2.4,0-4.5-0.9-6.2-2.7s-2.5-4.3-2.5-7.4c0-3.1,0.8-5.7,2.5-7.7
		s3.9-2.9,6.6-2.9C111.8,152.9,113.1,153.3,114.4,153.9z M115.6,161.6c-0.1-1.4-0.4-2.6-0.9-3.4c-0.9-1.6-2.4-2.4-4.5-2.4
		c-1.5,0-2.8,0.5-3.8,1.6s-1.6,2.5-1.6,4.2H115.6z"/>
	<path class="st0" d="M122.3,160.8h9.2v3.4h-9.2V160.8z"/>
	<path class="st0" d="M134,169.9l16.5-20.6h-15.3v-3.2h20v3.1l-16.6,20.5h16.6v3.2H134V169.9z"/>
	<path class="st0" d="M172.6,155.3c1.7,1.7,2.6,4.1,2.6,7.4c0,3.2-0.8,5.8-2.3,7.8c-1.5,2.1-3.9,3.1-7.1,3.1c-2.7,0-4.8-0.9-6.4-2.7
		s-2.4-4.3-2.4-7.3c0-3.3,0.8-5.9,2.5-7.8s3.9-2.9,6.7-2.9C168.8,152.8,170.9,153.6,172.6,155.3z M170.6,168.3
		c0.8-1.6,1.2-3.5,1.2-5.5c0-1.8-0.3-3.3-0.9-4.5c-0.9-1.8-2.5-2.7-4.7-2.7c-2,0-3.4,0.8-4.3,2.3c-0.9,1.5-1.4,3.4-1.4,5.5
		c0,2.1,0.5,3.8,1.4,5.2c0.9,1.4,2.3,2.1,4.3,2.1C168.3,170.8,169.8,170,170.6,168.3z"/>
	<path class="st0" d="M179.2,153.4h3.1v2.8c0.9-1.1,1.9-2,2.9-2.5c1-0.5,2.2-0.7,3.5-0.7c2.8,0,4.6,1,5.6,2.9
		c0.5,1.1,0.8,2.6,0.8,4.5v12.5h-3.3v-12.3c0-1.2-0.2-2.2-0.5-2.9c-0.6-1.2-1.6-1.8-3.2-1.8c-0.8,0-1.4,0.1-1.9,0.2
		c-0.9,0.3-1.7,0.8-2.4,1.6c-0.5,0.6-0.9,1.3-1.1,2c-0.2,0.7-0.2,1.7-0.2,2.9v10.2h-3.3V153.4z"/>
	<path class="st0" d="M212.1,153.9c1.3,0.7,2.3,1.5,3,2.5c0.7,1,1.1,2.1,1.3,3.5c0.2,0.9,0.3,2.3,0.3,4.3h-14.2
		c0.1,2,0.5,3.6,1.4,4.8c0.9,1.2,2.2,1.8,4,1.8c1.7,0,3.1-0.6,4.1-1.7c0.6-0.7,1-1.4,1.2-2.3h3.2c-0.1,0.7-0.4,1.5-0.8,2.4
		s-1,1.6-1.6,2.2c-1,1-2.2,1.6-3.7,2c-0.8,0.2-1.7,0.3-2.7,0.3c-2.4,0-4.5-0.9-6.2-2.7c-1.7-1.8-2.5-4.3-2.5-7.4
		c0-3.1,0.8-5.7,2.5-7.7c1.7-2,3.9-2.9,6.6-2.9C209.5,152.9,210.8,153.3,212.1,153.9z M213.3,161.6c-0.1-1.4-0.4-2.6-0.9-3.4
		c-0.9-1.6-2.4-2.4-4.5-2.4c-1.5,0-2.8,0.5-3.8,1.6c-1,1.1-1.6,2.5-1.6,4.2H213.3z"/>
</g>
<g>
	<path class="st0" d="M20.1,37.3c7.1,0,11.2,3.5,11.2,10.8v5.6c0,7.3-4,10.8-11.2,10.8h-8.9V37.3H20.1z M15.7,60.4h4.4
		c4.6,0,6.6-2.2,6.6-6.7v-5.7c0-4.5-2-6.7-6.6-6.7h-4.4V60.4z"/>
	<path class="st0" d="M37.4,36.5c1.8,0,3.2,1.3,3.2,3.1c0,1.8-1.4,3.1-3.2,3.1c-1.8,0-3.2-1.3-3.2-3.1
		C34.1,37.8,35.6,36.5,37.4,36.5z M39.5,64.6h-4.3V45.3h4.3V64.6z"/>
	<path class="st0" d="M63.3,45.3v18.6c0,5.2-3.7,9-9.7,9c-5.2,0-8.2-2.5-10.1-5.4l3.7-2.2c1.1,2,3,3.9,6.1,3.9
		c3.3,0,5.7-1.7,5.7-5.4v-2.6h-0.5c-1,1.7-2.8,3.4-6.4,3.4c-4.9,0-8.9-4.1-8.9-9.9c0-5.8,4-9.9,8.9-9.9c3.6,0,5.3,1.7,6.4,3.4H59
		v-2.8H63.3z M59,54.7c0-3.8-2.3-6-5.7-6c-3.3,0-5.8,2.1-5.8,6c0,3.9,2.5,6.1,5.8,6.1C56.7,60.7,59,58.5,59,54.7z"/>
	<path class="st0" d="M70.3,36.5c1.8,0,3.2,1.3,3.2,3.1c0,1.8-1.4,3.1-3.2,3.1c-1.8,0-3.2-1.3-3.2-3.1
		C67.1,37.8,68.5,36.5,70.3,36.5z M72.5,64.6h-4.3V45.3h4.3V64.6z"/>
	<path class="st0" d="M80.4,45.3V39h4.3v6.3h5.5V49h-5.5v10.7c0,0.8,0.4,1.1,1.1,1.1H89v3.7h-5.1c-2,0-3.5-1.4-3.5-3.5V49h-5.1v-3.7
		H80.4z"/>
	<path class="st0" d="M102.4,44.8c5.2,0,8.6,3,8.6,7.6v12.2h-4.2v-2.9h-0.5c-0.7,1.5-2.4,3.4-6.4,3.4c-4.3,0-7.2-2.3-7.2-5.9
		c0-3.3,2.5-5.3,6.9-5.7l7.2-0.7v-0.5c0-2.2-1.6-3.7-4.5-3.7c-2.8,0-4.6,1.4-5.6,3.5l-3.6-2C94.9,47.1,97.7,44.8,102.4,44.8z
		 M100.7,61.6c4,0,6-2.4,6-5.3v-0.3l-6.3,0.7c-2,0.2-3.4,0.9-3.4,2.4S98.4,61.6,100.7,61.6z"/>
	<path class="st0" d="M120,64.6h-4.3V37.3h4.3V64.6z"/>
	<path class="st0" d="M144.2,37.3l7.4,23.1h0.5V37.3h4.5v27.3h-8.2l-7.3-23.1h-0.5v23.1h-4.5V37.3H144.2z"/>
	<path class="st0" d="M170.3,44.8c5.7,0,10,4.1,10,10.1s-4.3,10.2-10,10.2s-10-4.2-10-10.2S164.7,44.8,170.3,44.8z M170.3,61.3
		c3.4,0,5.7-2.5,5.7-6.3c0-3.9-2.3-6.3-5.7-6.3s-5.7,2.4-5.7,6.3C164.6,58.8,167,61.3,170.3,61.3z"/>
	<path class="st0" d="M188.2,45.3V48h0.5c0.9-1.8,2.6-3,5.2-3s4.3,1.4,5.2,3.2h0.5c0.8-1.7,2.4-3.2,5.5-3.2c3.5,0,6.4,2.5,6.4,6.5
		v13h-4.3V51.9c0-2-1.5-3.1-3.5-3.1c-2.2,0-3.8,1.3-3.8,4v11.9h-4.3V51.9c0-2-1.4-3.1-3.5-3.1c-2.2,0-3.9,1.3-3.9,4v11.9H184V45.3
		H188.2z"/>
	<path class="st0" d="M225.1,44.8c5.2,0,8.6,3,8.6,7.6v12.2h-4.2v-2.9h-0.5c-0.7,1.5-2.4,3.4-6.4,3.4c-4.3,0-7.2-2.3-7.2-5.9
		c0-3.3,2.5-5.3,6.9-5.7l7.2-0.7v-0.5c0-2.2-1.6-3.7-4.5-3.7c-2.8,0-4.6,1.4-5.6,3.5l-3.6-2C217.6,47.1,220.4,44.8,225.1,44.8z
		 M223.4,61.6c4,0,6-2.4,6-5.3v-0.3l-6.3,0.7c-2,0.2-3.4,0.9-3.4,2.4S221.1,61.6,223.4,61.6z"/>
	<path class="st0" d="M257.2,64.6H253v-2.9h-0.5c-1,1.7-2.8,3.4-6.4,3.4c-4.9,0-8.9-4.3-8.9-10.2s4-10.1,8.9-10.1
		c3.6,0,5.3,1.7,6.4,3.4h0.5V37.3h4.3V64.6z M241.4,54.9c0,4.1,2.5,6.4,5.8,6.4c3.4,0,5.7-2.4,5.7-6.4s-2.3-6.3-5.7-6.3
		C243.9,48.6,241.4,50.9,241.4,54.9z"/>
</g>
<g>
	<g>
		<path class="st0" d="M122.7,0.8v4.1h-8.5v23.2h-4.5V4.9h-8.5V0.8H122.7z"/>
		<path class="st0" d="M130,0.8V12h0.5c0.9-1.8,2.6-3.5,6.3-3.5c4.2,0,7.5,2.8,7.5,8v11.5h-4.3V16.9c0-3-1.7-4.6-4.6-4.6
			c-3.4,0-5.3,2.1-5.3,5.8v10h-4.3V0.8H130z"/>
		<path class="st0" d="M157.3,8.2c5.6,0,9.4,4,9.4,9.7v1.9h-14.5c0.2,3,2.3,5.1,5.5,5.1c2.8,0,4.3-1.5,5.1-3.2l3.5,2
			c-1.4,2.2-3.7,4.8-8.6,4.8c-5.9,0-10-4.4-10-10.3C147.7,12.5,151.7,8.2,157.3,8.2z M162.3,16.6c-0.2-2.9-2-4.7-5-4.7
			c-3,0-4.8,1.8-5.1,4.7H162.3z"/>
	</g>
</g>
</svg>
