<?xml version="1.0" encoding="utf-8"?>
<!-- Generator: Adobe Illustrator 25.4.1, SVG Export Plug-In . SVG Version: 6.00 Build 0)  -->
<svg version="1.1" id="Layer_1" xmlns="http://www.w3.org/2000/svg" xmlns:xlink="http://www.w3.org/1999/xlink" x="0px" y="0px"
	 viewBox="0 0 265 157.7" style="enable-background:new 0 0 265 157.7;" xml:space="preserve">
<g>
	<g>
		<path d="M33.1,87.4h3.6V111h13.5v3.2H33.1V87.4z"/>
		<path d="M53.4,87.4h3.3v3.7h-3.3V87.4z M53.4,94.7h3.3v19.5h-3.3V94.7z"/>
		<path d="M63.3,94.7l5.2,15.9L74,94.7h3.6l-7.4,19.6h-3.5l-7.2-19.6H63.3z"/>
		<path d="M80.4,87.4h3.3v3.7h-3.3V87.4z M80.4,94.7h3.3v19.5h-3.3V94.7z"/>
		<path d="M88.7,94.7h3.1v2.8c0.9-1.1,1.9-2,2.9-2.5c1-0.5,2.2-0.7,3.5-0.7c2.8,0,4.6,1,5.6,2.9c0.5,1.1,0.8,2.6,0.8,4.5v12.5h-3.3
			v-12.3c0-1.2-0.2-2.2-0.5-2.9c-0.6-1.2-1.6-1.8-3.2-1.8c-0.8,0-1.4,0.1-1.9,0.2c-0.9,0.3-1.7,0.8-2.4,1.6c-0.5,0.6-0.9,1.3-1.1,2
			c-0.2,0.7-0.2,1.7-0.2,2.9v10.2h-3.3V94.7z"/>
		<path d="M120.4,95.4c0.6,0.4,1.2,1,1.9,1.9v-2.5h3v17.8c0,2.5-0.4,4.4-1.1,5.9c-1.4,2.7-3.9,4-7.7,4c-2.1,0-3.9-0.5-5.3-1.4
			c-1.4-0.9-2.2-2.4-2.4-4.4h3.3c0.2,0.9,0.5,1.6,0.9,2c0.7,0.7,1.9,1.1,3.5,1.1c2.5,0,4.1-0.9,4.9-2.7c0.5-1,0.7-2.9,0.6-5.6
			c-0.7,1-1.4,1.7-2.4,2.2c-0.9,0.5-2.1,0.7-3.7,0.7c-2.1,0-4-0.8-5.5-2.3c-1.6-1.5-2.4-4-2.4-7.5c0-3.3,0.8-5.8,2.4-7.7
			s3.5-2.8,5.8-2.8C117.9,94.3,119.3,94.7,120.4,95.4z M120.8,99c-1-1.2-2.3-1.8-3.8-1.8c-2.3,0-3.9,1.1-4.7,3.3
			c-0.4,1.2-0.7,2.7-0.7,4.5c0,2.2,0.4,3.9,1.3,5c0.9,1.2,2.1,1.7,3.6,1.7c2.3,0,4-1.1,5-3.2c0.5-1.2,0.8-2.6,0.8-4.2
			C122.3,101.9,121.8,100.1,120.8,99z"/>
		<path d="M140.7,87.4h3.3v3.7h-3.3V87.4z M140.7,94.7h3.3v19.5h-3.3V94.7z"/>
		<path d="M149,94.7h3.1v2.8c0.9-1.1,1.9-2,2.9-2.5c1-0.5,2.2-0.7,3.5-0.7c2.8,0,4.6,1,5.6,2.9c0.5,1.1,0.8,2.6,0.8,4.5v12.5h-3.3
			v-12.3c0-1.2-0.2-2.2-0.5-2.9c-0.6-1.2-1.6-1.8-3.2-1.8c-0.8,0-1.4,0.1-1.9,0.2c-0.9,0.3-1.7,0.8-2.4,1.6c-0.5,0.6-0.9,1.3-1.1,2
			c-0.2,0.7-0.2,1.7-0.2,2.9v10.2H149V94.7z"/>
		<path d="M180.7,87.4h3.7v11.1h13.8V87.4h3.7v26.8h-3.7v-12.5h-13.8v12.5h-3.7V87.4z"/>
		<path d="M219.3,95.2c1.3,0.7,2.3,1.5,3,2.5c0.7,1,1.1,2.1,1.3,3.5c0.2,0.9,0.3,2.3,0.3,4.3h-14.2c0.1,2,0.5,3.6,1.4,4.8
			c0.9,1.2,2.2,1.8,4,1.8c1.7,0,3.1-0.6,4.1-1.7c0.6-0.7,1-1.4,1.2-2.3h3.2c-0.1,0.7-0.4,1.5-0.8,2.4c-0.5,0.9-1,1.6-1.6,2.2
			c-1,1-2.2,1.6-3.7,2c-0.8,0.2-1.7,0.3-2.7,0.3c-2.4,0-4.5-0.9-6.2-2.7c-1.7-1.8-2.5-4.3-2.5-7.4c0-3.1,0.8-5.7,2.5-7.7
			c1.7-2,3.9-2.9,6.6-2.9C216.7,94.2,218,94.5,219.3,95.2z M220.5,102.9c-0.1-1.4-0.4-2.6-0.9-3.4c-0.9-1.6-2.4-2.4-4.5-2.4
			c-1.5,0-2.8,0.5-3.8,1.6c-1,1.1-1.6,2.5-1.6,4.2H220.5z"/>
		<path d="M228.1,94.7h3.1V98c0.3-0.7,0.9-1.5,1.9-2.4s2.1-1.4,3.5-1.4c0.1,0,0.2,0,0.3,0c0.1,0,0.4,0,0.7,0.1v3.5
			c-0.2,0-0.4-0.1-0.5-0.1c-0.2,0-0.3,0-0.5,0c-1.7,0-2.9,0.5-3.8,1.6c-0.9,1.1-1.3,2.3-1.3,3.7v11.2h-3.3V94.7z"/>
		<path d="M62.4,126.2c1.8,2.4,2.7,5.4,2.7,9.1c0,4-1,7.3-3,10c-2.4,3.1-5.8,4.7-10.2,4.7c-4.1,0-7.4-1.4-9.7-4.1
			c-2.1-2.6-3.2-6-3.2-10c0-3.6,0.9-6.7,2.7-9.3c2.3-3.3,5.7-5,10.3-5C56.7,121.7,60.2,123.2,62.4,126.2z M59.2,143.3
			c1.4-2.3,2.1-4.9,2.1-7.9c0-3.2-0.8-5.7-2.5-7.6c-1.7-1.9-3.9-2.9-6.8-2.9c-2.8,0-5,1-6.8,2.9c-1.8,1.9-2.6,4.7-2.6,8.4
			c0,3,0.8,5.5,2.3,7.5c1.5,2,3.9,3.1,7.3,3.1C55.5,146.8,57.8,145.6,59.2,143.3z"/>
		<path d="M70.5,129.7l3.8,15.4l3.8-15.4h3.7l3.8,15.3l4-15.3h3.3l-5.7,19.6h-3.4l-4-15.1L76,149.2h-3.4l-5.6-19.6H70.5z"/>
		<path d="M96,129.7h3.1v2.8c0.9-1.1,1.9-2,2.9-2.5c1-0.5,2.2-0.7,3.5-0.7c2.8,0,4.6,1,5.6,2.9c0.5,1.1,0.8,2.6,0.8,4.5v12.5h-3.3
			v-12.3c0-1.2-0.2-2.2-0.5-2.9c-0.6-1.2-1.6-1.8-3.2-1.8c-0.8,0-1.4,0.1-1.9,0.2c-0.9,0.3-1.7,0.8-2.4,1.6c-0.5,0.6-0.9,1.3-1.1,2
			c-0.2,0.7-0.2,1.7-0.2,2.9v10.2H96V129.7z"/>
		<path d="M128,122.4h18.6v3.3h-15v8.1h13.2v3.2h-13.2v12.2H128V122.4z"/>
		<path d="M164.2,131.6c1.7,1.7,2.6,4.1,2.6,7.4c0,3.2-0.8,5.8-2.3,7.8c-1.5,2.1-3.9,3.1-7.1,3.1c-2.7,0-4.8-0.9-6.4-2.7
			s-2.4-4.3-2.4-7.3c0-3.3,0.8-5.9,2.5-7.8c1.7-1.9,3.9-2.9,6.7-2.9C160.4,129.1,162.5,129.9,164.2,131.6z M162.2,144.6
			c0.8-1.6,1.2-3.5,1.2-5.5c0-1.8-0.3-3.3-0.9-4.5c-0.9-1.8-2.5-2.7-4.7-2.7c-2,0-3.4,0.8-4.3,2.3c-0.9,1.5-1.4,3.4-1.4,5.5
			c0,2.1,0.5,3.8,1.4,5.2c0.9,1.4,2.3,2.1,4.3,2.1C159.9,147.1,161.4,146.3,162.2,144.6z"/>
		<path d="M170.9,129.7h3.1v3.4c0.3-0.7,0.9-1.5,1.9-2.4c1-0.9,2.1-1.4,3.5-1.4c0.1,0,0.2,0,0.3,0c0.1,0,0.4,0,0.7,0.1v3.5
			c-0.2,0-0.4-0.1-0.5-0.1c-0.2,0-0.3,0-0.5,0c-1.7,0-2.9,0.5-3.8,1.6c-0.9,1.1-1.3,2.3-1.3,3.7v11.2h-3.3V129.7z"/>
		<path d="M195.4,130.2c1.3,0.7,2.3,1.5,3,2.5c0.7,1,1.1,2.1,1.3,3.5c0.2,0.9,0.3,2.3,0.3,4.3h-14.2c0.1,2,0.5,3.6,1.4,4.8
			c0.9,1.2,2.2,1.8,4,1.8c1.7,0,3.1-0.6,4.1-1.7c0.6-0.7,1-1.4,1.2-2.3h3.2c-0.1,0.7-0.4,1.5-0.8,2.4s-1,1.6-1.6,2.2
			c-1,1-2.2,1.6-3.7,2c-0.8,0.2-1.7,0.3-2.7,0.3c-2.4,0-4.5-0.9-6.2-2.7c-1.7-1.8-2.5-4.3-2.5-7.4c0-3.1,0.8-5.7,2.5-7.7
			c1.7-2,3.9-2.9,6.6-2.9C192.7,129.2,194.1,129.6,195.4,130.2z M196.6,137.9c-0.1-1.4-0.4-2.6-0.9-3.4c-0.9-1.6-2.4-2.4-4.5-2.4
			c-1.5,0-2.8,0.5-3.8,1.6c-1,1.1-1.6,2.5-1.6,4.2H196.6z"/>
		<path d="M206,143.1c0.1,1.1,0.4,1.9,0.8,2.5c0.8,1.1,2.3,1.6,4.4,1.6c1.2,0,2.3-0.3,3.3-0.8c0.9-0.5,1.4-1.3,1.4-2.5
			c0-0.8-0.4-1.5-1.1-1.9c-0.5-0.3-1.4-0.6-2.9-0.9l-2.7-0.7c-1.7-0.4-2.9-0.9-3.7-1.4c-1.4-0.9-2.2-2.1-2.2-3.7
			c0-1.9,0.7-3.3,2-4.5c1.4-1.1,3.2-1.7,5.5-1.7c3,0,5.1,0.9,6.5,2.6c0.8,1.1,1.2,2.3,1.2,3.5h-3.1c-0.1-0.7-0.3-1.4-0.8-2
			c-0.8-0.9-2.1-1.3-4-1.3c-1.3,0-2.2,0.2-2.9,0.7c-0.7,0.5-1,1.1-1,1.9c0,0.8,0.4,1.5,1.3,2c0.5,0.3,1.2,0.6,2.2,0.8l2.2,0.5
			c2.4,0.6,4,1.1,4.8,1.7c1.3,0.8,1.9,2.2,1.9,4c0,1.7-0.7,3.2-2,4.5c-1.3,1.3-3.4,1.9-6.1,1.9c-2.9,0-5-0.7-6.3-2
			c-1.2-1.3-1.9-3-2-4.9H206z"/>
		<path d="M223.4,124.2h3.3v5.5h3.1v2.7h-3.1v12.8c0,0.7,0.2,1.1,0.7,1.4c0.3,0.1,0.7,0.2,1.3,0.2c0.2,0,0.3,0,0.5,0s0.4,0,0.6-0.1
			v2.6c-0.4,0.1-0.8,0.2-1.2,0.2s-0.8,0.1-1.3,0.1c-1.5,0-2.6-0.4-3.1-1.2c-0.5-0.8-0.8-1.8-0.8-3.1v-12.9h-2.6v-2.7h2.6V124.2z"/>
	</g>
</g>
<g>
	<g>
		<path d="M90.8,17.7h28.3v3.6h-11.2v21.9h-5.8V21.3H90.8V17.7z"/>
		<path d="M127.9,29.4c0.1-0.4,1-4.9,7.1-4.9c5.6,0,8.3,2.9,8.3,7.5v11.2h-5.4V31.8c0-2.4-1.8-3.6-4.4-3.6c-4.7,0-5.6,4-5.6,4v11
			h-5.4V17.7c3,0,5.4-0.5,5.4-0.5V29.4z"/>
		<path d="M159.8,40c5,0,5-4.2,5-4.2l5.3,1.3c0,0-1.4,6.5-10.8,6.5c-5.9,0-11.1-3.4-11.1-9.6c0-5.4,4.3-9.5,11.1-9.5
			c10.3,0,10.8,7.6,10.3,10.2l-16-0.3C153.7,37.2,155.4,40,159.8,40z M159.2,28c-4.5,0-5.2,3.8-5.2,3.8l10-0.3
			C164,31.5,163.6,28,159.2,28z"/>
		<path d="M27.3,48.4h10.1v25.5h-5.8V52l-9.9,21.9H16L6.1,52v21.9H0.2V48.4h10.1l8.5,19.9L27.3,48.4z"/>
		<path d="M53.6,55.3c7.1,0,11.3,4.2,11.3,9.5c0,5.4-4.2,9.6-11.3,9.6c-7.1,0-11.3-4.2-11.3-9.6C42.3,59.5,46.5,55.3,53.6,55.3z
			 M53.6,70.8c4.2,0,5.6-3,5.6-5.9c0-3-1.4-5.9-5.6-5.9c-4.2,0-5.6,2.9-5.6,5.9C48,67.8,49.4,70.8,53.6,70.8z"/>
		<path d="M66.9,55.7h4.3v-3.6l5.2-3.3v6.9h8.4v3.2h-8.4v8.3c0,2.2,0.9,3.6,3.2,3.6c2.9,0,4.3-2.6,4.3-2.6l1.1,3.5
			c0,0-2.2,2.7-6.9,2.7c-4.4,0-7.1-2.1-7.1-6.8v-8.7h-4.2V55.7z"/>
		<path d="M88.7,48.4h5.4v4.2h-5.4V48.4z M88.7,55.7h5.4v18.2h-5.4V55.7z"/>
		<path d="M109.8,55.3c7.1,0,11.3,4.2,11.3,9.5c0,5.4-4.2,9.6-11.3,9.6c-7.1,0-11.3-4.2-11.3-9.6C98.5,59.5,102.7,55.3,109.8,55.3z
			 M109.8,70.8c4.2,0,5.6-3,5.6-5.9c0-3-1.4-5.9-5.6-5.9c-4.2,0-5.6,2.9-5.6,5.9C104.2,67.8,105.6,70.8,109.8,70.8z"/>
		<path d="M140.5,62.5c0-2.4-1.7-3.6-4.6-3.6c-4.3,0-5.4,4-5.4,4v11H125V55.7h3.2l1.5,5.2c0,0,0.4-5.6,7.6-5.6c6,0,8.5,2.9,8.5,7.5
			v11.2h-5.4V62.5z"/>
		<path d="M163.5,48.4H185V52h-15.6v7.4H184V63h-14.7v10.9h-5.8V48.4z"/>
		<path d="M207.5,70.8c1.5,0,2.5-1.6,2.5-1.6l1.1,3.5c0,0-1.5,1.7-4.4,1.7c-3.9,0-4.9-2.5-4.9-6.2c-0.2,0.3-3.3,6.2-8.9,6.2
			c-3.3,0-5.4-1.6-5.4-4.3c0-3.1,3.6-6.6,13.6-7.4c0-1.7-0.4-3.7-3.7-3.7c-5,0-5,4-5,4l-5.6-1.4c0,0,1.7-6.2,10.9-6.2
			c5.9,0,9,3.2,8.9,6.9l-0.3,6.8C206.1,70,206.5,70.8,207.5,70.8z M195,70.8c3.8,0,6-5.1,6-5.1v-1.3c-6,0.6-7.9,2.8-7.9,4.6
			C193.1,69.7,193.4,70.8,195,70.8z"/>
		<path d="M214,48.4h5.4v4.2H214V48.4z M214,55.7h5.4v18.2H214V55.7z"/>
		<path d="M230.7,73.9h-5.4V55.7h3.2l1.5,5.2c0,0-0.1-5.6,5.2-5.6c3.8,0,4.9,2.2,4.9,4.8c0,2.3-0.4,3.5-0.4,3.5l-5.3,1.3
			c0,0,0.6-1.8,0.6-4.3c0-1.3-0.8-1.6-1.4-1.6c-2.3,0-2.8,4-2.8,4V73.9z"/>
		<path d="M241.4,55.7h5.9l5.7,13.1l6-13.1h5.9L254.3,76c-2.2,4.1-4.2,5.7-7.7,5.7c-3.5,0-5.1-2.7-5.1-2.7l1.1-3.5
			c0,0,0.9,2.6,3.5,2.6c2,0,3.3-2.3,4.4-4.7L241.4,55.7z"/>
	</g>
</g>
</svg>
