<?xml version="1.0" encoding="utf-8"?>
<!-- Generator: Adobe Illustrator 24.2.1, SVG Export Plug-In . SVG Version: 6.00 Build 0)  -->
<svg version="1.1" id="Layer_1" xmlns="http://www.w3.org/2000/svg" xmlns:xlink="http://www.w3.org/1999/xlink" x="0px" y="0px"
	 viewBox="0 0 265 145" style="enable-background:new 0 0 265 145;" xml:space="preserve">
<g>
	<path d="M44,89.5l3.8,15.4l3.8-15.4h3.7l3.8,15.3l4-15.3h3.3l-5.7,19.6h-3.4l-4-15.1l-3.9,15.1H46l-5.6-19.6H44z"/>
	<path d="M69.4,82.2h3.3V86h-3.3V82.2z M69.4,89.6h3.3v19.5h-3.3V89.6z"/>
	<path d="M78.4,84h3.3v5.5h3.1v2.7h-3.1V105c0,0.7,0.2,1.1,0.7,1.4c0.3,0.1,0.7,0.2,1.3,0.2c0.2,0,0.3,0,0.5,0c0.2,0,0.4,0,0.6-0.1
		v2.6c-0.4,0.1-0.8,0.2-1.2,0.2s-0.8,0.1-1.3,0.1c-1.5,0-2.6-0.4-3.1-1.2s-0.8-1.8-0.8-3.1V92.2h-2.6v-2.7h2.6V84z"/>
	<path d="M88.1,82.1h3.3v10c0.8-1,1.5-1.7,2.1-2.1c1.1-0.7,2.4-1,4-1c2.8,0,4.8,1,5.8,3c0.5,1.1,0.8,2.6,0.8,4.5v12.5h-3.4V96.7
		c0-1.4-0.2-2.5-0.5-3.2c-0.6-1.1-1.7-1.6-3.4-1.6c-1.4,0-2.6,0.5-3.7,1.4s-1.7,2.7-1.7,5.3v10.4h-3.3V82.1z"/>
	<path d="M122.1,100.4c0.1,1.5,0.4,2.8,1,3.7c1.2,1.8,3.2,2.7,6.1,2.7c1.3,0,2.5-0.2,3.6-0.6c2.1-0.8,3.1-2.1,3.1-4.1
		c0-1.5-0.4-2.5-1.3-3.1c-0.9-0.6-2.3-1.1-4.2-1.6l-3.5-0.8c-2.3-0.5-3.9-1.1-4.9-1.8c-1.7-1.1-2.5-2.8-2.5-5c0-2.4,0.8-4.4,2.4-5.9
		c1.6-1.5,3.9-2.3,6.9-2.3c2.7,0,5.1,0.7,7,2c1.9,1.4,2.9,3.5,2.9,6.5h-3.4c-0.2-1.4-0.5-2.5-1.1-3.3c-1.1-1.4-2.9-2.1-5.4-2.1
		c-2.1,0-3.5,0.5-4.4,1.4c-0.9,0.9-1.3,1.9-1.3,3.1c0,1.3,0.5,2.3,1.6,2.9c0.7,0.4,2.3,0.9,4.7,1.5l3.6,0.9c1.8,0.4,3.1,1,4.1,1.7
		c1.7,1.3,2.5,3.1,2.5,5.5c0,3-1.1,5.1-3.2,6.4s-4.6,1.9-7.3,1.9c-3.3,0-5.8-0.9-7.6-2.6c-1.8-1.7-2.7-4-2.7-6.9H122.1z"/>
	<path d="M144.2,82.2h3.2v15.6l8.4-8.3h4.2l-7.5,7.3l7.9,12.3h-4.2l-6.2-10l-2.7,2.6v7.3h-3.2V82.2z"/>
	<path d="M163,82.2h3.3V86H163V82.2z M163,89.6h3.3v19.5H163V89.6z"/>
	<path d="M171.4,82.2h3.3v26.8h-3.3V82.2z"/>
	<path d="M179.7,82.2h3.3v26.8h-3.3V82.2z"/>
	<path d="M189.4,83.5c0.8-1.1,2.2-1.7,4.4-1.7c0.2,0,0.4,0,0.6,0c0.2,0,0.5,0,0.7,0.1v3c-0.3,0-0.6,0-0.7,0c-0.2,0-0.3,0-0.4,0
		c-1,0-1.6,0.3-1.8,0.8c-0.2,0.5-0.3,1.8-0.3,4h3.3v2.6H192v16.9h-3.2V92.2H186v-2.6h2.7v-3.1C188.8,85.2,189,84.2,189.4,83.5z"/>
	<path d="M201.6,89.5v13c0,1,0.2,1.8,0.5,2.4c0.6,1.2,1.6,1.8,3.2,1.8c2.2,0,3.7-1,4.6-3.1c0.4-1.1,0.7-2.6,0.7-4.5v-9.6h3.3v19.6
		h-3.1l0-2.9c-0.4,0.7-0.9,1.4-1.6,1.9c-1.2,1-2.7,1.5-4.5,1.5c-2.7,0-4.6-0.9-5.6-2.8c-0.5-1-0.8-2.3-0.8-4V89.5H201.6z"/>
	<path d="M219.2,82.2h3.3v26.8h-3.3V82.2z"/>
	<path d="M81.4,117.2h3.7v11.1h13.8v-11.1h3.7v26.8h-3.7v-12.5H85.1v12.5h-3.7V117.2z"/>
	<path d="M118.3,132.2c0.8-0.1,1.3-0.4,1.5-0.9c0.1-0.3,0.2-0.7,0.2-1.3c0-1.1-0.4-1.9-1.2-2.4c-0.8-0.5-1.9-0.8-3.4-0.8
		c-1.7,0-2.9,0.5-3.6,1.4c-0.4,0.5-0.7,1.3-0.8,2.3H108c0.1-2.4,0.8-4.1,2.3-5c1.5-0.9,3.2-1.4,5.2-1.4c2.3,0,4.2,0.4,5.6,1.3
		c1.4,0.9,2.1,2.2,2.1,4.1v11.3c0,0.3,0.1,0.6,0.2,0.8c0.1,0.2,0.4,0.3,0.9,0.3c0.1,0,0.3,0,0.5,0c0.2,0,0.4,0,0.6-0.1v2.4
		c-0.5,0.1-0.9,0.2-1.2,0.3c-0.3,0-0.6,0.1-1.1,0.1c-1.1,0-2-0.4-2.5-1.2c-0.3-0.4-0.5-1-0.6-1.8c-0.7,0.9-1.6,1.6-2.9,2.3
		c-1.3,0.6-2.6,1-4.1,1c-1.8,0-3.3-0.5-4.4-1.7s-1.7-2.5-1.7-4.1c0-1.8,0.6-3.2,1.7-4.2c1.1-1,2.6-1.6,4.5-1.8L118.3,132.2z
		 M111.4,141.1c0.7,0.5,1.5,0.8,2.5,0.8c1.2,0,2.3-0.3,3.4-0.8c1.8-0.9,2.7-2.3,2.7-4.4v-2.6c-0.4,0.3-0.9,0.5-1.5,0.6
		c-0.6,0.2-1.3,0.3-1.9,0.4l-2,0.3c-1.2,0.2-2.1,0.4-2.7,0.7c-1,0.6-1.5,1.5-1.5,2.7C110.4,139.8,110.7,140.6,111.4,141.1z"/>
	<path d="M128.7,124.5h3.1v2.8c0.9-1.1,1.9-2,2.9-2.5c1-0.5,2.2-0.7,3.5-0.7c2.8,0,4.6,1,5.6,2.9c0.5,1.1,0.8,2.6,0.8,4.5v12.5h-3.3
		v-12.3c0-1.2-0.2-2.2-0.5-2.9c-0.6-1.2-1.6-1.8-3.2-1.8c-0.8,0-1.4,0.1-1.9,0.2c-0.9,0.3-1.7,0.8-2.4,1.6c-0.5,0.6-0.9,1.3-1.1,2
		c-0.2,0.7-0.2,1.7-0.2,2.9v10.2h-3.3V124.5z"/>
	<path d="M160.2,125.1c0.6,0.4,1.2,1,2,1.9v-9.9h3.2v26.9h-3v-2.7c-0.8,1.2-1.7,2.1-2.7,2.6c-1,0.5-2.2,0.8-3.6,0.8
		c-2.2,0-4.1-0.9-5.6-2.7c-1.6-1.8-2.4-4.3-2.4-7.3c0-2.8,0.7-5.3,2.2-7.4s3.5-3.1,6.2-3.1C158,124.2,159.2,124.5,160.2,125.1z
		 M152.9,139.8c0.9,1.4,2.3,2.1,4.3,2.1c1.5,0,2.8-0.7,3.7-2c1-1.3,1.5-3.2,1.5-5.6c0-2.5-0.5-4.3-1.5-5.5c-1-1.2-2.2-1.8-3.7-1.8
		c-1.6,0-3,0.6-4,1.9c-1,1.3-1.5,3.1-1.5,5.6C151.5,136.6,152,138.4,152.9,139.8z"/>
	<path d="M172.2,137.9c0.1,1.1,0.4,1.9,0.8,2.5c0.8,1.1,2.3,1.6,4.4,1.6c1.2,0,2.3-0.3,3.3-0.8s1.4-1.3,1.4-2.5
		c0-0.8-0.4-1.5-1.1-1.9c-0.5-0.3-1.4-0.6-2.9-0.9l-2.7-0.7c-1.7-0.4-2.9-0.9-3.7-1.4c-1.4-0.9-2.2-2.1-2.2-3.7c0-1.8,0.7-3.3,2-4.5
		c1.4-1.1,3.2-1.7,5.5-1.7c3,0,5.1,0.9,6.5,2.6c0.8,1.1,1.2,2.3,1.2,3.5h-3.1c-0.1-0.7-0.3-1.4-0.8-2c-0.8-0.9-2.1-1.3-4-1.3
		c-1.3,0-2.2,0.2-2.9,0.7c-0.7,0.5-1,1.1-1,1.9c0,0.8,0.4,1.5,1.3,2c0.5,0.3,1.2,0.6,2.2,0.8l2.2,0.5c2.4,0.6,4,1.1,4.8,1.7
		c1.3,0.8,1.9,2.2,1.9,4c0,1.7-0.7,3.2-2,4.5c-1.3,1.3-3.4,1.9-6.1,1.9c-2.9,0-5-0.7-6.3-2c-1.2-1.3-1.9-3-2-4.9H172.2z"/>
</g>
<g>
	<path d="M105.9,5.9h-9.2V1.3h24v4.6h-9.3V31h-5.5V5.9z"/>
	<path d="M123.1,0h5v13.2c0.7-1,1.6-1.9,2.7-2.5c1.1-0.6,2.3-0.9,3.8-0.9c2.7,0,4.7,0.9,6.1,2.6c1.4,1.7,2.1,4.2,2.1,7.4V31h-5.1
		V19.8c0-1.8-0.3-3.2-1-4.3c-0.7-1-1.7-1.5-3.2-1.5c-1.8,0-3.1,0.6-4,1.7c-0.9,1.1-1.3,2.8-1.3,4.9V31h-5V0z"/>
	<path d="M166.8,20c0,0.4,0,1-0.1,1.7h-16c0.2,1.7,0.8,3.1,1.8,4.1c1,1,2.3,1.5,3.9,1.5c1.3,0,2.3-0.3,3.3-1
		c0.9-0.7,1.6-1.6,2.1-2.7l4.5,1.1c-0.7,2.2-2,3.9-3.8,5.1c-1.8,1.2-3.9,1.8-6.2,1.8c-2,0-3.9-0.5-5.5-1.4c-1.6-0.9-2.9-2.2-3.9-3.9
		c-0.9-1.7-1.4-3.6-1.4-5.7s0.5-4,1.4-5.7c0.9-1.7,2.2-3,3.9-3.9c1.6-0.9,3.5-1.4,5.5-1.4c2,0,3.8,0.4,5.4,1.3
		c1.6,0.9,2.9,2.1,3.8,3.6C166.3,16.3,166.8,18,166.8,20z M156.1,13.8c-1.4,0-2.6,0.4-3.5,1.1c-0.9,0.7-1.4,1.8-1.7,3.1h10.5
		c-0.2-1.3-0.8-2.4-1.7-3.1C158.8,14.2,157.6,13.8,156.1,13.8z"/>
	<path d="M36.7,70.8c-2.7,0-5.2-0.7-7.3-2c-2.1-1.3-3.8-3.2-5.1-5.5c-1.2-2.4-1.8-5-1.8-8c0-2.9,0.6-5.6,1.8-7.9
		c1.2-2.4,2.9-4.2,5.1-5.5c2.2-1.4,4.8-2,7.7-2c3.6,0,6.5,0.9,8.9,2.6c2.3,1.7,4.1,4.3,5.1,7.6l-5.6,0.6c-0.5-1.9-1.5-3.4-3-4.4
		c-1.4-1.1-3.1-1.6-5-1.6c-2,0-3.7,0.5-5.1,1.4C31,47.1,30,48.4,29.3,50c-0.7,1.6-1,3.4-1,5.4c0,1.9,0.4,3.7,1.1,5.3
		c0.7,1.6,1.8,2.9,3.1,3.9c1.4,0.9,3,1.4,4.8,1.4c2.2,0,4.1-0.7,5.6-2c1.5-1.4,2.4-3.3,2.8-5.8h-9.9v-4.3h15.1v16.4h-4.5v-4.6
		c-0.9,1.6-2.3,2.8-4,3.8C40.7,70.3,38.8,70.8,36.7,70.8z"/>
	<path d="M65.4,70.8c-2.1,0-4-0.5-5.6-1.4c-1.7-0.9-3-2.2-3.9-3.9c-0.9-1.7-1.4-3.5-1.4-5.6c0-2.1,0.5-4,1.4-5.6
		c0.9-1.7,2.2-3,3.9-3.9c1.7-0.9,3.5-1.4,5.6-1.4c2.1,0,4,0.5,5.7,1.4c1.7,0.9,3,2.2,3.9,3.9c0.9,1.6,1.4,3.5,1.4,5.6
		c0,2.1-0.5,3.9-1.4,5.6c-0.9,1.6-2.3,2.9-3.9,3.9C69.4,70.3,67.5,70.8,65.4,70.8z M65.4,66.6c1.7,0,3-0.6,4.1-1.9
		c1-1.2,1.5-2.9,1.5-4.9c0-2-0.5-3.7-1.5-4.9c-1-1.2-2.4-1.9-4.1-1.9c-1.7,0-3,0.6-4,1.9c-1,1.2-1.5,2.9-1.5,4.9
		c0,2,0.5,3.6,1.5,4.9C62.4,66,63.7,66.6,65.4,66.6z"/>
	<path d="M98.9,66.7c0.7,0,1.3-0.2,1.8-0.7v3.4c-0.3,0.3-0.8,0.6-1.4,0.9c-0.6,0.3-1.3,0.4-2,0.4c-1.1,0-2.1-0.3-2.7-0.9
		c-0.7-0.6-1.1-1.4-1.2-2.4c-0.8,1-1.8,1.8-3,2.4c-1.2,0.6-2.5,0.9-4,0.9c-1.5,0-2.9-0.3-4-0.8c-1.1-0.5-2-1.3-2.6-2.2
		c-0.6-0.9-0.9-2-0.9-3.1c0-1.9,0.5-3.3,1.5-4.3c1-1,2.4-1.7,4.4-2c2-0.4,4.6-0.6,7.9-0.6c0-1.7-0.4-2.9-1.2-3.7
		c-0.7-0.8-1.9-1.1-3.4-1.1c-1.3,0-2.3,0.3-3,0.9c-0.7,0.6-1.3,1.5-1.7,2.8l-4.4-1.1c0.7-2.3,1.7-4,3.3-5.1c1.5-1.1,3.5-1.7,6-1.7
		c3.1,0,5.5,0.9,7,2.6c1.5,1.7,2.3,4.3,2.3,7.9v6.3c0,0.4,0.1,0.8,0.4,1C98,66.6,98.4,66.7,98.9,66.7z M86.9,66.8
		c1.5,0,2.8-0.5,3.9-1.6c1.1-1.1,1.6-2.5,1.6-4.1l-0.9,0c-1.9,0.1-3.4,0.3-4.4,0.4c-1,0.1-1.8,0.4-2.4,0.9c-0.6,0.4-0.9,1.1-0.9,1.9
		c0,0.8,0.3,1.4,0.8,1.9C85.2,66.6,86,66.8,86.9,66.8z"/>
	<path d="M103.3,39.2h5v31h-5V39.2z"/>
	<path d="M120.7,61.4l-2.1,2v6.9h-5V39.4h5v18.2l8.1-8h6.4l-8.9,8.5l10.2,12.2H128L120.7,61.4z"/>
	<path d="M155.1,59.2c0,0.4,0,1-0.1,1.7h-16c0.2,1.7,0.8,3.1,1.8,4.1c1,1,2.3,1.5,3.9,1.5c1.3,0,2.3-0.3,3.3-1
		c0.9-0.7,1.6-1.6,2.1-2.7l4.5,1.1c-0.7,2.2-2,3.9-3.8,5.1c-1.8,1.2-3.9,1.8-6.2,1.8c-2,0-3.9-0.5-5.5-1.4c-1.6-0.9-2.9-2.2-3.9-3.9
		c-0.9-1.7-1.4-3.6-1.4-5.7s0.5-4,1.4-5.7c0.9-1.7,2.2-3,3.9-3.9c1.6-0.9,3.5-1.4,5.5-1.4c2,0,3.8,0.4,5.4,1.3
		c1.6,0.9,2.9,2.1,3.8,3.6C154.6,55.5,155.1,57.2,155.1,59.2z M144.5,53c-1.4,0-2.6,0.4-3.5,1.1c-0.9,0.7-1.4,1.8-1.7,3.1h10.5
		c-0.2-1.3-0.8-2.4-1.7-3.1C147.2,53.4,146,53,144.5,53z"/>
	<path d="M177.9,59.2c0,0.4,0,1-0.1,1.7h-16c0.2,1.7,0.8,3.1,1.8,4.1c1,1,2.3,1.5,3.9,1.5c1.3,0,2.3-0.3,3.3-1
		c0.9-0.7,1.6-1.6,2.1-2.7l4.5,1.1c-0.7,2.2-2,3.9-3.8,5.1c-1.8,1.2-3.9,1.8-6.2,1.8c-2,0-3.9-0.5-5.5-1.4c-1.6-0.9-2.9-2.2-3.9-3.9
		c-0.9-1.7-1.4-3.6-1.4-5.7s0.5-4,1.4-5.7c0.9-1.7,2.2-3,3.9-3.9c1.6-0.9,3.5-1.4,5.5-1.4c2,0,3.8,0.4,5.4,1.3
		c1.6,0.9,2.9,2.1,3.8,3.6C177.5,55.5,177.9,57.2,177.9,59.2z M167.3,53c-1.4,0-2.6,0.4-3.5,1.1c-0.9,0.7-1.4,1.8-1.7,3.1h10.5
		c-0.2-1.3-0.8-2.4-1.7-3.1C170,53.4,168.8,53,167.3,53z"/>
	<path d="M181.5,49.5h5V52c0.6-0.9,1.5-1.6,2.7-2.2c1.2-0.6,2.4-0.9,3.7-0.9c1.8,0,3.5,0.5,5,1.4c1.5,0.9,2.7,2.2,3.5,3.9
		c0.9,1.6,1.3,3.5,1.3,5.6s-0.4,3.9-1.3,5.6c-0.9,1.7-2,3-3.5,3.9c-1.5,0.9-3.1,1.4-5,1.4c-1.3,0-2.6-0.3-3.7-0.8
		c-1.1-0.5-2-1.2-2.7-2v12h-5V49.5z M191.8,66.6c1.7,0,3-0.6,4-1.8c1-1.2,1.5-2.9,1.5-5s-0.5-3.7-1.5-4.9c-1-1.2-2.3-1.8-4-1.8
		c-1.7,0-3,0.6-4,1.8c-1,1.2-1.5,2.9-1.5,4.9s0.5,3.7,1.5,5C188.8,66,190.1,66.6,191.8,66.6z"/>
	<path d="M225.5,59.2c0,0.4,0,1-0.1,1.7h-16c0.2,1.7,0.8,3.1,1.8,4.1c1,1,2.3,1.5,3.9,1.5c1.3,0,2.3-0.3,3.3-1
		c0.9-0.7,1.6-1.6,2.1-2.7l4.5,1.1c-0.7,2.2-2,3.9-3.8,5.1c-1.8,1.2-3.9,1.8-6.2,1.8c-2,0-3.9-0.5-5.5-1.4c-1.6-0.9-2.9-2.2-3.9-3.9
		c-0.9-1.7-1.4-3.6-1.4-5.7s0.5-4,1.4-5.7c0.9-1.7,2.2-3,3.9-3.9c1.6-0.9,3.5-1.4,5.5-1.4c2,0,3.8,0.4,5.4,1.3
		c1.6,0.9,2.9,2.1,3.8,3.6C225.1,55.5,225.5,57.2,225.5,59.2z M214.9,53c-1.4,0-2.6,0.4-3.5,1.1c-0.9,0.7-1.4,1.8-1.7,3.1h10.5
		c-0.2-1.3-0.8-2.4-1.7-3.1C217.6,53.4,216.4,53,214.9,53z"/>
	<path d="M229.1,49.5h5v3.1c1.3-2.5,3.3-3.7,5.9-3.7c0.9,0,1.7,0.2,2.4,0.5v4.8c-0.9-0.3-1.8-0.4-2.8-0.4c-3.7,0-5.6,2.1-5.6,6.2
		v10.2h-5V49.5z"/>
</g>
</svg>
