<svg enable-background="new 0 0 260 174" viewBox="0 0 260 174" xmlns="http://www.w3.org/2000/svg"><path d="m39.8 76 5.1 21.8 6-21.8h3.9l6.1 21.8 5.1-21.8h4l-7 26.8h-3.8l-6.2-22.2-6.2 22.2h-3.8l-7-26.8z"/><path d="m72.9 75.9h3.3v10c.8-1 1.5-1.7 2.1-2.1 1.1-.7 2.4-1 4-1 2.8 0 4.8 1 5.8 3 .5 1.1.8 2.6.8 4.5v12.5h-3.4v-12.3c0-1.4-.2-2.5-.5-3.2-.6-1.1-1.7-1.6-3.4-1.6-1.4 0-2.6.5-3.7 1.4s-1.7 2.7-1.7 5.3v10.4h-3.3z"/><path d="m107.9 85.2c1.7 1.7 2.6 4.1 2.6 7.4 0 3.2-.8 5.8-2.3 7.8-1.5 2.1-3.9 3.1-7.1 3.1-2.7 0-4.8-.9-6.4-2.7s-2.4-4.3-2.4-7.3c0-3.3.8-5.9 2.5-7.8s3.9-2.9 6.7-2.9c2.5-.1 4.6.7 6.4 2.4zm-2.1 13c.8-1.6 1.2-3.5 1.2-5.5 0-1.8-.3-3.3-.9-4.5-.9-1.8-2.5-2.7-4.7-2.7-2 0-3.4.8-4.3 2.3s-1.4 3.4-1.4 5.5.5 3.8 1.4 5.2 2.3 2.1 4.3 2.1c2.1 0 3.6-.8 4.4-2.4z"/><path d="m125.7 76h18.6v3.3h-15v8.1h13.2v3.2h-13.2v12.2h-3.6z"/><path d="m159.8 83.8c1.3.7 2.3 1.5 3 2.5s1.1 2.1 1.3 3.5c.2.9.3 2.3.3 4.3h-14.2c.1 2 .5 3.6 1.4 4.8s2.2 1.8 4 1.8c1.7 0 3.1-.6 4.1-1.7.6-.7 1-1.4 1.2-2.3h3.2c-.1.7-.4 1.5-.8 2.4s-1 1.6-1.6 2.2c-1 1-2.2 1.6-3.7 2-.8.2-1.7.3-2.7.3-2.4 0-4.5-.9-6.2-2.7s-2.5-4.3-2.5-7.4.8-5.7 2.5-7.7 3.9-2.9 6.6-2.9c1.5-.1 2.8.2 4.1.9zm1.2 7.6c-.1-1.4-.4-2.6-.9-3.4-.9-1.6-2.4-2.4-4.5-2.4-1.5 0-2.8.5-3.8 1.6s-1.6 2.5-1.6 4.2z"/><path d="m168.6 76h3.3v26.8h-3.3z"/><path d="m176.9 76h3.3v26.8h-3.3z"/><path d="m195.5 76h3.3v3.7h-3.3zm0 7.3h3.3v19.5h-3.3z"/><path d="m203.8 83.2h3.1v2.8c.9-1.1 1.9-2 2.9-2.5s2.2-.7 3.5-.7c2.8 0 4.6 1 5.6 2.9.5 1.1.8 2.6.8 4.5v12.5h-3.3v-12.2c0-1.2-.2-2.2-.5-2.9-.6-1.2-1.6-1.8-3.2-1.8-.8 0-1.4.1-1.9.2-.9.3-1.7.8-2.4 1.6-.5.6-.9 1.3-1.1 2s-.2 1.7-.2 2.9v10.2h-3.3z"/><path d="m52.6 111h3.6v23.6h13.5v3.2h-17.1z"/><path d="m87.1 120.2c1.7 1.7 2.6 4.1 2.6 7.4 0 3.2-.8 5.8-2.3 7.8-1.5 2.1-3.9 3.1-7.1 3.1-2.7 0-4.8-.9-6.4-2.7s-2.4-4.3-2.4-7.3c0-3.3.8-5.9 2.5-7.8s3.9-2.9 6.7-2.9c2.5-.1 4.7.7 6.4 2.4zm-2.1 13c.8-1.6 1.2-3.5 1.2-5.5 0-1.8-.3-3.3-.9-4.5-.9-1.8-2.5-2.7-4.7-2.7-2 0-3.4.8-4.3 2.3s-1.4 3.4-1.4 5.5.5 3.8 1.4 5.2 2.3 2.1 4.3 2.1c2.2.1 3.6-.8 4.4-2.4z"/><path d="m95.3 118.2 5.2 15.9 5.4-15.9h3.6l-7.4 19.6h-3.5l-7.2-19.6z"/><path d="m124.5 118.8c1.3.7 2.3 1.5 3 2.5s1.1 2.1 1.3 3.5c.2.9.3 2.3.3 4.3h-14.2c.1 2 .5 3.6 1.4 4.8s2.2 1.8 4 1.8c1.7 0 3.1-.6 4.1-1.7.6-.7 1-1.4 1.2-2.3h3.2c-.1.7-.4 1.5-.8 2.4s-1 1.6-1.6 2.2c-1 1-2.2 1.6-3.7 2-.8.2-1.7.3-2.7.3-2.4 0-4.5-.9-6.2-2.7s-2.5-4.3-2.5-7.4.8-5.7 2.5-7.7 3.9-2.9 6.6-2.9c1.5-.1 2.8.2 4.1.9zm1.2 7.6c-.1-1.4-.4-2.6-.9-3.4-.9-1.6-2.4-2.4-4.5-2.4-1.5 0-2.8.5-3.8 1.6s-1.6 2.5-1.6 4.2z"/><path d="m145.1 118.2 3.8 15.4 3.8-15.4h3.7l3.8 15.3 4-15.3h3.3l-5.7 19.6h-3.4l-4-15.1-3.9 15.1h-3.4l-5.6-19.6z"/><path d="m170.6 111h3.3v3.7h-3.3zm0 7.3h3.3v19.5h-3.3z"/><path d="m179.6 112.8h3.3v5.5h3.1v2.7h-3.1v12.8c0 .7.2 1.1.7 1.4.3.1.7.2 1.3.2h.5c.2 0 .4 0 .6-.1v2.6c-.4.1-.8.2-1.2.2s-.8.1-1.3.1c-1.5 0-2.6-.4-3.1-1.2s-.8-1.8-.8-3.1v-12.9h-2.6v-2.7h2.6z"/><path d="m189.3 110.9h3.3v10c.8-1 1.5-1.7 2.1-2.1 1.1-.7 2.4-1 4-1 2.8 0 4.8 1 5.8 3 .5 1.1.8 2.6.8 4.5v12.5h-3.4v-12.3c0-1.4-.2-2.5-.5-3.2-.6-1.1-1.7-1.6-3.4-1.6-1.4 0-2.6.5-3.7 1.4s-1.7 2.7-1.7 5.3v10.4h-3.3z"/><path d="m74.4 146h3.6v23.6h13.5v3.2h-17.1z"/><path d="m106.8 153.8c1.3.7 2.3 1.5 3 2.5s1.1 2.1 1.3 3.5c.2.9.3 2.3.3 4.3h-14.2c.1 2 .5 3.6 1.4 4.8s2.2 1.8 4 1.8c1.7 0 3.1-.6 4.1-1.7.6-.7 1-1.4 1.2-2.3h3.2c-.1.7-.4 1.5-.8 2.4s-1 1.6-1.6 2.2c-1 1-2.2 1.6-3.7 2-.8.2-1.7.3-2.7.3-2.4 0-4.5-.9-6.2-2.7s-2.5-4.3-2.5-7.4.8-5.7 2.5-7.7 3.9-2.9 6.6-2.9c1.5-.1 2.8.2 4.1.9zm1.2 7.7c-.1-1.4-.4-2.6-.9-3.4-.9-1.6-2.4-2.4-4.5-2.4-1.5 0-2.8.5-3.8 1.6s-1.6 2.5-1.6 4.2z"/><path d="m116.2 147.8h3.3v5.5h3.1v2.7h-3.1v12.8c0 .7.2 1.1.7 1.4.3.1.7.2 1.3.2h.5c.2 0 .4 0 .6-.1v2.6c-.4.1-.8.2-1.2.2s-.8.1-1.3.1c-1.5 0-2.6-.4-3.1-1.2s-.8-1.8-.8-3.1v-12.9h-2.6v-2.7h2.6z"/><path d="m126.6 147.8h3.3v5.5h3.1v2.7h-3.1v12.8c0 .7.2 1.1.7 1.4.3.1.7.2 1.3.2h.5c.2 0 .4 0 .6-.1v2.6c-.4.1-.8.2-1.2.2s-.8.1-1.3.1c-1.5 0-2.6-.4-3.1-1.2s-.8-1.8-.8-3.1v-12.9h-2.6v-2.7h2.6z"/><path d="m148.4 153.8c1.3.7 2.3 1.5 3 2.5s1.1 2.1 1.3 3.5c.2.9.3 2.3.3 4.3h-14.2c.1 2 .5 3.6 1.4 4.8s2.2 1.8 4 1.8c1.7 0 3.1-.6 4.1-1.7.6-.7 1-1.4 1.2-2.3h3.2c-.1.7-.4 1.5-.8 2.4s-1 1.6-1.6 2.2c-1 1-2.2 1.6-3.7 2-.8.2-1.7.3-2.7.3-2.4 0-4.5-.9-6.2-2.7s-2.5-4.3-2.5-7.4.8-5.7 2.5-7.7 3.9-2.9 6.6-2.9c1.5-.1 2.8.2 4.1.9zm1.2 7.7c-.1-1.4-.4-2.6-.9-3.4-.9-1.6-2.4-2.4-4.5-2.4-1.5 0-2.8.5-3.8 1.6s-1.6 2.5-1.6 4.2z"/><path d="m157.2 153.2h3.1v3.4c.3-.7.9-1.5 1.9-2.4s2.1-1.4 3.5-1.4h.3c.1 0 .4 0 .7.1v3.5c-.2 0-.4-.1-.5-.1-.2 0-.3 0-.5 0-1.7 0-2.9.5-3.8 1.6s-1.3 2.3-1.3 3.7v11.2h-3.3v-19.6z"/><path d="m171.5 166.7c.1 1.1.4 1.9.8 2.5.8 1.1 2.3 1.6 4.4 1.6 1.2 0 2.3-.3 3.3-.8s1.4-1.3 1.4-2.5c0-.8-.4-1.5-1.1-1.9-.5-.3-1.4-.6-2.9-.9l-2.7-.7c-1.7-.4-2.9-.9-3.7-1.4-1.4-.9-2.2-2.1-2.2-3.7 0-1.8.7-3.3 2-4.5 1.4-1.1 3.2-1.7 5.5-1.7 3 0 5.1.9 6.5 2.6.8 1.1 1.2 2.3 1.2 3.5h-3c-.1-.7-.3-1.4-.8-2-.8-.9-2.1-1.3-4-1.3-1.3 0-2.2.2-2.9.7s-1 1.1-1 1.9.4 1.5 1.3 2c.5.3 1.2.6 2.2.8l2.2.5c2.4.6 4 1.1 4.8 1.7 1.3.8 1.9 2.2 1.9 4 0 1.7-.7 3.2-2 4.5s-3.4 1.9-6.1 1.9c-2.9 0-5-.7-6.3-2-1.2-1.3-1.9-3-2-4.9h3.2z"/><path d="m112.7.2h-22.6v7.2h.4s.2-1.8 1.1-3.4c1.1-2.1 2.8-3.2 5.1-3.4v22.2c0 4-2.3 4-2.4 4v.4h14v-.4s-.6 0-1.2-.5c-.8-.7-1.2-1.9-1.2-3.6v-22.1c2.4 0 4.2 1.2 5.3 3.4.9 1.7 1.1 3.4 1.1 3.4h.4z"/><path d="m134.7 22.8v-9.5c0-4-2-6-5.8-6-.6 0-5-.3-6.2 5.5v-12.8l-.3.2c-3.2 2-9.2 2.6-9.3 2.6v.4s.6 0 1.1.4c.4.4.7 1.1.7 2.1v17c0 4-1.5 4.1-1.6 4.1v.4h11v-.4s-1.6-.1-1.6-4.1v-4.9c0-8 4.2-12.1 4.2-4.6v9.5c0 4-1.5 4.1-1.5 4.1v.4h10.9v-.4c0 .1-1.6 0-1.6-4z"/><path d="m157 20.2h-.4c-.2 2.9-2.4 4.9-5.1 4.9s-4.3-2.4-5-4.4c3.1-.1 5.6-.9 7.5-2.3 1.7-1.3 2.6-3.1 2.6-5 0-3.4-3.1-6.2-7.6-6.1-7.3.1-11.1 4.1-11.1 10.3 0 5.3 3.7 10.1 10 10.1 4.7 0 9.1-2.7 9.1-7.5zm-11.5-5.3c0-3.6 1.1-7.1 3.4-7.2 1.8 0 1.9 3.5 1.9 4.2 0 2-.4 4-1.2 5.6-.6 1.2-1.6 2.6-3.2 2.7-.7-1.5-.9-3.4-.9-5.3z"/><path d="m11.6 33.8h-11.6v.4s.6 0 1.2.5c.8.6 1.2 1.9 1.2 3.6v18.2c0 4-2.3 4-2.4 4v.5h11.6c11.5 0 17.4-4.4 17.4-13.6s-6-13.6-17.4-13.6zm0 26.7v-26.3c3.6 0 8.2 2.5 8.2 13.1 0 12.6-6.4 13.2-8.2 13.2z"/><path d="m44.8 50.3c8.8 0 9.2-9.4 2-9.4-2.2 0-3.8.7-4.8 2.1-.7 1-1.2 2-1.5 3.2v-5.5l-.2.3c-3 2.3-9.2 2.6-9.3 2.6v.4s.6-.1 1.1.4c.4.4.7 1.2.7 2.1v9.9c0 4-1.5 4-1.6 4v.6h11v-.4s-1.6-.1-1.6-4v-5.4c0-5.6 1.7-8.3 3.4-8.2 3.1-.1 2.9 6.1.8 7.3z"/><path d="m72.2 53.8h-.4c-.2 2.9-2.4 4.9-5.1 4.9s-4.3-2.4-5-4.4c3.1-.1 5.6-.9 7.5-2.3 1.7-1.3 2.6-3.1 2.6-5 0-3.4-3.1-6.2-7.6-6.1-7.4.1-11.2 4.1-11.2 10.3 0 5.3 3.7 10.1 10 10.1 4.8 0 9.2-2.7 9.2-7.5zm-11.6-5.3c0-3.6 1.1-7.1 3.4-7.2 1.8 0 1.9 3.5 1.9 4.2 0 2-.4 4-1.2 5.6-.6 1.2-1.6 2.6-3.2 2.7-.6-1.5-.9-3.4-.9-5.3z"/><path d="m94.3 58.7v-.3l-.3.1c-.9.4-1.4-.2-1.4-1.6v-3.6c0-4.6-.8-7.6-2.4-9.4-3.3-3.8-13.6-4.4-15.5.6-.6 1.7-.2 3.5 1.1 4.6 1.9 1.6 4.8.8 5.3-.4-1.2 0-2.2-1.8-2.2-4.2 0-4.8 5.5-4.2 5.5 2 0 2.3-3 3.7-5.8 4.8s-5.8 2.2-5.8 5.3c0 1.6.6 2.8 1.7 3.7.9.8 2.3 1.2 3.7 1.2 1.7 0 3.4-.6 4.6-1.5.8-.6 1.5-1.4 1.8-2.3.2 1.1.7 2 1.7 2.7.9.6 2.2 1 3.6 1 2.2-.2 4.4-1.1 4.4-2.7zm-9.5-3.1c0 .9-.6 1.5-1.8 1.5s-2.4-.7-2.4-2c0-1.5.9-2.6 1.9-3.7.8-1 1.7-2 2.1-3.4.1 1.3.2 5.2.2 7.6z"/><path d="m128.3 56.4v-9.5c0-4-2-6-5.8-6-.6 0-4.9-.3-6.3 5.4-.2-3.6-2.1-5.4-5.8-5.4-2.3 0-5.1.8-6.2 5.3v-5.5l-.3.2c-3.2 2-9.2 2.6-9.3 2.7v.4s.6 0 1.1.4c.4.4.7 1.1.7 2.1v9.9c0 4-1.5 4.1-1.6 4.1v.5h11v-.4s-1.6-.1-1.6-4.1v-5.4c0-6.5 4.2-12.3 4.2-4.2v9.5c0 4-1.5 4.1-1.5 4.1v.5h10.9v-.4s-1.5-.1-1.5-4.1v-5.4c0-6.2 4.2-12.4 4.2-4.2v9.5c0 4-1.5 4.1-1.5 4.1v.5h10.9v-.4c0-.1-1.6-.2-1.6-4.2z"/><path d="m150.6 53.8h-.4c-.2 2.9-2.4 4.9-5.1 4.9s-4.3-2.4-5-4.4c3.1-.1 5.6-.9 7.5-2.3 1.7-1.3 2.6-3.1 2.6-5 0-3.4-3.1-6.2-7.6-6.1-7.3.1-11.1 4.1-11.1 10.3 0 5.3 3.7 10.1 10 10.1 4.6 0 9.1-2.7 9.1-7.5zm-11.6-5.3c0-3.6 1.1-7.1 3.4-7.2 1.8 0 1.9 3.5 1.9 4.2 0 2-.4 4-1.2 5.6-.6 1.2-1.6 2.6-3.2 2.7-.6-1.5-.9-3.4-.9-5.3z"/><path d="m166.1 50.3c8.8 0 9.2-9.4 2-9.4-2.2 0-3.8.7-4.8 2.1-.7 1-1.2 2-1.5 3.2v-5.5l-.3.2c-3 2.3-9.2 2.6-9.3 2.6v.4s.6-.1 1.1.4c.4.4.7 1.2.7 2.1v9.9c0 4-1.5 4-1.6 4v.7h11v-.4s-1.6-.1-1.6-4v-5.4c0-5.6 1.7-8.3 3.4-8.2 3.2-.1 2.9 6.1.9 7.3z"/><path d="m212.7 48.2h-11.1l.4.4c3.2 3.3 2 12.3-1.1 12.3-2.2 0-5.9-2.6-5.9-13.5 0-3.2.5-13.5 5.9-13.5 6 0 6.3 8.6 4.6 10.8 10.2 0 8.1-11.2-4.6-11.2-8 0-15.1 6.2-15.1 13.9 0 7.5 7 14 15.1 14 2.5 0 4.1-1.3 6.8-1.3 3.5 0 4.1 1.1 4.1 1.1l.3-.3c0-.1-2.3-6.5.6-12.7z"/><path d="m220 41.2c2.4 0 4.4-1.7 4.4-3.8 0-2.2-2-3.9-4.4-3.9s-4.4 1.7-4.4 3.9c-.1 2.1 1.9 3.8 4.4 3.8zm4 15.2v-15.6l-.3.2c-3.2 2-9.2 2.6-9.3 2.7v.4s.6 0 1.1.4c.4.4.7 1.1.7 2.1v9.9c0 4-1.5 4.1-1.6 4.1v.4h11v-.4c-.1-.1-1.6-.2-1.6-4.2z"/><path d="m240.9 50.3c8.8 0 9.2-9.4 2-9.4-2.2 0-3.8.7-4.8 2.1-.7 1-1.2 2-1.5 3.2v-5.5l-.3.2c-3 2.3-9.2 2.6-9.3 2.6v.4s.6-.1 1.1.4c.4.4.7 1.2.7 2.1v9.9c0 4-1.5 4-1.6 4v.7h11v-.4s-1.6-.1-1.6-4v-5.4c0-5.6 1.7-8.3 3.4-8.2 3.2-.1 3 6.1.9 7.3z"/><path d="m258.3 56.4v-22.8l-.3.2c-3.2 2-9.2 2.6-9.3 2.6v.4s.6 0 1 .4c.5.4.7 1.2.7 2.1v17c0 4-1.5 4.1-1.6 4.1v.6h11v-.4c0-.1-1.5-.2-1.5-4.2z"/></svg>