<?xml version="1.0" encoding="utf-8"?>
<!-- Generator: Adobe Illustrator 26.2.1, SVG Export Plug-In . SVG Version: 6.00 Build 0)  -->
<svg version="1.1" id="Layer_1" xmlns="http://www.w3.org/2000/svg" xmlns:xlink="http://www.w3.org/1999/xlink" x="0px" y="0px"
	 viewBox="0 0 265 182" style="enable-background:new 0 0 265 182;" xml:space="preserve">
<style type="text/css">
	.st0{fill:#010101;}
</style>
<g>
	<path class="st0" d="M20.8,76.1l5.1,21.8L32,76.1h3.9L42,97.9l5.1-21.8h4l-7,26.8h-3.8l-6.2-22.2l-6.2,22.2h-4l-7-26.8
		C16.9,76.1,20.8,76.1,20.8,76.1z"/>
	<path class="st0" d="M53.9,76.1h3.3v3.7h-3.3V76.1z M53.9,83.4h3.3v19.5h-3.3V83.4z"/>
	<path class="st0" d="M62.9,77.9h3.3v5.5h3.1V86h-3.1v12.8c0,0.7,0.2,1.1,0.7,1.4c0.3,0.1,0.7,0.2,1.3,0.2c0.2,0,0.3,0,0.5,0
		s0.4,0,0.6-0.1v2.6c-0.4,0.1-0.8,0.2-1.2,0.2s-0.8,0.1-1.3,0.1c-1.5,0-2.6-0.4-3.1-1.2c-0.5-0.8-0.8-1.8-0.8-3V86h-2.6v-2.7h2.6
		V77.9z"/>
	<path class="st0" d="M72.6,76h3.3v10c0.8-1,1.5-1.7,2.1-2.1c1.1-0.7,2.4-1,4-1c2.8,0,4.8,1,5.8,3c0.5,1.1,0.8,2.6,0.8,4.5v12.5
		h-3.4V90.6c0-1.4-0.2-2.5-0.5-3.2c-0.6-1.1-1.7-1.6-3.4-1.6c-1.4,0-2.6,0.5-3.7,1.4s-1.7,2.7-1.7,5.3v10.4h-3.3
		C72.6,102.9,72.6,76,72.6,76z"/>
	<path class="st0" d="M114.3,91.1c0.8-0.1,1.3-0.4,1.5-0.9c0.1-0.3,0.2-0.7,0.2-1.3c0-1.1-0.4-1.9-1.2-2.4s-1.9-0.8-3.4-0.8
		c-1.7,0-2.9,0.5-3.6,1.4c-0.4,0.5-0.7,1.3-0.8,2.3h-3.1c0.1-2.4,0.8-4.1,2.3-5s3.2-1.4,5.2-1.4c2.3,0,4.2,0.4,5.6,1.3
		s2.1,2.2,2.1,4.1v11.3c0,0.3,0.1,0.6,0.2,0.8c0.1,0.2,0.4,0.3,0.9,0.3c0.1,0,0.3,0,0.5,0s0.4,0,0.6-0.1v2.4
		c-0.5,0.1-0.9,0.2-1.2,0.3c-0.3,0-0.6,0.1-1.1,0.1c-1.1,0-2-0.4-2.5-1.2c-0.3-0.4-0.5-1-0.6-1.8c-0.7,0.9-1.6,1.6-2.9,2.3
		c-1.3,0.6-2.6,1-4.1,1c-1.8,0-3.3-0.5-4.4-1.7s-1.6-2.7-1.6-4.3c0-1.8,0.6-3.2,1.7-4.2s2.6-1.6,4.5-1.8L114.3,91.1z M107.4,100
		c0.7,0.5,1.5,0.8,2.5,0.8c1.2,0,2.3-0.3,3.4-0.8c1.8-0.9,2.7-2.3,2.7-4.4V93c-0.4,0.3-0.9,0.5-1.5,0.6c-0.6,0.2-1.3,0.3-1.9,0.4
		l-2,0.3c-1.2,0.2-2.1,0.4-2.7,0.7c-1,0.6-1.5,1.5-1.5,2.7C106.3,98.7,106.7,99.4,107.4,100z"/>
	<path class="st0" d="M135.8,76.1h12c2.4,0,4.3,0.7,5.7,2c1.5,1.3,2.2,3.2,2.2,5.7c0,2.1-0.7,3.9-2,5.5s-3.3,2.3-6,2.3h-8.4v11.3
		h-3.6V76.1H135.8z M149.9,79.8c-0.8-0.4-1.9-0.6-3.3-0.6h-7.2v9.3h7.2c1.6,0,2.9-0.3,3.9-1s1.5-1.9,1.5-3.7
		C152.1,81.8,151.3,80.5,149.9,79.8z"/>
	<path class="st0" d="M160,83.4h3.1v3.4c0.3-0.7,0.9-1.5,1.9-2.4s2.1-1.4,3.5-1.4c0.1,0,0.2,0,0.3,0s0.4,0,0.7,0.1v3.5
		c-0.2,0-0.4-0.1-0.5-0.1c-0.2,0-0.3,0-0.5,0c-1.7,0-2.9,0.5-3.8,1.6c-0.9,1.1-1.3,2.3-1.3,3.7V103h-3.3L160,83.4L160,83.4z"/>
	<path class="st0" d="M186.6,85.3c1.7,1.7,2.6,4.1,2.6,7.4c0,3.2-0.8,5.8-2.3,7.8c-1.5,2.1-3.9,3.1-7.1,3.1c-2.7,0-4.8-0.9-6.4-2.7
		s-2.4-4.3-2.4-7.3c0-3.3,0.8-5.9,2.5-7.8s3.9-2.9,6.7-2.9C182.7,82.8,184.8,83.6,186.6,85.3z M184.5,98.3c0.8-1.6,1.2-3.5,1.2-5.5
		c0-1.8-0.3-3.3-0.9-4.5c-0.9-1.8-2.5-2.7-4.7-2.7c-2,0-3.4,0.8-4.3,2.3c-0.9,1.5-1.4,3.4-1.4,5.5s0.5,3.8,1.4,5.2
		c0.9,1.4,2.3,2.1,4.3,2.1C182.2,100.8,183.7,100,184.5,98.3z"/>
	<path class="st0" d="M190.1,107.9c1.5,0,2.4-0.2,2.7-0.4s0.4-0.9,0.4-2v-22h3.3v22.4c0,1.4-0.2,2.5-0.7,3.2
		c-0.8,1.2-2.2,1.8-4.4,1.8c-0.2,0-0.3,0-0.5,0s-0.5,0-0.8-0.1V107.9z M196.5,79.9h-3.3v-3.8h3.3V79.9z"/>
	<path class="st0" d="M213.6,83.9c1.3,0.7,2.3,1.5,3,2.5s1.1,2.1,1.3,3.5c0.2,0.9,0.3,2.3,0.3,4.3h-14.3c0.1,2,0.5,3.6,1.4,4.8
		c0.9,1.2,2.2,1.8,4,1.8c1.7,0,3.1-0.6,4.1-1.7c0.6-0.7,1-1.4,1.2-2.3h3.2c-0.1,0.7-0.4,1.5-0.8,2.4s-1,1.6-1.6,2.2
		c-1,1-2.2,1.6-3.7,2c-0.8,0.2-1.7,0.3-2.7,0.3c-2.4,0-4.5-0.9-6.2-2.7c-1.7-1.8-2.5-4.3-2.5-7.4s0.8-5.7,2.5-7.7s3.9-2.9,6.6-2.9
		C211,82.9,212.3,83.2,213.6,83.9z M214.8,91.6c-0.1-1.4-0.4-2.6-0.9-3.4c-0.9-1.6-2.4-2.4-4.5-2.4c-1.5,0-2.8,0.5-3.8,1.6
		s-1.6,2.5-1.6,4.2C204,91.6,214.8,91.6,214.8,91.6z"/>
	<path class="st0" d="M235.2,84.4c1.4,1.1,2.2,2.9,2.5,5.5h-3.2c-0.2-1.2-0.6-2.2-1.3-3s-1.8-1.2-3.3-1.2c-2.1,0-3.6,1-4.5,3.1
		c-0.6,1.3-0.9,3-0.9,4.9c0,2,0.4,3.6,1.2,4.9s2.1,2,3.9,2c1.4,0,2.4-0.4,3.2-1.2c0.8-0.8,1.3-2,1.7-3.4h3.2
		c-0.4,2.6-1.3,4.5-2.7,5.7c-1.5,1.2-3.3,1.8-5.6,1.8c-2.6,0-4.6-0.9-6.1-2.8s-2.3-4.2-2.3-7c0-3.4,0.8-6.1,2.5-8s3.8-2.9,6.4-2.9
		C232,82.8,233.8,83.3,235.2,84.4z"/>
	<path class="st0" d="M241.7,77.9h3.3v5.5h3.1V86H245v12.8c0,0.7,0.2,1.1,0.7,1.4c0.3,0.1,0.7,0.2,1.3,0.2c0.2,0,0.3,0,0.5,0
		s0.4,0,0.6-0.1v2.6c-0.4,0.1-0.8,0.2-1.2,0.2s-0.8,0.1-1.3,0.1c-1.5,0-2.6-0.4-3.1-1.2s-0.8-1.8-0.8-3.1V86h-2.6v-2.7h2.6V77.9z"/>
	<path class="st0" d="M67.5,111.1h3.3v3.7h-3.3C67.5,114.8,67.5,111.1,67.5,111.1z M67.5,118.5h3.3V138h-3.3
		C67.5,138,67.5,118.5,67.5,118.5z"/>
	<path class="st0" d="M75.8,118.4h3.1v2.8c0.9-1.1,1.9-2,2.9-2.5s2.2-0.7,3.5-0.7c2.8,0,4.7,1,5.6,2.9c0.5,1.1,0.8,2.6,0.8,4.5v12.5
		h-3.3v-12.3c0-1.2-0.2-2.2-0.5-2.9c-0.6-1.2-1.6-1.8-3.2-1.8c-0.8,0-1.4,0.1-1.9,0.2c-0.9,0.3-1.7,0.8-2.4,1.6
		c-0.5,0.6-0.9,1.3-1.1,2s-0.2,1.7-0.2,2.9v10.2h-3.3V118.4z"/>
	<path class="st0" d="M107.7,111.1h19.5v3.3h-15.9v8.1H126v3.1h-14.7v9.1h16.2v3.2h-19.7v-26.8H107.7z"/>
	<path class="st0" d="M133.5,118.4l5.2,15.9l5.4-15.9h3.6l-7.4,19.6h-3.4l-7.2-19.6H133.5z"/>
	<path class="st0" d="M162.7,118.9c1.3,0.7,2.3,1.5,3,2.5s1.1,2.1,1.3,3.5c0.2,0.9,0.3,2.3,0.3,4.3h-14.2c0.1,2,0.5,3.6,1.4,4.8
		s2.2,1.8,4,1.8c1.7,0,3.1-0.6,4.1-1.7c0.6-0.7,1-1.4,1.2-2.3h3.2c-0.1,0.7-0.4,1.5-0.8,2.4s-1,1.6-1.6,2.2c-1,1-2.2,1.6-3.7,2
		c-0.8,0.2-1.7,0.3-2.7,0.3c-2.4,0-4.5-0.9-6.2-2.7s-2.5-4.3-2.5-7.4c0-3.1,0.8-5.7,2.5-7.7s3.9-2.9,6.6-2.9
		C160.1,117.9,161.4,118.2,162.7,118.9z M163.9,126.6c-0.1-1.4-0.4-2.6-0.9-3.4c-0.9-1.6-2.4-2.4-4.5-2.4c-1.5,0-2.8,0.5-3.8,1.6
		s-1.6,2.5-1.6,4.2C153.1,126.6,163.9,126.6,163.9,126.6z"/>
	<path class="st0" d="M171.5,118.4h3.1v3.4c0.3-0.7,0.9-1.5,1.9-2.4s2.1-1.4,3.5-1.4c0.1,0,0.2,0,0.3,0s0.4,0,0.7,0.1v3.5
		c-0.2,0-0.4-0.1-0.5-0.1c-0.2,0-0.3,0-0.5,0c-1.7,0-2.9,0.5-3.8,1.6c-0.9,1.1-1.3,2.3-1.3,3.7V138h-3.3L171.5,118.4L171.5,118.4z"
		/>
	<path class="st0" d="M196.1,118.4h3.6c-0.5,1.3-1.5,4.1-3.1,8.6c-1.2,3.4-2.2,6.1-3,8.2c-1.9,5-3.2,8-4,9.1s-2.1,1.6-4,1.6
		c-0.5,0-0.8,0-1.1-0.1c-0.2,0-0.6-0.1-0.9-0.2v-3c0.6,0.2,1,0.3,1.2,0.3c0.3,0,0.5,0.1,0.7,0.1c0.6,0,1.1-0.1,1.3-0.3
		c0.3-0.2,0.5-0.4,0.7-0.7c0.1-0.1,0.3-0.6,0.7-1.5s0.6-1.6,0.8-2l-7.2-20.1h3.7l5.2,15.9L196.1,118.4z"/>
	<path class="st0" d="M65.2,146.1v3.2h-9v23.6h-3.7v-23.6h-9v-3.2H65.2z"/>
	<path class="st0" d="M66.8,146.1h3.3v3.7h-3.3C66.8,149.8,66.8,146.1,66.8,146.1z M66.8,153.5h3.3V173h-3.3
		C66.8,173,66.8,153.5,66.8,153.5z"/>
	<path class="st0" d="M75.1,153.4h3.2v2.8c0.8-1,1.5-1.7,2.1-2.1c1.1-0.7,2.3-1.1,3.7-1.1c1.6,0,2.8,0.4,3.8,1.2
		c0.5,0.4,1,1.1,1.5,1.9c0.7-1,1.6-1.8,2.6-2.3s2.1-0.8,3.3-0.8c2.6,0,4.4,0.9,5.4,2.8c0.5,1,0.8,2.4,0.8,4.1v13h-3.4v-13.6
		c0-1.3-0.3-2.2-1-2.7s-1.4-0.7-2.4-0.7c-1.3,0-2.4,0.4-3.3,1.3c-0.9,0.9-1.4,2.3-1.4,4.3v11.4h-3.3v-12.8c0-1.3-0.2-2.3-0.5-2.9
		c-0.5-0.9-1.4-1.4-2.8-1.4c-1.2,0-2.4,0.5-3.4,1.4c-1,1-1.5,2.7-1.5,5.2v10.4h-3.3L75.1,153.4L75.1,153.4z"/>
	<path class="st0" d="M118.3,153.9c1.3,0.7,2.3,1.5,3,2.5s1.1,2.1,1.3,3.5c0.2,0.9,0.3,2.3,0.3,4.3h-14.2c0.1,2,0.5,3.6,1.4,4.8
		s2.2,1.8,4,1.8c1.7,0,3.1-0.6,4.1-1.7c0.6-0.7,1-1.4,1.2-2.3h3.2c-0.1,0.7-0.4,1.5-0.8,2.4s-1,1.6-1.6,2.2c-1,1-2.2,1.6-3.7,2
		c-0.8,0.2-1.7,0.3-2.7,0.3c-2.4,0-4.5-0.9-6.2-2.7s-2.5-4.3-2.5-7.4c0-3.1,0.8-5.7,2.5-7.7s3.9-2.9,6.6-2.9
		C115.7,152.9,117,153.3,118.3,153.9z M119.5,161.6c-0.1-1.4-0.4-2.6-0.9-3.4c-0.9-1.6-2.4-2.4-4.5-2.4c-1.5,0-2.8,0.5-3.8,1.6
		s-1.6,2.5-1.6,4.2L119.5,161.6L119.5,161.6z"/>
	<path class="st0" d="M126.2,160.8h9.2v3.4h-9.2V160.8z"/>
	<path class="st0" d="M137.9,169.9l16.5-20.6h-15.3v-3.2h20v3.1l-16.6,20.5h16.6v3.2h-21.2V169.9z"/>
	<path class="st0" d="M176.5,155.3c1.7,1.7,2.6,4.1,2.6,7.4c0,3.2-0.8,5.8-2.3,7.8c-1.5,2.1-3.9,3.1-7.1,3.1c-2.7,0-4.8-0.9-6.4-2.7
		s-2.4-4.3-2.4-7.3c0-3.3,0.8-5.9,2.5-7.8s3.9-2.9,6.7-2.9C172.7,152.8,174.8,153.6,176.5,155.3z M174.5,168.3
		c0.8-1.6,1.2-3.5,1.2-5.5c0-1.8-0.3-3.3-0.9-4.5c-0.9-1.8-2.5-2.7-4.7-2.7c-2,0-3.4,0.8-4.3,2.3c-0.9,1.5-1.4,3.4-1.4,5.5
		s0.5,3.8,1.4,5.2s2.3,2.1,4.3,2.1C172.2,170.8,173.7,170,174.5,168.3z"/>
	<path class="st0" d="M183.1,153.4h3.1v2.8c0.9-1.1,1.9-2,2.9-2.5s2.2-0.7,3.5-0.7c2.8,0,4.6,1,5.6,2.9c0.5,1.1,0.8,2.6,0.8,4.5
		v12.5h-3.3v-12.3c0-1.2-0.2-2.2-0.5-2.9c-0.6-1.2-1.6-1.8-3.2-1.8c-0.8,0-1.4,0.1-1.9,0.2c-0.9,0.3-1.7,0.8-2.4,1.6
		c-0.5,0.6-0.9,1.3-1.1,2c-0.2,0.7-0.2,1.7-0.2,2.9v10.2h-3.3L183.1,153.4L183.1,153.4z"/>
	<path class="st0" d="M216,153.9c1.3,0.7,2.3,1.5,3,2.5s1.1,2.1,1.3,3.5c0.2,0.9,0.3,2.3,0.3,4.3h-14.2c0.1,2,0.5,3.6,1.4,4.8
		s2.2,1.8,4,1.8c1.7,0,3.1-0.6,4.1-1.7c0.6-0.7,1-1.4,1.2-2.3h3.2c-0.1,0.7-0.4,1.5-0.8,2.4s-1,1.6-1.6,2.2c-1,1-2.2,1.6-3.7,2
		c-0.8,0.2-1.7,0.3-2.7,0.3c-2.4,0-4.5-0.9-6.2-2.7s-2.5-4.3-2.5-7.4c0-3.1,0.8-5.7,2.5-7.7s3.9-2.9,6.6-2.9
		C213.4,152.9,214.7,153.3,216,153.9z M217.2,161.6c-0.1-1.4-0.4-2.6-0.9-3.4c-0.9-1.6-2.4-2.4-4.5-2.4c-1.5,0-2.8,0.5-3.8,1.6
		s-1.6,2.5-1.6,4.2L217.2,161.6L217.2,161.6z"/>
</g>
<g>
	<path class="st0" d="M18.4,37.3c7.1,0,11.2,3.5,11.2,10.8v5.6c0,7.3-4,10.8-11.2,10.8H9.5V37.3H18.4z M14,60.4h4.4
		c4.6,0,6.6-2.2,6.6-6.7V48c0-4.5-2-6.7-6.6-6.7H14C14,41.3,14,60.4,14,60.4z"/>
	<path class="st0" d="M35.7,36.5c1.8,0,3.2,1.3,3.2,3.1s-1.4,3.1-3.2,3.1s-3.2-1.3-3.2-3.1C32.4,37.8,33.9,36.5,35.7,36.5z
		 M37.8,64.6h-4.3V45.3h4.3V64.6z"/>
	<path class="st0" d="M61.6,45.3v18.6c0,5.2-3.7,9-9.7,9c-5.2,0-8.2-2.5-10.1-5.4l3.7-2.2c1.1,2,3,3.9,6.1,3.9
		c3.3,0,5.7-1.7,5.7-5.4v-2.6h-0.5c-1,1.7-2.8,3.4-6.4,3.4c-4.9,0-8.9-4.1-8.9-9.9s4-9.9,8.9-9.9c3.6,0,5.3,1.7,6.4,3.4h0.5v-2.8
		h4.3V45.3z M57.3,54.7c0-3.8-2.3-6-5.7-6c-3.3,0-5.8,2.1-5.8,6s2.5,6.1,5.8,6.1C55,60.7,57.3,58.5,57.3,54.7z"/>
	<path class="st0" d="M68.6,36.5c1.8,0,3.2,1.3,3.2,3.1s-1.4,3.1-3.2,3.1c-1.8,0-3.2-1.3-3.2-3.1C65.4,37.8,66.8,36.5,68.6,36.5z
		 M70.8,64.6h-4.3V45.3h4.3V64.6z"/>
	<path class="st0" d="M78.7,45.3V39H83v6.3h5.5V49H83v10.7c0,0.8,0.4,1.1,1.1,1.1h3.2v3.7h-5.1c-2,0-3.5-1.4-3.5-3.5V49h-5.1v-3.7
		H78.7z"/>
	<path class="st0" d="M100.7,44.8c5.2,0,8.6,3,8.6,7.6v12.2h-4.2v-2.9h-0.5c-0.7,1.5-2.4,3.4-6.4,3.4c-4.3,0-7.2-2.3-7.2-5.9
		c0-3.3,2.5-5.3,6.9-5.7l7.2-0.7v-0.5c0-2.2-1.6-3.7-4.5-3.7c-2.8,0-4.6,1.4-5.6,3.5l-3.6-2C93.2,47.1,96,44.8,100.7,44.8z M99,61.6
		c4,0,6-2.4,6-5.3V56l-6.3,0.7c-2,0.2-3.4,0.9-3.4,2.4S96.7,61.6,99,61.6z"/>
	<path class="st0" d="M118.3,64.6H114V37.3h4.3V64.6z"/>
	<path class="st0" d="M142.4,37.3l7.4,23.1h0.5V37.3h4.5v27.3h-8.2l-7.3-23.1h-0.5v23.1h-4.5V37.3H142.4z"/>
	<path class="st0" d="M168.6,44.8c5.7,0,10,4.1,10,10.1s-4.3,10.2-10,10.2s-10-4.2-10-10.2S162.9,44.8,168.6,44.8z M168.6,61.3
		c3.4,0,5.7-2.5,5.7-6.3c0-3.9-2.3-6.3-5.7-6.3s-5.7,2.4-5.7,6.3C162.9,58.8,165.2,61.3,168.6,61.3z"/>
	<path class="st0" d="M186.4,45.3V48h0.5c0.9-1.8,2.6-3,5.2-3s4.3,1.4,5.2,3.2h0.5c0.8-1.7,2.4-3.2,5.5-3.2c3.5,0,6.4,2.5,6.4,6.5
		v13h-4.3V51.9c0-2-1.5-3.1-3.5-3.1c-2.2,0-3.8,1.3-3.8,4v11.9h-4.3V51.9c0-2-1.4-3.1-3.5-3.1c-2.2,0-3.9,1.3-3.9,4v11.9h-4.2V45.3
		H186.4z"/>
	<path class="st0" d="M223.4,44.8c5.2,0,8.6,3,8.6,7.6v12.2h-4.2v-2.9h-0.5c-0.7,1.5-2.4,3.4-6.4,3.4c-4.3,0-7.2-2.3-7.2-5.9
		c0-3.3,2.5-5.3,6.9-5.7l7.2-0.7v-0.5c0-2.2-1.6-3.7-4.5-3.7c-2.8,0-4.6,1.4-5.6,3.5l-3.6-2C215.9,47.1,218.6,44.8,223.4,44.8z
		 M221.6,61.6c4,0,6-2.4,6-5.3V56l-6.3,0.7c-2,0.2-3.4,0.9-3.4,2.4S219.4,61.6,221.6,61.6z"/>
	<path class="st0" d="M255.5,64.6h-4.2v-2.9h-0.5c-1,1.7-2.8,3.4-6.4,3.4c-4.9,0-8.9-4.3-8.9-10.2s4-10.1,8.9-10.1
		c3.6,0,5.3,1.7,6.4,3.4h0.5V37.3h4.3L255.5,64.6L255.5,64.6z M239.6,54.9c0,4.1,2.5,6.4,5.8,6.4c3.4,0,5.7-2.4,5.7-6.4
		s-2.3-6.3-5.7-6.3C242.1,48.6,239.6,50.9,239.6,54.9z"/>
</g>
<g>
	<g>
		<path class="st0" d="M121.2,0.8v4.1h-8.5v23.2h-4.5V4.9h-8.5V0.8H121.2z"/>
		<path class="st0" d="M128.6,0.8V12h0.5c0.9-1.8,2.6-3.5,6.3-3.5c4.2,0,7.5,2.8,7.5,8V28h-4.3V16.9c0-3-1.7-4.6-4.6-4.6
			c-3.4,0-5.3,2.1-5.3,5.8v10h-4.3V0.8H128.6z"/>
		<path class="st0" d="M155.9,8.2c5.6,0,9.4,4,9.4,9.7v1.9h-14.5c0.2,3,2.3,5.1,5.5,5.1c2.8,0,4.3-1.5,5.1-3.2l3.5,2
			c-1.4,2.2-3.7,4.8-8.6,4.8c-5.9,0-10-4.4-10-10.3C146.2,12.5,150.2,8.2,155.9,8.2z M160.9,16.6c-0.2-2.9-2-4.7-5-4.7
			s-4.8,1.8-5.1,4.7H160.9z"/>
	</g>
</g>
</svg>
