<?xml version="1.0" encoding="utf-8"?>
<!-- Generator: Adobe Illustrator 25.0.1, SVG Export Plug-In . SVG Version: 6.00 Build 0)  -->
<svg version="1.1" id="Layer_1" xmlns="http://www.w3.org/2000/svg" xmlns:xlink="http://www.w3.org/1999/xlink" x="0px" y="0px"
	 viewBox="0 0 265 157.7" style="enable-background:new 0 0 265 157.7;" xml:space="preserve">
<g>
	<path d="M63.9,104.6c0.1,1.5,0.4,2.8,1,3.7c1.2,1.8,3.2,2.7,6.1,2.7c1.3,0,2.5-0.2,3.6-0.6c2.1-0.8,3.1-2.1,3.1-4.1
		c0-1.5-0.4-2.5-1.3-3.1c-0.9-0.6-2.3-1.1-4.2-1.6l-3.5-0.8c-2.3-0.5-3.9-1.1-4.9-1.8c-1.7-1.1-2.5-2.8-2.5-5c0-2.4,0.8-4.4,2.4-5.9
		c1.6-1.5,3.9-2.3,6.9-2.3c2.7,0,5.1,0.7,7,2c1.9,1.4,2.9,3.5,2.9,6.5h-3.4C77,92.9,76.6,91.8,76,91c-1.1-1.4-2.9-2.1-5.4-2.1
		c-2.1,0-3.5,0.5-4.4,1.4c-0.9,0.9-1.3,1.9-1.3,3.1c0,1.3,0.5,2.3,1.6,2.9c0.7,0.4,2.3,0.9,4.7,1.5l3.6,0.9c1.8,0.4,3.1,1,4.1,1.7
		c1.7,1.3,2.5,3.1,2.5,5.5c0,3-1.1,5.1-3.2,6.4s-4.6,1.9-7.3,1.9c-3.3,0-5.8-0.9-7.6-2.6c-1.8-1.7-2.7-4-2.7-6.9H63.9z"/>
	<path d="M86,86.3h3.3v10c0.8-1,1.5-1.7,2.1-2.1c1.1-0.7,2.4-1,4-1c2.8,0,4.8,1,5.8,3c0.5,1.1,0.8,2.6,0.8,4.5v12.5h-3.4v-12.3
		c0-1.4-0.2-2.5-0.5-3.2c-0.6-1.1-1.7-1.6-3.4-1.6c-1.4,0-2.6,0.5-3.7,1.4s-1.7,2.7-1.7,5.3v10.4H86V86.3z"/>
	<path d="M121,95.6c1.7,1.7,2.6,4.1,2.6,7.4c0,3.2-0.8,5.8-2.3,7.8c-1.5,2.1-3.9,3.1-7.1,3.1c-2.7,0-4.8-0.9-6.4-2.7
		c-1.6-1.8-2.4-4.3-2.4-7.3c0-3.3,0.8-5.9,2.5-7.8c1.7-1.9,3.9-2.9,6.7-2.9C117.2,93.1,119.3,94,121,95.6z M119,108.6
		c0.8-1.6,1.2-3.5,1.2-5.5c0-1.8-0.3-3.3-0.9-4.5c-0.9-1.8-2.5-2.7-4.7-2.7c-2,0-3.4,0.8-4.3,2.3c-0.9,1.5-1.4,3.4-1.4,5.5
		c0,2.1,0.5,3.8,1.4,5.2c0.9,1.4,2.3,2.1,4.3,2.1C116.7,111.1,118.2,110.3,119,108.6z"/>
	<path d="M141.8,95.6c1.7,1.7,2.6,4.1,2.6,7.4c0,3.2-0.8,5.8-2.3,7.8c-1.5,2.1-3.9,3.1-7.1,3.1c-2.7,0-4.8-0.9-6.4-2.7
		c-1.6-1.8-2.4-4.3-2.4-7.3c0-3.3,0.8-5.9,2.5-7.8c1.7-1.9,3.9-2.9,6.7-2.9C138,93.1,140.1,94,141.8,95.6z M139.8,108.6
		c0.8-1.6,1.2-3.5,1.2-5.5c0-1.8-0.3-3.3-0.9-4.5c-0.9-1.8-2.5-2.7-4.7-2.7c-2,0-3.4,0.8-4.3,2.3c-0.9,1.5-1.4,3.4-1.4,5.5
		c0,2.1,0.5,3.8,1.4,5.2c0.9,1.4,2.3,2.1,4.3,2.1C137.5,111.1,139,110.3,139.8,108.6z"/>
	<path d="M149.1,88.2h3.3v5.5h3.1v2.7h-3.1v12.8c0,0.7,0.2,1.1,0.7,1.4c0.3,0.1,0.7,0.2,1.3,0.2c0.2,0,0.3,0,0.5,0
		c0.2,0,0.4,0,0.6-0.1v2.6c-0.4,0.1-0.8,0.2-1.2,0.2s-0.8,0.1-1.3,0.1c-1.5,0-2.6-0.4-3.1-1.2s-0.8-1.8-0.8-3.1V96.4h-2.6v-2.7h2.6
		V88.2z"/>
	<path d="M158.8,86.4h3.3v3.7h-3.3V86.4z M158.8,93.8h3.3v19.5h-3.3V93.8z"/>
	<path d="M167.1,93.7h3.1v2.8c0.9-1.1,1.9-2,2.9-2.5c1-0.5,2.2-0.7,3.5-0.7c2.8,0,4.6,1,5.6,2.9c0.5,1.1,0.8,2.6,0.8,4.5v12.5h-3.3
		v-12.3c0-1.2-0.2-2.2-0.5-2.9c-0.6-1.2-1.6-1.8-3.2-1.8c-0.8,0-1.4,0.1-1.9,0.2c-0.9,0.3-1.7,0.8-2.4,1.6c-0.5,0.6-0.9,1.3-1.1,2
		c-0.2,0.7-0.2,1.7-0.2,2.9v10.2h-3.3V93.7z"/>
	<path d="M198.8,94.5c0.6,0.4,1.2,1,1.9,1.9v-2.5h3v17.8c0,2.5-0.4,4.4-1.1,5.9c-1.4,2.7-3.9,4-7.7,4c-2.1,0-3.9-0.5-5.3-1.4
		c-1.4-0.9-2.2-2.4-2.4-4.4h3.3c0.2,0.9,0.5,1.6,0.9,2c0.7,0.7,1.9,1.1,3.5,1.1c2.5,0,4.1-0.9,4.9-2.7c0.5-1,0.7-2.9,0.6-5.6
		c-0.7,1-1.4,1.7-2.4,2.2c-0.9,0.5-2.1,0.7-3.7,0.7c-2.1,0-4-0.8-5.5-2.3c-1.6-1.5-2.4-4-2.4-7.5c0-3.3,0.8-5.8,2.4-7.7
		s3.5-2.8,5.8-2.8C196.3,93.3,197.7,93.7,198.8,94.5z M199.2,98c-1-1.2-2.3-1.8-3.8-1.8c-2.3,0-3.9,1.1-4.7,3.3
		c-0.4,1.2-0.7,2.7-0.7,4.5c0,2.2,0.4,3.9,1.3,5c0.9,1.2,2.1,1.7,3.6,1.7c2.3,0,4-1.1,5-3.2c0.5-1.2,0.8-2.6,0.8-4.2
		C200.7,101,200.2,99.2,199.2,98z"/>
	<path d="M43.9,122.7c0.8-1.1,2.2-1.7,4.4-1.7c0.2,0,0.4,0,0.6,0c0.2,0,0.5,0,0.7,0.1v3c-0.3,0-0.6,0-0.7,0s-0.3,0-0.4,0
		c-1,0-1.6,0.3-1.8,0.8c-0.2,0.5-0.3,1.8-0.3,4h3.3v2.6h-3.3v16.9h-3.3v-16.9h-2.7v-2.6h2.7v-3.1C43.3,124.4,43.5,123.4,43.9,122.7z
		"/>
	<path d="M67,130.6c1.7,1.7,2.6,4.1,2.6,7.4c0,3.2-0.8,5.8-2.3,7.8c-1.5,2.1-3.9,3.1-7.1,3.1c-2.7,0-4.8-0.9-6.4-2.7
		c-1.6-1.8-2.4-4.3-2.4-7.3c0-3.3,0.8-5.9,2.5-7.8c1.7-1.9,3.9-2.9,6.7-2.9C63.1,128.1,65.2,129,67,130.6z M64.9,143.6
		c0.8-1.6,1.2-3.5,1.2-5.5c0-1.8-0.3-3.3-0.9-4.5c-0.9-1.8-2.5-2.7-4.7-2.7c-2,0-3.4,0.8-4.3,2.3c-0.9,1.5-1.4,3.4-1.4,5.5
		c0,2.1,0.5,3.8,1.4,5.2c0.9,1.4,2.3,2.1,4.3,2.1C62.6,146.1,64.1,145.3,64.9,143.6z"/>
	<path d="M73.7,128.7h3.1v3.4c0.3-0.7,0.9-1.5,1.9-2.4c1-0.9,2.1-1.4,3.5-1.4c0.1,0,0.2,0,0.3,0c0.1,0,0.4,0,0.7,0.1v3.5
		c-0.2,0-0.4-0.1-0.5-0.1c-0.2,0-0.3,0-0.5,0c-1.7,0-2.9,0.5-3.8,1.6c-0.9,1.1-1.3,2.3-1.3,3.7v11.2h-3.3V128.7z"/>
	<path d="M115.8,123.4c1.9,1.8,2.9,3.8,3.1,6.1h-3.5c-0.4-1.7-1.2-3.1-2.4-4.1s-2.8-1.5-5-1.5c-2.6,0-4.7,0.9-6.3,2.8
		c-1.6,1.9-2.4,4.7-2.4,8.5c0,3.1,0.7,5.7,2.2,7.6c1.4,2,3.6,2.9,6.4,2.9c2.6,0,4.6-1,6-3.1c0.7-1.1,1.3-2.5,1.6-4.3h3.5
		c-0.3,2.8-1.3,5.2-3.1,7.1c-2.1,2.3-4.9,3.5-8.5,3.5c-3.1,0-5.7-0.9-7.8-2.8c-2.8-2.5-4.1-6.4-4.1-11.6c0-4,1-7.2,3.1-9.7
		c2.2-2.8,5.3-4.1,9.3-4.1C111.4,120.7,114,121.6,115.8,123.4z"/>
	<path d="M123.4,121.3h3.3v10c0.8-1,1.5-1.7,2.1-2.1c1.1-0.7,2.4-1,4-1c2.8,0,4.8,1,5.8,3c0.5,1.1,0.8,2.6,0.8,4.5v12.5H136v-12.3
		c0-1.4-0.2-2.5-0.5-3.2c-0.6-1.1-1.7-1.6-3.4-1.6c-1.4,0-2.6,0.5-3.7,1.4c-1.1,0.9-1.7,2.7-1.7,5.3v10.4h-3.3V121.3z"/>
	<path d="M154.7,136.4c0.8-0.1,1.3-0.4,1.5-0.9c0.1-0.3,0.2-0.7,0.2-1.3c0-1.1-0.4-1.9-1.2-2.4c-0.8-0.5-1.9-0.8-3.4-0.8
		c-1.7,0-2.9,0.5-3.6,1.4c-0.4,0.5-0.7,1.3-0.8,2.3h-3.1c0.1-2.4,0.8-4.1,2.3-5c1.5-0.9,3.2-1.4,5.2-1.4c2.3,0,4.2,0.4,5.6,1.3
		c1.4,0.9,2.1,2.2,2.1,4.1v11.3c0,0.3,0.1,0.6,0.2,0.8c0.1,0.2,0.4,0.3,0.9,0.3c0.1,0,0.3,0,0.5,0c0.2,0,0.4,0,0.6-0.1v2.4
		c-0.5,0.1-0.9,0.2-1.2,0.3c-0.3,0-0.6,0.1-1.1,0.1c-1.1,0-2-0.4-2.5-1.2c-0.3-0.4-0.5-1-0.6-1.8c-0.7,0.9-1.6,1.6-2.9,2.3
		c-1.3,0.6-2.6,1-4.1,1c-1.8,0-3.3-0.5-4.4-1.7s-1.7-2.5-1.7-4.1c0-1.8,0.6-3.2,1.7-4.2c1.1-1,2.6-1.6,4.5-1.8L154.7,136.4z
		 M147.8,145.3c0.7,0.5,1.5,0.8,2.5,0.8c1.2,0,2.3-0.3,3.4-0.8c1.8-0.9,2.7-2.3,2.7-4.4v-2.6c-0.4,0.3-0.9,0.5-1.5,0.6
		c-0.6,0.2-1.3,0.3-1.9,0.4l-2,0.3c-1.2,0.2-2.1,0.4-2.7,0.7c-1,0.6-1.5,1.5-1.5,2.7C146.8,144,147.1,144.7,147.8,145.3z"/>
	<path d="M165,128.7h3.1v2.8c0.9-1.1,1.9-2,2.9-2.5c1-0.5,2.2-0.7,3.5-0.7c2.8,0,4.6,1,5.6,2.9c0.5,1.1,0.8,2.6,0.8,4.5v12.5h-3.3
		v-12.3c0-1.2-0.2-2.2-0.5-2.9c-0.6-1.2-1.6-1.8-3.2-1.8c-0.8,0-1.4,0.1-1.9,0.2c-0.9,0.3-1.7,0.8-2.4,1.6c-0.5,0.6-0.9,1.3-1.1,2
		c-0.2,0.7-0.2,1.7-0.2,2.9v10.2H165V128.7z"/>
	<path d="M196.7,129.5c0.6,0.4,1.2,1,1.9,1.9v-2.5h3v17.8c0,2.5-0.4,4.4-1.1,5.9c-1.4,2.7-3.9,4-7.7,4c-2.1,0-3.9-0.5-5.3-1.4
		c-1.4-0.9-2.2-2.4-2.4-4.4h3.3c0.2,0.9,0.5,1.6,0.9,2c0.7,0.7,1.9,1.1,3.5,1.1c2.5,0,4.1-0.9,4.9-2.7c0.5-1,0.7-2.9,0.6-5.6
		c-0.7,1-1.4,1.7-2.4,2.2c-0.9,0.5-2.1,0.7-3.7,0.7c-2.1,0-4-0.8-5.5-2.3c-1.6-1.5-2.4-4-2.4-7.5c0-3.3,0.8-5.8,2.4-7.7
		c1.6-1.8,3.5-2.8,5.8-2.8C194.2,128.3,195.6,128.7,196.7,129.5z M197.1,133c-1-1.2-2.3-1.8-3.8-1.8c-2.3,0-3.9,1.1-4.7,3.3
		c-0.4,1.2-0.7,2.7-0.7,4.5c0,2.2,0.4,3.9,1.3,5c0.9,1.2,2.1,1.7,3.6,1.7c2.3,0,4-1.1,5-3.2c0.5-1.2,0.8-2.6,0.8-4.2
		C198.6,136,198.1,134.2,197.1,133z"/>
	<path d="M218.7,129.2c1.3,0.7,2.3,1.5,3,2.5c0.7,1,1.1,2.1,1.3,3.5c0.2,0.9,0.3,2.3,0.3,4.3H209c0.1,2,0.5,3.6,1.4,4.8
		c0.9,1.2,2.2,1.8,4,1.8c1.7,0,3.1-0.6,4.1-1.7c0.6-0.7,1-1.4,1.2-2.3h3.2c-0.1,0.7-0.4,1.5-0.8,2.4s-1,1.6-1.6,2.2
		c-1,1-2.2,1.6-3.7,2c-0.8,0.2-1.7,0.3-2.7,0.3c-2.4,0-4.5-0.9-6.2-2.7c-1.7-1.8-2.5-4.3-2.5-7.4c0-3.1,0.8-5.7,2.5-7.7
		c1.7-2,3.9-2.9,6.6-2.9C216.1,128.3,217.4,128.6,218.7,129.2z M219.9,136.9c-0.1-1.4-0.4-2.6-0.9-3.4c-0.9-1.6-2.4-2.4-4.5-2.4
		c-1.5,0-2.8,0.5-3.8,1.6c-1,1.1-1.6,2.5-1.6,4.2H219.9z"/>
</g>
<g>
	<g>
		<path d="M114.5,34.9c0,0.9,0.2,1.5,0.7,1.8c0.6,0.4,1,0.7,1,0.9c0,0.3-0.4,0.4-1.2,0.5h-6.8c-0.8,0-1.2-0.1-1.2-0.5
			c0-0.2,0.3-0.5,1-0.9c0.5-0.3,0.7-0.9,0.7-1.8V7.3c0-0.6-0.3-0.9-1-0.9h0c-0.8,0-1.4,0-1.6,0.1c-0.3,0-0.6,0.2-1,0.6
			c-0.4,0.4-0.8,1-1.3,1.8c-0.5,1-0.9,1.6-1,1.8c-0.1,0.2-0.3,0.3-0.5,0.3c-0.2,0-0.3-0.7-0.1-1.9c0.1-0.5,0.2-1.3,0.3-2.2
			c0.1-1,0.2-1.8,0.3-2.6s0.1-1.2,0.2-1.6c0.1-0.8,0.3-0.8,1.1-0.7c0.1,0,0.5,0,1.5,0.1c0.9,0.1,1.7,0.1,2.4,0.1h7.6
			c0.7,0,1.5,0,2.4-0.1c0.9-0.1,1.3-0.1,1.5-0.1c0.7-0.1,1-0.1,1.1,0.7c0.1,0.6,0.2,2.2,0.5,4.1c0.1,1,0.2,1.7,0.3,2.2
			c0.1,1.3,0.1,1.9-0.1,1.9c-0.2,0-0.4,0-0.5-0.2s-0.5-0.8-1-1.8c-0.7-1.2-1.2-1.9-1.6-2.2c-0.4-0.2-1.2-0.3-2.3-0.3h0
			c-0.7,0-1,0.3-1,0.9V34.9z"/>
		<path d="M124.8,9.5c0-0.9-0.2-1.5-0.7-1.8c-0.6-0.4-1-0.7-1-0.9c0-0.3,0.4-0.4,1.2-0.4h6.8c0.8,0,1.2,0.1,1.2,0.4
			c0,0.2-0.3,0.5-1,0.9c-0.5,0.3-0.7,0.9-0.7,1.8v8.6c0,0.8,0.3,0.9,0.9,0.9h4.3c0.5,0,0.8-0.2,0.9-0.7V9.5c0-0.9-0.2-1.5-0.7-1.8
			c-0.6-0.4-1-0.7-1-0.9c0-0.3,0.4-0.4,1.2-0.4h6.8c0.8,0,1.2,0.1,1.2,0.4c0,0.2-0.1,0.3-0.5,0.6c-0.2,0.1-0.4,0.2-0.4,0.3
			c-0.5,0.3-0.7,0.9-0.7,1.8v23.4c0,0.9,0.2,1.5,0.7,1.8c0.1,0.1,0.7,0.4,0.9,0.6c0.1,0.1,0.1,0.2,0.1,0.3c0,0.3-0.4,0.4-1.2,0.4
			h-6.8c-0.8,0-1.2-0.1-1.2-0.4c0-0.2,0.3-0.5,1-0.9c0.5-0.3,0.7-0.9,0.7-1.8v-8.8c0-0.8-0.3-0.9-0.9-0.9h-4.3
			c-0.6,0-0.9,0.2-0.9,0.7v9c0,0.9,0.2,1.5,0.7,1.8c0.6,0.4,1,0.7,1,0.9c0,0.3-0.4,0.4-1.2,0.4h-6.8c-0.8,0-1.2-0.1-1.2-0.4
			c0-0.2,0.3-0.5,1-0.9c0.5-0.3,0.7-0.9,0.7-1.8V9.5z"/>
		<path d="M159.7,22.7c0,1.1-0.1,1.7-0.4,1.7c-0.2,0-0.4-0.2-0.8-0.7c-0.2-0.3-0.6-0.5-1.1-0.5h-2.9c-0.6,0-0.9,0.2-0.9,0.7v7
			c0,0.8,0.3,0.9,0.9,0.9h2.8c0.6,0,1.1,0,1.4,0c0.3,0,0.6-0.1,1.1-0.2c0.9-0.3,1.5-0.9,2.4-2.1c0.7-0.9,1.1-1.4,1.3-1.6
			c0.2-0.2,0.3-0.2,0.5-0.1c0.2,0,0.2,0.7-0.1,1.9l-1.7,6.1c-0.2,0.7-0.6,0.7-1.2,0.5c-1.1-0.2-2.5-0.3-4-0.3h-9.8
			c-0.8,0-1.2-0.1-1.2-0.4c0-0.2,0.3-0.5,1-0.9c0.5-0.3,0.7-0.9,0.7-1.8V10c0-1.2-0.2-2-0.7-2.3c-0.6-0.4-1-0.7-1-0.9
			c0-0.3,0.4-0.4,1.2-0.4h10.7c1.4,0,2.4-0.1,3-0.3c0.8-0.3,0.8,0.2,1.1,0.9c0.1,0.3,0.3,1.2,0.6,2.8c0.3,1.6,0.5,2.5,0.6,2.8
			c0.3,1,0.4,1.5,0.1,1.6c-0.2,0-0.3,0-0.4-0.1c-0.1-0.1-0.5-0.6-1.2-1.4c-1-1.4-2.2-1.9-2.8-2c-0.3,0-0.9,0-1.8,0h-2.8
			c-0.4,0-0.9,0-0.9,0.9v6.7c0,0.8,0.3,0.9,0.9,0.9h2.9c0.5,0,0.9-0.1,1.1-0.5c0.3-0.5,0.5-0.7,0.8-0.7c0.3,0,0.4,0.6,0.4,1.6V22.7z
			"/>
		<path d="M20.9,52.5c1,1.6,2.2,3.1,3.4,4.5c1.2,1.4,2.4,3.1,3.4,5c1,1.9,1.6,3.8,1.6,5.5c0,3-1,5.4-2.9,7.1c-2,1.7-4.3,2.3-6.9,1.8
			c-1.1-0.2-2.4-0.8-2.9-0.9c-0.5-0.2-1.2,0-2.1,0.9c-0.4,0.4-0.7,0.3-0.8-0.5c-0.3-2.2-0.6-4.8-0.9-7.6c-0.2-1.3-0.1-2,0.1-2
			c0.2,0,0.3,0,0.5,0.2c0.1,0.2,0.5,0.8,1,1.8c1.3,2.5,3.5,4,5.8,4c2.7,0,4.8-3.8,1.7-8.8c-1-1.7-2.2-3.3-3.4-4.8
			c-1.2-1.5-2.4-3.1-3.4-5c-1-1.9-1.6-3.6-1.6-5.1c0-2.6,1-4.7,2.9-6.4c1.9-1.7,4-2.4,6.3-2.1c1.2,0.1,2.5,0.4,3,0.6
			s1.1,0.1,1.5-0.4c0.4-0.7,1-0.6,1.2,0.6l0.6,5.6c0.2,1.3,0.2,1.5-0.2,1.6c-0.2,0-0.4-0.2-0.6-0.6c-0.2-0.4-0.4-0.7-0.7-1.1
			c-1-1.7-2.4-2.5-4.2-2.7c-1.2-0.1-2.1,0.4-2.9,1.4c-0.8,1-1.2,2.1-1.2,3.3C19.3,49.5,19.8,50.9,20.9,52.5z"/>
		<path d="M43.4,70.8c0,0.9,0.2,1.5,0.7,1.8c0.6,0.4,1,0.7,1,0.9c0,0.3-0.4,0.4-1.2,0.4h-6.8c-0.8,0-1.2-0.1-1.2-0.4
			c0-0.2,0.3-0.5,1-0.9c0.5-0.3,0.7-0.9,0.7-1.8V49.4c0-0.6-0.3-0.9-1-0.9h0c-0.8,0-1.4,0-1.7,0.1c-0.3,0-0.6,0.2-1,0.6
			c-0.4,0.3-0.8,1-1.3,1.8c-0.6,1-0.9,1.6-1,1.8c-0.1,0.2-0.3,0.2-0.5,0.2c-0.2,0-0.3-0.7-0.1-1.9c0.1-0.5,0.2-1.3,0.3-2.2
			s0.2-1.8,0.3-2.6c0.1-0.7,0.1-1.2,0.2-1.6c0.1-0.3,0.1-0.6,0.4-0.6c0.3-0.1,0.3,0,0.7,0c1.9,0.2,3.2,0.3,3.9,0.3h7.6
			c0.6,0,1.9-0.1,3.9-0.3c0.8,0,0.8,0,1.1,0.7c0.1,0.6,0.2,2.2,0.5,4.1c0.1,1,0.2,1.7,0.3,2.2c0.1,1.3,0.1,1.9-0.1,1.9
			s-0.4,0-0.5-0.2c-0.1-0.2-0.5-0.8-1-1.8c-0.5-1.1-1.1-1.6-1.4-2c-0.1-0.2-0.4-0.3-0.7-0.4c-0.4-0.1-0.6-0.1-0.7-0.1h-1.1h0
			c-0.7,0-1,0.3-1,0.9V70.8z"/>
		<path d="M68.6,48.3c1.9,2.8,2.8,6.4,2.8,10.8c0,4.3-0.9,7.9-2.8,10.8c-1.9,2.8-4.4,4.3-7.5,4.3c-3.1,0-5.6-1.4-7.4-4.3
			c-1.9-2.8-2.8-6.4-2.8-10.8c0-4.4,0.9-8,2.8-10.8c1.9-2.8,4.3-4.3,7.4-4.3C64.3,44.1,66.8,45.5,68.6,48.3z M64.6,67
			c0.8-2,1.2-4.6,1.2-7.8c0-3.2-0.4-5.8-1.2-7.8c-0.8-2-1.9-3-3.4-3c-1.5,0-2.6,1-3.4,3c-0.8,2-1.2,4.6-1.2,7.8
			c0,3.2,0.4,5.8,1.2,7.8c0.8,2,1.9,3,3.4,3C62.7,70,63.8,69,64.6,67z"/>
		<path d="M74.1,73.9c-0.8,0-1.2-0.1-1.2-0.4c0-0.2,0.3-0.5,1-0.9c0.5-0.3,0.7-0.9,0.7-1.8V47.9c0-1.2-0.2-2-0.7-2.3
			c-0.6-0.4-1-0.7-1-0.9c0-0.3,0.4-0.4,1.2-0.4h8.1c5.7,0,9.2,3.1,9.2,9.1c0,3.7-1.6,6.5-4.8,8.4l3.7,9.1c0.5,0.9,1,1.5,1.6,1.8
			c0.5,0.3,0.8,0.6,0.9,0.9c0.1,0.4-0.2,0.4-1.1,0.4h-4.7c-0.6,0-1-0.2-1.3-0.5c-0.3-0.3-0.7-1.2-1.2-2.6l-2.4-6.1
			c-0.4-1-0.7-1.5-1-1.5h-0.1c-0.4,0-0.6,0.2-0.7,0.7v7c0,0.9,0.2,1.5,0.7,1.8c0.6,0.4,1,0.7,1,0.9c0,0.3-0.4,0.4-1.2,0.4H74.1z
			 M80.4,58c0,0.8,0.3,0.9,0.9,0.9h0.4c1.1,0,2.1-0.6,2.8-1.8c0.7-1.2,1.1-2.6,1.1-4.2c0-3.1-1.2-4.6-3.5-4.6h-0.8
			c-0.4,0-0.9,0-0.9,0.9V58z"/>
		<path d="M107.2,73.5c0,0.3-0.4,0.4-1.2,0.4h-6.8c-0.8,0-1.2-0.1-1.2-0.4c0-0.2,0.3-0.5,1-0.9c0.5-0.4,0.7-1,0.7-1.8v-8.5l-5.1-14
			c-0.6-1.6-1.2-2.5-1.6-2.8c-1.5-0.8-1.2-1.1-0.9-1.2c0.2,0,0.4-0.1,0.9-0.1h6.6c0.8,0,1.2,0.1,1.3,0.4c0,0.2-0.2,0.4-0.7,0.9
			c-0.3,0.2-0.3,0.9,0,1.9l2.9,8l2.9-8c0.4-1,0.4-1.7,0-2c-0.5-0.4-0.8-0.7-0.8-0.9c0.1-0.3,0.5-0.4,1.3-0.4h5.6
			c0.6,0,1.2,0,1.1,0.4c0,0.2-0.4,0.4-1.2,0.9c-0.3,0.2-0.8,1.1-1.5,2.7l-5.1,13.8v8.7c0,0.8,0.2,1.5,0.7,1.8
			C106.9,72.9,107.2,73.3,107.2,73.5z"/>
		<path d="M126.2,43.3c0-0.9-0.2-1.5-0.7-1.7c-0.6-0.4-1-0.7-1-0.9c0-0.3,0.4-0.4,1.2-0.5h6.8c0.8,0,1.2,0.1,1.2,0.5
			c0,0.2-0.1,0.3-0.5,0.6c-0.2,0.1-0.4,0.2-0.4,0.3c-0.5,0.3-0.7,0.8-0.7,1.7v13c0,0.4,0.3,0.7,0.9,0.7h4.3c0.6,0,0.9-0.2,1-0.7v-13
			c0-0.8-0.2-1.4-0.7-1.7c-0.7-0.5-1-0.8-1-0.9c0-0.3,0.4-0.4,1.2-0.5h6.8c0.7,0,1.1,0.1,1.1,0.5c0,0.1-0.3,0.4-0.9,0.9
			c-0.5,0.3-0.8,0.8-0.8,1.7v29.5c0,0.9,0.2,1.5,0.8,1.8c0.6,0.5,0.9,0.8,0.9,0.9c0,0.3-0.4,0.4-1.1,0.5h-6.8
			c-0.8,0-1.2-0.1-1.2-0.5c0-0.1,0.3-0.4,1-0.9c0.5-0.3,0.7-0.9,0.7-1.8V62c0-0.6-0.3-0.9-1-0.9h-4.3c-0.6,0-0.9,0.2-0.9,0.7v11
			c0,0.9,0.2,1.5,0.7,1.8c0.1,0.1,0.7,0.4,0.9,0.6c0.1,0.1,0.1,0.2,0.1,0.3c0,0.3-0.4,0.4-1.2,0.5h-6.8c-0.8,0-1.2-0.1-1.2-0.5
			c0-0.2,0.3-0.5,1-0.9c0.5-0.3,0.7-0.9,0.7-1.8V43.3z"/>
		<path d="M166.4,62.2c0,8.1-2.8,12.1-8.4,12.1c-5.9,0-9.3-3.9-9.3-12.1V47.4c0-0.9-0.2-1.5-0.7-1.8c-0.6-0.4-1-0.7-1-0.9
			c0-0.3,0.4-0.4,1.2-0.4h6.8c0.8,0,1.2,0.1,1.2,0.4c0,0.2-0.1,0.3-0.5,0.6c-0.2,0.1-0.4,0.2-0.4,0.3c-0.5,0.3-0.7,0.9-0.7,1.8v15.8
			c0,4.3,1.3,6.9,3.6,6.9s3.5-2.6,3.5-6.9V47.4c0-0.9-0.2-1.5-0.7-1.8c-0.6-0.5-0.9-0.8-0.9-0.9c0-0.3,0.4-0.4,1.1-0.4h5.8
			c0.8,0,1.2,0.1,1.2,0.4c0,0.2-0.3,0.5-1,0.9c-0.4,0.3-0.6,0.9-0.6,1.8V62.2z"/>
		<path d="M179.4,63.2c-1.3-3.2-2.5-5.9-3.3-8.1v15.7c0,0.9,0.2,1.5,0.7,1.8c0.6,0.4,1,0.7,1,0.9c0,0.3-0.4,0.4-1.2,0.4H171
			c-0.8,0-1.2-0.1-1.2-0.4c0-0.2,0.1-0.3,0.5-0.6c0.2-0.1,0.3-0.2,0.4-0.3c0.5-0.3,0.7-0.9,0.7-1.8V47.4c0-0.9-0.2-1.5-0.7-1.8
			c-0.1-0.1-0.7-0.4-0.8-0.6c-0.1-0.1-0.1-0.2-0.1-0.3c0-0.3,0.4-0.4,1.2-0.4h4.1c0.8,0,1.4,0.2,1.8,0.7c0.4,0.5,1.1,2.1,2.3,4.9
			c0.5,1,2.3,5.4,5.4,12.9V47.4c0-0.9-0.2-1.5-0.7-1.8c-0.6-0.4-1-0.7-1-0.9c0-0.3,0.4-0.4,1.2-0.4h5.6c0.8,0,1.2,0.1,1.2,0.4
			c0,0.2-0.3,0.5-1,0.9c-0.5,0.3-0.7,0.9-0.7,1.8v24.9c0,1.4-0.2,1.6-1.5,1.6h-2.1c-0.9,0-1.5-0.2-1.8-0.7c-0.4-0.5-1-1.9-2-4.3
			C181.5,68.3,180.8,66.4,179.4,63.2z"/>
		<path d="M205.2,70.8c0,0.9,0.2,1.5,0.7,1.8c0.6,0.4,1,0.7,1,0.9c0,0.3-0.4,0.4-1.2,0.4h-6.8c-0.8,0-1.2-0.1-1.2-0.4
			c0-0.2,0.3-0.5,1-0.9c0.5-0.3,0.7-0.9,0.7-1.8V49.4c0-0.6-0.3-0.9-1-0.9h0c-0.8,0-1.4,0-1.7,0.1c-0.3,0-0.6,0.2-1,0.6
			c-0.4,0.3-0.8,1-1.3,1.8c-0.6,1-0.9,1.6-1,1.8c-0.1,0.2-0.3,0.2-0.5,0.2c-0.2,0-0.3-0.7-0.1-1.9c0.1-0.5,0.2-1.3,0.3-2.2
			s0.2-1.8,0.3-2.6c0.1-0.7,0.1-1.2,0.2-1.6c0.1-0.3,0.1-0.6,0.4-0.6c0.3-0.1,0.3,0,0.7,0c1.9,0.2,3.2,0.3,3.9,0.3h7.6
			c0.6,0,1.9-0.1,3.9-0.3c0.8,0,0.8,0,1.1,0.7c0.1,0.6,0.2,2.2,0.5,4.1c0.1,1,0.2,1.7,0.3,2.2c0.1,1.3,0.1,1.9-0.1,1.9
			s-0.4,0-0.5-0.2s-0.5-0.8-1-1.8c-0.5-1.1-1.1-1.6-1.4-2c-0.1-0.2-0.4-0.3-0.7-0.4c-0.4-0.1-0.6-0.1-0.7-0.1h-1.1h0
			c-0.7,0-1,0.3-1,0.9V70.8z"/>
		<path d="M227.3,60.6c0,1.1-0.1,1.7-0.4,1.7c-0.2,0-0.4-0.2-0.8-0.7c-0.2-0.3-0.6-0.5-1.1-0.5h-2.9c-0.6,0-0.9,0.2-0.9,0.7v7
			c0,0.8,0.3,0.9,0.9,0.9h2.8c0.6,0,1.1,0,1.4,0c0.3,0,0.6-0.1,1.1-0.2c0.9-0.3,1.5-0.9,2.4-2.1c0.7-0.9,1.1-1.4,1.3-1.6
			c0.2-0.2,0.3-0.2,0.5-0.1c0.2,0,0.2,0.7-0.1,1.9l-1.7,6.1c-0.2,0.7-0.6,0.7-1.2,0.5c-1.1-0.2-2.5-0.3-4-0.3h-9.8
			c-0.8,0-1.2-0.1-1.2-0.4c0-0.2,0.3-0.5,1-0.9c0.5-0.3,0.7-0.9,0.7-1.8V47.9c0-1.2-0.2-2-0.7-2.3c-0.6-0.4-1-0.7-1-0.9
			c0-0.3,0.4-0.4,1.2-0.4h10.7c1.4,0,2.4-0.1,3-0.3c0.8-0.3,0.8,0.2,1.1,0.9c0.1,0.3,0.3,1.2,0.6,2.8c0.3,1.6,0.5,2.5,0.6,2.8
			c0.3,1,0.4,1.5,0.1,1.6c-0.2,0-0.3,0-0.4-0.1c-0.1-0.1-0.5-0.6-1.2-1.4c-1-1.4-2.2-1.9-2.8-2c-0.3,0-0.9,0-1.8,0h-2.8
			c-0.4,0-0.9,0-0.9,0.9V56c0,0.8,0.3,0.9,0.9,0.9h2.9c0.5,0,0.9-0.1,1.1-0.5c0.3-0.5,0.5-0.7,0.8-0.7c0.3,0,0.4,0.6,0.4,1.6V60.6z"
			/>
		<path d="M234.9,73.9c-0.8,0-1.2-0.1-1.2-0.4c0-0.2,0.3-0.5,1-0.9c0.5-0.3,0.7-0.9,0.7-1.8V47.9c0-1.2-0.2-2-0.7-2.3
			c-0.6-0.4-1-0.7-1-0.9c0-0.3,0.4-0.4,1.2-0.4h8.1c5.7,0,9.2,3.1,9.2,9.1c0,3.7-1.6,6.5-4.8,8.4l3.7,9.1c0.5,0.9,1,1.5,1.6,1.8
			c0.5,0.3,0.8,0.6,0.9,0.9c0.1,0.4-0.2,0.4-1.1,0.4h-4.7c-0.6,0-1-0.2-1.3-0.5c-0.3-0.3-0.7-1.2-1.2-2.6l-2.4-6.1
			c-0.4-1-0.7-1.5-1-1.5h-0.1c-0.4,0-0.6,0.2-0.7,0.7v7c0,0.9,0.2,1.5,0.7,1.8c0.6,0.4,1,0.7,1,0.9c0,0.3-0.4,0.4-1.2,0.4H234.9z
			 M241.1,58c0,0.8,0.3,0.9,0.9,0.9h0.4c1.1,0,2.1-0.6,2.8-1.8c0.7-1.2,1.1-2.6,1.1-4.2c0-3.1-1.2-4.6-3.5-4.6h-0.8
			c-0.4,0-0.9,0-0.9,0.9V58z"/>
	</g>
</g>
</svg>
