<?xml version="1.0" encoding="utf-8"?>
<!-- Generator: Adobe Illustrator 25.1.0, SVG Export Plug-In . SVG Version: 6.00 Build 0)  -->
<svg version="1.1" id="Layer_1" xmlns="http://www.w3.org/2000/svg" xmlns:xlink="http://www.w3.org/1999/xlink" x="0px" y="0px"
	 viewBox="0 0 265 157.7" style="enable-background:new 0 0 265 157.7;" xml:space="preserve">
<g>
	<g>
		<path d="M57.2,105.6c0.1,1.5,0.4,2.8,1,3.7c1.2,1.8,3.2,2.7,6.1,2.7c1.3,0,2.5-0.2,3.6-0.6c2.1-0.8,3.1-2.1,3.1-4.1
			c0-1.5-0.4-2.5-1.3-3.1c-0.9-0.6-2.3-1.1-4.2-1.6l-3.5-0.8c-2.3-0.5-3.9-1.1-4.9-1.8c-1.7-1.1-2.5-2.8-2.5-5
			c0-2.4,0.8-4.4,2.4-5.9s3.9-2.3,6.9-2.3c2.7,0,5.1,0.7,7,2c1.9,1.4,2.9,3.5,2.9,6.5h-3.4c-0.2-1.4-0.5-2.5-1.1-3.3
			c-1.1-1.4-2.9-2.1-5.4-2.1c-2.1,0-3.5,0.5-4.4,1.4c-0.9,0.9-1.3,1.9-1.3,3.1c0,1.3,0.5,2.3,1.6,2.9c0.7,0.4,2.3,0.9,4.7,1.5
			l3.6,0.9c1.8,0.4,3.1,1,4.1,1.7c1.7,1.3,2.5,3.1,2.5,5.5c0,3-1.1,5.1-3.2,6.4S67,115,64.2,115c-3.3,0-5.8-0.9-7.6-2.6
			c-1.8-1.7-2.7-4-2.7-6.9H57.2z"/>
		<path d="M79.3,87.4h3.2V103l8.4-8.3h4.2l-7.5,7.3l7.9,12.3h-4.2l-6.2-10l-2.7,2.6v7.3h-3.2V87.4z"/>
		<path d="M110.2,95.2c1.3,0.7,2.3,1.5,3,2.5c0.7,1,1.1,2.1,1.3,3.5c0.2,0.9,0.3,2.3,0.3,4.3h-14.2c0.1,2,0.5,3.6,1.4,4.8
			c0.9,1.2,2.2,1.8,4,1.8c1.7,0,3.1-0.6,4.1-1.7c0.6-0.7,1-1.4,1.2-2.3h3.2c-0.1,0.7-0.4,1.5-0.8,2.4c-0.5,0.9-1,1.6-1.6,2.2
			c-1,1-2.2,1.6-3.7,2c-0.8,0.2-1.7,0.3-2.7,0.3c-2.4,0-4.5-0.9-6.2-2.7c-1.7-1.8-2.5-4.3-2.5-7.4c0-3.1,0.8-5.7,2.5-7.7
			c1.7-2,3.9-2.9,6.6-2.9C107.5,94.2,108.9,94.5,110.2,95.2z M111.3,102.9c-0.1-1.4-0.4-2.6-0.9-3.4c-0.9-1.6-2.4-2.4-4.5-2.4
			c-1.5,0-2.8,0.5-3.8,1.6c-1,1.1-1.6,2.5-1.6,4.2H111.3z"/>
		<path d="M119.5,89.2h3.3v5.5h3.1v2.7h-3.1v12.8c0,0.7,0.2,1.1,0.7,1.4c0.3,0.1,0.7,0.2,1.3,0.2c0.2,0,0.3,0,0.5,0s0.4,0,0.6-0.1
			v2.6c-0.4,0.1-0.8,0.2-1.2,0.2s-0.8,0.1-1.3,0.1c-1.5,0-2.6-0.4-3.1-1.2s-0.8-1.8-0.8-3.1V97.3h-2.6v-2.7h2.6V89.2z"/>
		<path d="M142.2,95.7c1.4,1.1,2.2,2.9,2.5,5.5h-3.2c-0.2-1.2-0.6-2.2-1.3-3c-0.7-0.8-1.8-1.2-3.3-1.2c-2.1,0-3.6,1-4.5,3.1
			c-0.6,1.3-0.9,3-0.9,4.9c0,2,0.4,3.6,1.2,4.9c0.8,1.3,2.1,2,3.9,2c1.4,0,2.4-0.4,3.2-1.2c0.8-0.8,1.3-2,1.7-3.4h3.2
			c-0.4,2.6-1.3,4.5-2.7,5.7c-1.5,1.2-3.3,1.8-5.6,1.8c-2.6,0-4.6-0.9-6.1-2.8c-1.5-1.9-2.3-4.2-2.3-7c0-3.4,0.8-6.1,2.5-8
			s3.8-2.9,6.4-2.9C139,94.1,140.8,94.6,142.2,95.7z"/>
		<path d="M148,87.3h3.3v10c0.8-1,1.5-1.7,2.1-2.1c1.1-0.7,2.4-1,4-1c2.8,0,4.8,1,5.8,3c0.5,1.1,0.8,2.6,0.8,4.5v12.5h-3.4v-12.3
			c0-1.4-0.2-2.5-0.5-3.2c-0.6-1.1-1.7-1.6-3.4-1.6c-1.4,0-2.6,0.5-3.7,1.4c-1.1,0.9-1.7,2.7-1.7,5.3v10.4H148V87.3z"/>
		<path d="M168.8,87.4h3.3v3.7h-3.3V87.4z M168.8,94.7h3.3v19.5h-3.3V94.7z"/>
		<path d="M177.1,94.7h3.1v2.8c0.9-1.1,1.9-2,2.9-2.5c1-0.5,2.2-0.7,3.5-0.7c2.8,0,4.6,1,5.6,2.9c0.5,1.1,0.8,2.6,0.8,4.5v12.5h-3.3
			v-12.3c0-1.2-0.2-2.2-0.5-2.9c-0.6-1.2-1.6-1.8-3.2-1.8c-0.8,0-1.4,0.1-1.9,0.2c-0.9,0.3-1.7,0.8-2.4,1.6c-0.5,0.6-0.9,1.3-1.1,2
			c-0.2,0.7-0.2,1.7-0.2,2.9v10.2h-3.3V94.7z"/>
		<path d="M208.7,95.4c0.6,0.4,1.2,1,1.9,1.9v-2.5h3v17.8c0,2.5-0.4,4.4-1.1,5.9c-1.4,2.7-3.9,4-7.7,4c-2.1,0-3.9-0.5-5.3-1.4
			c-1.4-0.9-2.2-2.4-2.4-4.4h3.3c0.2,0.9,0.5,1.6,0.9,2c0.7,0.7,1.9,1.1,3.5,1.1c2.5,0,4.1-0.9,4.9-2.7c0.5-1,0.7-2.9,0.6-5.6
			c-0.7,1-1.4,1.7-2.4,2.2c-0.9,0.5-2.1,0.7-3.7,0.7c-2.1,0-4-0.8-5.5-2.3c-1.6-1.5-2.4-4-2.4-7.5c0-3.3,0.8-5.8,2.4-7.7
			s3.5-2.8,5.8-2.8C206.3,94.3,207.6,94.7,208.7,95.4z M209.1,99c-1-1.2-2.3-1.8-3.8-1.8c-2.3,0-3.9,1.1-4.7,3.3
			c-0.4,1.2-0.7,2.7-0.7,4.5c0,2.2,0.4,3.9,1.3,5c0.9,1.2,2.1,1.7,3.6,1.7c2.3,0,4-1.1,5-3.2c0.5-1.2,0.8-2.6,0.8-4.2
			C210.6,101.9,210.1,100.1,209.1,99z"/>
		<path d="M67.5,122.4h3.7v11.1h13.8v-11.1h3.7v26.8h-3.7v-12.5H71.1v12.5h-3.7V122.4z"/>
		<path d="M93.9,122.4h3.3v3.7h-3.3V122.4z M93.9,129.8h3.3v19.5h-3.3V129.8z"/>
		<path d="M104.2,143.1c0.1,1.1,0.4,1.9,0.8,2.5c0.8,1.1,2.3,1.6,4.4,1.6c1.2,0,2.3-0.3,3.3-0.8c0.9-0.5,1.4-1.3,1.4-2.5
			c0-0.8-0.4-1.5-1.1-1.9c-0.5-0.3-1.4-0.6-2.9-0.9l-2.7-0.7c-1.7-0.4-2.9-0.9-3.7-1.4c-1.4-0.9-2.2-2.1-2.2-3.7
			c0-1.9,0.7-3.3,2-4.5c1.4-1.1,3.2-1.7,5.5-1.7c3,0,5.1,0.9,6.5,2.6c0.8,1.1,1.2,2.3,1.2,3.5h-3.1c-0.1-0.7-0.3-1.4-0.8-2
			c-0.8-0.9-2.1-1.3-4-1.3c-1.3,0-2.2,0.2-2.9,0.7c-0.7,0.5-1,1.1-1,1.9c0,0.8,0.4,1.5,1.3,2c0.5,0.3,1.2,0.6,2.2,0.8l2.2,0.5
			c2.4,0.6,4,1.1,4.8,1.7c1.3,0.8,1.9,2.2,1.9,4c0,1.7-0.7,3.2-2,4.5c-1.3,1.3-3.4,1.9-6.1,1.9c-2.9,0-5-0.7-6.3-2
			c-1.2-1.3-1.9-3-2-4.9H104.2z"/>
		<path d="M132.1,122.4h18.6v3.3h-15v8.1h13.2v3.2h-13.2v12.2h-3.6V122.4z"/>
		<path d="M164.7,137.4c0.8-0.1,1.3-0.4,1.5-0.9c0.1-0.3,0.2-0.7,0.2-1.3c0-1.1-0.4-1.9-1.2-2.4c-0.8-0.5-1.9-0.8-3.4-0.8
			c-1.7,0-2.9,0.5-3.6,1.4c-0.4,0.5-0.7,1.3-0.8,2.3h-3.1c0.1-2.4,0.8-4.1,2.3-5c1.5-0.9,3.2-1.4,5.2-1.4c2.3,0,4.2,0.4,5.6,1.3
			c1.4,0.9,2.1,2.2,2.1,4.1v11.3c0,0.3,0.1,0.6,0.2,0.8c0.1,0.2,0.4,0.3,0.9,0.3c0.1,0,0.3,0,0.5,0c0.2,0,0.4,0,0.6-0.1v2.4
			c-0.5,0.1-0.9,0.2-1.2,0.3c-0.3,0-0.6,0.1-1.1,0.1c-1.1,0-2-0.4-2.5-1.2c-0.3-0.4-0.5-1-0.6-1.8c-0.7,0.9-1.6,1.6-2.9,2.3
			s-2.6,1-4.1,1c-1.8,0-3.3-0.6-4.4-1.7c-1.2-1.1-1.7-2.5-1.7-4.1c0-1.8,0.6-3.2,1.7-4.2c1.1-1,2.6-1.6,4.5-1.8L164.7,137.4z
			 M157.7,146.3c0.7,0.5,1.5,0.8,2.5,0.8c1.2,0,2.3-0.3,3.4-0.8c1.8-0.9,2.7-2.3,2.7-4.4v-2.6c-0.4,0.3-0.9,0.5-1.5,0.6
			s-1.3,0.3-1.9,0.4l-2,0.3c-1.2,0.2-2.1,0.4-2.7,0.7c-1,0.6-1.5,1.5-1.5,2.7C156.7,145,157,145.7,157.7,146.3z"/>
		<path d="M175.6,124.2h3.3v5.5h3.1v2.7H179v12.8c0,0.7,0.2,1.1,0.7,1.4c0.3,0.1,0.7,0.2,1.3,0.2c0.2,0,0.3,0,0.5,0s0.4,0,0.6-0.1
			v2.6c-0.4,0.1-0.8,0.2-1.2,0.2s-0.8,0.1-1.3,0.1c-1.5,0-2.6-0.4-3.1-1.2c-0.5-0.8-0.8-1.8-0.8-3.1v-12.9H173v-2.7h2.6V124.2z"/>
		<path d="M197.4,130.2c1.3,0.7,2.3,1.5,3,2.5c0.7,1,1.1,2.1,1.3,3.5c0.2,0.9,0.3,2.3,0.3,4.3h-14.2c0.1,2,0.5,3.6,1.4,4.8
			c0.9,1.2,2.2,1.8,4,1.8c1.7,0,3.1-0.6,4.1-1.7c0.6-0.7,1-1.4,1.2-2.3h3.2c-0.1,0.7-0.4,1.5-0.8,2.4s-1,1.6-1.6,2.2
			c-1,1-2.2,1.6-3.7,2c-0.8,0.2-1.7,0.3-2.7,0.3c-2.4,0-4.5-0.9-6.2-2.7c-1.7-1.8-2.5-4.3-2.5-7.4c0-3.1,0.8-5.7,2.5-7.7
			c1.7-2,3.9-2.9,6.6-2.9C194.8,129.2,196.2,129.6,197.4,130.2z M198.6,137.9c-0.1-1.4-0.4-2.6-0.9-3.4c-0.9-1.6-2.4-2.4-4.5-2.4
			c-1.5,0-2.8,0.5-3.8,1.6c-1,1.1-1.6,2.5-1.6,4.2H198.6z"/>
	</g>
</g>
<g>
	<g>
		<path d="M106.9,35.6V10H96.3V5.5h25.6V10h-10.5v25.6H106.9z M109.9,34.1V8.5h10.5V7H97.8v1.5h10.5v25.6H109.9z"/>
		<path d="M124.9,35.6V5.5h4.5v10.5h1.5v-1.5h1.5v-1.5h6v1.5h3v1.5h1.5v3h1.5v16.5h-4.5V19.1h-1.5v-1.5h-6v1.5h-1.5v1.5h-1.5v15
			H124.9z M127.9,34.1v-15h1.5v-1.5h-1.5V7h-1.5v27.1H127.9z M132.4,17.6v-1.5h-1.5v1.5H132.4z M136.9,14.6h-3v1.5h3V14.6z
			 M142.9,34.1V20.6h-1.5v13.5H142.9z"/>
		<path d="M154.7,35.6v-1.5h-3v-1.5h-1.5v-3h-1.5V19.1h1.5v-3h1.5v-1.5h3v-1.5h6v1.5h3v1.5h1.5v3h1.5v6h-13.5v4.5h1.5v1.5h6v-1.5
			h1.5v-1.5h4.5v3h-1.5v1.5h-1.5v1.5h-3v1.5H154.7z M151.7,28.1v-7.5h-1.5v7.5H151.7z M162.2,22.1v-3h-1.5v-1.5h-6v1.5h-1.5v3H162.2
			z M159.2,14.6h-3v1.5h3V14.6z M159.2,34.1v-1.5h-3v1.5H159.2z M165.2,23.6v-3h-1.5v3H165.2z"/>
		<path d="M40,73.6v-1.5h-4.5v-1.5H34v-1.5h-1.5v-1.5H31v-3h-1.5v-12H31v-3h1.5V48H34v-1.5h1.5V45H40v-1.5h7.5V45h4.5v1.5h1.5v3h1.5
			v1.5h1.5v1.5h-6v-1.5h-1.5v-1.5h-3V48h-4.5v1.5h-3v1.5H37v1.5h-1.5v3H34v6h1.5v3H37v1.5h1.5v1.5h3v1.5H46v-1.5h3v-1.5h1.5v-1.5h6
			v1.5h-1.5v1.5h-1.5v3h-1.5v1.5h-4.5v1.5H40z M40,69.1h-3v-1.5h-1.5v-1.5H34v-3h-1.5v-9H31v9h1.5v3H34v1.5h1.5v1.5H37v1.5h3V69.1z
			 M34,54.1v-3h-1.5v3H34z M35.5,51.1v-1.5H34v1.5H35.5z M37,49.6V48h-1.5v1.5H37z M40,48v-1.5h-3V48H40z M46,45h-4.5v1.5H46V45z
			 M46,72.1v-1.5h-4.5v1.5H46z M47.5,48h3v1.5h1.5V48h-1.5v-1.5h-3V48z M50.6,70.6v-1.5h-3v1.5H50.6z M52.1,69.1v-1.5h-1.5v1.5H52.1
			z"/>
		<path d="M59.8,73.6V43.5h4.5v10.5h1.5v-1.5h1.5v-1.5h6v1.5h3v1.5h1.5v3h1.5v16.5h-4.5V57.1h-1.5v-1.5h-6v1.5h-1.5v1.5h-1.5v15
			H59.8z M62.8,72.1v-15h1.5v-1.5h-1.5V45h-1.5v27.1H62.8z M67.3,55.6v-1.5h-1.5v1.5H67.3z M71.8,52.6h-3v1.5h3V52.6z M77.9,72.1
			V58.6h-1.5v13.5H77.9z"/>
		<path d="M89.6,73.6v-1.5h-3v-1.5h-1.5v-3h-1.5V57.1h1.5v-3h1.5v-1.5h3v-1.5h6v1.5h1.5v1.5h1.5v-3h4.5v22.6h-4.5v-3h-1.5v1.5h-1.5
			v1.5H89.6z M85.1,58.6v7.5h1.5v-7.5H85.1z M95.6,69.1v-1.5h1.5v-1.5h1.5v-7.5h-1.5v-1.5h-1.5v-1.5h-6v1.5h-1.5v10.5h1.5v1.5H95.6z
			 M94.1,54.1v-1.5h-3v1.5H94.1z M94.1,72.1v-1.5h-3v1.5H94.1z M100.1,69.1v3h1.5V52.6h-1.5v3h-1.5v1.5h1.5v10.5h-1.5v1.5H100.1z"/>
		<path d="M108,73.6V51.1h4.5v3h1.5v-1.5h1.5v-1.5h4.5v1.5h1.5v1.5h3v-1.5h1.5v-1.5h6v1.5h1.5v1.5h1.5v3h1.5v16.5h-4.5V57.1h-1.5
			v-1.5h-4.5v1.5h-1.5v16.5h-4.5V57.1h-1.5v-1.5h-3v1.5h-1.5v1.5h-1.5v15H108z M111,72.1v-15h1.5v-1.5H111v-3h-1.5v19.6H111z
			 M118.6,52.6h-1.5v1.5h1.5V52.6z M121.6,72.1h1.5V55.6h-1.5V72.1z M130.6,52.6h-3v1.5h3V52.6z M135.1,72.1V58.6h-1.5v13.5H135.1z"
			/>
		<path d="M146.9,73.6v-1.5h-3v-1.5h-1.5v-3h-1.5V57.1h1.5v-3h1.5v-1.5h3v-1.5h6v1.5h3v1.5h1.5v3h1.5v6h-13.5v4.5h1.5v1.5h6v-1.5
			h1.5v-1.5h4.5v3h-1.5v1.5h-1.5v1.5h-3v1.5H146.9z M143.9,66.1v-7.5h-1.5v7.5H143.9z M154.4,60.1v-3h-1.5v-1.5h-6v1.5h-1.5v3H154.4
			z M151.4,52.6h-3v1.5h3V52.6z M151.4,72.1v-1.5h-3v1.5H151.4z M157.4,61.6v-3h-1.5v3H157.4z"/>
		<path d="M163.5,73.6V43.5h4.5v30.1H163.5z M166.6,72.1V45H165v27.1H166.6z"/>
		<path d="M178.8,73.6v-1.5h-3v-1.5h-1.5v-3h-1.5V57.1h1.5v-3h1.5v-1.5h3v-1.5h6v1.5h3v1.5h1.5v3h1.5v6h-13.5v4.5h1.5v1.5h6v-1.5
			h1.5v-1.5h4.5v3h-1.5v1.5h-1.5v1.5h-3v1.5H178.8z M175.8,66.1v-7.5h-1.5v7.5H175.8z M186.3,60.1v-3h-1.5v-1.5h-6v1.5h-1.5v3H186.3
			z M183.3,52.6h-3v1.5h3V52.6z M183.3,72.1v-1.5h-3v1.5H183.3z M189.3,61.6v-3h-1.5v3H189.3z"/>
		<path d="M200.8,73.6v-1.5h-3v-1.5h-1.5v-3h-1.5V57.1h1.5v-3h1.5v-1.5h3v-1.5h6v1.5h3v1.5h1.5v3h1.5v10.5h-1.5v3h-1.5v1.5h-3v1.5
			H200.8z M196.3,58.6v7.5h1.5v-7.5H196.3z M206.8,69.1v-1.5h1.5V57.1h-1.5v-1.5h-6v1.5h-1.5v10.5h1.5v1.5H206.8z M205.3,54.1v-1.5
			h-3v1.5H205.3z M205.3,72.1v-1.5h-3v1.5H205.3z M211.3,66.1v-7.5h-1.5v7.5H211.3z"/>
		<path d="M217.3,73.6V51.1h4.5v3h1.5v-1.5h1.5v-1.5h4.5v1.5h3v1.5h1.5v3h1.5v16.5h-4.5V57.1h-1.5v-1.5h-4.5v1.5h-1.5v1.5h-1.5v15
			H217.3z M220.3,72.1v-15h1.5v-1.5h-1.5v-3h-1.5v19.6H220.3z M227.8,52.6h-1.5v1.5h1.5V52.6z M233.8,72.1V58.6h-1.5v13.5H233.8z"/>
	</g>
</g>
</svg>
