<?xml version="1.0" encoding="utf-8"?>
<!-- Generator: Adobe Illustrator 26.4.1, SVG Export Plug-In . SVG Version: 6.00 Build 0)  -->
<svg version="1.1" id="Layer_1" xmlns="http://www.w3.org/2000/svg" xmlns:xlink="http://www.w3.org/1999/xlink" x="0px" y="0px"
	 viewBox="0 0 265 182" style="enable-background:new 0 0 265 182;" xml:space="preserve">
<g>
	<g>
		<path d="M37.2,58.3c0.1,2.2,0.1,4.3,0.1,6.5c0,0.1,0,0.3,0,0.4s-0.1,0.1-0.2,0.2c0,0,0,0-0.1,0c-0.7,0-1.3,0.1-1.9,0.1
			c-0.1,0-0.3,0-0.4,0c-0.4,0-0.8,0-1.2,0c-0.2,0-0.3-0.1-0.3-0.3c0-0.1-0.1-0.3-0.1-0.4c0-0.2,0-0.5,0-0.8
			c-0.1-2.3-0.1-5.2-0.2-7.5c0-1.2-0.1-2.4-0.1-3.5c0,0,0,0,0-0.1c-0.1-2.4-0.1-4.8-0.2-7.2c0-0.6-0.1-1.2-0.1-1.8
			c0,0,0-0.1-0.1-0.1h-0.1c-0.1,0.2-0.3,0.5-0.4,0.7C29,50.1,27,58.9,26.8,64.8c0,0.2-0.1,0.3-0.2,0.5c0,0.2-0.2,0.2-0.4,0.2
			c-0.4,0-0.7,0-1.1,0c-0.3,0-0.6,0-0.9-0.1h-0.1c-0.1,0-0.2,0-0.2,0c-0.3,0-0.5,0-0.8,0s-0.4-0.1-0.4-0.5c0-1.4-0.1-2.7-0.2-4
			c0-0.5-0.1-1-0.2-1.5c-0.2-1.6-0.3-3.1-0.5-4.7c-0.1-1.3-0.2-2.6-0.4-4c-0.2-1.5-0.3-3-0.5-4.5c-0.1-1.1-0.4-2.7-0.5-3.8
			c0-0.2,0-0.3-0.1-0.5c0,0-0.1-0.1-0.1-0.2l-0.1,0.1c-0.1,0.2-0.2,0.3-0.3,0.5c-0.5,1-0.8,2.6-1.1,3.6c-1,3.7-1.5,7.5-1.6,11.3
			c0,2.4,0,4.7,0,7.1c0,0.2,0,0.4,0,0.6s-0.1,0.3-0.4,0.4c-0.9,0-1.9,0.1-2.8,0.1c-0.2,0-0.5,0.1-0.7,0.1c-0.1,0-0.3-0.1-0.3-0.2
			s0-0.3-0.1-0.4c0-0.2,0-0.5,0-0.8c0-1.2-0.1-2.5-0.1-3.8c0-5.6,0.8-15.5,3.3-20c0.6-1.2,1.4-2.1,2.3-3c0.4-0.3,0.9-0.4,1.4-0.4
			c1.2,0,2.3-0.1,3.4-0.2c0.1,0,0.2,0,0.3,0c0.5,0,0.7,0.2,0.7,0.6c0.2,1.7,0.5,3.4,0.6,5.1c0.2,1.7,0.5,4,0.7,5.7
			c0,0.1,0,0.1,0,0.2c0,0,0,0,0.1,0c0,0,0,0,0.1,0c0.1-0.2,0.1-0.4,0.2-0.6c1.2-3.4,3.8-9.8,7.7-10.8c0.1,0,0.2-0.1,0.3,0
			c0.1,0,0.1,0,0.2,0c0.7,0,1.3-0.2,1.9-0.2c0,0,0.1,0,0.2,0c0.2,0,0.5,0.2,0.5,0.5c0,1,0.1,2,0.1,3.1c0.1,1.5,0.1,3,0.1,4.5
			c0,1.2,0,2.4,0.1,3.5c0,0.8,0.1,1.6,0.1,2.4C37.1,53.4,37.2,55.8,37.2,58.3z"/>
		<path d="M56.7,64.1c0,0.1,0,0.2,0,0.2c0,0.8,0,0.8-0.8,0.9s-1.6,0.2-2.4,0.2c-0.2,0-0.4,0.1-0.6,0.1c-0.2,0-0.3-0.1-0.3-0.2
			s-0.1-0.3-0.1-0.5c-0.1-0.9-0.1-1.7-0.2-2.6c0-0.3,0-0.5-0.1-0.8c0-0.2-0.1-0.2-0.3-0.2c-0.9,0.2-1.8,0.1-2.6,0.2
			c-0.7,0.1-1.4,0.1-2,0.2c-0.2,0-0.3,0-0.5,0c-0.3,0-0.4,0.1-0.4,0.4c-0.1,0.4-0.1,0.7-0.2,1.1c-0.2,0.7-0.3,1.5-0.4,2.2
			c0,0.2-0.1,0.4-0.2,0.5c0,0.2-0.2,0.2-0.3,0.2c-0.9-0.2-1.7-0.2-2.6-0.4c-0.2-0.1-0.4-0.1-0.6-0.1c-0.5-0.1-0.6-0.2-0.6-0.7
			c0-0.4,0.1-0.7,0.2-1.1c0.6-3.6,1.2-7.3,1.9-10.8c0.3-1.8,0.6-3.5,0.9-5.3c0.3-1.7,0.6-3.5,0.9-5.2c0.2-0.9,0.3-1.8,0.5-2.7
			c0-0.3,0.1-0.6,0.3-0.9c0-0.1,0.1-0.2,0.1-0.2c0-0.6,0.4-0.5,0.7-0.6c0.1,0,0.2,0,0.3,0s0.2,0,0.2,0c0.2,0.1,0.3,0.1,0.5,0.1
			s0.4,0,0.5,0s0.2,0,0.4,0c1.7-0.2,3.4-0.2,5.2-0.2c0.2,0,0.3,0,0.5,0c0.1,0,0.2,0.1,0.2,0.2c0,0.1,0.1,0.2,0.1,0.3
			c0.1,1.4,0.2,2.8,0.3,4.2c0.2,2.6,0.5,5.3,0.6,8c0.2,1.9,0.3,3.9,0.4,5.8c0.2,1.6,0.3,3.3,0.4,4.9C56.6,62.2,56.6,63.2,56.7,64.1z
			 M47.7,57.2c1.3,0,2.6-0.2,4-0.3c0.1,0,0.2-0.1,0.2-0.2c-0.2-2.6-0.5-5.3-0.6-7.9c-0.1-1.1-0.2-2.2-0.2-3.3
			c-0.1-1-0.1-2.1-0.2-3.1c0-0.3-0.1-0.6-0.1-0.9c0,0,0-0.1-0.1-0.2c-0.1,0-0.2,0-0.2,0c-0.2,0-0.5,0.2-0.5,0.4
			c-0.6,3.8-1.3,7.5-2,11.2c-0.2,1.2-0.4,2.5-0.6,3.8C47.3,57.2,47.3,57.3,47.7,57.2C47.5,57.2,47.6,57.2,47.7,57.2
			S47.8,57.2,47.7,57.2z"/>
		<path d="M61.1,40.8c0-0.2,0-0.5-0.2-0.7c-0.1-0.1-0.1-0.2-0.1-0.3c0-0.6,0-1.2,0-1.8c0-0.1,0-0.1,0-0.2c0-0.1,0.1-0.2,0.2-0.2
			c0,0,0.1,0,0.2,0c0.5,0,0.5,0,0.5-0.5c0-0.2,0-0.3,0.3-0.3c0.2,0,0.5,0,0.7,0c1,0,2.1,0,3.1,0c0.5,0,1,0,1.5,0
			c1.5,0.1,3.1,0.1,4.6,0.1c0.1,0,0.2,0,0.3,0c0.2,0,0.4,0,0.5-0.1c0.5,0.1,1,0,1.4,0.5c0.4,0.4,0.8,0.8,1.2,1.2
			c0.2,0.1,0.2,0.3,0.3,0.5c0.2,1,0.2,2.1,0.1,3.1c-0.3,3.7-1.4,7.8-4.7,10c-0.1,0-0.2,0.1-0.2,0.2c-0.2,0.1-0.2,0.2-0.1,0.3
			c0.4,0.9,0.7,1.8,1.1,2.6c1,2.5,2,4.9,3,7.4c0.2,0.3,0.3,0.7,0.4,1.1c0,0.1,0.1,0.2,0.1,0.3c0,0.2,0,0.3-0.2,0.4
			c-0.7,0.3-1.4,0.7-2.2,0.9c-0.4,0.1-0.7,0.3-1.1,0.5c-0.1,0-0.2,0-0.3-0.1c-0.1-0.2-0.2-0.4-0.3-0.6c-0.4-0.9-0.8-1.8-1.2-2.8
			c-1.1-2.6-2.2-5.3-3.3-8c0-0.1-0.1-0.2-0.2-0.3c0-0.1-0.1-0.1-0.2-0.1c0,0-0.1,0-0.2,0s-0.2,0-0.3,0c-0.9,0.1-0.7,0-0.7,0.8
			c0,2.6,0,6.4,0,9c0,0.4,0,0.8,0,1.2c0,0.3-0.1,0.4-0.4,0.4c-0.9,0-1.8,0-2.7,0c-0.2,0-0.5,0-0.8,0c-0.2,0-0.3-0.1-0.3-0.2
			c0-0.2-0.1-0.4-0.1-0.6c0-1.1,0-3.3,0-4.4c0-2.7,0-5.3,0-8C61.1,48.3,61.1,44.6,61.1,40.8z M68.4,41.1c-0.8,0-1.6,0-2.4,0
			c-0.2,0-0.3,0-0.5,0c-0.1,0-0.2,0.1-0.2,0.2c0,0.1,0,0.2,0,0.3c0,2.5,0,5,0,7.5c0,0.1,0,0.2,0,0.3s0.1,0.2,0.2,0.2
			c0.2,0,0.3,0,0.4,0c0.5-0.2,1.1-0.2,1.6-0.5c3.3-1.4,3.7-4.5,4-7.7c0-0.3,0-0.4-0.3-0.4C70.3,41.1,69.4,41.1,68.4,41.1z"/>
		<path d="M84.7,42.1c0-0.9,0.1-0.8-0.8-0.8c-1,0-2,0-3.1-0.1c-0.2,0-0.3,0-0.4-0.1c-0.2-0.1-0.3-0.2-0.3-0.4s0-0.4-0.1-0.6
			c0-0.2,0-0.3,0-0.5c0.1-0.6,0-1.2,0-1.9c0-0.1,0-0.2,0-0.3c0-0.4,0-0.5,0.5-0.5c0.2,0,0.5,0,0.7,0c0.9,0,1.7,0,2.6,0
			c0.4,0,0.9,0,1.3,0c2.7,0.1,5.4,0,8,0.1c0.2,0,0.3,0,0.5,0c0.7,0.1,0.7,0.1,0.7,0.7c0,1.1,0,2.1,0,3.1c0,0.2,0,0.4-0.3,0.4
			c-0.2,0-0.5,0-0.7,0c-1.1,0-2.2,0-3.3,0c-0.2,0-0.3,0-0.5,0c-0.5,0-0.5,0-0.5,0.5c0,2.2,0,4.4-0.1,6.6c0,4.4,0,9.7,0,14.2
			c0,0.7,0,1.4-0.1,2.1c0,0.2,0,0.3,0,0.5c0,0.1-0.1,0.2-0.2,0.2c-0.7,0-1.4,0.1-2.1,0.1c-0.2,0-0.5,0-0.8,0c0,0-0.1,0-0.2,0
			s-0.3,0-0.5,0s-0.3-0.1-0.4-0.3c0-0.2,0-0.3,0-0.5c0-1.8-0.1-4.6,0-6.4c0-0.2,0-0.4,0-0.6c0-1.6,0-3.3,0-5
			C84.7,49.2,84.7,45.7,84.7,42.1z"/>
		<path d="M102.8,56.4c0,1.7,0,3.4-0.1,5.2c0,1.1-0.1,2.1-0.1,3.2c0,0.1,0,0.3,0,0.4c0,0.2-0.1,0.3-0.4,0.3c-0.6,0-1.1,0-1.7,0
			c-0.4,0-0.8,0-1.2-0.1h-0.1c-0.1,0-0.3,0-0.4,0c-0.2,0-0.3-0.1-0.3-0.2c0-0.2,0-0.3,0-0.5c0-3.3,0-6.6,0.2-9.9
			c0-1.6,0-3.2,0.1-4.7c0-0.3,0-0.5,0-0.8c0-2.1,0.1-4.2,0.1-6.4c0-1.7,0-3.4,0.1-5.1c0-0.1,0-0.2,0.1-0.4c0-0.1,0.1-0.2,0.3-0.2
			c0.7-0.1,1.3-0.1,2-0.1c0.2,0,0.3,0,0.5,0c0.3,0,0.7,0,0.9,0c0.3,0,0.4,0,0.4,0.3c0,0.6,0.1,1.3,0.1,1.9c0,1.1-0.1,3-0.1,4
			c0,2-0.1,4-0.1,6.1c0,0.7,0,1.5,0,2.3C102.9,53.3,102.9,54.9,102.8,56.4z"/>
		<path d="M122.5,64.1c0,0.1,0,0.2,0,0.2c0,0.8,0,0.8-0.8,0.9s-1.6,0.2-2.4,0.2c-0.2,0-0.4,0.1-0.6,0.1s-0.3-0.1-0.3-0.2
			s-0.1-0.3-0.1-0.5c-0.1-0.9-0.1-1.7-0.2-2.6c0-0.3,0-0.5-0.1-0.8c0-0.2-0.1-0.2-0.3-0.2c-0.9,0.2-1.8,0.1-2.6,0.2
			c-0.7,0.1-1.4,0.1-2,0.2c-0.2,0-0.3,0-0.5,0c-0.3,0-0.4,0.1-0.4,0.4c-0.1,0.4-0.1,0.7-0.2,1.1c-0.2,0.7-0.3,1.5-0.4,2.2
			c0,0.2-0.1,0.4-0.2,0.5c0,0.2-0.2,0.2-0.3,0.2c-0.9-0.2-1.7-0.2-2.6-0.4c-0.2-0.1-0.4-0.1-0.6-0.1c-0.5-0.1-0.6-0.2-0.6-0.7
			c0-0.4,0.1-0.7,0.2-1.1c0.6-3.6,1.2-7.3,1.9-10.8c0.3-1.8,0.6-3.5,0.9-5.3c0.3-1.7,0.6-3.5,0.9-5.2c0.2-0.9,0.3-1.8,0.5-2.7
			c0-0.3,0.1-0.6,0.3-0.9c0-0.1,0.1-0.2,0.1-0.2c0-0.6,0.4-0.5,0.7-0.6c0.1,0,0.2,0,0.3,0c0.1,0,0.2,0,0.2,0
			c0.2,0.1,0.3,0.1,0.5,0.1s0.4,0,0.5,0s0.2,0,0.4,0c1.7-0.2,3.4-0.2,5.2-0.2c0.2,0,0.3,0,0.5,0c0.1,0,0.2,0.1,0.2,0.2
			c0,0.1,0.1,0.2,0.1,0.3c0.1,1.4,0.2,2.8,0.3,4.2c0.2,2.6,0.5,5.3,0.6,8c0.2,1.9,0.3,3.9,0.4,5.8c0.2,1.6,0.3,3.3,0.4,4.9
			C122.4,62.2,122.4,63.2,122.5,64.1z M113.5,57.2c1.3,0,2.6-0.2,4-0.3c0.1,0,0.2-0.1,0.2-0.2c-0.2-2.6-0.5-5.3-0.6-7.9
			c-0.1-1.1-0.2-2.2-0.2-3.3c-0.1-1-0.1-2.1-0.2-3.1c0-0.3-0.1-0.6-0.1-0.9c0,0,0-0.1-0.1-0.2c-0.1,0-0.2,0-0.2,0
			c-0.2,0-0.5,0.2-0.5,0.4c-0.6,3.8-1.3,7.5-2,11.2c-0.2,1.2-0.4,2.5-0.6,3.8C113.1,57.2,113.1,57.3,113.5,57.2
			C113.3,57.2,113.4,57.2,113.5,57.2S113.6,57.2,113.5,57.2z"/>
		<path d="M131,60.7c0,0.1,0,0.2,0,0.4c0,0,0.1,0.1,0.2,0.2c1.4,0,2.7,0,4,0c1.4,0,2.9,0,4.3,0c0,0,0.1,0,0.2,0
			c0.7,0.1,0.7,0,0.7,0.8c0,1,0,2,0,3c0,0.1,0,0.3,0,0.4s0,0.2-0.1,0.2s-0.2,0.1-0.2,0.1c-0.7,0-1.3,0.1-2,0.1c-2.8,0-5.6,0-8.5,0
			c-0.2,0-0.4,0-0.6,0c-0.2,0-0.4,0-0.5-0.2c-0.2-0.2-0.5-0.3-0.7-0.3c-0.1,0-0.2,0-0.4,0s-0.2,0-0.3,0c-0.2,0-0.3-0.1-0.3-0.2
			c0-0.2-0.1-0.4-0.1-0.5c0-1.1,0-2.2,0.1-3.3c0-0.2,0-0.5,0-0.7c0-2.8,0-5.6,0.1-8.4c0.1-3.7,0.1-7.4,0.1-11.1c0-1,0-2.1,0.1-3.1
			c0-0.1,0-0.2,0-0.3c0-0.4,0.2-0.5,0.5-0.5c0.5-0.1,0.9-0.1,1.4-0.1s1.1,0,1.6,0c0.1,0,0.3,0,0.4,0c0.2,0,0.2,0.1,0.3,0.2
			c0,0.2,0,0.4,0,0.6c-0.1,3.3-0.1,6.6-0.1,9.9c0,0.5,0,1,0,1.5C131.1,53,131,56.9,131,60.7z"/>
		<path d="M169.3,64.1c0,0.1,0,0.2,0,0.2c0,0.8,0,0.8-0.8,0.9s-1.6,0.2-2.4,0.2c-0.2,0-0.4,0.1-0.6,0.1c-0.2,0-0.3-0.1-0.3-0.2
			s-0.1-0.3-0.1-0.5c-0.1-0.9-0.1-1.7-0.2-2.6c0-0.3,0-0.5-0.1-0.8c0-0.2-0.1-0.2-0.3-0.2c-0.9,0.2-1.8,0.1-2.6,0.2
			c-0.7,0.1-1.4,0.1-2,0.2c-0.2,0-0.3,0-0.5,0c-0.3,0-0.4,0.1-0.4,0.4c-0.1,0.4-0.1,0.7-0.2,1.1c-0.2,0.7-0.3,1.5-0.4,2.2
			c0,0.2-0.1,0.4-0.2,0.5S158,66,157.9,66c-0.9-0.2-1.7-0.2-2.6-0.4c-0.2-0.1-0.4-0.1-0.6-0.1c-0.5-0.1-0.6-0.2-0.6-0.7
			c0-0.4,0.1-0.7,0.2-1.1c0.6-3.6,1.2-7.3,1.9-10.8c0.3-1.8,0.6-3.5,0.9-5.3c0.3-1.7,0.6-3.5,0.9-5.2c0.2-0.9,0.3-1.8,0.5-2.7
			c0-0.3,0.1-0.6,0.3-0.9c0-0.1,0.1-0.2,0.1-0.2c0-0.6,0.4-0.5,0.7-0.6c0.1,0,0.2,0,0.3,0s0.2,0,0.2,0c0.2,0.1,0.3,0.1,0.5,0.1
			s0.4,0,0.5,0s0.2,0,0.4,0c1.7-0.2,3.4-0.2,5.2-0.2c0.2,0,0.3,0,0.5,0c0.1,0,0.2,0.1,0.2,0.2c0,0.1,0.1,0.2,0.1,0.3
			c0.1,1.4,0.2,2.8,0.3,4.2c0.2,2.6,0.5,5.3,0.6,8c0.2,1.9,0.3,3.9,0.4,5.8c0.2,1.6,0.3,3.3,0.4,4.9
			C169.2,62.2,169.3,63.2,169.3,64.1z M160.4,57.2c1.3,0,2.6-0.2,4-0.3c0.1,0,0.2-0.1,0.2-0.2c-0.2-2.6-0.5-5.3-0.6-7.9
			c-0.1-1.1-0.2-2.2-0.2-3.3c-0.1-1-0.1-2.1-0.2-3.1c0-0.3-0.1-0.6-0.1-0.9c0,0,0-0.1-0.1-0.2c-0.1,0-0.2,0-0.2,0
			c-0.2,0-0.5,0.2-0.5,0.4c-0.6,3.8-1.3,7.5-2,11.2c-0.2,1.2-0.4,2.5-0.6,3.8c-0.1,0.5-0.1,0.6,0.2,0.6
			C160.2,57.2,160.3,57.2,160.4,57.2L160.4,57.2z"/>
		<path d="M173.7,40.8c0-0.2,0-0.5-0.2-0.7c-0.1-0.1-0.1-0.2-0.1-0.3c0-0.6,0-1.2,0-1.8c0-0.1,0-0.1,0-0.2c0-0.1,0.1-0.2,0.2-0.2
			c0,0,0.1,0,0.2,0c0.5,0,0.5,0,0.5-0.5c0-0.2,0-0.3,0.3-0.3c0.2,0,0.5,0,0.7,0c1,0,2.1,0,3.1,0c0.5,0,1,0,1.5,0
			c1.5,0.1,3.1,0.1,4.6,0.1c0.1,0,0.2,0,0.3,0c0.2,0,0.4,0,0.5-0.1c0.5,0.1,1,0,1.4,0.5c0.4,0.4,0.8,0.8,1.2,1.2
			c0.2,0.1,0.2,0.3,0.3,0.5c0.2,1,0.2,2.1,0.1,3.1c-0.3,3.7-1.4,7.8-4.7,10c-0.1,0-0.2,0.1-0.2,0.2c-0.2,0.1-0.2,0.2-0.1,0.3
			c0.4,0.9,0.7,1.8,1.1,2.6c1,2.5,2,4.9,3,7.4c0.2,0.3,0.3,0.7,0.4,1.1c0,0.1,0.1,0.2,0.1,0.3c0,0.2,0,0.3-0.2,0.4
			c-0.7,0.3-1.4,0.7-2.2,0.9c-0.4,0.1-0.7,0.3-1.1,0.5c-0.1,0-0.2,0-0.3-0.1c-0.1-0.2-0.2-0.4-0.3-0.6c-0.4-0.9-0.8-1.8-1.2-2.8
			c-1.1-2.6-2.2-5.3-3.3-8c0-0.1-0.1-0.2-0.2-0.3c0-0.1-0.1-0.1-0.2-0.1c0,0-0.1,0-0.2,0c-0.1,0-0.2,0-0.3,0c-0.9,0.1-0.7,0-0.7,0.8
			c0,2.6,0,6.4,0,9c0,0.4,0,0.8,0,1.2c0,0.3-0.1,0.4-0.4,0.4c-0.9,0-1.8,0-2.7,0c-0.2,0-0.5,0-0.8,0c-0.2,0-0.3-0.1-0.3-0.2
			c0-0.2-0.1-0.4-0.1-0.6c0-1.1,0-3.3,0-4.4c0-2.7,0-5.3,0-8C173.7,48.3,173.7,44.6,173.7,40.8z M181.1,41.1c-0.8,0-1.6,0-2.4,0
			c-0.2,0-0.3,0-0.5,0c-0.1,0-0.2,0.1-0.2,0.2c0,0.1,0,0.2,0,0.3c0,2.5,0,5,0,7.5c0,0.1,0,0.2,0,0.3s0.1,0.2,0.2,0.2
			c0.2,0,0.3,0,0.4,0c0.5-0.2,1.1-0.2,1.6-0.5c3.3-1.4,3.7-4.5,4-7.7c0-0.3,0-0.4-0.3-0.4C183,41.1,182,41.1,181.1,41.1z"/>
		<path d="M197.4,42.1c0-0.9,0.1-0.8-0.8-0.8c-1,0-2,0-3.1-0.1c-0.2,0-0.3,0-0.4-0.1c-0.2-0.1-0.3-0.2-0.3-0.4s0-0.4-0.1-0.6
			c0-0.2,0-0.3,0-0.5c0.1-0.6,0-1.2,0-1.9c0-0.1,0-0.2,0-0.3c0-0.4,0-0.5,0.5-0.5c0.2,0,0.5,0,0.7,0c0.9,0,1.7,0,2.6,0
			c0.4,0,0.9,0,1.3,0c2.7,0.1,5.4,0,8,0.1c0.2,0,0.3,0,0.5,0c0.7,0.1,0.7,0.1,0.7,0.7c0,1.1,0,2.1,0,3.1c0,0.2,0,0.4-0.3,0.4
			c-0.2,0-0.5,0-0.7,0c-1.1,0-2.2,0-3.3,0c-0.2,0-0.3,0-0.5,0c-0.5,0-0.5,0-0.5,0.5c0,2.2,0,4.4-0.1,6.6c0,4.4,0,9.7,0,14.2
			c0,0.7,0,1.4-0.1,2.1c0,0.2,0,0.3,0,0.5c0,0.1-0.1,0.2-0.2,0.2c-0.7,0-1.4,0.1-2.1,0.1c-0.2,0-0.5,0-0.8,0c0,0-0.1,0-0.2,0
			c-0.1,0-0.3,0-0.5,0s-0.3-0.1-0.4-0.3s0-0.3,0-0.5c0-1.8-0.1-4.6,0-6.4c0-0.2,0-0.4,0-0.6c0-1.6,0-3.3,0-5
			C197.3,49.2,197.4,45.7,197.4,42.1z"/>
		<path d="M215.5,56.4c0,1.7,0,3.4-0.1,5.2c0,1.1-0.1,2.1-0.1,3.2c0,0.1,0,0.3,0,0.4c0,0.2-0.1,0.3-0.4,0.3c-0.6,0-1.1,0-1.7,0
			c-0.4,0-0.8,0-1.2-0.1h-0.1c-0.1,0-0.3,0-0.4,0c-0.2,0-0.3-0.1-0.3-0.2c0-0.2,0-0.3,0-0.5c0-3.3,0-6.6,0.2-9.9
			c0-1.6,0-3.2,0.1-4.7c0-0.3,0-0.5,0-0.8c0-2.1,0.1-4.2,0.1-6.4c0-1.7,0-3.4,0.1-5.1c0-0.1,0-0.2,0.1-0.4c0-0.1,0.1-0.2,0.3-0.2
			c0.7-0.1,1.3-0.1,2-0.1c0.2,0,0.3,0,0.5,0c0.3,0,0.7,0,0.9,0c0.3,0,0.4,0,0.4,0.3c0,0.6,0.1,1.3,0.1,1.9c0,1.1-0.1,3-0.1,4
			c0,2-0.1,4-0.1,6.1c0,0.7,0,1.5,0,2.3C215.6,53.3,215.5,54.9,215.5,56.4z"/>
		<path d="M224.3,47.9c0,0.1,0,0.2,0,0.3s0.1,0.2,0.3,0.2c0.5,0,0.9-0.1,1.4-0.1c1.4-0.1,2.7-0.1,4.1-0.2c0.9-0.1,1.9,0,2.8-0.2
			c0.2,0,0.3,0.1,0.4,0.2c0.3,1.4,0.5,2.9,0.5,4.4c0,1.1-0.2,2.1-0.3,3.2c-0.5,3.3-1.1,5.8-4,8c-1.5,1.1-4.2,1.5-6.1,1.5
			c-0.2,0-0.5,0-0.7,0c-0.1,0-0.2,0-0.3,0c-0.2,0-0.4,0-0.5-0.1c-0.4-0.1-0.8-0.2-1.2-0.4c-0.4-0.1-0.5-0.3-0.5-0.7
			c0-0.7,0.1-1.4,0-2.2c0-0.3,0-0.6,0-0.9c0-0.2,0.1-0.3,0.2-0.3c0.3,0,0.6-0.1,0.9-0.1h0.1c0.4,0.1,0.9,0,1.2,0.2
			c0.3,0.1,0.5,0.1,0.8,0.1c0.9-0.1,1.9-0.2,2.9-0.4c0.3-0.1,0.7-0.2,0.9-0.5c1.8-1.6,2.1-4.4,2.3-6.6c0-0.2,0-0.4,0-0.6
			c0-0.3-0.1-0.3-0.3-0.3c-0.5,0-0.9,0.1-1.4,0.1c-1,0.1-2.1,0.1-3.1,0.2c-0.2,0-0.3,0-0.5,0.2c-0.1,0.1-0.2,0.1-0.3,0.1
			c-0.5,0-1.1,0-1.6,0c-0.3,0-0.5,0-0.8,0c-0.1,0-0.2,0-0.3,0c-0.2,0-0.4,0-0.6,0c-0.2,0-0.3-0.1-0.3-0.3s0-0.4,0-0.6
			c0-1,0-2.1,0-3.1c0.1-2.6,0.1-5.3,0.1-7.9c0-0.9,0.1-1.9,0.1-2.8c0-0.2,0-0.4,0.1-0.5c0.1-0.2,0.2-0.4,0.5-0.4
			c0.2,0,0.4,0,0.5-0.1c0.5-0.2,0.9-0.2,1.3-0.2c1.2,0,2.3,0,3.4,0c0.1,0,0.2,0,0.4,0c0.3-0.1,0.6-0.1,0.9-0.1c0.2,0,0.4,0,0.6,0
			c0.9,0,1.8,0,2.6,0c0.7,0,1.5,0,2.2,0.2c0,0,0.1,0,0.2,0c0.2,0.1,0.5,0.2,0.7,0.2c0,0.3,0.3,0.5,0.2,0.9c0,0.6,0,1.2,0,1.8
			c-0.1,1.4-0.2,2.8-0.2,4.2c0,0.2,0,0.3,0,0.4c0,0.3-0.2,0.3-0.4,0.3c-0.1,0-0.2,0-0.3,0c-0.2,0-0.5,0-0.7,0c-0.1,0-0.2,0-0.3,0
			c-0.7,0-1.4-0.1-2.1-0.1c-0.2,0-0.3-0.1-0.3-0.3c0-0.3,0-0.5,0-0.8c0-0.7,0-1.4,0-2.1c0-0.2,0-0.2-0.2-0.3c-0.6,0-1.2,0-1.8,0
			c-0.9,0-1.9,0-2.8,0.1c-0.1,0-0.2,0.1-0.2,0.2c0,0.2-0.1,0.5-0.1,0.7c0,0.9,0,1.9,0,2.8C224.4,46,224.4,46.9,224.3,47.9z"/>
		<path d="M242.7,42.1c0-0.9,0.1-0.8-0.8-0.8c-1,0-2,0-3.1-0.1c-0.2,0-0.3,0-0.4-0.1c-0.2-0.1-0.3-0.2-0.3-0.4s0-0.4-0.1-0.6
			c0-0.2,0-0.3,0-0.5c0.1-0.6,0-1.2,0-1.9c0-0.1,0-0.2,0-0.3c0-0.4,0-0.5,0.5-0.5c0.2,0,0.5,0,0.7,0c0.9,0,1.7,0,2.6,0
			c0.4,0,0.9,0,1.3,0c2.7,0.1,5.4,0,8,0.1c0.2,0,0.3,0,0.5,0c0.7,0.1,0.7,0.1,0.7,0.7c0,1.1,0,2.1,0,3.1c0,0.2,0,0.4-0.3,0.4
			c-0.2,0-0.5,0-0.7,0c-1.1,0-2.2,0-3.3,0c-0.2,0-0.3,0-0.5,0c-0.5,0-0.5,0-0.5,0.5c0,2.2,0,4.4-0.1,6.6c0,4.4,0,9.7,0,14.2
			c0,0.7,0,1.4-0.1,2.1c0,0.2,0,0.3,0,0.5c0,0.1-0.1,0.2-0.2,0.2c-0.7,0-1.4,0.1-2.1,0.1c-0.2,0-0.5,0-0.8,0c0,0-0.1,0-0.2,0
			c-0.1,0-0.3,0-0.5,0s-0.3-0.1-0.4-0.3s0-0.3,0-0.5c0-1.8-0.1-4.6,0-6.4c0-0.2,0-0.4,0-0.6c0-1.6,0-3.3,0-5
			C242.7,49.2,242.7,45.7,242.7,42.1z"/>
	</g>
</g>
<g>
	<g>
		<path d="M112.4,6.8c0-0.9,0.1-0.7-0.7-0.8c-1,0-1.9,0-2.9-0.1c-0.2,0-0.3,0-0.4-0.1c-0.2-0.1-0.3-0.2-0.3-0.4c0-0.2,0-0.4-0.1-0.6
			c0-0.2,0-0.3,0-0.4c0.1-0.6,0-1.2,0-1.8c0-0.1,0-0.2,0-0.3c0-0.4,0-0.4,0.4-0.5c0.2,0,0.5,0,0.7,0c0.8,0,1.6,0,2.4,0
			c0.4,0,0.8,0,1.2,0c2.5,0.1,5.1,0,7.6,0.1c0.2,0,0.3,0,0.5,0c0.6,0.1,0.6,0.1,0.6,0.6c0,1,0,2,0,3c0,0.2,0,0.4-0.3,0.4
			c-0.2,0-0.4,0-0.7,0c-1.1,0-2.1,0-3.1,0c-0.2,0-0.3,0-0.4,0c-0.4,0-0.5,0-0.5,0.4c0,2.1,0,4.2-0.1,6.3c0,4.2,0,9.2,0,13.4
			c0,0.7,0,1.3-0.1,2c0,0.2,0,0.3,0,0.5c0,0.1-0.1,0.2-0.2,0.2c-0.7,0-1.3,0.1-2,0.1c-0.2,0-0.5,0-0.7,0c0,0-0.1,0-0.2,0
			s-0.3,0-0.4,0c-0.2,0-0.3-0.1-0.4-0.3c0-0.2,0-0.3,0-0.5c0-1.7-0.1-4.3,0-6.1c0-0.2,0-0.4,0-0.6c0-1.6,0-3.2,0-4.7
			C112.4,13.5,112.4,10.1,112.4,6.8z"/>
		<path d="M138.7,21.4c0,2.1,0,4.3-0.1,6.4c0,0.4,0,0.7-0.1,1c0,0.2-0.1,0.2-0.3,0.2c-0.4,0-0.8,0-1.2,0.1c-0.2,0-0.3,0-0.5,0
			c-0.5,0-1,0-1.5-0.1c-0.4,0-0.4,0-0.5-0.4c0-0.2,0-0.4,0-0.6c0-2.7,0-5.3,0-8c0-0.3,0-0.5,0-0.8s0-0.5,0-0.8
			c0-0.2-0.2-0.2-0.4-0.2c-0.8,0-1.5,0-2.3,0c-0.7,0-1.5,0-2.2,0.2c-0.1,0-0.2,0.1-0.2,0.2c0,0.2,0,0.3,0,0.5c0,2.7,0,5.5,0,8.2
			c0,0.2,0,0.4,0,0.7c0,0.3,0,0.5,0,0.9c0,0-0.1,0.2-0.2,0.2c-0.5,0-1,0-1.5,0c-0.7,0-1.4,0-2,0c-0.2,0-0.3,0-0.3-0.2
			c0-0.1,0-0.2,0-0.3c-0.3-0.2-0.2-0.5-0.1-0.8c0.1-0.1,0.1-0.2,0.1-0.4c0-0.1,0-0.2,0-0.2c0-5,0-10.1,0.1-15.1c0-1.4,0-2.8,0.1-4.2
			c0-0.6,0-2.4,0.1-3c0-0.2,0.1-0.5-0.2-0.7c0,0-0.1-0.1-0.1-0.2c0-0.6,0-1.2,0-1.8c0-0.2,0.1-0.3,0.3-0.3c0.6,0,1.3,0,1.9,0
			c0.4,0,0.8,0,1.2-0.2h0.1c0.1,0,0.2,0,0.2,0.2c0.2,0.2,0.3,0.4,0.4,0.7c0.1,0.3,0.2,0.7,0.2,1c0,0.1,0,0.2,0,0.3
			c0,0.2,0,0.3,0,0.4c-0.2,2.9-0.2,7-0.2,9.9c0,0.2,0,0.3,0.2,0.3c1.5,0,3,0,4.4,0c0,0,0.1,0,0.2,0c0.1,0,0.2-0.1,0.2-0.2
			c0-3.7,0-7.4,0.1-11c0-0.3,0-0.9,0.4-0.9s0.7-0.1,1.1-0.1c0,0,0,0,0.1,0c0.3,0,0.6,0.1,0.9,0.1c0.2,0,0.4-0.1,0.5-0.1s0.2,0,0.2,0
			h0.1c0.1,0,0.3,0,0.4,0c0.2,0,0.3,0.1,0.3,0.2c0,2.6,0,5.1,0,7.7c0,2-0.1,3.9-0.1,5.9C138.7,17.6,138.7,19.5,138.7,21.4z"/>
		<path d="M147.6,15.7c-0.1,0-0.3,0-0.4,0c-0.2,0-0.3,0.1-0.2,0.2c0.3,3,1.8,5.2,4.1,7.1c1.2,0.8,2.5,1.3,3.8,1.7
			c0.4,0.1,0.7,0.1,1,0.1c0.1,0,0.2,0,0.3,0c0.2,0,0.4,0.2,0.3,0.4c-0.1,0.5,0,1,0,1.5s0,1.1,0,1.6c0,0.3,0,0.4-0.4,0.5
			c-0.2,0.1-0.4,0.1-0.6,0.1c-0.6,0-1.2,0-1.8-0.2c-1-0.4-1.9-0.7-2.9-1.1c-3.8-1.6-7.2-6.2-7.9-10.1c0-0.4-0.1-0.8-0.2-1.2
			c-0.2-1.2-0.1-2.5,0-3.8c0.2-2.5,0.2-5,0.2-7.5c0-0.5,0-0.9-0.1-1.4c-0.1-0.4-0.1-0.7,0.3-0.9V2.6c0-0.4,0.4-0.4,0.6-0.5h0.1
			c0.1,0,0.2,0,0.3,0c1.1,0,2.1,0,3.2,0c0.4,0,0.8,0,1.2,0c0.7,0,1.4,0,2.1-0.1c1.6,0,3.2-0.1,4.8-0.1c0.1,0,0.2,0,0.4,0
			s0.4,0,0.5,0.1c0.2,0.1,0.3,0.2,0.4,0.4c0.1,0.7,0.2,1.3,0.1,1.9c0.1,0.4,0,0.9,0.1,1.3c0,0.2-0.1,0.3-0.2,0.3c-0.1,0-0.2,0-0.3,0
			c-1.5,0.1-3,0.1-4.6,0.2c-1.5,0-3,0.1-4.5,0.1c0,0,0,0-0.1,0c-0.2,0-0.3,0.1-0.3,0.3c0,1.5,0,3-0.1,4.5c0,0.2,0,0.4,0,0.5
			c0,0.2,0,0.3,0.2,0.3s0.4,0,0.5,0c1.6,0,3.2,0,4.8,0c0.3,0,0.5,0,0.7,0.1c0.2,0,0.3,0.1,0.3,0.3c0,0.7,0.1,1.4,0.1,2.2
			c0,0.4-0.1,0.8,0,1.2c0,0.2-0.1,0.3-0.3,0.3s-0.4,0-0.5,0c-0.9,0-1.8,0-2.7,0C149.4,15.7,148.5,15.7,147.6,15.7z"/>
	</g>
</g>
<g>
	<g>
		<path d="M36.6,83.4l3.8,15.4l3.8-15.4h3.7l3.8,15.3l4-15.3H59L53.3,103h-3.4l-4-15.1L42,103h-3.4L33,83.4H36.6z"/>
		<path d="M62.1,76.2h3.3v3.7h-3.3C62.1,79.9,62.1,76.2,62.1,76.2z M62.1,83.5h3.3V103h-3.3C62.1,103,62.1,83.5,62.1,83.5z"/>
		<path d="M71,78h3.3v5.5h3.1v2.7h-3.1V99c0,0.7,0.2,1.1,0.7,1.4c0.3,0.1,0.7,0.2,1.3,0.2c0.2,0,0.3,0,0.5,0s0.4,0,0.6-0.1v2.6
			c-0.4,0.1-0.8,0.2-1.2,0.2s-0.8,0.1-1.3,0.1c-1.5,0-2.6-0.4-3.1-1.2s-0.8-1.8-0.8-3.1v-13h-2.6v-2.7H71V78z"/>
		<path d="M80.8,76.1H84v10c0.8-1,1.5-1.7,2.1-2.1c1.1-0.7,2.4-1,4-1c2.8,0,4.8,1,5.8,3c0.5,1.1,0.8,2.6,0.8,4.5V103h-3.4V90.7
			c0-1.4-0.2-2.5-0.5-3.2c-0.6-1.1-1.7-1.6-3.4-1.6c-1.4,0-2.6,0.5-3.7,1.4c-1.1,1-1.7,2.7-1.7,5.3V103h-3.3V76.1H80.8z"/>
		<path d="M122.4,91.2c0.8-0.1,1.3-0.4,1.5-0.9c0.1-0.3,0.2-0.7,0.2-1.3c0-1.1-0.4-1.9-1.2-2.4c-0.8-0.5-1.9-0.8-3.4-0.8
			c-1.7,0-2.9,0.5-3.6,1.4c-0.4,0.5-0.7,1.3-0.8,2.3H112c0.1-2.4,0.8-4.1,2.3-5s3.2-1.4,5.2-1.4c2.3,0,4.2,0.4,5.6,1.3
			s2.1,2.2,2.1,4.1v11.3c0,0.3,0.1,0.6,0.2,0.8c0.1,0.2,0.4,0.3,0.9,0.3c0.1,0,0.3,0,0.5,0s0.4,0,0.6-0.1v2.4
			c-0.5,0.1-0.9,0.2-1.2,0.3c-0.3,0-0.6,0.1-1.1,0.1c-1.1,0-2-0.4-2.5-1.2c-0.3-0.4-0.5-1-0.6-1.8c-0.7,0.9-1.6,1.6-2.9,2.3
			c-1.3,0.6-2.6,1-4.1,1c-1.8,0-3.3-0.5-4.4-1.7c-1.2-1.1-1.7-2.5-1.7-4.1c0-1.8,0.6-3.2,1.7-4.2s2.6-1.6,4.5-1.8L122.4,91.2z
			 M115.5,100c0.7,0.5,1.5,0.8,2.5,0.8c1.2,0,2.3-0.3,3.4-0.8c1.8-0.9,2.7-2.3,2.7-4.4V93c-0.4,0.3-0.9,0.5-1.5,0.6
			s-1.3,0.3-1.9,0.4l-2,0.3c-1.2,0.2-2.1,0.4-2.7,0.7c-1,0.6-1.5,1.5-1.5,2.7C114.5,98.8,114.8,99.5,115.5,100z"/>
		<path d="M143.5,76.2h11.6c3.2,0,5.4,0.9,6.7,2.8c0.8,1.1,1.2,2.4,1.2,3.8c0,1.7-0.5,3.1-1.4,4.2c-0.5,0.6-1.2,1.1-2.2,1.6
			c1.4,0.5,2.4,1.1,3.1,1.8c1.2,1.2,1.8,2.8,1.8,4.8c0,1.7-0.5,3.3-1.6,4.7c-1.6,2.1-4.2,3.1-7.8,3.1h-11.4L143.5,76.2L143.5,76.2z
			 M153.7,87.5c1.5,0,2.8-0.2,3.6-0.6c1.4-0.7,2-1.9,2-3.6c0-1.8-0.7-2.9-2.2-3.5c-0.8-0.3-2-0.5-3.6-0.5H147v8.3h6.7V87.5z
			 M155,99.9c2.2,0,3.9-0.6,4.8-1.9c0.6-0.8,0.9-1.8,0.9-3c0-1.9-0.9-3.3-2.6-4c-0.9-0.4-2.2-0.6-3.7-0.6H147v9.4L155,99.9L155,99.9
			z"/>
		<path d="M168.2,76.2h3.3V103h-3.3V76.2z"/>
		<path d="M186.9,91.2c0.8-0.1,1.3-0.4,1.5-0.9c0.1-0.3,0.2-0.7,0.2-1.3c0-1.1-0.4-1.9-1.2-2.4s-1.9-0.8-3.4-0.8
			c-1.7,0-2.9,0.5-3.6,1.4c-0.4,0.5-0.7,1.3-0.8,2.3h-3.1c0.1-2.4,0.8-4.1,2.3-5s3.2-1.4,5.2-1.4c2.3,0,4.2,0.4,5.6,1.3
			c1.4,0.9,2.1,2.2,2.1,4.1v11.3c0,0.3,0.1,0.6,0.2,0.8c0.1,0.2,0.4,0.3,0.9,0.3c0.1,0,0.3,0,0.5,0s0.4,0,0.6-0.1v2.4
			c-0.5,0.1-0.9,0.2-1.2,0.3c-0.3,0-0.6,0.1-1.1,0.1c-1.1,0-2-0.4-2.5-1.2c-0.3-0.4-0.5-1-0.6-1.8c-0.7,0.9-1.6,1.6-2.9,2.3
			c-1.3,0.6-2.6,1-4.1,1c-1.8,0-3.3-0.5-4.4-1.7c-1.2-1.1-1.7-2.5-1.7-4.1c0-1.8,0.6-3.2,1.7-4.2c1.1-1,2.6-1.6,4.5-1.8L186.9,91.2z
			 M180,100c0.7,0.5,1.5,0.8,2.5,0.8c1.2,0,2.3-0.3,3.4-0.8c1.8-0.9,2.7-2.3,2.7-4.4V93c-0.4,0.3-0.9,0.5-1.5,0.6s-1.3,0.3-1.9,0.4
			l-2,0.3c-1.2,0.2-2.1,0.4-2.7,0.7c-1,0.6-1.5,1.5-1.5,2.7C178.9,98.8,179.3,99.5,180,100z"/>
		<path d="M210.1,84.5c1.4,1.1,2.2,2.9,2.5,5.5h-3.2c-0.2-1.2-0.6-2.2-1.3-3s-1.8-1.2-3.3-1.2c-2.1,0-3.6,1-4.5,3.1
			c-0.6,1.3-0.9,3-0.9,4.9c0,2,0.4,3.6,1.2,4.9s2.1,2,3.9,2c1.4,0,2.4-0.4,3.2-1.2c0.8-0.8,1.3-2,1.7-3.4h3.2
			c-0.4,2.6-1.3,4.5-2.7,5.7c-1.5,1.2-3.3,1.8-5.6,1.8c-2.6,0-4.6-0.9-6.1-2.8s-2.3-4.2-2.3-7c0-3.4,0.8-6.1,2.5-8s3.8-2.9,6.4-2.9
			C206.9,82.9,208.7,83.4,210.1,84.5z"/>
		<path d="M215.8,76.2h3.2v15.6l8.4-8.3h4.2l-7.5,7.3L232,103h-4.2l-6.2-10l-2.7,2.6v7.3h-3.2L215.8,76.2L215.8,76.2z"/>
		<path d="M83.2,111.2h11.6c3.2,0,5.4,0.9,6.7,2.8c0.8,1.1,1.2,2.4,1.2,3.8c0,1.7-0.5,3.1-1.4,4.2c-0.5,0.6-1.2,1.1-2.2,1.6
			c1.4,0.5,2.4,1.1,3.1,1.8c1.2,1.2,1.8,2.8,1.8,4.8c0,1.7-0.5,3.3-1.6,4.7c-1.6,2.1-4.2,3.1-7.8,3.1H83.2V111.2z M93.4,122.5
			c1.5,0,2.8-0.2,3.6-0.6c1.4-0.7,2-1.9,2-3.6c0-1.8-0.7-2.9-2.2-3.5c-0.8-0.3-2-0.5-3.6-0.5h-6.6v8.3h6.8V122.5z M94.7,134.9
			c2.2,0,3.9-0.6,4.8-1.9c0.6-0.8,0.9-1.8,0.9-3c0-1.9-0.9-3.3-2.6-4c-0.9-0.4-2.2-0.6-3.7-0.6h-7.3v9.4L94.7,134.9L94.7,134.9z"/>
		<path d="M119.9,119c1.3,0.7,2.3,1.5,3,2.5s1.1,2.1,1.3,3.5c0.2,0.9,0.3,2.3,0.3,4.3h-14.2c0.1,2,0.5,3.6,1.4,4.8s2.2,1.8,4,1.8
			c1.7,0,3.1-0.6,4.1-1.7c0.6-0.7,1-1.4,1.2-2.3h3.2c-0.1,0.7-0.4,1.5-0.8,2.4s-1,1.6-1.6,2.2c-1,1-2.2,1.6-3.7,2
			c-0.8,0.2-1.7,0.3-2.7,0.3c-2.4,0-4.5-0.9-6.2-2.7s-2.5-4.3-2.5-7.4c0-3.1,0.8-5.7,2.5-7.7s3.9-2.9,6.6-2.9
			C117.2,118,118.6,118.3,119.9,119z M121,126.7c-0.1-1.4-0.4-2.6-0.9-3.4c-0.9-1.6-2.4-2.4-4.5-2.4c-1.5,0-2.8,0.5-3.8,1.6
			s-1.6,2.5-1.6,4.2C110.2,126.7,121,126.7,121,126.7z"/>
		<path d="M128.7,111.2h3.3V138h-3.3V111.2z"/>
		<path d="M137.6,113h3.3v5.5h3.1v2.7h-3.1V134c0,0.7,0.2,1.1,0.7,1.4c0.3,0.1,0.7,0.2,1.3,0.2c0.2,0,0.3,0,0.5,0s0.4,0,0.6-0.1v2.6
			c-0.4,0.1-0.8,0.2-1.2,0.2s-0.8,0.1-1.3,0.1c-1.5,0-2.6-0.4-3.1-1.2s-0.8-1.8-0.8-3.1v-12.9H135v-2.7h2.6V113z"/>
		<path d="M157.7,111.2h3.3v3.7h-3.3V111.2z M157.7,118.5h3.3V138h-3.3V118.5z"/>
		<path d="M166,118.5h3.1v2.8c0.9-1.1,1.9-2,2.9-2.5s2.2-0.7,3.5-0.7c2.8,0,4.6,1,5.6,2.9c0.5,1.1,0.8,2.6,0.8,4.5V138h-3.3v-12.3
			c0-1.2-0.2-2.2-0.5-2.9c-0.6-1.2-1.6-1.8-3.2-1.8c-0.8,0-1.4,0.1-1.9,0.2c-0.9,0.3-1.7,0.8-2.4,1.6c-0.5,0.6-0.9,1.3-1.1,2
			c-0.2,0.7-0.2,1.7-0.2,2.9V138H166V118.5z"/>
		<path d="M50.9,146.2h3.7V173h-3.7V146.2z"/>
		<path d="M60.1,146.2h3.3V173h-3.3V146.2z"/>
		<path d="M68.4,146.2h3.3V173h-3.3V146.2z"/>
		<path d="M79.9,153.5v13c0,1,0.2,1.8,0.5,2.4c0.6,1.2,1.6,1.8,3.2,1.8c2.2,0,3.7-1,4.6-3.1c0.4-1.1,0.7-2.6,0.7-4.5v-9.6H92V173
			h-3.1v-2.9c-0.4,0.7-0.9,1.4-1.6,1.9c-1.2,1-2.7,1.5-4.5,1.5c-2.7,0-4.6-0.9-5.6-2.8c-0.5-1-0.8-2.3-0.8-4v-13.3h3.5V153.5z"/>
		<path d="M99.4,166.9c0.1,1.1,0.4,1.9,0.8,2.5c0.8,1.1,2.3,1.6,4.4,1.6c1.2,0,2.3-0.3,3.3-0.8c0.9-0.5,1.4-1.3,1.4-2.5
			c0-0.8-0.4-1.5-1.1-1.9c-0.5-0.3-1.4-0.6-2.9-0.9l-2.7-0.7c-1.7-0.4-2.9-0.9-3.7-1.4c-1.4-0.9-2.2-2.1-2.2-3.7
			c0-1.9,0.7-3.3,2-4.5s3.2-1.7,5.5-1.7c3,0,5.1,0.9,6.5,2.6c0.8,1.1,1.2,2.3,1.2,3.5h-3.1c-0.1-0.7-0.3-1.4-0.8-2
			c-0.8-0.9-2.1-1.3-4-1.3c-1.3,0-2.2,0.2-2.9,0.7s-1,1.1-1,1.9c0,0.8,0.4,1.5,1.3,2c0.5,0.3,1.2,0.6,2.2,0.8l2.2,0.5
			c2.4,0.6,4,1.1,4.8,1.7c1.3,0.8,1.9,2.2,1.9,4c0,1.7-0.7,3.2-2,4.5s-3.4,1.9-6.1,1.9c-2.9,0-5-0.7-6.3-2c-1.2-1.3-1.9-3-2-4.9
			L99.4,166.9L99.4,166.9z"/>
		<path d="M116.8,148h3.3v5.5h3.1v2.7h-3.1V169c0,0.7,0.2,1.1,0.7,1.4c0.3,0.1,0.7,0.2,1.3,0.2c0.2,0,0.3,0,0.5,0s0.4,0,0.6-0.1v2.6
			c-0.4,0.1-0.8,0.2-1.2,0.2s-0.8,0.1-1.3,0.1c-1.5,0-2.6-0.4-3.1-1.2s-0.8-1.8-0.8-3.1v-12.9h-2.6v-2.7h2.6V148z"/>
		<path d="M126.6,153.5h3.1v3.4c0.3-0.7,0.9-1.5,1.9-2.4s2.1-1.4,3.5-1.4c0.1,0,0.2,0,0.3,0s0.4,0,0.7,0.1v3.5
			c-0.2,0-0.4-0.1-0.5-0.1c-0.2,0-0.3,0-0.5,0c-1.7,0-2.9,0.5-3.8,1.6c-0.9,1.1-1.3,2.3-1.3,3.7V173h-3.3L126.6,153.5L126.6,153.5z"
			/>
		<path d="M149.4,161.2c0.8-0.1,1.3-0.4,1.5-0.9c0.1-0.3,0.2-0.7,0.2-1.3c0-1.1-0.4-1.9-1.2-2.4s-1.9-0.8-3.4-0.8
			c-1.7,0-2.9,0.5-3.6,1.4c-0.4,0.5-0.7,1.3-0.8,2.3H139c0.1-2.4,0.8-4.1,2.3-5s3.2-1.4,5.2-1.4c2.3,0,4.2,0.4,5.6,1.3
			c1.4,0.9,2.1,2.2,2.1,4.1v11.3c0,0.3,0.1,0.6,0.2,0.8c0.1,0.2,0.4,0.3,0.9,0.3c0.1,0,0.3,0,0.5,0s0.4,0,0.6-0.1v2.4
			c-0.5,0.1-0.9,0.2-1.2,0.3c-0.3,0-0.6,0.1-1.1,0.1c-1.1,0-2-0.4-2.5-1.2c-0.3-0.4-0.5-1-0.6-1.8c-0.7,0.9-1.6,1.6-2.9,2.3
			c-1.3,0.6-2.6,1-4.1,1c-1.8,0-3.3-0.5-4.4-1.7c-1.2-1.1-1.7-2.5-1.7-4.1c0-1.8,0.6-3.2,1.7-4.2c1.1-1,2.6-1.6,4.5-1.8L149.4,161.2
			z M142.5,170.1c0.7,0.5,1.5,0.8,2.5,0.8c1.2,0,2.3-0.3,3.4-0.8c1.8-0.9,2.7-2.3,2.7-4.4v-2.6c-0.4,0.3-0.9,0.5-1.5,0.6
			s-1.3,0.3-1.9,0.4l-2,0.3c-1.2,0.2-2.1,0.4-2.7,0.7c-1,0.6-1.5,1.5-1.5,2.7C141.5,168.8,141.8,169.5,142.5,170.1z"/>
		<path d="M160.4,148h3.3v5.5h3.1v2.7h-3.1V169c0,0.7,0.2,1.1,0.7,1.4c0.3,0.1,0.7,0.2,1.3,0.2c0.2,0,0.3,0,0.5,0s0.4,0,0.6-0.1v2.6
			c-0.4,0.1-0.8,0.2-1.2,0.2s-0.8,0.1-1.3,0.1c-1.5,0-2.6-0.4-3.1-1.2s-0.8-1.8-0.8-3.1v-12.9h-2.6v-2.7h2.6V148z"/>
		<path d="M170.1,146.2h3.3v3.7h-3.3V146.2z M170.1,153.5h3.3V173h-3.3V153.5z"/>
		<path d="M192.6,155.4c1.7,1.7,2.6,4.1,2.6,7.4c0,3.2-0.8,5.8-2.3,7.8c-1.5,2.1-3.9,3.1-7.1,3.1c-2.7,0-4.8-0.9-6.4-2.7
			s-2.4-4.3-2.4-7.3c0-3.3,0.8-5.9,2.5-7.8s3.9-2.9,6.7-2.9C188.8,152.9,190.9,153.7,192.6,155.4z M190.6,168.4
			c0.8-1.6,1.2-3.5,1.2-5.5c0-1.8-0.3-3.3-0.9-4.5c-0.9-1.8-2.5-2.7-4.7-2.7c-2,0-3.4,0.8-4.3,2.3c-0.9,1.5-1.4,3.4-1.4,5.5
			s0.5,3.8,1.4,5.2s2.3,2.1,4.3,2.1C188.3,170.9,189.8,170.1,190.6,168.4z"/>
		<path d="M199.2,153.5h3.1v2.8c0.9-1.1,1.9-2,2.9-2.5s2.2-0.7,3.5-0.7c2.8,0,4.6,1,5.6,2.9c0.5,1.1,0.8,2.6,0.8,4.5V173h-3.3v-12.3
			c0-1.2-0.2-2.2-0.5-2.9c-0.6-1.2-1.6-1.8-3.2-1.8c-0.8,0-1.4,0.1-1.9,0.2c-0.9,0.3-1.7,0.8-2.4,1.6c-0.5,0.6-0.9,1.3-1.1,2
			c-0.2,0.7-0.2,1.7-0.2,2.9V173h-3.3L199.2,153.5L199.2,153.5z"/>
	</g>
</g>
</svg>
