<?xml version="1.0" encoding="utf-8"?>
<!-- Generator: Adobe Illustrator 24.2.1, SVG Export Plug-In . SVG Version: 6.00 Build 0)  -->
<svg version="1.1" id="Layer_1" xmlns="http://www.w3.org/2000/svg" xmlns:xlink="http://www.w3.org/1999/xlink" x="0px" y="0px"
	 viewBox="0 0 260 174" style="enable-background:new 0 0 260 174;" xml:space="preserve">
<g>
	<path d="M39.8,76l5.1,21.8L50.9,76h3.9l6.1,21.8L66,76h4l-7,26.8h-3.8l-6.2-22.2l-6.2,22.2h-3.8l-7-26.8H39.8z"/>
	<path d="M72.9,75.9h3.3v10c0.8-1,1.5-1.7,2.1-2.1c1.1-0.7,2.4-1,4-1c2.8,0,4.8,1,5.8,3c0.5,1.1,0.8,2.6,0.8,4.5v12.5h-3.4V90.5
		c0-1.4-0.2-2.5-0.5-3.2c-0.6-1.1-1.7-1.6-3.4-1.6c-1.4,0-2.6,0.5-3.7,1.4c-1.1,0.9-1.7,2.7-1.7,5.3v10.4h-3.3V75.9z"/>
	<path d="M107.9,85.2c1.7,1.7,2.6,4.1,2.6,7.4c0,3.2-0.8,5.8-2.3,7.8c-1.5,2.1-3.9,3.1-7.1,3.1c-2.7,0-4.8-0.9-6.4-2.7
		c-1.6-1.8-2.4-4.3-2.4-7.3c0-3.3,0.8-5.9,2.5-7.8c1.7-1.9,3.9-2.9,6.7-2.9C104,82.7,106.1,83.5,107.9,85.2z M105.8,98.2
		c0.8-1.6,1.2-3.5,1.2-5.5c0-1.8-0.3-3.3-0.9-4.5c-0.9-1.8-2.5-2.7-4.7-2.7c-2,0-3.4,0.8-4.3,2.3c-0.9,1.5-1.4,3.4-1.4,5.5
		c0,2.1,0.5,3.8,1.4,5.2c0.9,1.4,2.3,2.1,4.3,2.1C103.5,100.6,105,99.8,105.8,98.2z"/>
	<path d="M125.7,76h18.6v3.3h-15v8.1h13.2v3.2h-13.2v12.2h-3.6V76z"/>
	<path d="M159.8,83.8c1.3,0.7,2.3,1.5,3,2.5c0.7,1,1.1,2.1,1.3,3.5c0.2,0.9,0.3,2.3,0.3,4.3h-14.2c0.1,2,0.5,3.6,1.4,4.8
		c0.9,1.2,2.2,1.8,4,1.8c1.7,0,3.1-0.6,4.1-1.7c0.6-0.7,1-1.4,1.2-2.3h3.2c-0.1,0.7-0.4,1.5-0.8,2.4s-1,1.6-1.6,2.2
		c-1,1-2.2,1.6-3.7,2c-0.8,0.2-1.7,0.3-2.7,0.3c-2.4,0-4.5-0.9-6.2-2.7c-1.7-1.8-2.5-4.3-2.5-7.4c0-3.1,0.8-5.7,2.5-7.7
		c1.7-2,3.9-2.9,6.6-2.9C157.2,82.8,158.5,83.1,159.8,83.8z M161,91.4c-0.1-1.4-0.4-2.6-0.9-3.4c-0.9-1.6-2.4-2.4-4.5-2.4
		c-1.5,0-2.8,0.5-3.8,1.6c-1,1.1-1.6,2.5-1.6,4.2H161z"/>
	<path d="M168.6,76h3.3v26.8h-3.3V76z"/>
	<path d="M176.9,76h3.3v26.8h-3.3V76z"/>
	<path d="M195.5,76h3.3v3.7h-3.3V76z M195.5,83.3h3.3v19.5h-3.3V83.3z"/>
	<path d="M203.8,83.2h3.1V86c0.9-1.1,1.9-2,2.9-2.5c1-0.5,2.2-0.7,3.5-0.7c2.8,0,4.6,1,5.6,2.9c0.5,1.1,0.8,2.6,0.8,4.5v12.5h-3.3
		V90.5c0-1.2-0.2-2.2-0.5-2.9c-0.6-1.2-1.6-1.8-3.2-1.8c-0.8,0-1.4,0.1-1.9,0.2c-0.9,0.3-1.7,0.8-2.4,1.6c-0.5,0.6-0.9,1.3-1.1,2
		c-0.2,0.7-0.2,1.7-0.2,2.9v10.2h-3.3V83.2z"/>
	<path d="M52.6,111h3.6v23.6h13.5v3.2H52.6V111z"/>
	<path d="M87.1,120.2c1.7,1.7,2.6,4.1,2.6,7.4c0,3.2-0.8,5.8-2.3,7.8c-1.5,2.1-3.9,3.1-7.1,3.1c-2.7,0-4.8-0.9-6.4-2.7
		c-1.6-1.8-2.4-4.3-2.4-7.3c0-3.3,0.8-5.9,2.5-7.8c1.7-1.9,3.9-2.9,6.7-2.9C83.2,117.7,85.4,118.5,87.1,120.2z M85,133.2
		c0.8-1.6,1.2-3.5,1.2-5.5c0-1.8-0.3-3.3-0.9-4.5c-0.9-1.8-2.5-2.7-4.7-2.7c-2,0-3.4,0.8-4.3,2.3c-0.9,1.5-1.4,3.4-1.4,5.5
		c0,2.1,0.5,3.8,1.4,5.2c0.9,1.4,2.3,2.1,4.3,2.1C82.8,135.7,84.2,134.8,85,133.2z"/>
	<path d="M95.3,118.2l5.2,15.9l5.4-15.9h3.6l-7.4,19.6h-3.5l-7.2-19.6H95.3z"/>
	<path d="M124.5,118.8c1.3,0.7,2.3,1.5,3,2.5c0.7,1,1.1,2.1,1.3,3.5c0.2,0.9,0.3,2.3,0.3,4.3h-14.2c0.1,2,0.5,3.6,1.4,4.8
		c0.9,1.2,2.2,1.8,4,1.8c1.7,0,3.1-0.6,4.1-1.7c0.6-0.7,1-1.4,1.2-2.3h3.2c-0.1,0.7-0.4,1.5-0.8,2.4s-1,1.6-1.6,2.2
		c-1,1-2.2,1.6-3.7,2c-0.8,0.2-1.7,0.3-2.7,0.3c-2.4,0-4.5-0.9-6.2-2.7s-2.5-4.3-2.5-7.4c0-3.1,0.8-5.7,2.5-7.7s3.9-2.9,6.6-2.9
		C121.9,117.8,123.2,118.1,124.5,118.8z M125.7,126.4c-0.1-1.4-0.4-2.6-0.9-3.4c-0.9-1.6-2.4-2.4-4.5-2.4c-1.5,0-2.8,0.5-3.8,1.6
		s-1.6,2.5-1.6,4.2H125.7z"/>
	<path d="M145.1,118.2l3.8,15.4l3.8-15.4h3.7l3.8,15.3l4-15.3h3.3l-5.7,19.6h-3.4l-4-15.1l-3.9,15.1h-3.4l-5.6-19.6H145.1z"/>
	<path d="M170.6,111h3.3v3.7h-3.3V111z M170.6,118.3h3.3v19.5h-3.3V118.3z"/>
	<path d="M179.6,112.8h3.3v5.5h3.1v2.7h-3.1v12.8c0,0.7,0.2,1.1,0.7,1.4c0.3,0.1,0.7,0.2,1.3,0.2c0.2,0,0.3,0,0.5,0
		c0.2,0,0.4,0,0.6-0.1v2.6c-0.4,0.1-0.8,0.2-1.2,0.2s-0.8,0.1-1.3,0.1c-1.5,0-2.6-0.4-3.1-1.2s-0.8-1.8-0.8-3.1v-12.9h-2.6v-2.7h2.6
		V112.8z"/>
	<path d="M189.3,110.9h3.3v10c0.8-1,1.5-1.7,2.1-2.1c1.1-0.7,2.4-1,4-1c2.8,0,4.8,1,5.8,3c0.5,1.1,0.8,2.6,0.8,4.5v12.5h-3.4v-12.3
		c0-1.4-0.2-2.5-0.5-3.2c-0.6-1.1-1.7-1.6-3.4-1.6c-1.4,0-2.6,0.5-3.7,1.4c-1.1,0.9-1.7,2.7-1.7,5.3v10.4h-3.3V110.9z"/>
	<path d="M74.4,146H78v23.6h13.5v3.2H74.4V146z"/>
	<path d="M106.8,153.8c1.3,0.7,2.3,1.5,3,2.5c0.7,1,1.1,2.1,1.3,3.5c0.2,0.9,0.3,2.3,0.3,4.3H97.2c0.1,2,0.5,3.6,1.4,4.8
		c0.9,1.2,2.2,1.8,4,1.8c1.7,0,3.1-0.6,4.1-1.7c0.6-0.7,1-1.4,1.2-2.3h3.2c-0.1,0.7-0.4,1.5-0.8,2.4s-1,1.6-1.6,2.2
		c-1,1-2.2,1.6-3.7,2c-0.8,0.2-1.7,0.3-2.7,0.3c-2.4,0-4.5-0.9-6.2-2.7s-2.5-4.3-2.5-7.4c0-3.1,0.8-5.7,2.5-7.7s3.9-2.9,6.6-2.9
		C104.2,152.8,105.5,153.1,106.8,153.8z M108,161.5c-0.1-1.4-0.4-2.6-0.9-3.4c-0.9-1.6-2.4-2.4-4.5-2.4c-1.5,0-2.8,0.5-3.8,1.6
		s-1.6,2.5-1.6,4.2H108z"/>
	<path d="M116.2,147.8h3.3v5.5h3.1v2.7h-3.1v12.8c0,0.7,0.2,1.1,0.7,1.4c0.3,0.1,0.7,0.2,1.3,0.2c0.2,0,0.3,0,0.5,0
		c0.2,0,0.4,0,0.6-0.1v2.6c-0.4,0.1-0.8,0.2-1.2,0.2s-0.8,0.1-1.3,0.1c-1.5,0-2.6-0.4-3.1-1.2s-0.8-1.8-0.8-3.1v-12.9h-2.6v-2.7h2.6
		V147.8z"/>
	<path d="M126.6,147.8h3.3v5.5h3.1v2.7h-3.1v12.8c0,0.7,0.2,1.1,0.7,1.4c0.3,0.1,0.7,0.2,1.3,0.2c0.2,0,0.3,0,0.5,0
		c0.2,0,0.4,0,0.6-0.1v2.6c-0.4,0.1-0.8,0.2-1.2,0.2c-0.4,0-0.8,0.1-1.3,0.1c-1.5,0-2.6-0.4-3.1-1.2s-0.8-1.8-0.8-3.1v-12.9h-2.6
		v-2.7h2.6V147.8z"/>
	<path d="M148.4,153.8c1.3,0.7,2.3,1.5,3,2.5c0.7,1,1.1,2.1,1.3,3.5c0.2,0.9,0.3,2.3,0.3,4.3h-14.2c0.1,2,0.5,3.6,1.4,4.8
		c0.9,1.2,2.2,1.8,4,1.8c1.7,0,3.1-0.6,4.1-1.7c0.6-0.7,1-1.4,1.2-2.3h3.2c-0.1,0.7-0.4,1.5-0.8,2.4s-1,1.6-1.6,2.2
		c-1,1-2.2,1.6-3.7,2c-0.8,0.2-1.7,0.3-2.7,0.3c-2.4,0-4.5-0.9-6.2-2.7c-1.7-1.8-2.5-4.3-2.5-7.4c0-3.1,0.8-5.7,2.5-7.7
		c1.7-2,3.9-2.9,6.6-2.9C145.8,152.8,147.1,153.1,148.4,153.8z M149.6,161.5c-0.1-1.4-0.4-2.6-0.9-3.4c-0.9-1.6-2.4-2.4-4.5-2.4
		c-1.5,0-2.8,0.5-3.8,1.6c-1,1.1-1.6,2.5-1.6,4.2H149.6z"/>
	<path d="M157.2,153.2h3.1v3.4c0.3-0.7,0.9-1.5,1.9-2.4s2.1-1.4,3.5-1.4c0.1,0,0.2,0,0.3,0c0.1,0,0.4,0,0.7,0.1v3.5
		c-0.2,0-0.4-0.1-0.5-0.1c-0.2,0-0.3,0-0.5,0c-1.7,0-2.9,0.5-3.8,1.6c-0.9,1.1-1.3,2.3-1.3,3.7v11.2h-3.3V153.2z"/>
	<path d="M171.5,166.7c0.1,1.1,0.4,1.9,0.8,2.5c0.8,1.1,2.3,1.6,4.4,1.6c1.2,0,2.3-0.3,3.3-0.8s1.4-1.3,1.4-2.5
		c0-0.8-0.4-1.5-1.1-1.9c-0.5-0.3-1.4-0.6-2.9-0.9l-2.7-0.7c-1.7-0.4-2.9-0.9-3.7-1.4c-1.4-0.9-2.2-2.1-2.2-3.7c0-1.8,0.7-3.3,2-4.5
		c1.4-1.1,3.2-1.7,5.5-1.7c3,0,5.1,0.9,6.5,2.6c0.8,1.1,1.2,2.3,1.2,3.5H181c-0.1-0.7-0.3-1.4-0.8-2c-0.8-0.9-2.1-1.3-4-1.3
		c-1.3,0-2.2,0.2-2.9,0.7c-0.7,0.5-1,1.1-1,1.9c0,0.8,0.4,1.5,1.3,2c0.5,0.3,1.2,0.6,2.2,0.8l2.2,0.5c2.4,0.6,4,1.1,4.8,1.7
		c1.3,0.8,1.9,2.2,1.9,4c0,1.7-0.7,3.2-2,4.5c-1.3,1.3-3.4,1.9-6.1,1.9c-2.9,0-5-0.7-6.3-2c-1.2-1.3-1.9-3-2-4.9H171.5z"/>
</g>
<g id="MZkhO8.tif">
	<path d="M112.7,0.2H90.1v7.2l0.4,0c0,0,0.2-1.8,1.1-3.4c1.1-2.1,2.8-3.2,5.1-3.4v22.2c0,4-2.3,4-2.4,4v0.4h14v-0.4
		c0,0-0.6,0-1.2-0.5c-0.8-0.7-1.2-1.9-1.2-3.6V0.6c2.4,0,4.2,1.2,5.3,3.4c0.9,1.7,1.1,3.4,1.1,3.4l0.4,0V0.2z"/>
	<path d="M134.7,22.8v-9.5c0-4-2-6-5.8-6c-0.6,0-5-0.3-6.2,5.5V0l-0.3,0.2c-3.2,2-9.2,2.6-9.3,2.6l0,0.4c0,0,0.6,0,1.1,0.4
		c0.4,0.4,0.7,1.1,0.7,2.1v17c0,4-1.5,4.1-1.6,4.1v0.4h11v-0.4c0,0-1.6-0.1-1.6-4.1v-4.9c0-8,4.2-12.1,4.2-4.6v9.5
		c0,4-1.5,4.1-1.5,4.1v0.4h10.9v-0.4C136.3,26.9,134.7,26.8,134.7,22.8z"/>
	<path d="M157,20.2h-0.4c-0.2,2.9-2.4,4.9-5.1,4.9c-2.7,0-4.3-2.4-5-4.4c3.1-0.1,5.6-0.9,7.5-2.3c1.7-1.3,2.6-3.1,2.6-5
		c0-3.4-3.1-6.2-7.6-6.1c-7.3,0.1-11.1,4.1-11.1,10.3c0,5.3,3.7,10.1,10,10.1C152.6,27.7,157,25,157,20.2z M145.5,14.9
		c0-3.6,1.1-7.1,3.4-7.2c1.8,0,1.9,3.5,1.9,4.2c0,2-0.4,4-1.2,5.6c-0.6,1.2-1.6,2.6-3.2,2.7C145.7,18.7,145.5,16.8,145.5,14.9z"/>
	<path d="M11.6,33.8H0v0.4c0,0,0.6,0,1.2,0.5c0.8,0.6,1.2,1.9,1.2,3.6v18.2c0,4-2.3,4-2.4,4V61h11.6C23.1,61,29,56.6,29,47.4
		S23,33.8,11.6,33.8z M11.6,60.5V34.2c3.6,0,8.2,2.5,8.2,13.1C19.8,59.9,13.4,60.5,11.6,60.5z"/>
	<path d="M44.8,50.3c8.8,0,9.2-9.4,2-9.4c-2.2,0-3.8,0.7-4.8,2.1c-0.7,1-1.2,2-1.5,3.2v-5.5L40.3,41c-3,2.3-9.2,2.6-9.3,2.6l0,0.4
		c0,0,0.6-0.1,1.1,0.4c0.4,0.4,0.7,1.2,0.7,2.1v9.9c0,4-1.5,4-1.6,4V61h11v-0.4c0,0-1.6-0.1-1.6-4v-5.4c0-5.6,1.7-8.3,3.4-8.2
		C47.1,42.9,46.9,49.1,44.8,50.3z"/>
	<path d="M72.2,53.8h-0.4c-0.2,2.9-2.4,4.9-5.1,4.9c-2.7,0-4.3-2.4-5-4.4c3.1-0.1,5.6-0.9,7.5-2.3c1.7-1.3,2.6-3.1,2.6-5
		c0-3.4-3.1-6.2-7.6-6.1C56.8,41,53,45,53,51.2c0,5.3,3.7,10.1,10,10.1C67.8,61.3,72.2,58.6,72.2,53.8z M60.6,48.5
		c0-3.6,1.1-7.1,3.4-7.2c1.8,0,1.9,3.5,1.9,4.2c0,2-0.4,4-1.2,5.6c-0.6,1.2-1.6,2.6-3.2,2.7C60.9,52.3,60.6,50.4,60.6,48.5z"/>
	<path d="M94.3,58.7v-0.3L94,58.5c-0.9,0.4-1.4-0.2-1.4-1.6v-3.6c0-4.6-0.8-7.6-2.4-9.4c-3.3-3.8-13.6-4.4-15.5,0.6
		c-0.6,1.7-0.2,3.5,1.1,4.6c1.9,1.6,4.8,0.8,5.3-0.4c-1.2,0-2.2-1.8-2.2-4.2c0-4.8,5.5-4.2,5.5,2c0,2.3-3,3.7-5.8,4.8
		c-2.8,1.1-5.8,2.2-5.8,5.3c0,1.6,0.6,2.8,1.7,3.7c0.9,0.8,2.3,1.2,3.7,1.2c1.7,0,3.4-0.6,4.6-1.5c0.8-0.6,1.5-1.4,1.8-2.3
		c0.2,1.1,0.7,2,1.7,2.7c0.9,0.6,2.2,1,3.6,1C92.1,61.2,94.3,60.3,94.3,58.7z M84.8,55.6c0,0.9-0.6,1.5-1.8,1.5
		c-1.2,0-2.4-0.7-2.4-2c0-1.5,0.9-2.6,1.9-3.7c0.8-1,1.7-2,2.1-3.4C84.7,49.3,84.8,53.2,84.8,55.6z"/>
	<path d="M128.3,56.4v-9.5c0-4-2-6-5.8-6c-0.6,0-4.9-0.3-6.3,5.4c-0.2-3.6-2.1-5.4-5.8-5.4c-2.3,0-5.1,0.8-6.2,5.3v-5.5l-0.3,0.2
		c-3.2,2-9.2,2.6-9.3,2.7l0,0.4c0,0,0.6,0,1.1,0.4c0.4,0.4,0.7,1.1,0.7,2.1v9.9c0,4-1.5,4.1-1.6,4.1V61h11v-0.4c0,0-1.6-0.1-1.6-4.1
		v-5.4c0-6.5,4.2-12.3,4.2-4.2v9.5c0,4-1.5,4.1-1.5,4.1V61h10.9v-0.4c0,0-1.5-0.1-1.5-4.1v-5.4c0-6.2,4.2-12.4,4.2-4.2v9.5
		c0,4-1.5,4.1-1.5,4.1V61h10.9v-0.4C129.9,60.5,128.3,60.4,128.3,56.4z"/>
	<path d="M150.6,53.8h-0.4c-0.2,2.9-2.4,4.9-5.1,4.9c-2.7,0-4.3-2.4-5-4.4c3.1-0.1,5.6-0.9,7.5-2.3c1.7-1.3,2.6-3.1,2.6-5
		c0-3.4-3.1-6.2-7.6-6.1c-7.3,0.1-11.1,4.1-11.1,10.3c0,5.3,3.7,10.1,10,10.1C146.1,61.3,150.6,58.6,150.6,53.8z M139,48.5
		c0-3.6,1.1-7.1,3.4-7.2c1.8,0,1.9,3.5,1.9,4.2c0,2-0.4,4-1.2,5.6c-0.6,1.2-1.6,2.6-3.2,2.7C139.3,52.3,139,50.4,139,48.5z"/>
	<path d="M166.1,50.3c8.8,0,9.2-9.4,2-9.4c-2.2,0-3.8,0.7-4.8,2.1c-0.7,1-1.2,2-1.5,3.2v-5.5l-0.3,0.2c-3,2.3-9.2,2.6-9.3,2.6l0,0.4
		c0,0,0.6-0.1,1.1,0.4c0.4,0.4,0.7,1.2,0.7,2.1v9.9c0,4-1.5,4-1.6,4V61h11v-0.4c0,0-1.6-0.1-1.6-4v-5.4c0-5.6,1.7-8.3,3.4-8.2
		C168.4,42.9,168.1,49.1,166.1,50.3z"/>
	<path d="M212.7,48.2h-11.1l0.4,0.4c3.2,3.3,2,12.3-1.1,12.3c-2.2,0-5.9-2.6-5.9-13.5c0-3.2,0.5-13.5,5.9-13.5c6,0,6.3,8.6,4.6,10.8
		c10.2,0,8.1-11.2-4.6-11.2c-8,0-15.1,6.2-15.1,13.9c0,7.5,7,14,15.1,14c2.5,0,4.1-1.3,6.8-1.3c3.5,0,4.1,1.1,4.1,1.1l0.3-0.3
		C212.1,60.8,209.8,54.4,212.7,48.2z"/>
	<path d="M220,41.2c2.4,0,4.4-1.7,4.4-3.8c0-2.2-2-3.9-4.4-3.9s-4.4,1.7-4.4,3.9C215.5,39.5,217.5,41.2,220,41.2z M224,56.4V40.8
		l-0.3,0.2c-3.2,2-9.2,2.6-9.3,2.7l0,0.4c0,0,0.6,0,1.1,0.4c0.4,0.4,0.7,1.1,0.7,2.1v9.9c0,4-1.5,4.1-1.6,4.1V61h11v-0.4
		C225.5,60.5,224,60.4,224,56.4z"/>
	<path d="M240.9,50.3c8.8,0,9.2-9.4,2-9.4c-2.2,0-3.8,0.7-4.8,2.1c-0.7,1-1.2,2-1.5,3.2v-5.5l-0.3,0.2c-3,2.3-9.2,2.6-9.3,2.6l0,0.4
		c0,0,0.6-0.1,1.1,0.4c0.4,0.4,0.7,1.2,0.7,2.1v9.9c0,4-1.5,4-1.6,4V61h11v-0.4c0,0-1.6-0.1-1.6-4v-5.4c0-5.6,1.7-8.3,3.4-8.2
		C243.2,42.9,243,49.1,240.9,50.3z"/>
	<path d="M258.3,56.4V33.6l-0.3,0.2c-3.2,2-9.2,2.6-9.3,2.6l0,0.4c0,0,0.6,0,1,0.4c0.5,0.4,0.7,1.2,0.7,2.1v17c0,4-1.5,4.1-1.6,4.1
		V61h11v-0.4C259.8,60.5,258.3,60.4,258.3,56.4z"/>
</g>
</svg>
