<?xml version="1.0" encoding="utf-8"?>
<!-- Generator: Adobe Illustrator 27.0.0, SVG Export Plug-In . SVG Version: 6.00 Build 0)  -->
<svg version="1.1" id="Layer_1" xmlns="http://www.w3.org/2000/svg" xmlns:xlink="http://www.w3.org/1999/xlink" x="0px" y="0px"
	 viewBox="0 0 265 157.7" style="enable-background:new 0 0 265 157.7;" xml:space="preserve">
<style type="text/css">
	.st0{fill:#231F20;}
</style>
<g>
	<path d="M16.6,85.4l5.1,21.8l6.1-21.8h3.9l6.1,21.8l5.1-21.8h4l-7,26.8h-3.8L29.7,90l-6.2,22.2h-3.8l-7-26.8H16.6z"/>
	<path d="M49.7,85.3h3.3v10c0.8-1,1.5-1.7,2.1-2.1c1.1-0.7,2.4-1,4-1c2.8,0,4.8,1,5.8,3c0.5,1.1,0.8,2.6,0.8,4.5v12.5h-3.4V99.9
		c0-1.4-0.2-2.5-0.5-3.2c-0.6-1.1-1.7-1.6-3.4-1.6c-1.4,0-2.6,0.5-3.7,1.4s-1.7,2.7-1.7,5.3v10.4h-3.3V85.3z"/>
	<path d="M84.6,94.6c1.7,1.7,2.6,4.1,2.6,7.4c0,3.2-0.8,5.8-2.3,7.8c-1.5,2.1-3.9,3.1-7.1,3.1c-2.7,0-4.8-0.9-6.4-2.7
		c-1.6-1.8-2.4-4.3-2.4-7.3c0-3.3,0.8-5.9,2.5-7.8c1.7-1.9,3.9-2.9,6.7-2.9C80.8,92.1,82.9,93,84.6,94.6z M82.6,107.6
		c0.8-1.6,1.2-3.5,1.2-5.5c0-1.8-0.3-3.3-0.9-4.5C82,95.9,80.4,95,78.2,95c-2,0-3.4,0.8-4.3,2.3c-0.9,1.5-1.4,3.4-1.4,5.5
		c0,2.1,0.5,3.8,1.4,5.2c0.9,1.4,2.3,2.1,4.3,2.1C80.3,110.1,81.8,109.3,82.6,107.6z"/>
	<path d="M101.6,85.4h3.3v3.7h-3.3V85.4z M101.6,92.8h3.3v19.5h-3.3V92.8z"/>
	<path d="M111.9,106.1c0.1,1.1,0.4,1.9,0.8,2.5c0.8,1.1,2.3,1.6,4.4,1.6c1.2,0,2.3-0.3,3.3-0.8c0.9-0.5,1.4-1.3,1.4-2.5
		c0-0.8-0.4-1.5-1.1-1.9c-0.5-0.3-1.4-0.6-2.9-0.9l-2.7-0.7c-1.7-0.4-2.9-0.9-3.7-1.4c-1.4-0.9-2.2-2.1-2.2-3.7c0-1.8,0.7-3.3,2-4.5
		c1.4-1.1,3.2-1.7,5.5-1.7c3,0,5.1,0.9,6.5,2.6c0.8,1.1,1.2,2.3,1.2,3.5h-3.1c-0.1-0.7-0.3-1.4-0.8-2c-0.8-0.9-2.1-1.3-4-1.3
		c-1.3,0-2.2,0.2-2.9,0.7s-1,1.1-1,1.9c0,0.8,0.4,1.5,1.3,2c0.5,0.3,1.2,0.6,2.2,0.8l2.2,0.5c2.4,0.6,4,1.1,4.8,1.7
		c1.3,0.8,1.9,2.2,1.9,4c0,1.7-0.7,3.2-2,4.5s-3.4,1.9-6.1,1.9c-2.9,0-5-0.7-6.3-2c-1.2-1.3-1.9-3-2-4.9H111.9z"/>
	<path d="M145.2,85.4h4.1l9.7,26.8h-4l-2.7-8h-10.6l-2.9,8h-3.7L145.2,85.4z M151.2,101.3l-4.1-11.9l-4.3,11.9H151.2z"/>
	<path d="M162,85.4h3.3v26.8H162V85.4z"/>
	<path d="M171.8,92.7l3.8,15.4l3.8-15.4h3.7l3.8,15.3l4-15.3h3.3l-5.7,19.6h-3.4l-4-15.1l-3.9,15.1h-3.4l-5.6-19.6H171.8z"/>
	<path d="M207.7,100.4c0.8-0.1,1.3-0.4,1.5-0.9c0.1-0.3,0.2-0.7,0.2-1.3c0-1.1-0.4-1.9-1.2-2.4c-0.8-0.5-1.9-0.8-3.4-0.8
		c-1.7,0-2.9,0.5-3.6,1.4c-0.4,0.5-0.7,1.3-0.8,2.3h-3.1c0.1-2.4,0.8-4.1,2.3-5c1.5-0.9,3.2-1.4,5.2-1.4c2.3,0,4.2,0.4,5.6,1.3
		c1.4,0.9,2.1,2.2,2.1,4.1v11.3c0,0.3,0.1,0.6,0.2,0.8c0.1,0.2,0.4,0.3,0.9,0.3c0.1,0,0.3,0,0.5,0c0.2,0,0.4,0,0.6-0.1v2.4
		c-0.5,0.1-0.9,0.2-1.2,0.3c-0.3,0-0.6,0.1-1.1,0.1c-1.1,0-2-0.4-2.5-1.2c-0.3-0.4-0.5-1-0.6-1.8c-0.7,0.9-1.6,1.6-2.9,2.3
		c-1.3,0.6-2.6,1-4.1,1c-1.8,0-3.3-0.5-4.4-1.7s-1.7-2.5-1.7-4.1c0-1.8,0.6-3.2,1.7-4.2c1.1-1,2.6-1.6,4.5-1.8L207.7,100.4z
		 M200.8,109.3c0.7,0.5,1.5,0.8,2.5,0.8c1.2,0,2.3-0.3,3.4-0.8c1.8-0.9,2.7-2.3,2.7-4.4v-2.6c-0.4,0.3-0.9,0.5-1.5,0.6
		c-0.6,0.2-1.3,0.3-1.9,0.4l-2,0.3c-1.2,0.2-2.1,0.4-2.7,0.7c-1,0.6-1.5,1.5-1.5,2.7C199.8,108,200.1,108.7,200.8,109.3z"/>
	<path d="M230.3,92.7h3.6c-0.5,1.3-1.5,4.1-3.1,8.6c-1.2,3.4-2.2,6.1-3,8.2c-1.9,5-3.2,8-4,9.1s-2.1,1.6-4,1.6c-0.5,0-0.8,0-1.1-0.1
		c-0.2,0-0.6-0.1-0.9-0.2v-3c0.6,0.2,1,0.3,1.2,0.3c0.3,0,0.5,0.1,0.7,0.1c0.6,0,1.1-0.1,1.3-0.3c0.3-0.2,0.5-0.4,0.7-0.7
		c0.1-0.1,0.3-0.6,0.7-1.5c0.4-0.9,0.6-1.6,0.8-2L216,92.7h3.7l5.2,15.9L230.3,92.7z"/>
	<path d="M238.7,106.1c0.1,1.1,0.4,1.9,0.8,2.5c0.8,1.1,2.3,1.6,4.4,1.6c1.2,0,2.3-0.3,3.3-0.8s1.4-1.3,1.4-2.5
		c0-0.8-0.4-1.5-1.1-1.9c-0.5-0.3-1.4-0.6-2.9-0.9l-2.7-0.7c-1.7-0.4-2.9-0.9-3.7-1.4c-1.4-0.9-2.2-2.1-2.2-3.7c0-1.8,0.7-3.3,2-4.5
		c1.4-1.1,3.2-1.7,5.5-1.7c3,0,5.1,0.9,6.5,2.6c0.8,1.1,1.2,2.3,1.2,3.5h-3.1c-0.1-0.7-0.3-1.4-0.8-2c-0.8-0.9-2.1-1.3-4-1.3
		c-1.3,0-2.2,0.2-2.9,0.7s-1,1.1-1,1.9c0,0.8,0.4,1.5,1.3,2c0.5,0.3,1.2,0.6,2.2,0.8l2.2,0.5c2.4,0.6,4,1.1,4.8,1.7
		c1.3,0.8,1.9,2.2,1.9,4c0,1.7-0.7,3.2-2,4.5c-1.3,1.3-3.4,1.9-6.1,1.9c-2.9,0-5-0.7-6.3-2c-1.2-1.3-1.9-3-2-4.9H238.7z"/>
	<path d="M59,121.4h3.3v3.7H59V121.4z M59,128.8h3.3v19.5H59V128.8z"/>
	<path d="M67.3,128.7h3.1v2.8c0.9-1.1,1.9-2,2.9-2.5c1-0.5,2.2-0.7,3.5-0.7c2.8,0,4.7,1,5.6,2.9c0.5,1.1,0.8,2.6,0.8,4.5v12.5h-3.3
		v-12.3c0-1.2-0.2-2.2-0.5-2.9c-0.6-1.2-1.6-1.8-3.2-1.8c-0.8,0-1.4,0.1-1.9,0.2c-0.9,0.3-1.7,0.8-2.4,1.6c-0.5,0.6-0.9,1.3-1.1,2
		c-0.2,0.7-0.2,1.7-0.2,2.9v10.2h-3.3V128.7z"/>
	<path d="M98.9,121.4h5.2l7.7,22.7l7.7-22.7h5.2v26.8h-3.5v-15.8c0-0.5,0-1.5,0-2.7c0-1.3,0-2.6,0-4.1l-7.7,22.6H110l-7.7-22.6v0.8
		c0,0.7,0,1.7,0.1,3c0,1.3,0.1,2.3,0.1,3v15.8h-3.5V121.4z"/>
	<path d="M143.9,130.6c1.7,1.7,2.6,4.1,2.6,7.4c0,3.2-0.8,5.8-2.3,7.8c-1.5,2.1-3.9,3.1-7.1,3.1c-2.7,0-4.8-0.9-6.4-2.7
		c-1.6-1.8-2.4-4.3-2.4-7.3c0-3.3,0.8-5.9,2.5-7.8c1.7-1.9,3.9-2.9,6.7-2.9C140,128.1,142.1,129,143.9,130.6z M141.8,143.6
		c0.8-1.6,1.2-3.5,1.2-5.5c0-1.8-0.3-3.3-0.9-4.5c-0.9-1.8-2.5-2.7-4.7-2.7c-2,0-3.4,0.8-4.3,2.3c-0.9,1.5-1.4,3.4-1.4,5.5
		c0,2.1,0.5,3.8,1.4,5.2c0.9,1.4,2.3,2.1,4.3,2.1C139.5,146.1,141,145.3,141.8,143.6z"/>
	<path d="M151.1,123.2h3.3v5.5h3.1v2.7h-3.1v12.8c0,0.7,0.2,1.1,0.7,1.4c0.3,0.1,0.7,0.2,1.3,0.2c0.2,0,0.3,0,0.5,0
		c0.2,0,0.4,0,0.6-0.1v2.6c-0.4,0.1-0.8,0.2-1.2,0.2s-0.8,0.1-1.3,0.1c-1.5,0-2.6-0.4-3.1-1.2s-0.8-1.8-0.8-3.1v-12.9h-2.6v-2.7h2.6
		V123.2z"/>
	<path d="M160.9,121.4h3.3v3.7h-3.3V121.4z M160.9,128.8h3.3v19.5h-3.3V128.8z"/>
	<path d="M183.4,130.6c1.7,1.7,2.6,4.1,2.6,7.4c0,3.2-0.8,5.8-2.3,7.8c-1.5,2.1-3.9,3.1-7.1,3.1c-2.7,0-4.8-0.9-6.4-2.7
		s-2.4-4.3-2.4-7.3c0-3.3,0.8-5.9,2.5-7.8s3.9-2.9,6.7-2.9C179.5,128.1,181.6,129,183.4,130.6z M181.3,143.6
		c0.8-1.6,1.2-3.5,1.2-5.5c0-1.8-0.3-3.3-0.9-4.5c-0.9-1.8-2.5-2.7-4.7-2.7c-2,0-3.4,0.8-4.3,2.3c-0.9,1.5-1.4,3.4-1.4,5.5
		c0,2.1,0.5,3.8,1.4,5.2c0.9,1.4,2.3,2.1,4.3,2.1C179,146.1,180.5,145.3,181.3,143.6z"/>
	<path d="M190,128.7h3.1v2.8c0.9-1.1,1.9-2,2.9-2.5c1-0.5,2.2-0.7,3.5-0.7c2.8,0,4.6,1,5.6,2.9c0.5,1.1,0.8,2.6,0.8,4.5v12.5h-3.3
		v-12.3c0-1.2-0.2-2.2-0.5-2.9c-0.6-1.2-1.6-1.8-3.2-1.8c-0.8,0-1.4,0.1-1.9,0.2c-0.9,0.3-1.7,0.8-2.4,1.6c-0.5,0.6-0.9,1.3-1.1,2
		c-0.2,0.7-0.2,1.7-0.2,2.9v10.2H190V128.7z"/>
</g>
<g>
	<g>
		<path class="st0" d="M120.2,2.6v8.8h-4.8v23.6h-8.6V11.3h-4.8V2.6H120.2z"/>
		<path class="st0" d="M121.1,34.8V2.6l8.4-1v15.2l1.8-8.4c0.6-0.2,1.5-0.3,2.6-0.3c1.3,0,2.5,0.1,3.4,0.3c0.9,0.2,1.7,0.6,2.4,1.1
			s1.2,1.3,1.6,2.2c0.3,1,0.4,2.2,0.4,3.7c0,4.4,0,7.9,0,10.3s0,3.9,0,4.2c0,0.1,0,0.3,0,0.7c0,0.3,0,0.7,0,0.9c0,0.2,0,0.6,0,0.9
			c0,0.4,0,0.7,0.1,1c0,0.2,0.1,0.4,0.2,0.8c0.1,0.2,0.2,0.4,0.3,0.7h-8.4c-0.1-0.1-0.2-0.3-0.3-0.7c-0.1-0.2-0.1-0.6-0.2-0.8
			c0-0.2-0.1-0.6-0.1-1s0-0.7,0-0.9s0-0.4,0-0.9s0-0.7,0-0.7V19.5c0-0.7,0-1.2-0.1-1.7c-0.1-0.4-0.2-0.8-0.4-1s-0.4-0.3-0.7-0.4
			c-0.2-0.1-0.4-0.1-0.7-0.1c-0.3,0-0.7,0.1-1,0.2c-0.2,0.2-0.4,0.4-0.6,0.7c-0.1,0.2-0.2,0.6-0.2,0.7c0,0.2-0.1,0.4-0.1,0.6v16.3
			h-8.3V34.8z"/>
		<path class="st0" d="M151.2,23.7v1.6c0,0.4,0,0.8,0,1.1c0,0.3,0.1,0.6,0.2,0.9c0.1,0.2,0.3,0.4,0.6,0.7c0.2,0.1,0.6,0.2,0.9,0.2
			c0.2,0,0.4,0,0.6,0s0.3-0.1,0.4-0.1s0.2-0.1,0.3-0.2s0.1-0.2,0.2-0.3c0-0.1,0.1-0.2,0.1-0.3c0-0.1,0-0.2,0-0.4s0-0.3,0-0.4
			s0-0.2,0-0.4s0-0.3,0-0.4h8.4c0,0.2,0,0.4,0,0.8c0,1.9-0.1,3.4-0.3,4.4c-0.6,2.6-2.2,4.2-4.9,4.6c-0.6,0.1-1.2,0.1-1.9,0.1h-3.9
			c-1.1,0-2.1-0.1-3-0.3s-1.7-0.6-2.2-0.9c-0.6-0.3-1.1-0.8-1.6-1.3s-0.8-1.1-1.1-1.7c-0.3-0.6-0.4-1.2-0.7-1.9
			c-0.1-0.7-0.2-1.3-0.3-1.9c0-0.6-0.1-1.2-0.1-1.8v-7.5c0-6.5,3-9.9,9.1-9.9h2.1c6.1,0,9.1,3.3,9.1,9.9c0,1.7-0.2,3-0.6,4
			c-0.4,1.1-0.9,1.7-1.3,1.7c-0.4,0-1.7,0.1-3.8,0.1l0,0l0,0l0,0l0,0l0,0l0,0l0,0l0,0l0,0l0,0l0,0l0,0l0,0l0,0l0,0l0,0l0,0l0,0l0,0
			l0,0l0,0l0,0l0,0l0,0l0,0l0,0l0,0l0,0l0,0l0,0l0,0l0,0l0,0l0,0l0,0l0,0l0,0l0,0l0,0l0,0l0,0l0,0l0,0l0,0l0,0l0,0l0,0l0,0l0,0l0,0
			l0,0l0,0l0,0l0,0l0,0l0,0l0,0l0,0l0,0l0,0l0,0l0,0l0,0l0,0l0,0l0,0l0,0l0,0l0,0l0,0l0,0l0,0l0,0l0,0l0,0l0,0l0,0l0,0l0,0l0,0l0,0
			l0,0l0,0l0,0l0,0l0,0l0,0l0,0l0,0l0,0l0,0l0,0l0,0l0,0l0,0l0,0l0,0l0,0l0,0l0,0l0,0l0,0l0,0l0,0l0,0l0,0l0,0l0,0l0,0l0,0l0,0l0,0
			l0,0l0,0l0,0l0,0l0,0l0,0l0,0l0,0l0,0l0,0l0,0l0,0l0,0l0,0l0,0l0,0l0,0l0,0l0,0l0,0l0,0l0,0l0,0l0,0l0,0l0,0l0,0l0,0l0,0l0,0l0,0
			l0,0l0,0l0,0l0,0l0,0l0,0l0,0l0,0l0,0l0,0l0,0l0,0l0,0l0,0l0,0l0,0l0,0l0,0l0,0l0,0l0,0l0,0l0,0l0,0l0,0l0,0l0,0l0,0l0,0l0,0l0,0
			l0,0l0,0l0,0l0,0l0,0l0,0l0,0l0,0l0,0l0,0l0,0l0,0l0,0l0,0l0,0l0,0l0,0l0,0l0,0l0,0l0,0l0,0l0,0l0,0l0,0l0,0l0,0l0,0l0,0l0,0l0,0
			l0,0H151.2z M151.2,18.1l-1,1.3h4.4v-1.3c0-0.4,0-0.8,0-1.1c0-0.3-0.1-0.6-0.2-0.9c-0.1-0.3-0.3-0.6-0.6-0.7
			c-0.2-0.1-0.6-0.2-0.9-0.2c-0.3,0-0.7,0.1-0.9,0.2c-0.2,0.1-0.4,0.3-0.6,0.7c-0.1,0.3-0.2,0.6-0.2,0.9
			C151.2,17.2,151.2,17.6,151.2,18.1z"/>
	</g>
	<g>
		<path class="st0" d="M57.4,66.4c2.2,0,2.7-3.9,1.3-11.8c0-0.2,0-0.3-0.1-0.4c5.9,0,9,0,9,0v11.3c0,2.5-0.7,4.5-1.9,5.9
			c-1.3,1.5-3.1,2.2-5.5,2.2h-5.5c-2.4,0-4.2-0.8-5.5-2.2c-1.3-1.5-1.9-3.5-1.9-5.9V49.2c0-2.5,0.7-4.5,1.9-5.9
			c1.3-1.5,3.1-2.2,5.5-2.2h5.5c2.4,0,4.2,0.8,5.5,2.2c1.3,1.5,1.9,3.5,1.9,5.9v1.7h-8.2c0-0.9-0.1-1.6-0.4-2
			c-0.3-0.4-0.8-0.6-1.6-0.6c-0.2,0-0.4,0-0.6,0.1c-0.1,0.1-0.3,0.1-0.4,0.1c-0.1,0-0.2,0.1-0.3,0.2c-0.1,0.1-0.2,0.2-0.2,0.3
			c0,0.1-0.1,0.2-0.2,0.4c-0.1,0.2-0.1,0.3-0.1,0.4c0,0.1,0,0.2,0,0.4c0,0.2,0,0.3,0,0.4s0,0.2,0,0.4c0,0.2,0,0.3,0,0.3V63
			c0,0,0,0.1,0,0.3s0,0.3,0,0.4s0,0.2,0,0.4s0,0.3,0,0.4c0,0.1,0.1,0.2,0.1,0.4s0.1,0.3,0.2,0.4c0.1,0.1,0.1,0.2,0.2,0.3
			s0.2,0.2,0.3,0.2c0.1,0,0.3,0.1,0.4,0.1C56.9,66.3,57.1,66.4,57.4,66.4z"/>
		<path class="st0" d="M78,73.8c-1.1,0-2.1-0.1-3-0.3c-0.9-0.2-1.7-0.6-2.2-0.9c-0.6-0.3-1.1-0.8-1.6-1.3c-0.4-0.6-0.8-1.1-1.1-1.7
			c-0.3-0.6-0.4-1.2-0.7-1.9c-0.1-0.7-0.2-1.3-0.3-1.9c0-0.6-0.1-1.2-0.1-1.8v-7.4c0-6.5,3-9.9,9.1-9.9h2.1c6.1,0,9.1,3.3,9.1,9.9
			v7.4c0,0.7,0,1.2-0.1,1.8c0,0.6-0.1,1.2-0.3,1.9c-0.2,0.7-0.3,1.3-0.7,1.9c-0.3,0.6-0.7,1.1-1.1,1.7c-0.6,0.4-1,0.9-1.7,1.3
			c-0.7,0.4-1.3,0.7-2.2,0.9c-0.9,0.2-1.9,0.3-3,0.3C80,73.8,78,73.8,78,73.8z M78.1,66.6c0.2,0.1,0.6,0.2,0.9,0.2s0.7-0.1,0.9-0.2
			c0.2-0.1,0.4-0.3,0.6-0.7c0.1-0.3,0.2-0.6,0.2-0.9c0-0.3,0-0.7,0-1.1v-7.2c0-0.4,0-0.8,0-1.1s-0.1-0.6-0.2-0.9
			c-0.1-0.3-0.3-0.6-0.6-0.7c-0.2-0.1-0.6-0.2-0.9-0.2s-0.7,0.1-0.9,0.2c-0.2,0.1-0.4,0.3-0.6,0.7c-0.1,0.3-0.2,0.6-0.2,0.9
			s0,0.7,0,1.1v7.2c0,0.4,0,0.8,0,1.1c0,0.3,0.1,0.6,0.2,0.9C77.7,66.3,77.9,66.5,78.1,66.6z"/>
		<path class="st0" d="M90.7,60.6v-4.3h19.4v4.3H90.7z"/>
		<path class="st0" d="M121.9,66.4c2.2,0,2.7-3.9,1.3-11.8c0-0.2,0-0.3-0.1-0.4c5.9,0,9,0,9,0v11.3c0,2.5-0.7,4.5-1.9,5.9
			c-1.3,1.5-3.1,2.2-5.5,2.2h-5.5c-2.4,0-4.2-0.8-5.5-2.2c-1.3-1.5-1.9-3.5-1.9-5.9V49.2c0-2.5,0.7-4.5,1.9-5.9
			c1.3-1.5,3.1-2.2,5.5-2.2h5.5c2.4,0,4.2,0.8,5.5,2.2s1.9,3.5,1.9,5.9v1.7h-8.2c0-0.9-0.1-1.6-0.4-2c-0.3-0.4-0.8-0.6-1.6-0.6
			c-0.2,0-0.4,0-0.6,0.1c-0.1,0.1-0.3,0.1-0.4,0.1c-0.1,0-0.2,0.1-0.3,0.2s-0.2,0.2-0.2,0.3s-0.1,0.2-0.2,0.4
			c-0.1,0.2-0.1,0.3-0.1,0.4c0,0.1,0,0.2,0,0.4c0,0.2,0,0.3,0,0.4c0,0.1,0,0.2,0,0.4c0,0.2,0,0.3,0,0.3V63c0,0,0,0.1,0,0.3
			c0,0.2,0,0.3,0,0.4c0,0.1,0,0.2,0,0.4s0,0.3,0,0.4c0,0.1,0.1,0.2,0.1,0.4s0.1,0.3,0.2,0.4c0.1,0.1,0.1,0.2,0.2,0.3
			c0.1,0.1,0.2,0.2,0.3,0.2c0.1,0,0.3,0.1,0.4,0.1S121.7,66.4,121.9,66.4z"/>
		<path class="st0" d="M141.8,62.3v1.6c0,0.4,0,0.8,0,1.1c0,0.3,0.1,0.6,0.2,0.9c0.1,0.2,0.3,0.4,0.6,0.7c0.2,0.1,0.6,0.2,0.9,0.2
			c0.2,0,0.4,0,0.6,0c0.1,0,0.3-0.1,0.4-0.1s0.2-0.1,0.3-0.2c0.1-0.1,0.1-0.2,0.2-0.3c0-0.1,0.1-0.2,0.1-0.3c0-0.1,0-0.2,0-0.4
			s0-0.3,0-0.4c0-0.1,0-0.2,0-0.4s0-0.3,0-0.4h8.4c0,0.2,0,0.4,0,0.8c0,1.9-0.1,3.4-0.3,4.4c-0.6,2.6-2.2,4.2-4.9,4.6
			c-0.6,0.1-1.2,0.1-1.9,0.1h-3.9c-1.1,0-2.1-0.1-3-0.3c-0.9-0.2-1.7-0.6-2.2-0.9c-0.6-0.3-1.1-0.8-1.6-1.3
			c-0.4-0.6-0.8-1.1-1.1-1.7c-0.3-0.6-0.4-1.2-0.7-1.9c-0.1-0.7-0.2-1.3-0.3-1.9c0-0.6-0.1-1.2-0.1-1.8v-7.4c0-6.5,3-9.9,9.1-9.9
			h2.1c6.1,0,9.1,3.3,9.1,9.9c0,1.7-0.2,3-0.6,4c-0.4,1.1-0.9,1.7-1.3,1.7c-0.4,0-1.7,0.1-3.8,0.1l0,0l0,0l0,0l0,0l0,0l0,0l0,0l0,0
			l0,0l0,0l0,0l0,0l0,0l0,0l0,0l0,0l0,0l0,0l0,0l0,0l0,0l0,0l0,0l0,0l0,0l0,0l0,0l0,0l0,0l0,0l0,0l0,0l0,0l0,0l0,0l0,0l0,0l0,0l0,0
			l0,0l0,0l0,0l0,0l0,0l0,0l0,0l0,0l0,0l0,0l0,0l0,0l0,0l0,0l0,0l0,0l0,0l0,0l0,0l0,0l0,0l0,0l0,0l0,0l0,0l0,0l0,0l0,0l0,0l0,0l0,0
			l0,0l0,0l0,0l0,0l0,0l0,0l0,0l0,0l0,0l0,0l0,0l0,0l0,0l0,0l0,0l0,0l0,0l0,0l0,0l0,0l0,0l0,0l0,0l0,0l0,0l0,0l0,0l0,0l0,0l0,0l0,0
			l0,0l0,0l0,0l0,0l0,0l0,0l0,0l0,0l0,0l0,0l0,0l0,0l0,0l0,0l0,0l0,0l0,0l0,0l0,0l0,0l0,0l0,0l0,0l0,0l0,0l0,0l0,0l0,0l0,0l0,0l0,0
			l0,0l0,0l0,0l0,0l0,0l0,0l0,0l0,0l0,0l0,0l0,0l0,0l0,0l0,0l0,0l0,0l0,0l0,0l0,0l0,0l0,0l0,0l0,0l0,0l0,0l0,0l0,0l0,0l0,0l0,0l0,0
			l0,0l0,0l0,0l0,0l0,0l0,0l0,0l0,0l0,0l0,0l0,0l0,0l0,0l0,0l0,0l0,0l0,0l0,0l0,0l0,0l0,0l0,0l0,0l0,0l0,0l0,0l0,0l0,0l0,0l0,0l0,0
			l0,0l0,0l0,0l0,0l0,0l0,0l0,0l0,0l0,0l0,0l0,0l0,0h-6.2V62.3z M141.8,56.7l-1,1.3h4.4v-1.3c0-0.4,0-0.8,0-1.1s-0.1-0.6-0.2-0.9
			c-0.1-0.3-0.3-0.6-0.6-0.7c-0.2-0.1-0.6-0.2-0.9-0.2c-0.3,0-0.7,0.1-0.9,0.2c-0.2,0.1-0.4,0.3-0.6,0.7c-0.1,0.3-0.2,0.6-0.2,0.9
			S141.8,56.3,141.8,56.7z"/>
		<path class="st0" d="M163.3,63.2c0,1.2,0.2,2.1,0.6,2.6c0.3,0.4,1.1,0.7,2.4,0.7v7.1c-1,0.2-2.1,0.3-3.4,0.3
			c-2.7,0-4.7-0.8-5.9-2.5c-1.2-1.7-1.9-4.3-1.9-7.7V43l8.4-1V47h2.8V55l-2.8-0.1v8.3H163.3z"/>
		<path class="st0" d="M175.9,63.2c0,1.2,0.2,2.1,0.6,2.6c0.3,0.4,1.1,0.7,2.4,0.7v7.1c-1,0.2-2.1,0.3-3.4,0.3
			c-2.7,0-4.7-0.8-5.9-2.5c-1.2-1.7-1.9-4.3-1.9-7.7V43l8.4-1V47h2.8V55l-2.8-0.1v8.3H175.9z"/>
		<path class="st0" d="M188.2,62.3v1.6c0,0.4,0,0.8,0,1.1c0,0.3,0.1,0.6,0.2,0.9c0.1,0.2,0.3,0.4,0.6,0.7c0.2,0.1,0.6,0.2,0.9,0.2
			c0.2,0,0.4,0,0.6,0s0.3-0.1,0.4-0.1s0.2-0.1,0.3-0.2c0.1-0.1,0.1-0.2,0.2-0.3c0-0.1,0.1-0.2,0.1-0.3c0-0.1,0-0.2,0-0.4
			s0-0.3,0-0.4c0-0.1,0-0.2,0-0.4s0-0.3,0-0.4h8.4c0,0.2,0,0.4,0,0.8c0,1.9-0.1,3.4-0.3,4.4c-0.6,2.6-2.2,4.2-4.9,4.6
			c-0.6,0.1-1.2,0.1-1.9,0.1h-3.9c-1.1,0-2.1-0.1-3-0.3c-0.9-0.2-1.7-0.6-2.2-0.9c-0.6-0.3-1.1-0.8-1.6-1.3
			c-0.4-0.6-0.8-1.1-1.1-1.7c-0.3-0.6-0.4-1.2-0.7-1.9c-0.1-0.7-0.2-1.3-0.3-1.9c0-0.6-0.1-1.2-0.1-1.8v-7.4c0-6.5,3-9.9,9.1-9.9
			h2.1c6.1,0,9.1,3.3,9.1,9.9c0,1.7-0.2,3-0.6,4c-0.4,1.1-0.9,1.7-1.3,1.7c-0.4,0-1.7,0.1-3.8,0.1l0,0l0,0l0,0l0,0l0,0l0,0l0,0l0,0
			l0,0l0,0l0,0l0,0l0,0l0,0l0,0l0,0l0,0l0,0l0,0l0,0l0,0l0,0l0,0l0,0l0,0l0,0l0,0l0,0l0,0l0,0l0,0l0,0l0,0l0,0l0,0l0,0l0,0l0,0l0,0
			l0,0l0,0l0,0l0,0l0,0l0,0l0,0l0,0l0,0l0,0l0,0l0,0l0,0l0,0l0,0l0,0l0,0l0,0l0,0l0,0l0,0l0,0l0,0l0,0l0,0l0,0l0,0l0,0l0,0l0,0l0,0
			l0,0l0,0l0,0l0,0l0,0l0,0l0,0l0,0l0,0l0,0l0,0l0,0l0,0l0,0l0,0l0,0l0,0l0,0l0,0l0,0l0,0l0,0l0,0l0,0l0,0l0,0l0,0l0,0l0,0l0,0l0,0
			l0,0l0,0l0,0l0,0l0,0l0,0l0,0l0,0l0,0l0,0l0,0l0,0l0,0l0,0l0,0l0,0l0,0l0,0l0,0l0,0l0,0l0,0l0,0l0,0l0,0l0,0l0,0l0,0l0,0l0,0l0,0
			l0,0l0,0l0,0l0,0l0,0l0,0l0,0l0,0l0,0l0,0l0,0l0,0l0,0l0,0l0,0l0,0l0,0l0,0l0,0l0,0l0,0l0,0l0,0l0,0l0,0l0,0l0,0l0,0l0,0l0,0l0,0
			l0,0l0,0l0,0l0,0l0,0l0,0l0,0l0,0l0,0l0,0l0,0l0,0l0,0l0,0l0,0l0,0l0,0l0,0l0,0l0,0l0,0l0,0l0,0l0,0l0,0l0,0l0,0l0,0l0,0l0,0l0,0
			l0,0l0,0l0,0l0,0l0,0l0,0l0,0l0,0l0,0l0,0l0,0l0,0h-6.2V62.3z M188.2,56.7l-1,1.3h4.4v-1.3c0-0.4,0-0.8,0-1.1s-0.1-0.6-0.2-0.9
			c-0.1-0.3-0.3-0.6-0.6-0.7c-0.2-0.1-0.6-0.2-0.9-0.2c-0.3,0-0.7,0.1-0.9,0.2c-0.2,0.1-0.4,0.3-0.6,0.7s-0.2,0.6-0.2,0.9
			S188.2,56.3,188.2,56.7z"/>
		<path class="st0" d="M201.4,73.4V47.1h8.4v7.5c0.1-0.9,0.2-1.6,0.4-2.4c0.2-0.7,0.4-1.3,0.8-2.1c0.3-0.8,0.7-1.3,1.1-1.8
			c0.4-0.4,1-0.9,1.7-1.2c0.7-0.3,1.5-0.4,2.2-0.4c0.6,0,1.1,0.1,1.7,0.3v8.9c-1.2-0.3-2.5-0.6-3.5-0.6c-0.8,0-1.5,0.1-2.1,0.4
			c-0.6,0.2-1.1,0.7-1.5,1.1c-0.3,0.4-0.6,1-0.8,1.5c-0.1,0.6-0.2,1.1-0.2,1.7v13.4h-8.3V73.4z"/>
	</g>
</g>
</svg>
