<svg enable-background="new 0 0 280 186.1" viewBox="0 0 280 186.1" xmlns="http://www.w3.org/2000/svg"><path d="m118 37.4v.5c.1 0 .1.1 0 .2l-.1.2h-.1v.1h.3c-.1.4-.2.7-.3 1s-.2.5-.2.7v.1.1c.1.1.1.2.1.3s0 .2.1.3h.2.2c-.1.1-.1.1-.2.2s-.1.1-.1.2c-.1 0-.1 0-.1 0h-.1-.1v.1h-.1c-.4-.1-.7-.2-1-.3s-.6-.3-.8-.4c0-.1 0-.2-.1-.3s-.1-.2-.1-.3c0-.2 0-.4 0-.6s0-.5 0-.8c-.1-.1-.1-.2-.1-.3 0-.2 0-.3.1-.4.2-1.4.5-2.7.8-4s.6-2.7.9-4c0-.1.1-.2.1-.3s0-.1 0-.2l.1-.3.2-.6c-.1 0 0-.2.1-.5s.3-.6.4-.9c.2-.5.3-.9.4-1.2s.3-.6.4-.9.2-.6.4-.9c.1-.3.3-.7.5-1.1.1-.1.1-.3.2-.4 0-.1.1-.3.2-.4.1 0 .2 0 .2-.1 0 0 0 0-.1-.1.1-.2.3-.5.5-1s.4-1 .6-1.5c.2-.6.4-1.1.6-1.6s.4-.9.6-1.3c.1-.3.2-.4.2-.4s0 0-.1.1c0 .1-.1.1-.1.1s.1-.1.2-.4c.1-.2.2-.4.2-.7 0-.2.1-.4.2-.6h.1c.1-.1.1-.1.1-.2s0-.1 0-.2 0-.1.1-.2c0 0 .1-.1.1-.2.1-.2.1-.3.1-.4s.1-.2.1-.3c.3-.5.5-.9.6-1.3s.4-.8.7-1.3c.1-.2.3-.4.4-.7.1-.2.2-.5.3-.7 0-.1 0-.1 0-.2 0 0 0-.1 0-.2l.1-.4c0-.1.1-.2.1-.3.2-.3.4-.6.6-1 .2-.3.4-.7.5-1-.1 0-.1.1-.2.1s-.2.1-.3 0c0-.1 0-.1.1-.1s.1-.1.1-.2c-.1 0-.1 0-.2.1s-.2.1-.3.1c0 0 0 0 .1-.1-.2 0-.3 0-.4 0-.1.1-.2.1-.3.1.1-.2.3-.2.5-.2s.4 0 .5-.1c0-.1-.1-.1-.1 0 0 0-.1.1-.2 0 0-.1.1-.1.2-.1s.2 0 .2-.1c-.1-.1-.3-.1-.4 0s-.3.1-.5 0c.1-.1.3-.1.4-.1s.3 0 .5-.1h.1.1v-.1c-.1.1-.3.1-.4.1s-.3 0-.4 0c.1-.1.1-.1.2-.1s.1-.1.2-.1c-.3.1-.4.1-.5.2-.2.1-.3.1-.5.2-.1 0-.3.1-.5.1.2-.1.2-.1.2-.1-.1-.1-.2-.1-.3 0s-.3.2-.4.2h.2c-.3.2-.5.3-.8.3-.3.1-.6.1-.9.2 0-.1 0-.1.1-.1s.2-.1.2-.1c-.1 0-.2 0-.2 0s.1-.2 0-.2c-.2.1-.3.2-.5.3s-.4.2-.7.2c0-.1.1-.1.1-.1s.1 0 .1-.1c-.1 0-.2 0-.3 0s-.2 0-.2.1h.2c-.2.1-.5.2-.7.3s-.5.2-.7.4c.2 0 .3-.1.5-.1.2-.1.3-.1.4-.2 0-.1 0-.1.1-.1s.2 0 .2-.1c0 .1-.1.1-.1.1.5 0 1-.2 1.4-.4-.2.2-.4.3-.8.4-.3.1-.6.2-.8.4-.5.1-.9.3-1.3.7.1 0 .2 0 .2-.1 0 0 .1-.1.1-.1.1 0 .1 0 0 0 0-.1.1-.1.1-.1h.1c.3-.1.6-.2.9-.3-.1.1-.2.2-.3.2s-.3.1-.4.1c-.2.1-.3.1-.2.1l-.3.1c-.1 0-.3.1-.4.2s-.3.1-.5.1c-.1 0-.1 0-.2 0s-.1 0-.2 0-.2 0-.4.1-.4.2-.6.2c-.2.1-.4.2-.7.2-.2.1-.3.1-.4.2-.2.2-.5.3-.8.3s-.6.1-1 .3l-.2.2c-.2.1-.3.1-.4.1-.4.1-.7.2-1 .3s-.6.3-.9.4c-.1.1-.2.1-.4.2s-.3.1-.4 0-.2-.2-.2-.3c0-.2-.1-.2-.3-.2-.2-.3-.3-.5-.3-.9-.1-.3-.1-.6-.2-.9v.1h.2c0 .1.1.1.2.1s.2 0 .3-.1.2-.1.3-.1l1.1-.5c.2-.1.3-.1.4-.1s.2-.1.4-.1h.1.1c.2 0 .4-.1.6-.2.3-.1.5-.1.7-.2s.4-.2.7-.3l.2-.1h.2.2c.1 0 .1 0 .2-.1.1.1.2.1.3 0 0 0 .1 0 .2-.1s.3-.1.5-.1c.5-.1 1.1-.3 1.8-.5s1.3-.4 2-.6 1.4-.4 2.1-.6 1.3-.3 1.9-.4h.1c0 .1 0 .1-.1.1s-.2 0-.2 0c.3-.1.6-.1.9-.2.3 0 .6-.2.9-.3h.1c-.1 0-.2 0-.3 0-.1.1-.2 0-.2 0h.1.1c.1 0 .3 0 .4-.1s.3-.1.4-.1c0 .1-.1.1-.2.1s-.2 0-.2.1v.1.1c.8-.2 1.5-.3 2.2-.5s1.4-.3 2.1-.5c-.1-.1-.2-.1-.3 0s-.3.1-.4 0c.3-.2.6-.2.9-.2h.9v.1c.3-.1.8-.2 1.6-.4s1.7-.3 2.6-.5c1-.2 2-.3 3.1-.5 1.1-.1 2-.3 2.9-.4s1.6-.2 2.1-.2h.8 1.5c.3 0 .6.1.9.1s.6.1.9.1v.5c0 .2 0 .4-.1.5 0 0 .1-.1.1-.3s0-.4.1-.6c0-.2.1-.4.1-.6s0-.3 0-.2c0 .4-.1.8-.1 1s-.1.5-.1.7 0 .3-.1.3v-.1s0 0 0-.1c-.1 0-.1.1-.2.3s-.2.2-.2.2h-.2s.1 0 0 0-.2-.1-.3-.1-.2-.1-.3-.1c0 .1.1.1.1.2s.1.1.1.1c-.4 0-.7.1-1 .1s-.6.1-.9.1c-.2 0-.4 0-.8 0-.3 0-.4 0-.2-.1.4-.1.6-.2.9-.2.2 0 .5-.1.7-.2-.1 0-.2 0-.4 0s-.3.1-.4.1l-3.7.6c.5-.1 1-.1 1.4-.1.5 0 .9 0 1.2-.1v.3s-.1 0-.2 0c-.1.1-.3.2-.4.3-.1-.1-.3-.1-.7 0s-.5.1-.5 0h.4c.2 0 .3 0 .4-.1-.6 0-1.2.1-1.9.2s-1.4.2-2.1.3c-.3 0-.6 0-.9.1s-.6.2-1 .2c.1-.1.4-.1.7-.2-.4 0-.5 0-.3-.1-.3 0-.5.1-.7.1s-.4 0-.6 0-.5.1-.7.1c-.2.1-.5.1-.7.2s-.3.1-.4.1v-.1s-.1 0-.3.1c-.3.1-.6.1-1 .2s-.8.2-1.2.3-.7.2-1 .2c-.3.1-.4.1-.4.1-.1.1-.2.1-.2.1s0 0-.1.1c0 0-.1.2-.2.4s-.2.5-.4 1c0 .2-.1.3-.2.4-.1 0-.2.1-.2.3-.1.3-.2.5-.3.7s-.2.4-.4.6c0 .1-.1.1-.1.2s-.1.2-.1.2c-.1.1-.1.1-.2.2 0 .1-.1.1-.1.2l-.1.5c-.1.3-.3.6-.6.9l-.6 1.2c-.1.1-.1.3-.2.4 0 .1-.1.2-.2.4-.2.3-.3.5-.4.7s-.2.4-.4.7l-.2.2h.1v.2c-.2.3-.3.6-.3.7-.1.1-.1.2-.1.2l-.5.8v.1.1.1s-.1 0-.2 0l-.2.4.1.1h-.1c0 .1 0 .1.1.1v.1c-.1.1-.1.1-.2.1-.1 0-.1 0-.2 0s-.1 0-.2 0h.3c0 .1 0 .1-.1.1s-.2 0-.2.1c-.1.3-.2.5-.3.7s-.2.4-.3.6c.3 0 .4-.1.4-.4h.2.2c.1-.1.2-.2.2-.3s.1-.3.1-.4c0 .1 0 .2.1.2 0 .1-.1.1-.1.2v.2c-.1.2-.2.3-.3.5s-.2.3-.4.4c.1-.2.1-.3.2-.4s.1-.2.2-.4c-.2 0-.3.2-.4.6-.2 0-.3.1-.5.2 0 .1.1.1.1.2v.2h.2c0-.1.1-.1.1-.1 0 .1-.1.2-.2.3-.2 0-.3.1-.5.1-.1 0-.2 0-.2 0h.1c.1 0 .1 0 .1.1-.1 0-.1 0-.2 0s-.1 0-.2 0c-.1.1-.1.1-.1.2s-.1.2-.2.3c.1 0 .2 0 .3-.1s.1-.1.2-.1c0 .1-.1.2-.1.2 0 .1-.1.1-.1.2 0 0-.1.1-.1.1s-.1.1-.1.1c0-.1 0-.1 0-.1.1 0 .1-.1.1-.1 0-.1-.1-.1-.1 0 0 0-.1 0-.2 0v.2s0 .1-.1.1h.2c-.1.2-.1.3-.2.3-.1.1-.2.2-.2.4.1 0 .2 0 .3.1-.1 0-.1.1-.2.1s-.2.1-.2.2c-.2.1-.2.2-.1.3 0 .1.1.1.1.1s.1 0 .1.1-.1.1-.1.2c-.1.1-.1.2-.2.2-.2.2-.3.5-.4.8s-.2.5-.4.8h.1.1c-.2.3-.4.5-.4.7s-.1.4-.1.6c.2 0 .3-.1.3-.3.1-.1.1-.1.2-.1h.2c-.2.1-.5.4-.7.7-.1 0-.1 0-.1 0 0 .1-.1.3-.3.5 0 .1.1.1.1.1h.2l-.1.1c-.1.1-.1.2-.2.3s-.1.3 0 .4c-.2 0-.3.1-.4.3s-.2.4-.3.7-.2.5-.2.8c-.1.3-.2.6-.3.8-.1 0-.1 0-.1 0 .1-.1.1-.2.1-.3-.1 0-.2.1-.2.2s-.1.2-.3.2c.1-.1.1-.1 0-.1s-.1 0-.1-.1.1-.1.1-.2 0-.1 0-.2c-.1 0-.1 0-.1.1v.2c-.2.1-.3.1-.3.2h.1s.1-.1.1-.1c.1.1.1.2 0 .3-.1.2-.1.3 0 .4.2 0 .3 0 .5-.1s.3-.1.5 0v.1c-.1.1-.1.2-.1.3s-.1.1-.2.1c0 .2-.1.4-.2.5-.2.1-.3.3-.3.5 0 .1.1.1.2.1s.2-.1.3-.1c.1.1.1.2 0 .3s-.1.2 0 .3c-.2 0-.3 0-.4.1s-.1.3-.1.4c0 .2-.1.3-.1.5 0 .1-.1.2-.2.3v-.1-.1c-.1 0-.1.1-.1.2s-.1.1-.1.2c0 0-.1 0-.2-.1-.1.1-.1.1 0 .2v.2c.1 0 .2 0 .2-.1s.1-.1.2 0c-.1.2-.2.2-.5.1-.1.1-.1.1 0 .2s.1.1.2.2c0 0 0 0 0-.1.1.1.1.1.2.1h.2l-.1.4-.1.5h.1v.2c0 .1-.1.2-.2.2v.3.2l.1-.2c.1 0 .2 0 .1.1-.3 0-.3.1-.5.2zm.3-2.6c.2 0 .2.1.1.2s-.2.2-.3.1c0-.1.1-.1.1-.1.2 0 .2-.1.1-.2zm0 1.1c.1.1.1.1.2 0 0 .1-.1.1-.2.2 0 0 0-.1 0-.2zm.7-2.1c.1 0 .1.1.1.2s-.1.2-.2.3c-.1-.1-.1-.1 0-.2 0-.1 0-.2.1-.3zm.3-2.9c-.1.2-.2.2-.3.2 0-.1.1-.2.1-.2.1-.1.2-.1.2 0zm1 .1s0 0 0-.1h-.1c-.1-.2 0-.2.2-.1zm1.2-5c0-.1 0-.1.1-.1s.2 0 .1.1zm.4-18.9c0 .1-.1.2-.3.2 0-.1 0-.1.1-.1s.2 0 .2-.1zm.1 18.2c-.1.1-.1.1-.2.1s-.1-.1-.1-.1c.1-.1.2 0 .3 0zm.6-1c-.1.1-.2.2-.3.4s-.2.3-.3.5c-.2 0-.3-.1-.3-.2h.1.1c.1 0 .1 0 .1-.1h-.1c0-.1.1-.2.1-.2s.1-.1.1-.2h.1c.1 0 .1 0 .1-.1.2-.1.2-.1.3-.1zm-.5-17.7c0 .1 0 .1-.1.1s-.2 0-.2 0c0-.1 0-.1.1-.1zm.3 19.2c0 .2-.1.3-.1.4s-.1.2-.2.2c0-.1.1-.2.1-.3.1-.1.1-.2.2-.3zm-.3-.5c-.1-.1 0-.2 0-.2.1 0 .1 0 .1.1s0 .1-.1.1c.1.1.1.1 0 0zm1.1-2.5c0 .1 0 .1-.1.1 0 0-.1.1-.1.1v-.1-.1c-.1 0-.1.1-.1.3 0 .1 0 .2.1.3l-.1.2v.1s-.1 0-.2 0v.1s-.1.1-.1.1h.1c-.2.1-.3.1-.4.1.1 0 .1-.1.1-.1 0-.1 0-.1-.1-.1.3-.1.4-.1.5-.2h-.1-.1c.1-.1.2-.2.2-.4 0-.1.1-.3.1-.4h.2c0 .1 0 0 .1 0zm-.6-16.3c0 .1-.1.1-.1.1s-.1 0-.2 0c0-.1.1-.1.3-.1zm.6.2c-.1.1-.2.2-.4.2-.1 0-.3.1-.4.1.1-.1.2-.2.3-.2.2 0 .4 0 .5-.1zm-.3 18.3c0 .1-.2.1-.4.1 0-.1.1-.1.2-.1zm.4-18.7c-.1.1-.2.1-.3.1s-.2 0-.3.1c.1-.2.3-.2.6-.2zm-.2 18c-.1 0-.1.1-.1.2s-.1.2-.2.1c.1-.1.2-.1.2-.2-.1-.1 0-.2.1-.1zm0-1.8c.1 0 .1 0 .1.1s-.1.2-.1.1 0-.1 0-.1 0 0 0-.1zm1.4-16.2c0 .1-.1.1-.2.1s-.2 0-.2.1l-.6.1c0-.1.1-.2.2-.2s.2 0 .3-.1c-.1-.1-.2-.1-.4 0s-.4.2-.6.1c0-.1.1-.1.2-.1h.2c.2 0 .3-.1.4-.1s.2 0 .3.1h.2c0 .1.1 0 .2 0zm-1.2 17.7c0 .1 0 .2-.1.2s-.1 0-.1-.1 0-.1.1-.1zm.2-.6c-.1.1-.2.2-.4.3 0-.1 0-.1 0-.2v-.1c.1-.1.1-.1.2-.1.1.1.1.1.2.1zm.6-1.4c-.1.1-.1.2-.2.3s-.2.2-.2.2c-.1-.1-.1-.1-.2 0-.1 0-.2 0-.2 0 0-.1 0-.1.1-.2.1 0 .1 0 .1.1s.1.1.1 0c.1 0 .1-.1.2-.3 0-.2.1-.2.3-.1zm.7-1.6c0 .1 0 .2-.1.2s-.1.1 0 .3c-.1-.1-.3-.1-.4 0h.1.1-.1v-.1c-.1 0-.1 0-.1 0v.1.1c-.3-.1-.5.1-.6.5.1 0 .2-.1.2-.3.1.1.2.1.3 0h.3c0 .1-.1.2-.2.2s-.2 0-.4 0c0 .1.1.1.2 0s.2 0 .2.1l-.1.1c-.1 0-.1-.1-.1-.1-.2 0-.3 0-.3.1-.1 0-.1 0-.1 0v.1h-.1c.1-.2.2-.3.3-.5.1-.1.3-.2.4-.4-.1-.2 0-.3.3-.4-.2.1 0 0 .2 0zm-1.3 2.4c.1 0 .1 0 0 0 .1.1.1.1 0 0 .1.3 0 .4-.2.5 0-.1 0-.2.1-.2 0-.1 0-.2.1-.3zm1.2-16.7-.6.2c.1-.1.2-.2.3-.2zm-.1 14.8c0 .1-.1.2-.1.3-.1.1-.1.1-.2 0 0-.2.1-.3.3-.3zm.2-.9c-.1.2-.2.2-.3.2-.1-.1 0-.1 0-.1.2 0 .2 0 .3-.1zm.4-1.8c-.1.4-.2.6-.4.7 0-.3.2-.5.4-.7zm.8-12.6c-.2.2-.3.3-.5.3s-.4.1-.6.1c.2-.2.4-.3.6-.3s.4 0 .5-.1zm-.2-.1c-.1.1-.2.1-.3.1 0-.1.1-.1.1-.1zm-.2 12.2c0-.1 0-.1 0 0v-.1c-.1 0 0 0 0 .1.1-.1.1-.1 0 0zm.7-11.8c0 .1 0 .1.1.1s.1 0 0 .1c-.2-.1-.3 0-.5 0-.1.1-.3.1-.5.1zm-.3-2.1c0 .1-.1.1-.3.1 0 0 .1 0 .3-.1zm1 1c-.1 0-.1 0-.2 0s-.1 0-.1.1c.2-.1.3-.1.3-.1zm.2.8c0 .1-.1.1 0 0l-.2.2h.1c0-.1 0-.1.1-.2zm0 0c0 .1-.1.1 0 0l-.2.2h.1c0-.1 0-.1.1-.2zm.2-.9c.1-.1.1-.1 0 0 .1-.1.2-.1.2-.1v.1h-.1s-.1 0-.2 0h.1c.1.1.1.1.1 0zm0 0c.1-.1.1-.1 0 0 .1-.1.2-.1.2-.1v.1h-.1s-.1 0-.2 0h.1c.1.1.1.1.1 0zm.7-1.2s-.1.1-.2.1-.1 0-.2 0-.1 0-.2 0c.1 0 .3 0 .6-.1zm.4-.1c0 .1 0 .1-.1.1s-.2 0-.2 0c0-.1.1-.1.2 0-.1 0 0 0 .1-.1zm.2-.3c0 .1-.1.1-.2.2-.1 0-.2 0-.3 0 .1-.1.1-.1.2-.1s.2-.1.3-.1zm.8.1c-.2.1-.3.1-.5.2-.1 0-.3.1-.5.1.1-.2.2-.2.4-.2.2-.1.4-.2.6-.1 0-.1 0-.1 0 0zm12.7.5c-.4.1-.8.2-1.4.3-.6 0-1 .1-1.3.1.4-.1.7-.2 1.1-.2s.7-.1 1.1-.1c.1-.1.1-.1 0-.1s-.1 0-.2 0c.2-.1.3-.1.4 0zm-1.1.3c0 .2-.2.2-.6.2s-.7 0-1 .1c.2-.2.4-.2.8-.2s.6 0 .8-.1zm2-.2c.1-.1.2-.1.5-.1s.5 0 .6-.1h-.1zm1.4-.5h-.2-.1s0 0-.1 0 0 0 0 0h.1.1.2c0 .1 0 .1 0 0zm-.4.1c.1 0 .1.1.1.1h.1.1-.1-.1-.1c.1-.2 0-.2 0-.1 0-.1 0 0 0 0zm.3.2c-.1 0-.1 0 0 0zm.1-.3h.1c.1 0 0 0-.1 0zm2.3-2.3c-.2-.1-.3-.1-.4 0h-.1l.1.1zm-.5 0 .4.1h-.1c.1-.2-.1-.2-.3-.1zm.6 1.8h.2c0-.2-.1-.2-.2 0zm.2-.1c-.1 0-.1 0-.1 0zm.2-.2c-.1 0-.1 0 0 0h-.1.1l.5.1h-.1s0 0-.1 0h-.3zm-.1.1h.6-.1s0 0-.1 0h-.4c0-.1 0-.1 0 0zm.2.1h.3c-.1.1-.1.1-.1.1h-.1v-.1c-.1 0-.1 0-.1 0zm0 0h.3c-.1.1-.1.1-.1.1h-.1v-.1c-.1 0-.1 0-.1 0z"/><path d="m139.9 7.9c.1 0 .1 0 0 0h.3.1.1.2.2c.1 0 .2 0 .2.1.1.1.1.1.2.1h.1l.1.1c.1.1.1.1.2.1s.2.1.2.1c.2.2.3.4.3.6v.8c-.1.1-.1.1-.1.2v.2c0 .1-.1.1-.1.1s-.1.1-.1.1c-.2.2-.3.4-.4.6s-.2.5-.3.7l-.4.5v.4c-.1 0-.1 0-.1 0h-.1c-.1 0-.1.1-.1.1v.2c-.2.4-.4.7-.5 1.1-.2.4-.3.8-.3 1.2-.2.1-.3.2-.3.3v.3c-.1.1-.1.3-.2.4s-.1.3-.1.4c-.1.2-.2.3-.3.5s-.2.4-.2.6l-.2.3v.1.1l-1.9 4.4-.3.7-.2.4-.2.4c-.1.6-.3 1.2-.5 1.7s-.5 1-.8 1.5l-1 2.1c-.1.1-.1.3-.2.4s-.1.3-.1.4v.2l-.2.3c.4-.4.7-.8 1.2-1.2.4-.4.8-.8 1.3-1.2l.2-.3.3-.3c.4-.3.8-.7 1.2-1 .4-.4.8-.7 1.1-1 .4-.3.8-.6 1.2-.9s.8-.6 1.3-.9c.1 0 .1-.1.2-.1.1-.1.1-.1.1-.1h.2c.2-.1.4-.2.5-.3s.3-.2.5-.2c.2-.1.3-.1.4 0 .1 0 .2.1.3.2s.3.1.4.1h.4v.2h.3c0 .1.1.1.1.2.1.1.1.2 0 .3v.7c-.1.3-.1.6-.2.9 0 .3-.1.6-.3.7.1 0 .1 0 0 .1 0 .1-.1.2-.1.2-.1.1-.1.2-.1.2v.2.7c-.1.6-.1 1.1-.1 1.6 0 .4 0 .9.2 1.3 0 .1.1.3.2.6s.2.5.3.5c.1.1.1.1.2 0h.3c.1.1.2.1.3.1h.3c.6-.1 1.2-.3 1.8-.7.7-.4 1.2-.7 1.6-.9l.3-.3c.1-.1.1-.1.1-.1s0 0 .1-.1.1-.1.2-.1h.2c.1 0 .3 0 .4-.1s.2-.2.3-.2c.1-.1.1-.1.2-.2.1 0 .2-.1.3-.2s.3-.2.5-.4.5-.4.9-.7.1-.1.1-.2c-.1.1-.1.1-.1.1 0-.1.1-.1.1-.2 0 0 .1-.1.3-.3v-.1c.1-.1.1-.1.2-.2s.2-.1.3-.1c.1-.1.2-.2.4-.2.1-.1.1-.2.1-.3.2-.1.4-.1.5-.1s.3-.1.4-.3c0-.1 0-.1 0 0 .1-.1.1-.1.1 0 0 0 .1.1.1 0s0-.1-.1-.1c0 0-.1 0 0-.1h.1s0-.1 0-.2 0 0 .1.2c.4-.1.6-.1.7.2 0 .2 0 .3-.1.4s-.2.2-.2.3v.1c0 .1 0 .2-.1.3s-.2.2-.2.3c0 .2-.1.3-.1.3-.1 0-.1.1-.2.1-.1.1-.1.1-.2.2 0 .1-.2.2-.3.2-.3.2-.4.4-.5.5s-.1.1-.2.2c0 0-.1.1-.2.2s-.3.2-.5.5c-.1-.1-.1 0-.2.1s-.2.3-.2.3c-.3.2-.5.3-.6.4-.2.1-.3.3-.5.4-.1.1-.3.3-.5.4s-.4.2-.6.4c-.1 0-.1 0-.2.1 0 .1-.1.2-.2.2h-.1v-.1h-.1v.1.1c.1 0 .1.1 0 .2h-.3c-.1-.1-.1-.1 0-.1v-.1c-.2.1-.3.1-.3.2s-.1.2-.2.2c.1 0 .1 0 .2-.1h.1c0 .1 0 .1-.1.2s-.1.1-.1.1-.1.1-.2.1v-.1c-.2 0-.3 0-.4.2s-.2.2-.4.2v-.1c-.1 0-.1 0-.2 0s-.1 0-.2.1c0 .1.1.1.1 0-.1.1-.3.3-.6.4s-.6.2-.9.3-.7.1-1 .2c-.3 0-.5 0-.7 0h-.1-.1c-.1 0-.3 0-.4 0-.4-.1-.8-.2-1.1-.3s-.7-.3-.9-.5h.1c0-.1 0-.1 0-.2-.1 0-.1 0-.1.1-.2-.1-.3-.3-.4-.5s-.2-.4-.4-.6c0-.2-.1-.4-.2-.4-.2-.7-.3-1.6-.2-2.6s.2-2 .5-3c-.3.1-.5.2-.6.3s-.3.3-.4.5c-.1.1-.3.2-.4.2-.1.1-.1.1-.2.2s-.2.2-.2.3c-1.1 1.1-2.3 2.3-3.5 3.4s-2.3 2.3-3.2 3.6l-.5.3c-.1.1-.1.1-.1.2 0 0-.1.1-.1.1-.1 0-.3 0-.4 0s-.3 0-.4 0h-.1c-.1 0-.2 0-.2 0s0 0-.1 0v-.2c-.2-.1-.3-.1-.5-.1s-.3-.1-.4-.1c-.1-.2-.2-.4-.2-.8v-.2l.1-.4.1-.4s0 0 0-.1l.1-.1c.2-.7.4-1.4.7-2.2.4-1 .8-2.1 1.3-3.1s.9-2 1.4-3c.6-1.4 1.2-2.8 1.8-4.1s1.2-2.7 1.8-4.1c.1 0 .2-.1.2-.2l.4-1c.4-.9.7-1.8 1.1-2.7s.8-1.8 1.2-2.6c.2-.4.4-.7.5-1.1-.3 0-.2-.3-.1-.7zm1.7 25.9c.1 0 .1 0 .2.1.1 0 .1.1.2.1 0-.1 0-.1-.1-.2-.2 0-.3 0-.3 0zm6.8-.5v-.1c0-.1 0-.1 0-.1-.1 0-.1 0 0 .2-.1 0-.1 0 0 0zm2.6-2.8c.1 0 .1-.1.2-.3s.1-.3.1-.4c-.1.1-.2.2-.3.3s0 .3 0 .4zm.5-1.9c0 .1 0 .1 0 0-.1.1 0 .1 0 0 0 .1 0 .1 0 0zm.6 1c.2 0 .3 0 .4-.1l-.1-.1c0 .1 0 .1-.1.1s-.1 0-.2.1z"/><path d="m170.1 28.5c.1.1 0 .3-.3.5s-.6.5-.9.8c-.1 0-.2.1-.4.3s-.4.3-.4.4l-.3.2-.8.6-.4.2-.7.4c-.6.4-1.1.7-1.6 1s-1.1.6-1.8.9c0 0-.1 0-.2 0s-.2.1-.3.1-.2.1-.3.1-.2 0-.3.1c-.1 0-.2.1-.4.1 0 0 0 0 0-.1-.2 0-.3.1-.4.1s-.2.1-.3.2c-.1-.1-.2-.1-.3 0s-.2.1-.3 0c-.1.1-.2.1-.3.1s-.2 0-.3.1c-.1 0-.1-.1 0-.1 0 0 0 0 0-.1-.1 0-.2 0-.4 0-.1 0-.3 0-.5.1-.1-.1-.2-.1-.2 0 0 0-.2 0-.3 0v.1c-.5-.1-.8-.1-1.1-.1-.1 0-.2-.1-.3-.1s-.1 0-.2 0c-.4-.1-.7-.1-1-.2s-.6-.2-1-.4-.7-.4-1-.7-.6-.6-.8-1c-.1-.2-.2-.5-.3-.7s-.1-.4-.2-.6c-.1-.3-.1-.5-.1-.7s0-.4.1-.7c.1-.4.2-.8.3-1.5.1-.6.4-1.1.8-1.6l1.1-1.3.7-1c.3-.2.5-.4.6-.5.2-.1.4-.3.6-.6.2-.2.4-.3.6-.4s.4-.3.6-.4c.3-.2.5-.4.7-.5.2-.2.5-.3.7-.5.3-.1.5-.3.7-.3.1-.1.2-.1.4-.1s.3 0 .4-.1c.1 0 .1-.1.2-.1h.2c.2.3.4.5.7.7s.5.4.7.7c.2.1.4.2.4.3 0 .2.1.3.3.4.1.3.1.5 0 .7 0 .2-.1.4-.3.6-.1.1-.1.1-.1.2v.2c-.1.2-.2.3-.3.4s-.3.3-.4.4-.1.2-.2.3c0 .1-.1.3-.2.4s-.3.3-.5.5-.4.4-.5.6c-.2.2-.4.4-.6.5s-.4.2-.6.4c-.1.1-.1.2-.1.3-.3.3-.6.5-.9.7s-.6.4-.9.7c-.5.1-1 .3-1.4.6s-.9.4-1.5.2c-.1 0-.1.1 0 .1h.2c-.1.2-.1.3 0 .4s.1.2.2.3c.3.3.6.5.9.7.4.2.7.4 1.2.4 1.2.4 2.3.4 3.4 0 .4-.1.7-.1 1-.2s.7-.2 1.1-.3c.5-.2 1-.4 1.4-.6l.6-.3c.1-.1.2-.1.2-.1s0 0 .1-.1l1.3-.6c.4-.3.6-.5.9-.6.2-.1.6-.4 1-.8 0 0 .1-.1.3-.2s.3-.2.5-.4c.2-.1.3-.3.5-.4s.3-.2.3-.2l.5-.5c.4-.3.7-.5 1-.7s.5-.3.6-.4c.1.1.2.2.2.4s.1.3.2.3c-.2.3-.3.5-.4.7-.1.1-.1.3-.2.3 0 .1-.1.1-.2.2-.4.6-.5.7-.7.8zm-10.3-5.5c-.1.1-.2.1-.3.2s-.2.2-.3.2-.2 0-.2.1c-.1 0-.1.1-.2.1 0 0-.1.1-.2.1l-.4.3c-.2.2-.3.3-.5.4s-.3.2-.5.3c-.2.3-.4.5-.6.6s-.4.3-.6.6c-.4.2-.6.5-.9.8-.4.4-.7.7-1 1s-.5.7-.7 1c.6-.2 1.2-.5 1.8-.9.5-.4 1.1-.9 1.8-1.3.2-.2.4-.3.6-.5s.4-.4.5-.6c.3-.2.6-.4 1-.8s.7-.7.9-1.1c.1-.2.1-.3.2-.4s.1-.3 0-.4c-.1 0-.2 0-.3 0 .1.2 0 .3-.1.3z"/><path d="m27.9 42.3c-.1.7-.2 1.5-.3 2.2s-.3 1.3-.4 1.9c0 .1 0 .3-.1.6-.2.4-.3.9-.4 1.3s-.2.8-.3 1.2l-.1.4v.1.1c0 .1-.1.1-.1.1v.1.1.1s0 .1-.1.1c0 0-.1.1-.1.1-.1.2-.1.3-.1.5s-.1.4-.1.6c-.1 0-.1.1-.1.1s-.1.1-.1.2c0 .2 0 .3-.1.4s-.2.2-.2.3c-.3 0-.3.1-.3.2v.2l-.3.9-.3.3c-.1.4-.2.8-.4 1.1-.6 1.3-1.2 2.4-1.9 3.5s-1.5 2.2-2.3 3.3c0 .3-.1.5-.2.6 0-.1 0-.2 0-.2-.1.1-.2.3-.3.4s-.2.3-.2.6c-.1 0-.1-.1-.1-.1v-.1c-.2.2-.3.3-.4.5s-.2.4-.3.5-.2.3-.3.4c-.1.2-.2.3-.3.5v.3c-.1 0-.1-.1-.1-.1s-.1-.1-.1-.1v.1.1c0 .1.1.2.1.2.1.1.1.1.1.2v-.1c.1.1.2.2.2.3s.1.2.2.3v-.1-.1h.1l.2.3c.1.1.2.1.3.2s.2.2.2.4c.1.1.2.1.2.2l.4.2.8 1.3h.1l.1.1c.1.2.3.4.7.6.1.1.2.1.2.2v.1l.2.1c.1.1.2.1.2.2s.1.2.2.2c.2.1.3.2.5.3.1.1.3.2.3.3v.1c-.1 0-.1 0-.1.1s0 .2-.1.2l.1.1c-.1.2-.1.4-.2.6s-.2.3-.4.5v.3c-.1 0-.1 0-.1 0-.1-.1-.2-.1-.3 0-.1 0-.3 0-.3 0h.1.2c-.6-.1-1.1-.2-1.5-.5s-.8-.6-1.1-1l-.8-.7c-.2-.3-.5-.6-.7-.8s-.5-.5-.7-.7c-.2-.3-.4-.6-.6-.9s-.4-.5-.7-.7l-.2.1c0-.1 0-.1.1-.2l-.1-.1s-.1 0-.1-.1v.1.2l.1-.1c0 .1-.1.2-.3.3 0 .3-.1.5-.2.6-.2.1-.3.2-.4.3 0-.1 0-.1 0-.1s.1 0 0 0c-.1.1-.2.2-.3.3s-.2.2-.3.3c0 .1-.1.2-.2.3s-.2.2-.4.3h-.3c-.2 0-.3.1-.4.2s-.2.2-.3.3-.1.1-.2.1-.2.1-.2.1l-.2.2c0 .1-.1.1-.2.1s-.2 0-.3.1l-.6.1c-.2.1-.4.1-.6.1s-.4 0-.6 0c-.3 0-.5 0-.7 0s-.4-.1-.7-.1c-.2 0-.4-.1-.6-.1s-.4-.1-.6-.2c-.1-.1-.1-.2-.2-.2-.1-.1-.3-.2-.4-.2s-.3-.1-.4-.2l-.8-.2c-.1-.1-.1-.1-.2-.1s-.1 0-.2 0c-.7-.3-1.4-.8-1.9-1.4s-.9-1.2-1.3-2c-.1-.3-.2-.6-.2-.9-.1-.2-.1-.3-.2-.5 0-.1 0-.3-.1-.4 0-.1 0-.1 0-.1v-.1c-.1-.4-.2-.7-.3-1s-.2-.7-.2-1.1c0-.2 0-.3 0-.5s0-.4 0-.6.1-.3.1-.5 0-.4 0-.6c0-.1-.1-.2-.1-.3 0 0 0-.1 0-.2 0-.2 0-.5 0-.7.1-.3.1-.5.2-.7l.1-.9.3-.8c0-.1 0-.2 0-.3s0-.2 0-.2c.1-.2.1-.3.1-.4 0-.4.1-.7.2-.9.1-.3.2-.6.3-.9v-.5l.4-.6c0-.2 0-.3 0-.5s0-.3.1-.5c.1-.5.2-1 .4-1.4s.4-.8.5-1.1c0 0 0-.1 0-.2s0-.1 0-.2l.3-.3c.1-.1.2-.2.1-.4-.1 0-.1 0-.1 0 0 .1 0 .1-.1 0 .1-.1.1-.2.2-.2 0-.1.1-.2.1-.3.1 0 .2-.1.2-.2s0-.3.1-.4c-.1.1-.1.2-.1.3s-.1.2-.2.2c.1-.6.3-1 .6-1.3.2-.3.4-.7.6-1.1v-.2-.1c.1 0 .1-.1.1-.1 0-.1.1-.1.1-.1.2-.4.5-.8.7-1.2s.5-.8.7-1.1c.1-.3.3-.6.5-.8.6-1.1 1.3-2 2.2-2.8.3-.6.7-1 1.1-1.5.4-.4.8-.9 1.1-1.3.3-.2.5-.4.6-.6.3-.4.6-.7.9-.9.3-.3.6-.6.9-1 .1-.1.3-.2.4-.3l.3-.3c.1 0 .2 0 .3-.1s.2-.1.3-.2c.3-.2.6-.3.9-.5.3-.1.6-.3.9-.5l.4-.1.4-.2c.4-.2.7-.2 1.2-.2.4 0 .9 0 1.3-.1.1.1.1.1.2.1s.1 0 .2.1l.1-.1c.1 0 .1.1.2.1s.1.1.1.2c.1-.1.2-.1.3 0h.2c.1 0 .1.1.2.1.1.1.2.1.3.2 0 0 0 0 0-.1v-.1c.1 0 .1 0 .2.1.1 0 .1.1.2.1.3.2.6.3.9.5s.6.4.8.7h.1c.1.1.3.2.5.4 0 0 .1.1.1.1v.1c-.1 0-.1 0-.1-.1 0 0-.1-.1-.2-.1.1.3.2.5.4.6.2.2.4.3.6.4v-.1c0 .2.1.3.2.3-.1.2 0 .3.1.4s.2.3.3.4c0 .1.1.1.1.2.1 0 .1.1.1.2.1.4.3.8.4 1.2s.3.8.4 1.2c.1.2.1.3.1.5v.5.8c0 .2 0 .5-.1.7 0 .2-.1.3-.1.5s-.1.4-.1.5 0 .2-.1.3c-.1 0-.1 0-.1-.1 0 0 0-.1-.1-.1-.1.4-.1.8-.1 1.1 0 .4-.1.7-.3 1 .2-.6.2-1.3.1-2.1h.1c-.1-.2-.1-.4 0-.5.1 0 .1 0 0 .1v.1c.1-.5.1-1-.1-1.4.1-.1.1-.1.1 0v.1c0-.2.1-.3.1-.4s0-.2 0-.4c.1.1.2.2.2.3v.3c.1-.1.1-.3.1-.5s-.1-.4-.1-.6c-.1.1-.1.2-.1.4v.1c-.1-.4-.1-.8-.1-1.3 0-.4-.1-.8-.1-1.2-.1.4-.1.8 0 1.2s.1.8 0 1.3c-.1-.3-.1-.7-.1-1.1s0-.8-.1-1.1c-.1.1-.1.1-.1.2s0 .1.1.2l.1 1.4v1.3 1.4.2.3.2c-.1.4-.2.7-.3 1s-.1.7-.1 1.1v.2.2l-.1.1-.1.2c0 .3 0 .5-.1.6s-.2.3-.4.3c-.1.3-.1.5-.2.6-.1.2-.2.4-.2.6.1-.4.2-.8.3-1.2s.3-.8.3-1.4c.1 0 .2-.1.2-.1s.1-.1.1-.1c0-.6.1-1.1.2-1.6s.2-1 .3-1.7v-2.5.7c0 .2 0 .5-.1.8 0 1.1-.2 2.1-.4 3-.3.9-.5 1.8-.8 2.6.1-.4.1-.8.2-1.2s.2-.7.3-1.1c0-.2.1-.3.1-.4s0-.3 0-.4v.1s0 0-.1 0c-.1-.1 0-.1.1-.2s.1-.2 0-.3c.1 0 .1 0 0-.1v-.1c-.1-.3 0-.5.1-.8s.2-.6.1-.9c0-.1 0-.1 0-.1v-.1c0-.1 0-.2.1-.4.1-.6 0-1.2-.1-1.8-.2-.6-.3-1.2-.4-1.7-.1 0-.1 0-.1.1s0 .2-.1.2c0 .4.1.9.1 1.4s.1.9.1 1.4c-.2-1.4-.4-2.6-.8-3.8-.4-1.1-1.1-2-2.1-2.5v.1c.1 0 .1.1 0 .1-.2.2-.2.1-.2-.1-.5-.1-.9 0-1.4.1s-.9.2-1.2.4c0-.1 0-.1 0-.1v-.1c-.1.1-.2.2-.3.3s-.3.1-.4.1l-.2-.2c.1.3 0 .5-.1.7s-.3.3-.5.3l-.7.3c-.2 0-.4.1-.4.1-.1.1-.2.1-.3 0-.1 0-.1.1-.2.2-.6.4-1.2.8-1.7 1.3s-1 1-1.5 1.5c0 .2 0 .3-.1.3 0 0-.1.1 0 .1-.3.2-.6.4-.8.7s-.4.5-.7.7c-.1.3-.2.5-.4.7s-.3.4-.4.7c-.4.4-.8.8-1 1.4-.3.5-.6 1-.9 1.5-.1.3-.2.5-.3.7s-.2.4-.3.6c-.2.2-.2.3-.2.4s0 .2-.1.2c-.1.2-.2.3-.3.4-.3.6-.5 1.1-.7 1.8-.2.6-.5 1.2-.8 1.8v.1.2.1.2l-.1.4v.1.1c-.1.1-.1.1-.1.2s0 .2 0 .3c-.2.5-.3.9-.5 1.4s-.4 1-.5 1.5c0 .1-.1.3-.1.4s-.1.3-.1.4c-.1.5-.1.9-.2 1.4s-.2.9-.4 1.5l-.1.7c-.1.6-.2 1.2-.2 1.9v2.1.3.1.4.4c.1.7.3 1.3.5 2 .3.6.5 1.2.8 1.7.4.1 1.3.2 2.3.1.5 0 .9-.1 1.2-.2.2 0 .4-.1.5-.1.1-.1.3-.1.5-.2s.3-.2.5-.3.4-.2.5-.3c.5-.3.9-.6 1.2-.9.3-.4.7-.7 1.2-1.1l-1.2-1c-.2-.3-.4-.5-.6-.6l-.6-.5c-.1-.2-.2-.4-.4-.5s-.3-.3-.4-.5c-.1 0-.2-.1-.2-.2l.4-.6c.2-.2.3-.3.4-.5s.2-.4.4-.6c.1-.1.3-.2.4-.2.1-.1.3-.1.4-.1h.3c.1.1.2.2.3.4l.3.6c.1.2.2.3.4.4s.3.3.4.4c.2.2.4.4.6.5.2.2.4.4.6.6l.2.2c0 .1.1.2.2.2.1-.2.2-.3.3-.5s.3-.3.4-.3v.1.1s.1-.1.1-.1.1-.1.1-.1v-.1c.2-.2.4-.4.6-.6.1-.2.3-.5.4-.7.1 0 .1 0 .2-.1s.1-.2.2-.3c0-.1.1-.2.2-.3.5-.8 1-1.7 1.7-2.6.1-.2.2-.3.3-.5s.2-.4.3-.6c0-.1 0-.1 0-.1s0 0 0-.1c.2-.1.3-.2.4-.3 0-.1.1-.2.2-.4.1 0 .2-.1.2-.2s.1-.2.2-.2c.3-.6.6-1.3.9-1.8.3-.6.6-1.2.9-2-.1 0-.1 0-.1.1v.1c0-.2 0-.3.1-.4s.1-.2.1-.3c.1 0 .1.1 0 .1v.1-.1c0-.1 0-.1.1-.2 0-.2 0-.3 0-.3 0-.1.1-.1.1-.2l.1-.2c-.1.1-.1.1-.1.2 0-.4.2-.7.4-.9s.4-.6.5-.9c0 .2-.1.3-.2.5-.1.5-.2.9-.4 1.3s-.3.8-.4 1.3c.1 0 .1 0 .1-.1s.1-.1.2-.1c.1-.2.2-.4.3-.5s.3-.3.3-.6c-.1.9-.4 1.8-.7 2.5-.4.7-.7 1.4-1 2.2v.1.1.1c0 .1 0 .2-.1.3-.2.3-.3.7-.5 1-.1.4-.3.7-.6 1h.1.1.2s-.1.1-.1.1-.1.1-.1.2c.1 0 .1-.1.1-.1s.1-.1.1-.1c.2-.3.3-.7.6-1 .2-.4.4-.8.7-1.2.1.2 0 .4-.1.5s-.2.3-.2.4c.5-.7.9-1.6 1.3-2.5s.8-1.8 1.1-2.7c-.1.6-.3 1.2-.5 1.8s-.5 1.1-.8 1.7c-.1.2-.1.3-.2.5s-.1.4-.1.7c.2-.2.3-.5.4-.8s.2-.6.5-.8c0-.1 0-.1 0-.1v-.1c.6-1.2 1.2-2.5 1.7-3.7s1-2.6 1.4-3.9c.2-.6.3-1.2.4-1.8s.2-1.2.2-1.9c.1-.6.1-1.2.1-1.8s0-1.2 0-1.8c.1.2.2.4.3.7 0 .3.1.6.1.9s0 .7 0 1 0 .6.1.9v-.2zm-26.5 17.7v.2c0 .1-.1.2 0 .3.1-.1.2-.3 0-.5.1-.3 0-.5 0-.6 0-.6.1-1.1.2-1.6.2-.5.2-1.1.1-1.6-.2.6-.3 1.2-.4 1.9-.1.6-.2 1.3-.2 2zm-.1 3.2c.1-.1.1-.2.1-.4s0-.3-.1-.4v.6zm.5 1.6c-.1-.2-.2-.4-.3-.8 0-.3-.1-.6-.2-.9 0 .3.1.6.1.9.1.4.2.7.4.8zm15 .6c.1.1.1.1.1.1.1-.1.1-.2.2-.3 0-.1.1-.1.1-.2-.1.1-.1.1-.2.2 0 0-.1.1-.2.2zm.6 2.4c-.1 0-.1-.1-.2-.1 0 0-.1 0-.2 0 .1 0 .1.1.2.1zm-.1-.2s-.1-.1 0 0c-.1-.1-.1-.1-.2-.1 0 0 .1.1.1.1zm.1.1s0 .1 0 0zm3.2-7.9c-.3.6-.7 1.1-1 1.6s-.7 1-1.2 1.4l-.2.2v.2c0 .1-.1.3-.3.4s-.2.3-.2.6c.1 0 .2 0 .2-.1s.1-.1.1-.1c-.1.2-.2.3-.3.4s-.2.2-.2.4c.1 0 .2-.1.2-.1 0-.1.1-.1.1-.2l.2-.5c.1-.3.3-.5.5-.7s.3-.4.5-.7l.2-.3c0-.1.1-.1.1-.1s.1-.1.1-.1c.1 0 .1-.1.1-.1s0-.1.1-.1c.1-.1.1-.1.1-.2s.1-.2.1-.3c.1-.1.1-.2.1-.2.2-.2.4-.4.5-.7s.3-.5.6-.8c0-.2.1-.3.2-.5.1-.1.1-.3.1-.6-.1.4-.3.8-.7 1.2zm-2.8 8.5c-.1 0-.1-.1-.2-.1 0-.1-.1-.1-.2-.1.1 0 .1.1.2.1 0 .1.1.1.2.1zm.3.3-.1-.4c-.1-.1-.1-.1-.2-.2 0-.1-.1-.1-.2-.1.1.2.2.4.3.5s.2.3.2.5c0 0 .1.1.1.2s.1.1.1.2c0-.1 0-.1 0-.1v-.1c.2.2.4.3.5.5s.3.3.4.5c.1.1.1.1.1.1 0-.2-.1-.3-.2-.4s-.2-.2-.3-.2zm-.3 0v-.1zm.3.1c-.1-.1-.1-.1-.2-.1h.1s0 0 .1.1zm0 .2c0-.1 0-.1-.1-.1l.2.4c0-.1 0-.1 0-.1-.1-.1-.1-.2-.1-.2zm.5.5-.2-.1v.1c.1.1.2.1.2 0zm.7.8c-.1-.1-.1-.3-.2-.4s-.2-.2-.3-.3c.1.2.1.3.2.4 0 .1.1.2.3.3zm.3 0c.1.3.2.5.4.6s.3.3.5.5h.2s.1.1.2.1c0-.1-.1-.2-.2-.3-.1 0-.2-.1-.2-.3l.1.1c-.1-.2-.2-.4-.3-.5-.2-.1-.3-.3-.5-.4-.1-.1-.2-.3-.3-.4-.1-.2-.2-.3-.4-.3zm-.3-7.4c0-.1.1-.1.1-.2s.1-.2.1-.3c-.1.1-.1.2-.2.2-.1.1-.1.2 0 .3zm1.6 9.9c-.1 0-.1 0 0 0-.1 0-.1 0-.1 0 0-.1 0 0 .1 0-.1 0-.1 0 0 0zm1.3-20.4s-.1 0-.2 0c-.1.2-.2.4-.2.6s-.2.4-.3.5c0 .1 0 .2-.1.2 0 0-.1.1 0 .3-.1 0-.2.1-.2.2 0 .2-.1.2-.1.2 0 .1 0 .2-.1.3 0 0-.1.1 0 .2.1 0 .2-.1.2-.3 0-.1 0-.2.1-.2.2-.3.4-.6.5-.9.1-.4.3-.7.5-1 0 0 .1-.1.1-.1s.1-.1.1-.1v-.2c0-.1 0-.2.1-.3 0-.1 0-.1 0-.2-.1.2-.1.3-.1.4-.2.2-.2.3-.3.4zm-.7 4.4c.1 0 .2 0 .2-.1v-.1zm1-5.3c.1 0 .1-.1.1-.2 0 0-.1.1-.1.2zm1.1 3c0 .1-.1.1-.1.2v.2h.1c.1-.3.2-.5.3-.7s.2-.4.3-.7c-.1.2-.2.3-.3.5-.1.1-.2.3-.3.5zm.2-8.5c0-.1 0-.1 0 0zm.1-.3v.2-.1zm.3-.8c0 .2 0 .3-.1.3s-.1.1-.1.2c-.1-.1-.1-.1 0-.2s.1-.2 0-.3zm1.3 5.2c-.2.4-.3.8-.5 1.1s-.3.7-.4 1.1c.2-.4.3-.7.5-1.1.2-.2.3-.6.4-1.1zm-.5-14.1c0-.2 0-.3-.1-.3 0 0-.1.1-.1.2-.1.1 0 .1.2.1zm.6 13.7c.2-.1.3-.3.4-.5s.2-.5.2-.8c.1-.1.1-.1.1-.2s.1-.2.1-.2v-.1-.1-.1c0-.2.1-.4.1-.5.1-.1.1-.3.1-.6-.2.6-.4 1.1-.6 1.7.1.4-.1.9-.4 1.4zm1.3-8.7c0-.2.1-.4.1-.7 0-.2 0-.4 0-.7 0 .3-.1.5-.1.7-.1.3-.1.5 0 .7z"/><path d="m50.3 57.1c-.1.1-.1.2-.1.3.1-.1.1-.1.1 0s0 0 0-.3c.2.1.2 0 .2 0h.1c0 .2 0 .4-.2.6s-.2.3-.2.5c-.1.1-.1.1-.2.2 0 .1-.1.2-.2.3s0 .1 0 0h.1c-.2.2-.3.3-.3.4s-.1.2-.4.4v.1c-.1.1-.2.1-.4.1s-.3.1-.4.3c-.1 0-.1 0-.2 0 0 0-.1.1-.2.1-.1.4-.3.7-.6.8-.1.1-.2.2-.2.2h-.1s0 0-.1.1c0 0-.1.1-.1.3v-.1c-.1.1-.1.2-.1.3s-.1.2-.1.1v.2c0 .1-.1.2-.3.3s-.3.2-.3.2c0 .1 0 .2-.1.2 0 0-.1 0-.1.1-.1 0-.1 0-.1 0s0 0-.1 0c-.1.2-.2.3-.2.3h-.1-.1c-.1 0-.1 0-.2.1-.1 0-.1 0-.1 0s-.1 0-.1.1c-.1.2-.1.3-.2.3s-.2.2-.3.3c0-.1 0-.1-.1 0-.2.1-.4.2-.6.4s-.5.3-.8.5-.6.3-.9.4-.6.2-.8.2c-.4.1-.7.1-1 .1s-.7-.1-1.1-.4c0 0-.1-.1-.1-.1-.1 0-.1-.1-.1-.1l-.1.1h-.1c-.3-.2-.4-.4-.6-.6-.1-.3-.2-.5-.3-.8-.1-.2-.1-.2-.1-.2.1-.2.1-.3 0-.3 0-.2 0-.4 0-.8s0-.8.1-1.2c0-.4.1-.8.1-1.1 0-.4.1-.6.1-.8-.1 0-.1 0-.1.1v.2c-.2.2-.3.4-.4.5s-.2.3-.3.6c-.2.1-.3.2-.4.4s-.3.4-.5.5c-.1.1-.2.2-.3.3s-.2.2-.3.2c-.2.4-.4.6-.8.9-.5.5-1 1-1.5 1.4-.6.4-1.1.8-1.6 1.2-.4.2-.8.3-1.2.3s-.8-.1-1.2-.2c-.1-.1-.3-.2-.6-.2-.2 0-.4-.1-.5-.1-.2-.1-.3-.3-.4-.5-.1-.3-.2-.4-.2-.5 0-.6 0-1.4.2-2.2s.4-1.7.7-2.5.6-1.7.9-2.5.6-1.5.8-2.1l.5-1.4c0-.1 0-.2 0-.3v-.1c.2 0 .5-.1.9-.1.3 0 .6 0 .8.2.2-.1.4 0 .6.2.1.2.3.3.3.4 0 .2 0 .3.1.3-.1.2-.2.4-.1.6v.5l-.4.3s-.1 0-.2.1c0 .1-.1.3-.2.5-.1.3-.2.5-.3.8s-.2.5-.3.8c-.1.2-.2.4-.2.5-.3.4-.5.8-.7 1.3-.2.4-.3.8-.5 1-.2.6-.3 1.1-.4 1.6s-.2 1-.2 1.6c1.5-1 3-2.3 4.5-3.9s3-3.4 4.5-5.4c.1-.2.1-.3.2-.4s.1-.2.1-.4c.2-.1.4-.1.4-.2h.9c.2 0 .4.1.7.3v1.1c0 .4 0 .8-.1 1.2s-.2.8-.3 1.1-.2.6-.4.8c-.1.4-.2.8-.3 1.3s-.3 1.1-.4 1.6c-.1.6-.2 1.1-.2 1.6s.1.9.2 1.2c.6-.1 1.3-.4 2-.9s1.3-.9 1.8-1.2v-.1c.1-.1.2-.1.3-.1h.1s.1-.1.2-.2c.9-.5 1.7-1.1 2.5-1.8.2-.2.3-.2.2-.2s0 0 .2 0c.2-.2.3-.4.5-.5s.3-.3.5-.4.4-.3.6-.5.5-.4.7-.8h.9zm-.2.4c0-.1 0-.1 0-.2-.1 0 0 0 0 .2z"/><path d="m66.4 59.2c.1.1 0 .3-.3.5s-.6.5-.9.8c-.1 0-.2.1-.4.3s-.4.3-.4.4l-.4.3-.8.6-.4.2-.7.4c-.6.4-1.1.7-1.6 1s-1.1.6-1.8.9c0 0-.1 0-.2 0s-.2.1-.3.1-.2.1-.3.1-.2 0-.3.1c-.1 0-.2.1-.4.1 0 0 0 0 0-.1 0 .1-.2.1-.3.1s-.2.1-.3.2c-.1-.1-.2-.1-.3 0s-.2.1-.3 0c-.1.1-.2.1-.3.1s-.2 0-.3.1c-.1 0-.1-.1 0-.1 0 0 0 0 0-.1-.1 0-.2 0-.4 0-.1 0-.3 0-.5.1-.1-.1-.2-.1-.2 0 0 0-.2 0-.3 0v.1c-.5-.1-.8-.1-1.1-.1-.1 0-.2-.1-.3-.1s-.1 0-.2 0c-.4-.1-.7-.1-1-.2s-.6-.2-1-.4-.7-.4-1-.7-.6-.6-.8-1c-.1-.2-.2-.5-.3-.7s-.1-.4-.2-.6c-.1-.3-.1-.5-.1-.7s0-.4.1-.7c.1-.4.2-.8.3-1.5.1-.6.4-1.1.8-1.6l1.1-1.3.7-1c.3-.2.5-.4.6-.5.2-.1.4-.3.6-.6.2-.2.4-.3.6-.4s.4-.3.6-.4c.3-.2.5-.4.7-.5.2-.2.5-.3.7-.5.3-.1.5-.3.7-.3.1-.1.2-.1.4-.1s.3 0 .4-.1c.1 0 .1-.1.2-.1h.2c.2.3.4.5.7.7s.5.4.7.7c.2.1.4.2.4.3 0 .2.1.3.3.4.1.3.1.5 0 .7 0 .2-.1.4-.3.6-.1.1-.1.1-.1.2v.2c-.1.2-.2.3-.3.4s-.3.3-.4.4-.1.2-.2.3c0 .1-.1.3-.2.4s-.3.3-.5.5-.4.4-.5.6c-.2.2-.4.4-.6.5s-.4.2-.6.4c-.1.1-.1.2-.1.3-.3.3-.6.5-.9.7s-.6.4-.9.7c-.5.1-1 .3-1.4.6s-.9.4-1.5.2c-.1 0-.1.1 0 .1h.2c-.1.2-.1.3 0 .4s.1.2.2.3c.3.3.6.5.9.7.4.2.7.4 1.2.4 1.2.4 2.3.4 3.4 0 .4-.1.7-.1 1-.2s.7-.2 1.1-.3c.5-.2 1-.4 1.4-.6l.6-.3c.1-.1.2-.1.2-.1s0 0 .1-.1l1.3-.6c.4-.3.6-.5.9-.6.2-.1.6-.4 1-.8 0 0 .1-.1.3-.2s.3-.2.5-.4c.2-.1.3-.3.5-.4s.3-.2.3-.2l.5-.5c.4-.3.7-.5 1-.7s.5-.3.6-.4c.1.1.2.2.2.4s.1.3.2.3c-.2.3-.3.5-.4.7-.1.1-.1.3-.2.3 0 .1-.1.1-.2.2-.4.5-.5.6-.7.7zm-10.3-5.4c-.1.1-.2.1-.3.2s-.2.2-.3.2-.2 0-.2.1c-.1 0-.1.1-.2.1 0 0-.1.1-.2.1l-.4.3c-.2.2-.3.3-.5.4s-.3.2-.5.3c-.2.3-.4.5-.6.6s-.4.3-.6.6c-.4.2-.6.5-.9.8-.4.4-.7.7-1 1s-.5.7-.7 1c.6-.2 1.2-.5 1.8-.9s1.1-.9 1.8-1.3c.2-.2.4-.3.6-.5s.4-.4.5-.6c.3-.2.6-.4 1-.8s.7-.7.9-1.1c.1-.2.1-.3.2-.4s.1-.3 0-.4c-.1 0-.2 0-.3 0 0 .2-.1.2-.1.3z"/><path d="m83.1 59.2c.1.1 0 .3-.3.5s-.6.5-.9.8c-.1 0-.2.1-.4.3s-.4.3-.4.4l-.3.2-.8.7-.4.2-.7.4c-.6.4-1.1.7-1.6 1s-1.1.6-1.8.9c0 0-.1 0-.2 0s-.2.1-.3.1-.2.1-.3.1-.2 0-.3.1c-.1 0-.2.1-.4.1 0 0 0 0 0-.1-.2 0-.3.1-.4.1s-.2.1-.3.2c-.1-.1-.2-.1-.3 0s-.2.1-.3 0c-.1.1-.2.1-.3.1s-.2 0-.3.1c-.1 0-.1-.1 0-.1 0 0 0 0 0-.1-.1 0-.2 0-.4 0-.1 0-.3 0-.5.1-.1-.1-.2-.1-.2 0 0 0-.2 0-.3 0v.1c-.5-.1-.8-.1-1.1-.1-.1 0-.2-.1-.3-.1s-.1 0-.2 0c-.4-.1-.7-.1-1-.2s-.6-.2-1-.4-.7-.4-1-.7-.6-.6-.8-1c-.1-.2-.2-.5-.3-.7s-.1-.4-.2-.6c-.1-.3-.1-.5-.1-.7s0-.4.1-.7c.1-.4.2-.8.3-1.5.1-.6.4-1.1.8-1.6l1.1-1.1.7-1c.3-.2.5-.4.6-.5.2-.1.4-.3.6-.6.2-.2.4-.3.6-.4s.4-.3.6-.4c.3-.2.5-.4.7-.5.2-.2.5-.3.7-.5.3-.1.5-.3.7-.3.1-.1.2-.1.4-.1s.3 0 .4-.1c.1 0 .1-.1.2-.1h.2c.2.3.4.5.7.7s.5.4.7.7c.2.1.4.2.4.3 0 .2.1.3.3.4.1.3.1.5 0 .7 0 .2-.1.4-.3.6-.1.1-.1.1-.1.2v.2c-.1.2-.2.3-.3.4s-.3.3-.4.4-.1.2-.2.3c0 .1-.1.3-.2.4s-.3.3-.5.5-.4.4-.5.6c-.2.2-.4.4-.6.5s-.4.2-.6.4c-.1.1-.1.2-.1.3-.3.3-.6.5-.9.7s-.6.4-.9.7c-.5.1-1 .3-1.4.6s-.9.4-1.5.2c-.1 0-.1.1 0 .1h.2c-.1.2-.1.3 0 .4s.1.2.2.3c.3.3.6.5.9.7.4.2.7.4 1.2.4 1.2.4 2.3.4 3.4 0 .4-.1.7-.1 1-.2s.7-.2 1.1-.3c.5-.2 1-.4 1.4-.6l.6-.3c.1-.1.2-.1.2-.1s0 0 .1-.1l1.3-.6c.4-.3.6-.5.9-.6.2-.1.6-.4 1-.8 0 0 .1-.1.3-.2s.3-.2.5-.4c.2-.1.3-.3.5-.4s.3-.2.3-.2l.5-.5c.4-.3.7-.5 1-.7s.5-.3.6-.4c.1.1.2.2.2.4s.1.3.2.3c-.2.3-.3.5-.4.7-.1.1-.1.3-.2.3 0 .1-.1.1-.2.2-.3.3-.5.4-.7.5zm-10.3-5.4c-.1.1-.2.1-.3.2s-.2.2-.3.2-.2 0-.2.1c-.1 0-.1.1-.2.1 0 0-.1.1-.2.1l-.4.3c-.2.2-.3.3-.5.4s-.3.2-.5.3c-.2.3-.4.5-.6.6s-.4.3-.6.6c-.4.2-.6.5-.9.8-.4.4-.7.7-1 1s-.5.7-.7 1c.6-.2 1.2-.5 1.8-.9s1.1-.9 1.8-1.3c.2-.2.4-.3.6-.5s.4-.4.5-.6c.3-.2.6-.4 1-.8s.7-.7.9-1.1c.1-.2.1-.3.2-.4s.1-.3 0-.4c-.1 0-.2 0-.3 0 .1.2 0 .2-.1.3z"/><path d="m104.4 61.2c0-.1-.1-.1-.2 0s-.2.2-.4.4c-.1.2-.3.4-.5.6s-.3.3-.4.4c-.1-.1-.1-.2 0-.3s.2-.3.2-.3c-.2 0-.3.1-.3.3s-.1.3-.2.3c-.1.2-.2.3-.4.3-.2.1-.4.2-.6.3h.1c.1 0 .1 0 .1.1-.1-.1-.1-.1-.1 0s0 .1-.1 0v-.1c-.1.1-.1 0-.2 0 0-.1 0-.1.2 0 0-.1 0-.2 0-.3-.1-.1-.2-.1-.2 0s-.1.2-.1.3-.1.3-.2.4-.2.2-.4.1c.3-.2.5-.5.7-.8-.2.1-.5.3-.8.7 0-.1-.1-.1-.1 0-.1.1-.1.2-.1.2-.1 0-.2 0-.2-.1v.1c-.1.1-.2.1-.2.1s-.1.1-.2.2h.1.1c-.1.1-.1.1-.2.2s-.2.1-.3.1-.1 0 0 0c0 0 .1-.1 0-.2-.2.1-.3.2-.3.3s-.1.2-.3.2c0-.1 0-.2 0-.2-.1 0-.1 0-.1 0s-.1 0-.2 0v.1.1c-.3.2-.6.2-1 .2s-.8-.1-1.2-.4c-.5 0-.9-.1-1.4-.3-.4-.2-.8-.3-1.2-.5h.1c0-.1 0-.1 0-.1s-.1-.1-.1-.1c-.1 0-.1 0-.1.1v.1c-.2-.1-.3-.3-.4-.6s-.2-.4-.4-.5c0-.1-.1-.2-.1-.3s-.1-.1-.2-.1c-.2-1-.3-1.9-.2-2.7 0-.8.1-1.8.2-3-.3.1-.5.3-.7.5s-.4.4-.7.5c-1.1 1.2-2.2 2.3-3.4 3.4s-2.3 2.4-3.2 3.7c-.2 0-.3.1-.4.2s-.2.2-.4.3c-.2 0-.4 0-.7 0s-.6 0-.9-.1v-.1-.1c-.4-.1-.6-.2-.8-.3-.2 0-.3-.3-.3-.8 0-.2 0-.3.1-.5 0-.1.1-.3 0-.5 0-.1 0-.2.1-.2s.1-.1.1-.1c.4-1.8 1-3.4 1.6-4.8.6-1.5 1.2-3 1.8-4.4.2.1.4.1.7 0 .3.1.5.2.6.2.2 0 .4.1.8.3 0 .1.1.1.2.2s.2.1.2.2c0 .7-.2 1.3-.4 1.9-.3.6-.5 1.2-.8 1.8-.2.4-.3.9-.6 1.5-.2.6-.4 1.1-.6 1.5 0 .2 0 .3-.1.3 0 0-.1.1-.1.2.4-.5.9-1 1.3-1.5.4-.6.9-1.1 1.2-1.6.5-.3.9-.6 1.3-1s.8-.7 1.3-1.1.9-.7 1.4-1 .9-.6 1.3-.9c.2 0 .4-.1.6-.2l.6-.3c.3 0 .5.1.7.2s.5.2.9.2v-.1c.2 0 .3 0 .3.2s.1.3.2.5c0 .3-.1.7-.1 1.2s-.1.9-.3 1.2c.1-.1.1 0 0 .3-.1.2-.1.4 0 .5-.2 1.4-.2 2.5 0 3.3s.4 1.3.6 1.5c.4.1.8.1 1.1.1h.8c.2 0 .5-.1.8-.2s.6-.3.9-.5l.2-.2h.3c.3-.1.6-.2.8-.4s.4-.2.7-.1c.1-.1.1-.1.1-.2 0 0 0-.1 0-.2.1 0 .1.1 0 .1v.1s0-.1 0-.2c.1.1.2.1.3 0 .1 0 .2-.1.2-.3.1 0 .2-.1.3-.2s.1-.2.2-.2c-.1.1-.1.1-.1.1s0 .1-.1.2c.3-.1.4-.2.4-.3s.1-.2.2-.4l.6-.3c.2-.1.4-.3.6-.4s.3-.2.4-.3.3-.2.4-.3.1-.2.2-.3.2-.2.4-.1c.1-.1.2-.1.2-.1.1 0 .1 0 .1-.1s0-.2 0-.2c.1 0 .3-.1.7-.2.3-.1.5-.3.6-.4 0 0 0-.1 0-.2h.1.1c.1-.1.1-.1 0-.1s-.1 0 0-.1c.1.1.1.1.1 0 0 0 0-.1 0-.2h.1c0 .1 0 .1 0 0v.1c.1-.1.3 0 .4.3s.1.6-.2.9v.1c0 .1-.1.3-.3.5s-.3.3-.3.4zm-4.9 2.8c-.1 0-.1 0-.1.1s0 .1.1.1zm.6-.1c-.1 0-.2 0 0 0zm1.5-.7c-.1 0 0 0 0 0zm2.2-2.7c.1 0 .1 0 .2-.1l.1-.1c-.1 0-.2.1-.3.2zm1.9-1.1c0 .1 0 .1 0 0-.2.1-.2.1-.3.3.3-.1.4-.2.3-.3z"/><path d="m127.8 54.2c0-.2.1-.1.1.3.1.3.1.8.1 1.4s0 1.3-.1 2-.3 1.4-.6 2c.2 0 .6 0 1.4-.2l.6-.2c.3-.1.6-.2.9-.3s.6-.2.9-.4l1-.4.7-.3c.3-.1.6-.3.9-.4s.6-.3.8-.4l1.1-.8h.1c.1 0 .1-.1.2-.1s.1-.1.2-.2.3-.2.5-.3.4-.3.6-.4.4-.2.6-.3.2-.2.2-.2l.2.4c.1-.1.1-.1.1 0s0 .2-.1.3-.2.3-.3.5-.3.4-.5.6l-.4.2c-.2.1-.3.3-.4.4s-.2.3-.4.4c-.1 0-.1.1-.2.2s-.1.1-.2.1c-.1.1-.1.1-.1.2s-.1.1-.2.1c-.2.1-.3.3-.4.4s-.2.3-.5.4c-.1 0-.1.1-.2.1-.1.1-.1.1-.1 0 0 0-.1.1-.1.1-.1 0-.1.1-.2.1 0 0-.1.1-.2.1l-1.8.9c-.1.1-.3.2-.5.3s-.4.2-.6.2c-.2.1-.4.2-.7.3-.1.1-.1.1-.2.1s-.3 0-.5 0c-.1 0-.2.1-.4.2s-.3.2-.4.2c-.5.1-1 .1-1.5.2s-.8.2-.9.3c-.1.2-.2.3-.2.3 0 .1-.1.1-.1.1s-.1.1-.1.1c0 .1-.1.2-.2.3-.1-.1-.1-.1-.1-.1v.2c-.1.3-.3.6-.5.8s-.3.4-.5.7c-.1 0-.2.1-.3.2s-.2.2-.2.1c-.2.3-.4.5-.6.5s-.4.1-.6.3c-.1-.1-.1-.1-.1 0s-.1.1-.1 0c0 .1-.1.2-.3.2-.9.3-1.9.3-3.1.2-.1-.1-.2-.1-.2 0-.1 0-.1 0-.2 0-.1-.1-.2-.2-.3-.2-.1-.1-.2-.1-.4-.1-.5-.3-.9-.7-1.1-1.3 0-.1-.1-.2-.2-.3s-.1-.2 0-.3c-.1-.2-.2-.4-.3-.8 0-.3 0-.7.2-1 .1-.7.2-1.3.4-1.9.3-.6.5-1 .6-1.4.2-.3.3-.7.5-.9s.2-.4.3-.4c0 .1 0 0 .1-.1 0-.1.1-.3.2-.3.2-.4.5-.9.8-1.3.3-.5.7-.9 1-1.2.3-.4.7-.7 1-.9.3-.3.6-.4.8-.5l.9-.5c.2.1.3.1.4 0s.2-.1.2-.1h.2s.1.1.2.2h.1.1c.1.1.1 0 .1 0 .2 0 .3 0 .3.1s.1.1.1.1c0 .1 0 .1 0 0 0 0 .1-.1.1 0 .2-.1.4-.1.5-.1s.2.1.3.2c.1 0 .1.1 0 .1s-.1.1 0 .1c.2 0 .2 0 .2-.1.3.1.5.2.6.3.1.2.3.3.6.5v.1c0 .1.1.1.2.1h.1v-.1l-.3-.1c.1-.1.2 0 .4.1zm-4.4 7.6c-.7-.2-1.2-.5-1.5-1.1s-.6-1.1-.8-1.5c-.1.1-.3.2-.4.3s-.3.3-.4.4v.1.1.1c-.2.2-.3.5-.4.8-.1.2-.1.4-.2.6s-.1.3-.1.5c-.1.3-.1.6-.1.9v1c0 .3.1.6.1.8.1.2.2.4.4.4h.3.5c.2 0 .3 0 .5-.1.1 0 .3-.1.3-.1.6-.3 1-.5 1.3-.7s.5-.4.6-.6.3-.3.4-.5.3-.3.6-.5l.2-.6c-.2 0-.3 0-.5 0-.5-.2-.7-.3-.8-.3zm-3.1-1.8c-.1 0-.1 0 0 0v.1.1c-.1-.1-.1-.2 0-.2zm5.3-5.5c-.1.1-.3.2-.5.4s-.4.4-.7.7c-.2.2-.4.5-.7.7-.2.2-.4.5-.5.7 0 .1-.1.1-.2.1s-.2 0-.2.1c-.1.1-.1.2-.1.2v.2c0 .2.1.4.2.7s.2.6.4.9.4.5.6.8c.2.2.5.3.9.2.1-.3.2-.7.4-1.3.1-.6.3-1.2.4-1.8s.1-1.2.1-1.7c.2-.6.1-.9-.1-.9z"/><path d="m151.7 57.7c-.1.1-.1.2 0 .2 0 0 .1.1.2.1s.2.1.2.1c.1 0 .1.1 0 .3s-.3.5-.6.8-.6.7-1 1-.8.6-1.1.9c-.4.3-.7.4-1 .5v.2l-.7.4c-.1 0-.1.1-.2.1-.1.1-.2.1-.3.1v.2c-.2 0-.3 0-.3.1s-.1.1-.2.2c-.1 0-.1 0-.1 0v-.1c-.1.1-.3.2-.4.2s-.3 0-.4 0-.3 0-.5 0-.3.1-.5.2h-.1c-.2.1-.3.1-.4.1s-.3.1-.4.1c0 0-.1.1-.3.1s-.3.1-.3.1c-.1 0-.2 0-.4 0s-.3 0-.4 0c-.5 0-.9 0-1.3 0s-.7 0-1-.1c-.3 0-.6-.1-.9-.1s-.6-.1-1-.2c-.1.1-.1.2 0 .4 0 .2.1.4.2.6s.1.4.2.6c0 .2.1.3.1.4v.9c0 .4-.1.9-.1 1.4s-.1 1-.1 1.4v1l-.1.2v.8l.1.5c-.1 0-.1 0-.1-.1s0-.1-.1-.1c-.1.1-.1.1 0 .2v.2c-.1 0-.1 0-.1 0-.1.5-.1.9-.2 1.2-.1.4-.1.8-.2 1.2-.1.6-.2 1.2-.4 1.7-.1.5-.3 1.1-.5 1.6.1.2.1.4 0 .5s-.1.3-.2.4v.2c-.1.5-.2.8-.3 1.2-.2.3-.3.7-.3 1.2-.1 0-.2 0-.1 0 0 0 0 0-.1 0 0 .3 0 .5-.1.7s-.2.4-.2.6c-.2.2-.4.3-.6.6-.2.2-.5.2-.8.1-.3.1-.5.1-.7 0s-.5-.1-.8-.1c-.2 0-.3-.1-.4-.1s-.2-.1-.3-.3c-.3-.3-.5-.7-.6-1.1s-.2-.9-.3-1.5c-.1-.4-.2-.7-.2-1.1-.1-.3-.1-.7 0-1 0-.2 0-.3 0-.4s0-.2 0-.3c.1 0 .1-.1.1-.1h.1v-.1c0-.3 0-.6 0-.9s0-.5-.1-.6c.1 0 .1-.1.1-.2s0-.2-.1-.3c0 0 0 0 0-.1s0-.2 0-.3 0-.2 0-.3 0-.1.1-.1c0-.3 0-.5.1-.9.1-.3.1-.5 0-.6.1-.1.1-.3.1-.5s0-.4.1-.6h.1c0-.4.1-.8.2-1.3.1-.4.2-.8.2-1.3.1.1.1.1.1 0s.1-.2.2-.1l.1-.5c-.1.1-.1.1-.2.2s-.1.2-.1.3c0-.3 0-.6.1-.9.1.1.1.1.1.2 0 0 0 .1.1.1 0 0 0-.1 0-.3 0-.1 0-.1 0 0s0 .1 0 0c.1-.1.2-.3.2-.7s.1-.6.4-.6c.1-.2.1-.4.1-.5s0-.3 0-.5c0 .1-.1.1-.1.2s-.1.1-.2 0c.1 0 .1 0 .1-.1s0-.1 0-.1c-.1 0-.2 0-.2.1l.2-1.1c.1-.4.1-.7.2-1.1s.1-.6.2-.8c.1.1.2 0 .2-.3s.1-.5.2-.6v.3-.1.1c.1-.1.1-.2.2-.3s.1-.3.1-.4l-.1.2c.1-.1.1-.1.1-.2 0 0 0-.1.1-.2v-.1-.1s0 0-.1 0c0-.1.1-.1.1 0 .1.1.1.1.1 0l.1-.1v-.1c0-.1 0-.1 0 0v.1s.1-.1.1-.1c0-.1 0-.1 0-.2.1-.2.1-.4.2-.5.1-.2.2-.4.2-.6-.1.3-.3.5-.4.7s-.2.4-.3.6c.1-.3.1-.5.2-.7s.2-.5.3-.7v.1c.3-.1.4-.2.3-.5-.1.1-.1.1-.1.2s0 .1 0 .1l-.1.1c.1-.3.3-.6.4-.9s.2-.6.3-1c.2-.7.4-1.4.7-2s.5-1.2.7-1.9c.2-.2.3-.4.4-.6s.2-.5.2-.7c.4-.6.8-1.3 1.1-2.1.3-.7.7-1.4 1.1-2.1v-.1c.2-.2.3-.3.3-.6.1-.2.2-.4.3-.6 0-.1 0-.2 0-.2.3-.5.6-1 .9-1.6.3-.5.6-1 1-1.5.3-.6.6-1.2.9-1.6.4-.5.7-.9 1.1-1.4.1 0 .2-.1.3-.1 0-.1.1-.1.2-.2.3.2.5.2.9.2.3 0 .6 0 .8.1.2 0 .3 0 .4.1s.2.2.4.2v.1c.3.1.5.3.6.7 0 .4.1.7.2 1.1v.1.1c.1.2.1.3 0 .4s-.1.2-.1.4c-.1.1-.1.2-.1.3s0 .2-.1.3c0 .4-.1.8-.3 1.1-.1.3-.3.6-.3 1-.6 1.2-1.2 2.3-1.8 3.4s-1.3 2.3-1.9 3.4c-.2.2-.3.5-.5.7-.1.3-.3.5-.4.8-.2.4-.4.7-.6 1.1s-.4.7-.7 1.1c-.1.2-.1.4-.2.5s-.1.1-.2.2-.1.1-.2.1c-.1.1-.2.2-.3.4-.2.3-.4.5-.6.8s-.4.6-.6.8l-.5.3c-.1 0-.1 0-.2.1s-.2.2-.3.3-.2.2-.3.3-.1.1-.1.1c0 .1 0 .1.1 0 0 0 .1-.1.1-.1s.1-.1.2-.1.1 0 .1.1h.3c0 .2.1.2.2.2v.2c.2.1.3.2.3.2.4.2.9.3 1.5.4s1.1.2 1.5.1c.9-.2 1.6-.3 2.3-.4.6-.1 1.3-.3 1.9-.6h.2c.1-.1.1-.2.1-.3.4-.2.7-.3 1-.5.3-.1.6-.3 1-.5.1-.1.1-.1.2-.1.2-.1.3-.1.3-.1.2-.1.4-.2.7-.4s.6-.4 1-.6c.3-.2.6-.5.9-.7s.5-.5.6-.7v1c0-.1 0-.2 0-.2v-.1h.1.1zm-21.1 17.5c0-.2 0-.3 0-.4s0-.2 0-.3v.3c-.1.2-.1.4 0 .4zm.5-3.1c-.1 0-.1 0-.1 0 0-.2 0-.3 0-.2-.1 0-.1.1-.1.3v.4c0 .1-.1.2-.1.2v.2h.1c0 .2 0 .3-.1.4s-.1.3 0 .5c.2-.3.3-.5.3-.9 0-.2 0-.6 0-.9zm0-1.1c0 .2-.1.4-.2.5.1 0 .1 0 .1.1v.1c0-.1.1-.2.1-.2s.1-.1.1-.2 0-.1 0-.1 0 0-.1-.2zm0 5.9c0-.3 0-.3 0 0-.1.1-.1.3 0 .5.1-.1.1-.1.1-.2s-.1-.2-.1-.3zm.9-10.7c0 .1 0 .1 0 0-.1.1-.1.1 0 0zm.3.7c.2-.2.3-.5.3-.9-.1.2-.2.3-.2.4 0 .2-.1.3-.1.5zm0 7.4v.2.2c.1 0 .1-.1.1-.2s-.1-.2-.1-.2zm.1-8.5c.3-.3.4-.6.3-1.1 0 .2-.1.4-.2.5-.1.2-.1.4-.1.6zm.1 8.2c.1-.1.1-.2 0-.5v.2c-.1 0-.1.1 0 .3zm.2-1.6c.2-.2.2-.5.2-.8-.1.2-.1.3-.2.4s-.1.3 0 .4zm.1-9.8c0-.1 0-.2 0-.2s0 0 0-.1v.3s0 .1 0 0zm1.2 16c.2-.3.3-.5.3-.8.4-1 .7-2.1.9-3.1.3-1 .4-2.1.5-3.2.1-.6.1-1.3.2-2.2s.1-2.1-.1-3.5c0-.5-.2-.9-.7-1-.1.3-.2.7-.3 1-.1.4-.2.7-.4.9v.6c0 .2-.1.4-.3.5v.2.2c-.2.3-.3.8-.4 1.3 0 .6-.1 1-.3 1.4 0 .4 0 .8-.1 1.1s-.2.7-.2 1v1.1c-.1.4-.1.7-.2 1v2c0 .5 0 .9.1 1.2 0 .3.1.6.2.8s.2.4.3.6c.2-.3.3-.6.3-.7-.1.2 0-.1.2-.4zm-.8-16.7c-.1 0-.1 0-.1.1s-.1.2-.1.2c0-.1 0-.1.1-.2s.1-.1-.1-.1c0-.1.2-.1.4-.2-.1.1-.2.1-.2.2zm-.2 1.2c0-.1.1-.2.1-.2.1 0 .1-.1 0-.1-.1-.1-.1 0-.1.3zm0 7.4c0-.1.1-.1.1-.2s.1-.2 0-.2-.1.1-.1.4zm.2-8.4v.1.1zm.2.2c.1-.2.2-.3.3-.5.2-.2.2-.3.2-.5-.1.2-.2.3-.3.5s-.2.3-.2.5zm.1-1.1v.2c0-.1 0-.1 0-.2zm.2-.2c0 .1 0 .1-.1.1zm.8-2.2v.2.1c0-.1.1-.1.1-.2-.1-.1-.1-.1-.1-.1zm.1-.2c.2-.3.4-.6.5-1s.3-.8.4-1.1c-.1.1-.1.1-.1 0 0 0 0 0-.1 0-.1.1-.1.1-.1.2v.2c-.2.4-.4.8-.5 1.1 0 .1 0 .1 0 0s0-.1 0 0zm1.3-3.3c-.1.1-.2.2-.3.4 0 .2-.1.3 0 .5.1-.1.1-.3.1-.4s.1-.3.2-.5zm.7-1.8c0-.1.1-.2.1-.2-.1 0-.1 0-.2.1 0 .1 0 .1.1.1zm1.4.7c0 .1 0 .2-.1.2-.1.1-.1.2 0 .3-.1.1-.1.2-.1.3s-.1.2-.2.2v.3s0 0 0-.1v-.1.3c0 .1-.1.1-.1.1s-.1.1-.1.1c-.1.4-.2.8-.4 1.1s-.3.6-.4 1c.3-.4.5-.7.7-.9.2-.3.4-.5.6-.8.2-.2.4-.5.6-.8s.4-.6.7-1c0-.1 0-.1 0-.1.6-.8 1.1-1.7 1.5-2.5.5-.8.9-1.7 1.4-2.5.3-.4.6-.9.8-1.5.2-.3.4-.7.6-1 .2-.4.3-.7.4-1.2.2-.5.5-1 .7-1.5.2-.6.3-1.1.2-1.7-.1 0-.2.1-.3.2s-.2.2-.3.3c-.1.2-.2.4-.4.6s-.3.4-.4.6c-.1.3-.3.5-.5.7-.2.3-.3.5-.5.7-.1.2-.3.5-.4.8-.1.1-.2.2-.3.4s-.2.3-.3.5c-.1.4-.3.7-.5 1s-.4.6-.6 1l-.1.1c-.1.2-.1.3-.2.5-.1.1-.2.3-.2.4-.2.6-.4 1-.7 1.4s-.5.9-.7 1.3c-.1.1-.1.2-.2.2 0 .2 0 .3-.1.4s-.1.3 0 .5c0 .3 0 .3-.1.2.1 0 .1 0 0 0z"/><path d="m167.5 74.4c-.1 0-.3 0-.4.1s-.2.1-.5.1c.1-.2.2-.2.3-.1s.2 0 .2-.1c-.2 0-.4 0-.5.1s-.2.2-.4.2c-.1-.2-.2-.2-.3 0-.1.1-.2.2-.4.2-.1.1-.2.1-.4 0-.2 0-.3 0-.4.1-.1-.1-.2-.1-.3 0s-.2.1-.2.2 0 0-.1-.1c0-.1-.1-.2-.1-.1v.1c-.1 0-.2.1-.3.2s-.2.2-.3.4c-.1.1-.2.2-.3.3s-.2.1-.3.1c-.2.2-.3.3-.3.4-.1.1-.4.1-.9.2-.4 0-.6 0-.8 0s-.4-.1-.5-.2c-.2-.1-.3-.1-.5-.2s-.4-.2-.6-.3c-.4-.2-.7-.3-.9-.4s-.4-.2-.6-.5l.1-.2c-.2-.1-.3-.2-.3-.2-.1 0-.1-.1-.2-.4h.2.3c-.1-.3-.1-.6 0-.9 0-.4.1-.7 0-1 .2-.1.3-.3.4-.7s.1-.7.1-.9c.1 0 .1 0 .1-.1s0-.1.1-.1c.3-1.3.6-2.5 1-3.7s.9-2.3 1.3-3.4c.1.1.1.1 0 .2s-.1.2-.1.3c.2-.1.3-.2.3-.4s.1-.3.2-.4c0-.2.1-.4.2-.6s.2-.4.4-.6c-.1-.1-.1-.3 0-.4.1-.2.1-.3.2-.4-.3.2-.5.6-.6 1.1s-.3.9-.5 1.2c.5-1.7 1.1-3.3 1.9-4.8.7-1.5 1.4-3.1 2.1-4.7.3-.4.5-.8.7-1.2.2-.5.4-.9.7-1.3 0-.2 0-.3.2-.4.1-.1.2-.2.1-.3.1-.1.2-.3.2-.6 0-.1-.1-.1-.1 0 0 0-.1.1-.1.1s0 0 .1-.1.2-.1.3 0c-.1-.2-.1-.3 0-.4s.2-.3.2-.6h.2c0-.1 0-.2.1-.3 0-.1 0-.1 0 0 0 0-.1.1-.1.1.3-.9.8-1.9 1.3-3s1-2.1 1.4-3c.5-1.2.9-2.4 1.4-3.5s1-2.2 1.4-3.4c-.1-.1-.1-.2-.2-.2s-.2-.1-.2-.3c.1-.2.2-.3.3-.3.6.1 1.1.2 1.7.3s.9.4 1.1 1c-.2.4-.3.9-.3 1.5s-.1 1.1-.3 1.6c-.2.3-.3.7-.3 1 0 .4-.1.7-.2 1.1l-1.8 3.9c-.1.3-.2.7-.4 1.1-.2.5-.3.8-.4 1-.1.1-.1.2-.1.3s-.1.2-.1.4c-.4.7-.7 1.4-1 2.1-.3.6-.6 1.3-1 1.9 0 .1 0 .1-.1.1 0 0-.1 0-.1.1-.4.6-.7 1.1-.9 1.6h.1c-.2.3-.3.5-.4.7 0 .2-.2.4-.4.6v.1c.1 0 .1 0 0 .1-.2.2-.3.3-.3.5 0 .1-.1.3-.3.5-.3 0-.4.1-.4.2.1.1.1.1.1 0s0-.1.1-.1c-.1.1-.1.2-.2.3s-.2.2-.2.3.1.1.2.1c-.1.1-.1.2-.2.2s-.2.1-.2.2c.1.1.2.1.2 0s.1-.1.2 0c-.1.1-.1.1-.2.2s-.1.1-.2 0c.1.2.1.4 0 .6s-.3.3-.4.4c0 .1 0 .1.1 0h.1c-.1.2-.2.5-.3.7 0 .3-.2.4-.5.5.1.3 0 .6-.1.8s-.2.5-.3.8c-.1 0-.1.1-.2.1 0 0-.1.1-.1.1h.1c-.2.3-.3.7-.5 1-.2.4-.3.7-.4 1-.2 0-.4.1-.4.4 0 .2-.1.4-.3.6.1 0 .2 0 .3.1-.1.2-.1.4-.2.5s-.1.3-.2.5c-.3 0-.4 0-.4 0 0 .1-.1.1-.1.2.1.1.1.1.1 0s.1-.1.3 0c0 .1 0 .1-.1.1s-.1.1 0 .2c-.1 0-.2 0-.3 0l-.2 1.1c-.1 0-.1 0-.1 0s0 0-.1 0c.1-.2.2-.3.2-.5s0-.3 0-.5c-.2 0-.3 0-.3.1s-.1.2-.1.3 0 .2-.1.3-.1.2-.2.2c.1.1.1.2 0 .3 0 0 .1.1.2.1-.2 0-.3 0-.3.1s-.1.2-.1.3h.2c-.3.4-.5.8-.6 1.2-.1-.1-.1-.2 0-.3s.2-.3.1-.5c-.2.2-.4.5-.4.8-.1.3-.1.6-.2.9.2-.1.2-.2.2-.4s.1-.3.3-.4c-.2.4-.2.8-.2 1.2 0 .1 0 .1.1 0 .1 0 .1 0 .1.1-.2-.1-.4 0-.4.2s-.1.3-.1.4h-.1c-.1.4-.2.7-.2 1v1.1c0 .1 0 .1 0 0 0 0 0-.1.1 0 0 .2.1.2.2.2s.2.1.2.2c2.2-.8 4.5-1.6 6.7-2.3s4.6-1.2 7.3-1.5c.3 0 .4 0 .5-.1.1 0 .3-.1.6-.1-.1 0 0-.1 0-.1.1 0 .2 0 .2-.1h1.5c.4-.1.9-.2 1.5-.2h1.7l1.5.3c.5.1.9.4 1.1.7-.1 0-.1.1-.1.1s0 .1.1.1c0 0 .1 0 .1.1v.2s.1.1.1.1.1.1.1.2c0-.1-.1-.2-.1-.2-.1 0-.1-.1-.2-.1-.1.1-.1.1 0 .1s.1.1.1.1 0 .1.1.2.1.1.1.2c-.3.1-.5.1-.7 0-.2 0-.4-.1-.6 0l1-.3c-.1-.1-.3-.1-.4 0s-.2.2-.3.1 0-.1.1 0h.2c0-.1-.1-.1-.2 0-.1 0-.2 0-.3 0-.1 0-.2 0-.3 0-.3-.1-.6-.1-1-.1s-.7 0-1 .1c-.1 0-.1 0-.1 0 0-.1 0-.1-.1-.2v.2l-.2.1h-.1c-.3 0-.7 0-1.2 0s-1 .1-1.5.1c-.5.1-.8.1-1 .2-.2 0-.2.1.2.1v.1c.1-.1.2-.1.4-.2.2 0 .4-.1.5-.1h.1s-.1.1-.1.1h.2c0-.1.1-.1.4-.1s.5-.1.6-.1c0 .1 0 .1.1 0 .1 0 .1-.1.1-.1.3-.1.5-.1.8 0s.6.1.9 0l.3-.1v.2c-.1.1-.1.1 0 0s.1 0 0 .1c-.6.1-1.2.1-1.8.2-.6 0-1.2 0-1.8 0 .1 0 .1.1 0 .1 0 0-.1 0-.2 0s-.2 0-.3 0-.1 0-.2 0c-.3 0-.6.1-.7.2s-.3.2-.6.2c0-.1 0-.2-.1-.2-.6.2-1.2.3-1.9.3 0 .1.1.1.1.1s0 0 0 .1c-.1-.3-.1-.3-.1 0-.1 0-.1 0-.1-.1s-.1-.1-.1-.1v.1.1c-.3 0-.5 0-.6.1s-.3.1-.6 0c0-.1 0-.1 0-.1s0 0 0-.1c-.1 0-.1.1-.2.2s-.2.2-.4.1l.3-.1c-.4 0-.6.1-.6.3h-.5.1c.1 0 .1 0 .1-.1-.2 0-.3 0-.3 0s-.1.1-.1.1c-.1-.1-.1-.1-.1 0h-.1l-.3.1c-.3.2-.7.2-1 0-.2.1-.3.2-.5.2-.4.3-.5.4-.5.6zm-7.7-6.4c-.2 0-.2.2-.2.5.1 0 .1-.1.1-.2s0-.2.1-.3zm0 0c-.2 0-.2.2-.2.5.1 0 .1-.1.1-.2s0-.2.1-.3zm.3 5.3c-.1-.1-.1-.1-.2-.1 0 0-.1.1-.2.1v.6c-.1.2-.1.4 0 .7l.2-.2s0-.1 0-.2 0-.2 0-.4v-.1c.1-.3.2-.4.2-.4zm0 0c-.1-.1-.1-.1-.2-.1 0 0-.1.1-.2.1v.6c-.1.2-.1.4 0 .7l.2-.2s0-.1 0-.2 0-.2 0-.4v-.1c.1-.3.2-.4.2-.4zm-.1-6.2c0 .1 0 .2-.1.3s-.1.2-.1.2h.1c.1 0 .2-.2.2-.4 0-.1 0-.2 0-.2zm-.2.6c.1 0 .2-.2.2-.4 0-.1 0-.2 0-.2 0 .1 0 .2-.1.3s-.1.2-.1.2zm.4-1.5c0 .1-.1.2-.1.4s-.1.3 0 .3c-.1 0 0-.2.2-.4.1-.1.2-.3.3-.4s.2-.2.2-.3c0 0-.1.1-.3.2-.1.1-.2.2-.2.2h-.1c.1.1.1.1.1 0 0 0 0 0-.1 0zm.6-1.4c-.1 0-.2.1-.2.1s-.1.1-.1.1v.1.2c.1 0 .1-.1.1-.1v-.1c0-.1.1-.1.1-.2 0 0 .1-.1.1-.1zm-.3.5c.1 0 .1-.1 0 0 .1-.1.1-.2.1-.2 0-.1.1-.1.1-.2 0 0 .1-.1.1-.2-.1 0-.2.1-.2.1s-.1.1-.1.1v.1c-.1.2-.1.3 0 .3zm0 .2v.4s0-.1.2-.2.2-.2.2-.2 0 0-.1 0c-.1-.1-.2-.1-.3 0zm.2 6.8c-.1 0-.1.1-.1.1s-.1.1-.1.1c-.1-.1-.1-.1 0-.2zm-.2-6.8h.1.2s0 0-.1 0c0 0-.1 0-.2 0zm.6 3.4h.1.1.1v-.1-.1h-.1zm0 0h.1.1.1v-.1-.1h-.1zm.6 1.9c-.1.1-.1.2-.1.4 0 .1-.1.3-.3.3 0-.1 0-.2.1-.3s.1-.2 0-.2c0-.1 0-.1.1-.1s.1-.1.2-.1zm0-.3c.1 0 .1.1.1.1 0 .1-.1.1-.2 0-.1 0 0 0 .1-.1-.1.1 0 0 0 0zm.2-3c0-.1 0-.1 0 0l-.1-.1h.1zm.1-.1c-.1 0-.1 0 0 0h-.1-.1zm-.2 2.5s.1.1.1.1c0 .1 0 .1-.1.1 0-.1 0-.1 0-.2-.1.1-.1.1 0 0zm0-2.9v.2.1c.1-.1.1-.1.1-.2s0-.1.1-.2h-.2zm0 .4c.2-.1.2-.1.2-.2s0-.1.1-.2h-.3v.1.1zm0 2.1c0-.1 0-.1.1 0s.1 0 .1-.1c.1.1 0 .2 0 .2-.1 0-.2.1-.2.2 0-.1 0-.1.1-.1.1-.1 0-.1-.1-.2zm.6-1.5c.1 0 .1 0 0 .1 0 .1 0 .1.1 0 0 .1-.1.1-.1.2 0 0-.1.1-.1.2.1 0 .1.1 0 .2s0 .1.1.1c0 .1-.1.1-.2.1s-.2.1-.2.1c-.1-.1-.1-.1 0-.2.1 0 .1-.1 0-.1.1 0 .1-.1.1-.1s.1-.1.1-.1c-.1-.1-.1-.1-.1-.1h-.1c.1-.1.1-.1.2-.1.1-.1.2-.2.2-.3zm-.1-7.6v.1c0 .1-.1.2-.1.2 0 .1-.1.1 0 .2h.1c.1-.1.1-.2.1-.3v-.1s-.1 0-.1-.1zm-.1.6c.1-.2.1-.3.1-.3v-.1h-.1v.1c0 .1-.1.2-.1.2-.1 0-.1.1.1.1zm.2-.7s.1 0 .1-.1c.1-.1.1-.1 0-.1-.1.1-.1.1-.1.1h-.1l-.1.1zm.2-.4c-.1.1-.1.1-.1.1h-.1l-.1.1v.1s.1 0 .1-.1c.3-.1.3-.2.2-.2zm.3 7.4c.1.1 0 .2-.1.2-.1-.2 0-.2.1-.2zm0-8.4.1-.1h-.1v.1c0-.1-.1 0 0 0zm0 0 .1-.1h-.1v.1c0-.1-.1 0 0 0zm.1-.2h.1v-.1-.1.1.1c-.1-.1-.1 0-.1 0zm0 0h.1v-.1-.1.1.1c-.1-.1-.1 0-.1 0zm.4 5.2c0 .1-.1.2-.1.2s-.1.1-.1.2l.3-.1c.1-.1.1-.1.1-.1v-.3zm-.2.4.3-.1c.1-.1.1-.1.1-.1v-.3l-.2.1c0 .1-.1.1-.1.2s-.1.1-.1.2zm.6-7c0-.1 0-.1 0-.1s0 0 0-.1v-.1c-.1 0-.2.1-.2.2l.2.1c-.1.1-.1.1 0 0zm0 0c0-.1 0-.1 0-.1s0 0 0-.1v-.1c-.1 0-.2.1-.2.2l.2.1c-.1.1-.1.1 0 0zm.1 7.1v.3c0 .2-.1.2-.2.1 0-.1.1-.1.1-.2 0 0 0-.1.1-.2zm.7-2.6h-.1l-.1.1-.1.1h.1zm0 0h-.1l-.1.1-.1.1h.1zm.2-.2.1-.1h-.1v.1c0-.1 0-.1 0 0h-.1zm0-.1-.1.1zm1.3-3.2h.1-.1c0-.1 0-.1 0 0zm.2 16.5h-.1zm2.2-.7c-.1 0-.2 0-.3 0zm.9-.6c-.1 0-.1 0 0 0v.1h.1v-.1zm0 0c-.1 0-.1 0 0 0v.1h.1v-.1zm.5 0h.2l.1-.1h.1.1.1.1l.2-.1h.2-.3-.3-.1-.1c-.1 0-.1-.1-.1-.1l-.1.1c0 .1-.1.1-.1.2zm0 0h.2l.1-.1h.1.1.1.1l.2-.1h.2-.3-.3-.1-.1c-.1 0-.1-.1-.1-.1l-.1.1c0 .1-.1.1-.1.2zm5-1.2c-.1 0-.1 0-.2.1-.1 0-.1 0-.1 0l-.1.1c-.1 0-.1 0-.2 0s-.2 0-.2 0c-.1 0-.2 0-.2 0h-.2-.1l-.2.1s-.1 0-.2.1c-.1 0-.1.1-.2.1 0 0-.1 0-.2 0h-.1-.1-.1-.3c-.1 0-.2 0-.2 0-.1 0-.2 0-.2.1l-.2.1h.2l.6-.1h.1.3.3c.2-.1.3-.1.5-.2.1 0 .3-.1.4-.2h.1.4.1v.1c.2 0 .5 0 .7-.1.2 0 .4-.1.5-.1s.2-.1.1-.1-.3 0-.8 0zm-.5.2c.1 0 .1-.1 0 0h.1c0-.1-.1-.1-.1 0-.2-.1-.2-.1-.3 0-.1 0-.2 0-.2 0h-.1-.1-.1l-.2.1s-.1 0-.2.1c-.1 0-.1.1-.2.1 0 0-.1 0-.2 0h-.1-.1-.1-.3c-.1 0-.2 0-.2 0-.1 0-.2 0-.2.1l-.1.1h.1l.6-.1h.1.3.3c.2-.1.3-.1.4-.2.1 0 .3-.1.4-.2h.1zm.6-.2h-.1c-.1 0-.1 0-.2.1-.1 0-.1 0-.1.1zm-.2-.1h.2zm0 0h.2zm2.2-.4h.1-.1c-.1 0-.1 0-.1 0zm0 0h.1-.1c-.1 0-.1 0-.1 0zm.4-.1h.1.1s0 0-.1 0c0-.1 0-.1-.1 0 0-.1 0-.1 0 0-.1 0-.1 0 0 0zm0 0h.1.1s0 0-.1 0c0-.1 0-.1-.1 0 0-.1 0-.1 0 0-.1 0-.1 0 0 0zm4.8.1c0 .1-.1.1-.2.1s-.2 0-.3 0c0-.1.1-.1.2 0 .2 0 .3-.1.3-.1zm.8-.8c0 .2 0 .3.1.3s.3.1.4.1c-.1-.1-.3-.2-.5-.4z"/><path d="m195.5 59.2c.1.1 0 .3-.3.5s-.6.5-.9.8c-.1 0-.2.1-.4.3s-.4.3-.4.4l-.3.2-.8.6-.4.2-.7.4c-.6.4-1.1.7-1.6 1s-1.1.6-1.8.9c0 0-.1 0-.2 0s-.2.1-.3.1-.2.1-.3.1-.2 0-.3.1c-.1 0-.2.1-.4.1 0 0 0 0 0-.1-.2 0-.3.1-.4.1s-.2.1-.3.2c-.1-.1-.2-.1-.3 0s-.2.1-.3 0c-.1.1-.2.1-.3.1s-.2 0-.3.1c-.1 0-.1-.1 0-.1 0 0 0 0 0-.1-.1 0-.2 0-.4 0-.1 0-.3 0-.5.1-.1-.1-.2-.1-.2 0 0 0-.2 0-.3 0v.1c-.5-.1-.8-.1-1.1-.1-.1 0-.2-.1-.3-.1s-.1 0-.2 0c-.4-.1-.7-.1-1-.2s-.6-.2-1-.4-.7-.4-1-.7-.6-.6-.8-1c-.1-.2-.2-.5-.3-.7s-.1-.4-.2-.6c-.1-.3-.1-.5-.1-.7s0-.4.1-.7c.1-.4.2-.8.3-1.5.1-.6.4-1.1.8-1.6l1.1-1.3.7-1c.3-.2.5-.4.6-.5.2-.1.4-.3.6-.6.2-.2.4-.3.6-.4s.4-.3.6-.4c.3-.2.5-.4.7-.5.2-.2.5-.3.7-.5.3-.1.5-.3.7-.3.1-.1.2-.1.4-.1s.3 0 .4-.1c.1 0 .1-.1.2-.1h.2c.2.3.4.5.7.7s.5.4.7.7c.2.1.4.2.4.3 0 .2.1.3.3.4.1.3.1.5 0 .7 0 .2-.1.4-.3.6-.1.1-.1.1-.1.2v.2c-.1.2-.2.3-.3.4s-.3.3-.4.4-.1.2-.2.3c0 .1-.1.3-.2.4s-.3.3-.5.5-.4.4-.5.6c-.2.2-.4.4-.6.5s-.4.2-.6.4c-.1.1-.1.2-.1.3-.3.3-.6.5-.9.7s-.6.4-.9.7c-.5.1-1 .3-1.4.6s-.9.4-1.5.2c-.1 0-.1.1 0 .1h.2c-.1.2-.1.3 0 .4s.1.2.2.3c.3.3.6.5.9.7.4.2.7.4 1.2.4 1.2.4 2.3.4 3.4 0 .4-.1.7-.1 1-.2s.7-.2 1.1-.3c.5-.2 1-.4 1.4-.6l.6-.3c.1-.1.2-.1.2-.1s0 0 .1-.1l1.3-.6c.4-.3.6-.5.9-.6.2-.1.6-.4 1-.8 0 0 .1-.1.3-.2s.3-.2.5-.4c.2-.1.3-.3.5-.4s.3-.2.3-.2l.5-.5c.4-.3.7-.5 1-.7s.5-.3.6-.4c.1.1.2.2.2.4s.1.3.2.3c-.2.3-.3.5-.4.7-.1.1-.1.3-.2.3 0 .1-.1.1-.2.2-.4.6-.5.7-.7.8zm-10.3-5.4c-.1.1-.2.1-.3.2s-.2.2-.3.2-.2 0-.2.1c-.1 0-.1.1-.2.1 0 0-.1.1-.2.1l-.4.3c-.2.2-.3.3-.5.4s-.3.2-.5.3c-.2.3-.4.5-.6.6s-.4.3-.6.6c-.4.2-.6.5-.9.8-.4.4-.7.7-1 1s-.5.7-.7 1c.6-.2 1.2-.5 1.8-.9.5-.4 1.1-.9 1.8-1.3.2-.2.4-.3.6-.5s.4-.4.5-.6c.3-.2.6-.4 1-.8s.7-.7.9-1.1c.1-.2.1-.3.2-.4s.1-.3 0-.4c-.1 0-.2 0-.3 0 .1.2 0 .2-.1.3z"/><path d="m210.3 59.8c0 .1 0 .1-.1.1-.2.2-.4.5-.8.9-.3.4-.6.7-.7.9-.1 0-.2 0-.4.1.1-.1.2-.2.3-.3s.3-.2.4-.2c0-.1 0-.2.1-.3s.1-.3.2-.4c-.1 0-.1.1-.2.3s-.2.3-.2.4c-.2.2-.4.3-.6.4s-.4.3-.5.5c-.3.1-.6.4-.8.7-.2.4-.5.6-.9.6 0 .1-.1.2-.1.2s-.1.1-.1.1c0-.1 0-.1 0-.2v-.1l-.4.4c-.2.1-.3.2-.4.3s-.3.2-.4.2c-.1.1-.2.1-.2.2 0 0-.1.1-.1.1s0 .1-.1.1c0 0-.1.1-.2.1s-.1 0-.1 0c-.1 0-.3.1-.4.2s-.3.2-.4.2c0-.1 0-.1.1-.1-.2 0-.3 0-.4.1h-.1l-1.3.7c-.3.1-.6.2-.9.3s-.6.2-.9.2c-.5.2-1 .3-1.6.2s-1.1-.3-1.7-.6c-.4-.2-.7-.4-1-.5s-.5-.3-.7-.5-.3-.4-.3-.6c-.1-.2-.1-.6-.1-1 0-.1 0-.1 0-.1v-.1c0-.6 0-1.2.2-1.9s.3-1.4.5-2.1c.1-.2.1-.3.1-.4s0-.3.1-.4c.2-.7.4-1.4.6-2.1.3-.7.5-1.4.8-2.1.1-.2.1-.3.1-.3l.2-.3c.3-.5.6-1.1.9-1.9.4-.7.6-1.4.8-2-.1.1-.2.1-.1.1 0 0 0-.1-.2-.1-.2.1-.4.1-.7.2-.2.1-.4.1-.7.1-.3.1-.5.1-.7.2s-.4.1-.6.1c-.4.1-.6.1-.7.1s-.2 0-.2 0h-.1c-.1 0-.3.1-.7.2-.2-.1-.4 0-.7.1s-.5.2-.8.1c-.1 0-.1-.1-.1-.1h-.1c-.3.1-.5.1-.6 0s-.3-.2-.4-.4c.1-.2 0-.4-.1-.5-.1-.2-.2-.3-.2-.5l.2.1c.7-.1 1.3-.3 1.8-.5s1-.4 1.6-.6 1.3-.4 2.1-.6 1.9-.4 3.2-.5c.6-1.3 1.3-2.5 2-3.6s1.4-2.2 2.1-3.4v-.2c.1-.1.1-.1.2 0h.2c0 .1 0 .2.1.2s.1.1.1.1c.2 0 .4.1.6.2s.4.2.6.4.3.3.4.5.1.4 0 .6l-.4.3v.2c-.1.3-.3.6-.5.8s-.4.5-.5.8c-.2.3-.3.5-.4.7s-.2.4-.4.7-.3.6-.5.7-.3.4-.4.8c.6-.1 1.1-.1 1.6-.1h1.6c.5-.1 1-.2 1.4-.2h.7.3.1.1.2c.3.1.6 0 .9 0 .3-.1.6-.1.9 0h.3.4.2c.2.1.3.1.4 0-.1-.1-.2-.1-.2-.1s.1 0 .4.1c.3 0 .6 0 1 .1.4 0 .7.2 1 .5v.2.2h-.1s0 0 0 .1c0 0 .1.1.1.1s.1 0 .2.1c-.1.1-.2.1-.3.1 0 .1.1.2.3.3-.1.1-.1.1-.2.1s-.1 0-.2.1c-.1 0-.1 0-.2 0-.2 0-.4 0-.6 0s-.4 0-.7.1c-.2-.1-.3-.1-.3-.1s-.1 0-.2 0c0-.1 0-.1 0-.1s0 0 0-.1c-.1 0-.2 0-.2.1 0 0-.1.1-.1.1s0 0-.1 0c0 0-.1-.1-.2-.2l-.2.1c-.1 0-.1 0-.1 0s0 0 0-.1c-.1.1-.1.1-.1.1-.1-.1-.2-.2-.4-.1s-.2 0-.1-.1c-.1 0-.1.1-.1.2s-.1.1-.3 0c.1-.1.1-.2.1-.2s0 0 0-.1h-.1c-.1 0-.1.1-.1.2v-.1c-.1 0-.2.1-.2.2v-.1c-.1-.1-.2-.1-.2 0 0 0-.1 0-.2 0-.1-.1-.1-.1 0-.1s.1 0 .2-.1c-.1 0-.1 0-.2 0s-.2 0-.2.1c-.2-.1-.4-.1-.5 0 0 .1.1.1.2 0s.1-.1.2 0c0 0-.1.1-.2.1s-.2.1-.3.1-.1 0-.2 0v-.1h-.2-.1s0 0-.1 0c-.1.1-.2.1-.2.2s0 0-.1-.1c0-.1-.1-.2-.3-.2s-.4.1-.5.1v-.1c-.1.1-.2.1-.4.2-.1.1-.3 0-.4-.1h.1.1c0-.1 0-.1 0-.1s0 0 0 0c-.1 0-.1 0-.1 0s-.1.1-.1.1 0 0 0-.1c-.2 0-.2 0-.2 0-.1 0-.1.1-.1.2s0 .2-.1.3c-.2 0-.3 0-.4 0s-.3 0-.5 0c0-.1 0-.1.1-.1 0 0 .1 0 .1-.1-.1 0-.1 0-.2 0s-.1 0-.2 0c-.1.2-.2.2-.3.2s-.2 0-.3 0c-.1 0-.2 0-.2.1h.2c0 .1.1.1.1 0s0 .1-.1.1-.1 0-.2.1c-.1 0-.2 0-.2-.1-.1 0-.1 0-.2 0-.2 0-.3 0-.6 0-.2 0-.4.1-.6.1-.1.1-.2.1-.2.2s-.1.2-.1.3c-.2.6-.6 1.3-1 2.1s-.8 1.6-1 2.3c-.1.3-.2.5-.2.6s-.1.2-.1.3-.1.2-.1.3-.1.4-.2.7c-.4.6-.6 1.3-.8 2.2s-.4 1.7-.5 2.6c-.1.3-.1.6-.2.9s-.2.6-.2.9c0 .5-.1.9-.3 1.3-.1.4-.1.8.2 1.3.1 0 .1 0 0 0h.1c.3 0 .6 0 1-.1s.7-.2 1-.3c.4-.1.7-.2 1.1-.4.4-.1.7-.3 1-.4.1-.1.1-.1.1-.1s0 0 0-.1c.1 0 .2-.1.3-.1s.2-.1.2-.2c.2-.1.3-.1.5-.2.1 0 .2-.1.3-.2s.2-.1.3-.2c.1 0 .2-.1.4-.2v-.2c.1.1.3 0 .6-.3h.1c.3-.2.6-.4 1-.6s.7-.5 1-.7c.2 0 .4-.2.8-.5s.7-.6 1.1-1 .7-.7 1-1 .5-.5.5-.6h.1c0-.2.1-.3.1-.3s.1-.1.2-.2c0-.1 0-.1 0-.1.1-.1.2-.1.2-.1s.1-.1.1-.2c.2 0 .3-.1.4-.3.2.1.4.1.5.2s.2.1.2 0c0 .1 0 .1.1.1h.2v.1c.1 0 0 .1-.1.1-.1.1-.1.1 0 .1 0 .1 0 .2-.1.3 0 0 .1 0 .1.1-.1 0-.3.4-.8 1.1h-.1c-.1.1-.2.2-.2.1l-.3.2v-.1c-.1.1-.1.1-.1.2s-.1.6-.2.7zm-7-11c.1 0 .1 0 0 0-.1-.1-.1-.1 0 0zm.1 0c.1.1.1.1.1 0h.1v-.1-.1c0 .1 0 .1-.1.1 0 0 0 0-.1.1zm1.5-.1c-.1 0-.1-.1 0 0zm0-.1c.1 0 .1 0 0 0zm2.1 14.2c.1-.1.2-.2.3-.2.1-.1.2-.2.2-.3-.1.1-.2.1-.4.2-.1.1-.2.2-.1.3zm.3-14.2c-.1 0-.2 0-.2 0h.2c-.1 0-.1 0 0 0zm.3 12.8h.2c.1-.1.1-.1 0-.2-.1.1-.1.1-.1.1 0 .1 0 .1-.1.1zm.1.6h.2c0-.1.1-.1.1-.2s0-.2 0-.2c-.1 0-.1 0-.1.1v.1c-.1 0-.1.1-.2.1.1 0 0 0 0 .1zm0 .1c0 .1.1.1.2 0 .1 0 .1-.1 0-.2-.1.2-.1.2-.2.2zm.4.2c.1-.2.2-.3.3-.3s.2-.1.4-.2c-.1.1-.3.1-.4.2-.1.2-.2.3-.3.3zm.1-.9c.1.1.1 0 0 0 .1 0 .1 0 0 0zm.2-12.9c.1 0 .1.1 0 0zm.8 12.8c0-.2 0-.3.2-.4s.2-.2.2-.3c.1.1 0 .2-.1.4-.2.1-.3.3-.3.3zm2-2.5s0 0 .1-.1h-.1c-.1.1-.1.2-.2.3s-.2.2-.2.2v-.2c-.1.2-.2.4-.1.5l.1-.1v-.2h.1c0-.1.1-.2.2-.2zm-.4.5c0-.1-.1 0 0 0 0 .1 0 .1 0 0zm.7-11.5c-.1.1-.1.1-.2 0-.1 0-.2 0-.2 0 .1 0 .2.1.3.1s.2 0 .1-.1zm-.3 11.1c.1-.1.1-.1.1-.1z"/><path d="m225.2 59.8c0 .1 0 .1-.1.1-.2.2-.4.5-.8.9-.3.4-.6.7-.7.9-.1 0-.2 0-.4.1.1-.1.2-.2.3-.3s.3-.2.4-.2c0-.1 0-.2.1-.3s.1-.3.2-.4c-.1 0-.1.1-.2.3s-.2.3-.2.4c-.2.2-.4.3-.6.4s-.4.3-.5.5c-.3.1-.6.4-.8.7-.2.4-.5.6-.9.6 0 .1-.1.2-.1.2s-.1.1-.1.1c0-.1 0-.1 0-.2v-.1l-.4.4c-.2.1-.3.2-.4.3s-.3.2-.4.2c-.1.1-.2.1-.2.2 0 0-.1.1-.1.1s0 .1-.1.1c0 0-.1.1-.2.1s-.1 0-.1 0c-.1 0-.3.1-.4.2s-.3.2-.4.2c0-.1 0-.1.1-.1-.2 0-.3 0-.4.1h-.1l-1.3.7c-.3.1-.6.2-.9.3s-.6.2-.9.2c-.5.2-1 .3-1.6.2s-1.1-.3-1.7-.6c-.4-.2-.7-.4-1-.5s-.5-.3-.7-.5-.3-.4-.3-.6c-.1-.2-.1-.6-.1-1 0-.1 0-.1 0-.1v-.1c0-.6 0-1.2.2-1.9s.3-1.4.5-2.1c.1-.2.1-.3.1-.4s0-.3.1-.4c.2-.7.4-1.4.6-2.1.3-.7.5-1.4.8-2.1.1-.2.1-.3.1-.3l.2-.3c.3-.5.6-1.1.9-1.9.4-.7.6-1.4.8-2-.1.1-.2.1-.1.1 0 0 0-.1-.2-.1-.2.1-.4.1-.7.2-.2.1-.4.1-.7.1-.3.1-.5.1-.7.2s-.4.1-.6.1c-.4.1-.6.1-.7.1s-.2 0-.2 0h-.1c-.1 0-.3.1-.7.2-.2-.1-.4 0-.7.1s-.5.2-.8.1c-.1 0-.1-.1-.1-.1h-.1c-.3.1-.5.1-.6 0s-.3-.2-.4-.4c.1-.2 0-.4-.1-.5-.1-.2-.2-.3-.2-.5l.2.1c.7-.1 1.3-.3 1.8-.5s1-.4 1.6-.6 1.3-.4 2.1-.6 1.9-.4 3.2-.5c.6-1.3 1.3-2.5 2-3.6s1.4-2.2 2.1-3.4v-.2c.1-.1.1-.1.2 0h.2c0 .1 0 .2.1.2s.1.1.1.1c.2 0 .4.1.6.2s.4.2.6.4.3.3.4.5.1.4 0 .6l-.4.3v.2c-.1.3-.3.6-.5.8s-.4.5-.5.8c-.2.3-.3.5-.4.7s-.2.4-.4.7-.3.6-.5.7-.3.4-.4.8c.6-.1 1.1-.1 1.6-.1h1.6c.5-.1 1-.2 1.4-.2h.7.3.1.1.2c.3.1.6 0 .9 0 .3-.1.6-.1.9 0h.3.4.2c.2.1.3.1.4 0-.1-.1-.2-.1-.2-.1s.1 0 .4.1c.3 0 .6 0 1 .1.4 0 .7.2 1 .5v.2.2h-.1s0 0 0 .1c0 0 .1.1.1.1s.1 0 .2.1c-.1.1-.2.1-.3.1 0 .1.1.2.3.3-.1.1-.1.1-.2.1s-.1 0-.2.1c-.1 0-.1 0-.2 0-.2 0-.4 0-.6 0s-.4 0-.7.1c-.2-.1-.3-.1-.3-.1s-.1 0-.2 0c0-.1 0-.1 0-.1s0 0 0-.1c-.1 0-.2 0-.2.1 0 0-.1.1-.1.1s0 0-.1 0c0 0-.1-.1-.2-.2l-.2.1c-.1 0-.1 0-.1 0s0 0 0-.1c-.1.1-.1.1-.1.1-.1-.1-.2-.2-.4-.1s-.2 0-.1-.1c-.1 0-.1.1-.1.2s-.1.1-.3 0c.1-.1.1-.2.1-.2s0 0 0-.1h-.1c-.1 0-.1.1-.1.2v-.1c-.1 0-.2.1-.2.2v-.1c-.1-.1-.2-.1-.2 0 0 0-.1 0-.2 0-.1-.1-.1-.1 0-.1s.1 0 .2-.1c-.1 0-.1 0-.2 0s-.2 0-.2.1c-.2-.1-.4-.1-.5 0 0 .1.1.1.2 0s.1-.1.2 0c0 0-.1.1-.2.1s-.2.1-.3.1-.1 0-.2 0v-.1h-.2-.1s0 0-.1 0c-.1.1-.2.1-.2.2s0 0-.1-.1c0-.1-.1-.2-.3-.2s-.4.1-.5.1v-.1c-.1.1-.2.1-.4.2-.1.1-.3 0-.4-.1h.1.1c0-.1 0-.1 0-.1s0 0 0 0c-.1 0-.1 0-.1 0s-.1.1-.1.1 0 0 0-.1c-.2 0-.2 0-.2 0-.1 0-.1.1-.1.2s0 .2-.1.3c-.2 0-.3 0-.4 0s-.3 0-.5 0c0-.1 0-.1.1-.1 0 0 .1 0 .1-.1-.1 0-.1 0-.2 0s-.1 0-.2 0c-.1.2-.2.2-.3.2s-.2 0-.3 0c-.1 0-.2 0-.2.1h.2c0 .1.1.1.1 0s0 .1-.1.1-.1 0-.2.1c-.1 0-.2 0-.2-.1-.1 0-.1 0-.2 0-.2 0-.3 0-.6 0-.2 0-.4.1-.6.1-.1.1-.2.1-.2.2s-.1.2-.1.3c-.2.6-.6 1.3-1 2.1s-.8 1.6-1 2.3c-.1.3-.2.5-.2.6s-.1.2-.1.3-.1.2-.1.3-.1.4-.2.7c-.4.6-.6 1.3-.8 2.2s-.4 1.7-.5 2.6c-.1.3-.1.6-.2.9s-.2.6-.2.9c0 .5-.1.9-.3 1.3-.1.4-.1.8.2 1.3.1 0 .1 0 0 0h.1c.3 0 .6 0 1-.1s.7-.2 1-.3c.4-.1.7-.2 1.1-.4.4-.1.7-.3 1-.4.1-.1.1-.1.1-.1s0 0 0-.1c.1 0 .2-.1.3-.1s.2-.1.2-.2c.2-.1.3-.1.5-.2.1 0 .2-.1.3-.2s.2-.1.3-.2c.1 0 .2-.1.4-.2v-.2c.1.1.3 0 .6-.3h.1c.3-.2.6-.4 1-.6s.7-.5 1-.7c.2 0 .4-.2.8-.5s.7-.6 1.1-1 .7-.7 1-1 .5-.5.5-.6h.1c0-.2.1-.3.1-.3s.1-.1.2-.2c0-.1 0-.1 0-.1.1-.1.2-.1.2-.1s.1-.1.1-.2c.2 0 .3-.1.4-.3.2.1.4.1.5.2s.2.1.2 0c0 .1 0 .1.1.1h.2v.1c.1 0 0 .1-.1.1-.1.1-.1.1 0 .1 0 .1 0 .2-.1.3 0 0 .1 0 .1.1-.1 0-.3.4-.8 1.1h-.1c-.1.1-.2.2-.2.1l-.3.2v-.1c-.1.1-.1.1-.1.2s-.1.6-.2.7zm-7-11s.1 0 0 0c-.1-.1-.1-.1 0 0zm.1 0c.1.1.1.1.1 0h.1v-.1-.1c0 .1 0 .1-.1.1 0 0-.1 0-.1.1zm1.5-.1c-.1 0-.1-.1 0 0zm2.1 14.1c.1-.1.2-.2.3-.2.1-.1.2-.2.2-.3-.1.1-.2.1-.4.2s-.2.2-.1.3zm.2-14.2c-.1 0-.2 0-.2 0zm.4 12.8h.2c.1-.1.1-.1 0-.2-.1.1-.1.1-.1.1 0 .1-.1.1-.1.1zm0 .6h.2c0-.1.1-.1.1-.2s0-.2 0-.2c-.1 0-.1 0-.1.1v.1c-.1 0-.1.1-.2.1.2 0 .1 0 0 .1zm0 .1c0 .1.1.1.2 0 .1 0 .1-.1 0-.2 0 .2 0 .2-.2.2zm.5.2c.1-.2.2-.3.3-.3s.2-.1.4-.2c-.1.1-.3.1-.4.2-.1.2-.2.3-.3.3zm.1-.9c0 .1.1 0 0 0zm.2-12.9c-.1 0-.1 0 0 0 .1 0 .1.1 0 0zm.7 12.8c0-.2 0-.3.2-.4s.2-.2.2-.3c.1.1 0 .2-.1.4-.1.1-.2.3-.3.3zm2.1-2.5s0 0 .1-.1h-.1c-.1.1-.1.2-.2.3s-.2.2-.2.2v-.2c-.1.2-.2.4-.1.5l.1-.1v-.2h.1c0-.1.1-.2.2-.2zm-.4.5c-.1-.1-.1 0 0 0-.1.1-.1.1 0 0zm.7-11.5c-.1.1-.1.1-.2 0-.1 0-.2 0-.2 0 .1 0 .2.1.3.1s.2 0 .1-.1zm-.3 11.1c.1-.1.1-.1.1-.1z"/><path d="m242 59.2c.1.1 0 .3-.3.5s-.6.5-.9.8c-.1 0-.2.1-.4.3s-.4.3-.4.4l-.3.2-.8.6-.4.2-.7.4c-.6.4-1.1.7-1.6 1s-1.1.6-1.8.9c0 0-.1 0-.2 0s-.2.1-.3.1-.2.1-.3.1-.2 0-.3.1c-.1 0-.2.1-.4.1 0 0 0 0 0-.1-.2 0-.3.1-.4.1s-.2.1-.3.2c-.1-.1-.2-.1-.3 0s-.2.1-.3 0c-.1.1-.2.1-.3.1s-.2 0-.3.1c-.1 0-.1-.1 0-.1 0 0 0 0 0-.1-.1 0-.2 0-.4 0-.1 0-.3 0-.5.1-.1-.1-.2-.1-.2 0 0 0-.2 0-.3 0v.1c-.5-.1-.8-.1-1.1-.1-.1 0-.2-.1-.3-.1s-.1 0-.2 0c-.4-.1-.7-.1-1-.2s-.6-.2-1-.4-.7-.4-1-.7-.6-.6-.8-1c-.1-.2-.2-.5-.3-.7s-.1-.4-.2-.6c-.1-.3-.1-.5-.1-.7s0-.4.1-.7c.1-.4.2-.8.3-1.5.1-.6.4-1.1.8-1.6l1.1-1.3.7-1c.3-.2.5-.4.6-.5.2-.1.4-.3.6-.6.2-.2.4-.3.6-.4s.4-.3.6-.4c.3-.2.5-.4.7-.5.2-.2.5-.3.7-.5.3-.1.5-.3.7-.3.1-.1.2-.1.4-.1s.3 0 .4-.1c.1 0 .1-.1.2-.1h.2c.2.3.4.5.7.7s.5.4.7.7c.2.1.4.2.4.3 0 .2.1.3.3.4.1.3.1.5 0 .7 0 .2-.1.4-.3.6-.1.1-.1.1-.1.2v.2c-.1.2-.2.3-.3.4s-.3.3-.4.4-.1.2-.2.3c0 .1-.1.3-.2.4s-.3.3-.5.5-.4.4-.5.6c-.2.2-.4.4-.6.5s-.4.2-.6.4c-.1.1-.1.2-.1.3-.3.3-.6.5-.9.7s-.6.4-.9.7c-.5.1-1 .3-1.4.6s-.9.4-1.5.2c-.1 0-.1.1 0 .1h.2c-.1.2-.1.3 0 .4s.1.2.2.3c.3.3.6.5.9.7.4.2.7.4 1.2.4 1.2.4 2.3.4 3.4 0 .4-.1.7-.1 1-.2s.7-.2 1.1-.3c.5-.2 1-.4 1.4-.6l.6-.3c.1-.1.2-.1.2-.1s0 0 .1-.1l1.3-.6c.4-.3.6-.5.9-.6.2-.1.6-.4 1-.8 0 0 .1-.1.3-.2s.3-.2.5-.4c.2-.1.3-.3.5-.4s.3-.2.3-.2l.5-.5c.4-.3.7-.5 1-.7s.5-.3.6-.4c.1.1.2.2.2.4s.1.3.2.3c-.2.3-.3.5-.4.7-.1.1-.1.3-.2.3 0 .1-.1.1-.2.2-.3.6-.5.7-.7.8zm-10.3-5.4c-.1.1-.2.1-.3.2s-.2.2-.3.2-.2 0-.2.1c-.1 0-.1.1-.2.1 0 0-.1.1-.2.1l-.4.3c-.2.2-.3.3-.5.4s-.3.2-.5.3c-.2.3-.4.5-.6.6s-.4.3-.6.6c-.4.2-.6.5-.9.8-.4.4-.7.7-1 1s-.5.7-.7 1c.6-.2 1.2-.5 1.8-.9.5-.4 1.1-.9 1.8-1.3.2-.2.4-.3.6-.5s.4-.4.5-.6c.3-.2.6-.4 1-.8s.7-.7.9-1.1c.1-.2.1-.3.2-.4s.1-.3 0-.4c-.1 0-.2 0-.3 0 .1.2 0 .2-.1.3z"/><path d="m251.9 66.2c.1 0 .1 0 0 0-.1-.2-.2-.1-.4.1s-.3.3-.4.4c-.1 0-.1 0-.1-.1-.1.1-.2.2-.4.3s-.4.1-.5 0c-.2.2-.3.2-.3.2-.3-.1-.4-.1-.5-.1s-.3 0-.5-.1v.1h.1c.1 0 .1 0 .1.1-.2 0-.4 0-.6 0-.2-.1-.4-.1-.7-.2-1.1-.1-2-.6-2.5-1.5s-.7-2-.6-3.2c.2-1.2.5-2.2 1.1-3s1.1-1.6 1.5-2.4c-.4 0-.8.1-1.3.2-.5.2-1.1.3-1.6.3-.2 0-.3.1-.3.1v.1s-.2 0-.4-.1c-.1 0-.1 0-.2-.1s-.2-.1-.2-.1c-.2.1-.2 0-.1-.1s.1-.3 0-.4c-.3-.1-.4-.3-.4-.6s0-.4.1-.4c-.1-.6-.1-1.1.1-1.5.1-.5.4-.9.6-1.3.3-.4.6-.7.9-1s.7-.6.9-.9c.3 0 .6.1.9.2s.6.3 1 .4c.1.1.2.2.3.3s.2.2.2.4l-.2.8c-.1 0-.1.1-.1.1 0 .1-.1.1-.2.1 0 .2-.1.4-.3.6s-.4.4-.6.5-.3.2-.3.3-.1.3-.3.4c-.2.2-.4.3-.4.5-.1.1-.2.3-.3.5h1c.2 0 .4-.1.5-.1.1-.1.3-.1.4-.2.2-.1.4-.1.8-.2.2.1.5 0 .8 0 .2.2.4.4.7.6.2.2.5.4.7.6v.8c0 .2-.1.3-.2.5-.1.1-.2.3-.3.4s-.2.3-.4.5c-.1.2-.2.4-.3.6s-.2.4-.4.5c0 .3-.1.5-.3.8s-.3.5-.4.8c-.2.6-.3 1.3-.4 1.9s0 1.2.3 1.6c.4.1.7.2.9.2.3.1.6.1.9 0 .1 0 .2-.1.3-.1.1-.1.2-.1.3-.1s0-.1.1-.1c.3 0 .7-.1 1-.4.4-.3.7-.5 1-.6.1-.1.2-.1.3-.2.1 0 .2-.1.3-.1.2 0 .2-.1.3-.1s.1-.1.2-.1c.1-.1.1-.2.2-.2s.1-.1.1-.1c.1-.1.2-.1.3-.2.2-.2.3-.3.3-.3.2-.2.4-.4.8-.7.3-.3.6-.5.9-.7.2-.1.5-.4 1.1-.9.6-.4 1.1-.9 1.5-1.4.2-.2.3-.3.3-.3.1-.1.1-.1.2-.1s.1-.1.2-.1.2-.1.4-.2c.1-.2.1-.3.2-.5s.2-.3.3-.5c.1 0 .4 0 .7-.1.4-.1.6 0 .6.2 0 .1 0 .2-.1.2.1.4 0 .7-.4 1.1-.3.3-.6.6-.8.9-.1.1-.1.1-.1.2s-.1.2-.2.2c-.1.1-.1.2-.2.3s-.2.2-.4.4-.4.3-.5.5c-.1.1-.2.3-.5.4-.2.3-.4.5-.6.7s-.3.3-.5.5c-.1.1-.3.3-.5.4s-.4.3-.6.4c-.1.1-.2.2-.3.3-.2.1-.3.3-.5.5s-.3.3-.5.4c-.1.1-.3.2-.3.2-.6.4-1.1.7-1.5.9s-.6.3-.5.4c-.1 0-.1 0-.1 0 0-.2-.1-.2-.2-.2zm-6.6-13.2c-.1.2-.2.3-.4.4s-.3.2-.4.4c.2-.1.3-.3.5-.4s.3-.2.3-.4z"/><path d="m258.3 63.9c.1-.3.2-.5.4-.6s.3-.3.5-.6c-.1.1-.1.2-.2.2 0 0-.1.1-.1.3.5-.2.7-.5.8-.9.1.1.2.1.3-.1s.2-.3.4-.3c.1 0 .1-.1.1-.2s0-.2.1-.3h.1.1c.1-.2.2-.3.3-.3s.2-.1.3-.2c0 0 .1 0 .2-.1.2-.2.5-.4.8-.5s.5-.3.7-.5c.4-.2.8-.4 1.2-.6.4-.3.8-.5 1.2-.7.1-.6.2-1.2.1-1.9 0-.7-.2-1.3-.4-1.8-.1.1-.3.3-.5.4-.2.2-.4.4-.6.6l-.6.5-.7.6-.9.8c-.2.2-.5.4-.7.6s-.4.3-.6.4c-.2.3-.4.5-.6.7s-.4.1-.5-.1c-.1-.1-.2-.2-.2-.2h-.1-.1s-.1-.1-.2-.2c-.1 0-.2 0-.2.1s0 .1 0 0 .1-.1.1-.2.1-.1.1-.1c.2-.1.4-.3.5-.4s.1-.2.2-.4.1-.3.2-.4c.2-.1.3-.2.4-.2s.3-.1.4-.3c.1-.1.1-.1.1-.2s.1-.2.1-.2c.1-.1.3-.2.4-.3s.2-.2.3-.2c.3-.4.5-.7.8-.9.3-.3.5-.5.7-.8.3-.6.7-1 1.2-1.1s.9 0 1.2.2c.5 0 .8.1 1 .2.2.2.4.4.6.8.1.1.2.3.2.6.1.3.1.5.2.9 0 .3.1.6.1.9s.1.5.1.7c.2 0 .5-.1 1-.2.5-.2 1-.3 1.5-.5s1-.3 1.5-.5.8-.2 1-.2c0 0 .1 0 .1-.1 0 .1.1.1.1.1h.2c.2-.1.5-.1.7-.2.3 0 .5-.2.7-.3h.2c.1 0 .1-.1.2-.2v.1c.1 0 .1-.1.1-.2h.9c.2 0 .5-.1.7-.1.1.1.3.1.4.1s.3 0 .3-.1l.7.1c0 .2.1.2.2.1v.1.1h.1c0 .1.1.2.1.2s.1.1 0 .2c-.2.1-.3.1-.4.1s-.2 0-.3 0v.1h.1c-.2.1-.3.1-.5.1s-.3.1-.4.3c-.3.1-.6.1-.8.2s-.5.1-.9.2c-.1.1-.1.2-.1.2-.2-.1-.3-.1-.5 0-.1.1-.3.1-.4.1-.3 0-.6.1-.8.2s-.5.2-.8.3l-3.8 1.5c-.3.1-.5.3-.8.4s-.5.3-.7.6c-.1.5-.2.8-.3 1s-.3.5-.3.9c-.2 0-.3.1-.3.2s-.1.2-.1.3c.1 0 .1 0 .1-.1s0-.1.1 0c-.1.2-.1.3-.2.6-.1.2-.2.4-.4.6.1 0 .1.1 0 .2s-.1.2 0 .3c-.1 0-.1.1-.2.2s-.1.2 0 .2c-.1 0-.1 0-.1.1s0 .1-.1 0c.1.1.1.2 0 .2s-.1.1 0 .1c-.2.2-.4.4-.5.6s-.3.4-.5.6.1 0 0 .1c-.5.5-.9.9-1.4 1.3s-1 .7-1.7.9c0-.1 0-.1-.1 0-.1 0-.2 0-.2 0 0-.1 0-.1.1-.1h.2c-.1-.2-.2-.2-.3-.1s-.2.1-.3.1v.1-.1c-.1 0-.3 0-.4 0s-.3 0-.5 0 0 0-.1 0c-.6 0-1.2-.1-1.6-.3s-.8-.6-1-.9c-.1 0-.1 0-.1 0s-.1-.1-.1 0c-.1-.1-.1-.1 0-.1 0 0 .1-.1 0-.2-.1.1-.1.2-.2.1-.1 0-.1 0-.2.1-.1-.1-.1-.2 0-.2s.1-.1 0-.2c0-.1-.1-.1-.1 0s0 0 0-.1.1-.2.1-.3.2-.1.3-.1c0-.5.1-.8.3-1v.1.1c.2-.1.3-.2.4-.5.1-.2.2-.5.2-.8.2.1.3.1.3 0 .1-.4.2-.4.3-.4zm.4-.4c0-.2 0-.2 0-.2zm3.7-.8v.1c-.3.2-.6.5-.8.8-.3.3-.5.6-.8.9 0 .1 0 .2-.1.1v.1s0 0 0 0c-.2.1-.3.2-.4.3-.1 0-.1 0-.1.1-.1.2-.3.4-.5.6-.2.1-.3.4-.4.7.1 0 .1.1.1.1v.1c.4-.1.8-.3 1.1-.4s.7-.3 1-.5c0-.1 0-.2 0-.2v-.1c.6-.6 1.2-1.2 1.8-1.9.5-.7 1-1.6 1.4-2.4-.4.3-.7.5-1 .8-.5.2-.9.5-1.3.8zm-.9 5.7c.1 0 .3-.1.4-.3-.1.1-.1.1-.2.1s-.2 0-.2.2z"/><path d="m96.7 81.1h3.3v3.7h-3.3zm0 7.3h3.3v19.5h-3.3z"/><path d="m105 88.4h3.1v2.8c.9-1.1 1.9-2 2.9-2.5s2.2-.7 3.5-.7c2.8 0 4.7 1 5.6 2.9.5 1.1.8 2.6.8 4.5v12.5h-3.3v-12.3c0-1.2-.2-2.2-.5-2.9-.6-1.2-1.6-1.8-3.2-1.8-.8 0-1.4.1-1.9.2-.9.3-1.7.8-2.4 1.6-.5.6-.9 1.3-1.1 2s-.2 1.7-.2 2.9v10.2h-3.3z"/><path d="m136.8 82.9h3.3v5.5h3.1v2.6h-3.1v12.8c0 .7.2 1.1.7 1.4.3.1.7.2 1.3.2h.5c.2 0 .4 0 .6-.1v2.6c-.4.1-.8.2-1.2.2s-.8.1-1.3.1c-1.5 0-2.6-.4-3.1-1.2s-.8-1.8-.8-3.1v-12.9h-2.6v-2.7h2.6z"/><path d="m146.6 81h3.3v10c.8-1 1.5-1.7 2.1-2.1 1.1-.7 2.4-1 4-1 2.8 0 4.8 1 5.8 3 .5 1.1.8 2.6.8 4.5v12.5h-3.4v-12.3c0-1.4-.2-2.5-.5-3.2-.6-1.1-1.7-1.6-3.4-1.6-1.4 0-2.6.5-3.7 1.4s-1.7 2.7-1.7 5.3v10.4h-3.3z"/><path d="m179.4 88.9c1.3.7 2.3 1.5 3 2.5s1.1 2.1 1.3 3.5c.2.9.3 2.3.3 4.3h-14.2c.1 2 .5 3.6 1.4 4.8s2.2 1.8 4 1.8c1.7 0 3.1-.6 4.1-1.7.6-.7 1-1.4 1.2-2.3h3.2c-.1.7-.4 1.5-.8 2.4s-1 1.6-1.6 2.2c-1 1-2.2 1.6-3.7 2-.8.2-1.7.3-2.7.3-2.4 0-4.5-.9-6.2-2.7s-2.5-4.3-2.5-7.4.8-5.7 2.5-7.7 3.9-2.9 6.6-2.9c1.5-.1 2.8.2 4.1.9zm1.2 7.7c-.1-1.4-.4-2.6-.9-3.4-.9-1.6-2.4-2.4-4.5-2.4-1.5 0-2.8.5-3.8 1.6s-1.6 2.5-1.6 4.2z"/><path d="m80.5 116.1h3.6v23.6h13.5v3.2h-17.1z"/><path d="m111.3 131.1c.8-.1 1.3-.4 1.5-.9.1-.3.2-.7.2-1.3 0-1.1-.4-1.9-1.2-2.4s-1.9-.8-3.4-.8c-1.7 0-2.9.5-3.6 1.4-.4.5-.7 1.3-.8 2.3h-3.1c.1-2.4.8-4.1 2.3-5s3.2-1.4 5.2-1.4c2.3 0 4.2.4 5.6 1.3s2.1 2.2 2.1 4.1v11.3c0 .3.1.6.2.8s.4.3.9.3h.5c.2 0 .4 0 .6-.1v2.4c-.5.1-.9.2-1.2.3-.3 0-.6.1-1.1.1-1.1 0-2-.4-2.5-1.2-.3-.4-.5-1-.6-1.8-.7.9-1.6 1.6-2.9 2.3-1.3.6-2.6 1-4.1 1-1.8 0-3.3-.5-4.4-1.7s-1.7-2.5-1.7-4.1c0-1.8.6-3.2 1.7-4.2s2.6-1.6 4.5-1.8zm-6.9 8.9c.7.5 1.5.8 2.5.8 1.2 0 2.3-.3 3.4-.8 1.8-.9 2.7-2.3 2.7-4.4v-2.6c-.4.3-.9.5-1.5.6-.6.2-1.3.3-1.9.4l-2 .3c-1.2.2-2.1.4-2.7.7-1 .6-1.5 1.5-1.5 2.7-.1 1 .3 1.7 1 2.3z"/><path d="m121.6 123.4h3.1v2.8c.9-1.1 1.9-2 2.9-2.5s2.2-.7 3.5-.7c2.8 0 4.7 1 5.6 2.9.5 1.1.8 2.6.8 4.5v12.5h-3.3v-12.3c0-1.2-.2-2.2-.5-2.9-.6-1.2-1.6-1.8-3.2-1.8-.8 0-1.4.1-1.9.2-.9.3-1.7.8-2.4 1.6-.5.6-.9 1.3-1.1 2s-.2 1.7-.2 2.9v10.2h-3.3z"/><path d="m153.2 124c.6.4 1.2 1 2 1.9v-9.9h3.2v26.9h-3v-2.7c-.8 1.2-1.7 2.1-2.7 2.6s-2.2.8-3.6.8c-2.2 0-4.1-.9-5.6-2.7-1.6-1.8-2.4-4.3-2.4-7.3 0-2.8.7-5.3 2.2-7.4s3.5-3.1 6.2-3.1c1.4-.1 2.7.2 3.7.9zm-7.4 14.6c.9 1.4 2.3 2.1 4.3 2.1 1.5 0 2.8-.7 3.7-2s1.5-3.2 1.5-5.6c0-2.5-.5-4.3-1.5-5.5s-2.2-1.8-3.7-1.8c-1.6 0-3 .6-4 1.9s-1.5 3.1-1.5 5.6c-.1 2.2.3 3.9 1.2 5.3z"/><path d="m187.8 125.3c1.7 1.7 2.6 4.1 2.6 7.4 0 3.2-.8 5.8-2.3 7.8-1.5 2.1-3.9 3.1-7.1 3.1-2.7 0-4.8-.9-6.4-2.7s-2.4-4.3-2.4-7.3c0-3.3.8-5.9 2.5-7.8s3.9-2.9 6.7-2.9c2.5-.1 4.7.7 6.4 2.4zm-2.1 13c.8-1.6 1.2-3.5 1.2-5.5 0-1.8-.3-3.3-.9-4.5-.9-1.8-2.5-2.7-4.7-2.7-2 0-3.4.8-4.3 2.3s-1.4 3.4-1.4 5.5.5 3.8 1.4 5.2 2.3 2.1 4.3 2.1c2.2.1 3.6-.7 4.4-2.4z"/><path d="m195.9 117.4c.8-1.1 2.2-1.7 4.4-1.7h.6c.2 0 .5 0 .8.1v3c-.3 0-.6 0-.7 0s-.3 0-.4 0c-1 0-1.6.3-1.8.8s-.3 1.8-.3 4h3.3v2.6h-3.3v16.9h-3.2v-17.1h-2.7v-2.6h2.7v-3.1c0-1.3.2-2.3.6-2.9z"/><path d="m51.7 169.3c.1 1.5.4 2.8 1 3.7 1.2 1.8 3.2 2.7 6.1 2.7 1.3 0 2.5-.2 3.6-.6 2.1-.8 3.1-2.1 3.1-4.1 0-1.5-.4-2.5-1.3-3.1s-2.3-1.1-4.2-1.6l-3.5-.8c-2.3-.5-3.9-1.1-4.9-1.8-1.7-1.1-2.5-2.8-2.5-5 0-2.4.8-4.4 2.4-5.9s3.9-2.3 6.9-2.3c2.7 0 5.1.7 7 2 1.9 1.4 2.9 3.5 2.9 6.5h-3.4c-.2-1.4-.5-2.5-1.1-3.3-1.1-1.4-2.9-2.1-5.4-2.1-2.1 0-3.5.5-4.4 1.4s-1.3 1.9-1.3 3.1c0 1.3.5 2.3 1.6 2.9.7.4 2.3.9 4.7 1.5l3.6.9c1.8.4 3.1 1 4.1 1.7 1.7 1.3 2.5 3.1 2.5 5.5 0 3-1.1 5.1-3.2 6.4s-4.6 1.9-7.3 1.9c-3.3 0-5.8-.9-7.6-2.6s-2.7-4-2.7-6.9h3.3z"/><path d="m85.9 158.9c1.3.7 2.3 1.5 3 2.5s1.1 2.1 1.3 3.5c.2.9.3 2.3.3 4.3h-14.3c.1 2 .5 3.6 1.4 4.8s2.2 1.8 4 1.8c1.7 0 3.1-.6 4.1-1.7.6-.7 1-1.4 1.2-2.3h3.2c-.1.7-.4 1.5-.8 2.4s-1 1.6-1.6 2.2c-1 1-2.2 1.6-3.7 2-.8.2-1.7.3-2.7.3-2.4 0-4.5-.9-6.2-2.7s-2.5-4.3-2.5-7.4.8-5.7 2.5-7.7 3.9-2.9 6.6-2.9c1.6-.1 2.9.3 4.2.9zm1.2 7.7c-.1-1.4-.4-2.6-.9-3.4-.9-1.6-2.4-2.4-4.5-2.4-1.5 0-2.8.5-3.8 1.6s-1.6 2.5-1.6 4.2z"/><path d="m94.7 158.4h3.1v3.4c.3-.7.9-1.5 1.9-2.4s2.1-1.4 3.5-1.4h.3c.1 0 .4 0 .7.1v3.5c-.2 0-.4-.1-.5-.1-.2 0-.3 0-.5 0-1.7 0-2.9.5-3.8 1.6s-1.3 2.3-1.3 3.7v11.2h-3.3v-19.6z"/><path d="m119.1 158.9c1.3.7 2.3 1.5 3 2.5s1.1 2.1 1.3 3.5c.2.9.3 2.3.3 4.3h-14.2c.1 2 .5 3.6 1.4 4.8s2.2 1.8 4 1.8c1.7 0 3.1-.6 4.1-1.7.6-.7 1-1.4 1.2-2.3h3.2c-.1.7-.4 1.5-.8 2.4s-1 1.6-1.6 2.2c-1 1-2.2 1.6-3.7 2-.8.2-1.7.3-2.7.3-2.4 0-4.5-.9-6.2-2.7s-2.5-4.3-2.5-7.4.8-5.7 2.5-7.7 3.9-2.9 6.6-2.9c1.5-.1 2.8.3 4.1.9zm1.2 7.7c-.1-1.4-.4-2.6-.9-3.4-.9-1.6-2.4-2.4-4.5-2.4-1.5 0-2.8.5-3.8 1.6s-1.6 2.5-1.6 4.2z"/><path d="m127.9 158.4h3.1v2.8c.9-1.1 1.9-2 2.9-2.5s2.2-.7 3.5-.7c2.8 0 4.7 1 5.6 2.9.5 1.1.8 2.6.8 4.5v12.5h-3.3v-12.3c0-1.2-.2-2.2-.5-2.9-.6-1.2-1.6-1.8-3.2-1.8-.8 0-1.4.1-1.9.2-.9.3-1.7.8-2.4 1.6-.5.6-.9 1.3-1.1 2s-.2 1.7-.2 2.9v10.2h-3.3z"/><path d="m159.4 159c.6.4 1.2 1 2 1.9v-9.9h3.2v26.9h-3v-2.7c-.8 1.2-1.7 2.1-2.7 2.6s-2.2.8-3.6.8c-2.2 0-4.1-.9-5.6-2.7-1.6-1.8-2.4-4.3-2.4-7.3 0-2.8.7-5.3 2.2-7.4s3.5-3.1 6.2-3.1c1.4-.1 2.7.2 3.7.9zm-7.3 14.6c.9 1.4 2.3 2.1 4.3 2.1 1.5 0 2.8-.7 3.7-2 1-1.3 1.5-3.2 1.5-5.6 0-2.5-.5-4.3-1.5-5.5s-2.2-1.8-3.7-1.8c-1.6 0-3 .6-4 1.9s-1.5 3.1-1.5 5.6c-.2 2.2.3 3.9 1.2 5.3z"/><path d="m169.5 151.1h3.3v3.7h-3.3zm0 7.4h3.3v19.5h-3.3z"/><path d="m177.5 158.5h3.2v2.6c.7-.9 1.4-1.6 2.2-2.1 1.1-.7 2.4-1.1 3.9-1.1 2.2 0 4.1.8 5.7 2.5 1.5 1.7 2.3 4.1 2.3 7.3 0 4.3-1.1 7.3-3.4 9.1-1.4 1.2-3.1 1.7-5 1.7-1.5 0-2.7-.3-3.7-1-.6-.4-1.2-1-2-1.9v10h-3.3v-27.1zm12.4 15.3c1-1.3 1.5-3.2 1.5-5.8 0-1.6-.2-2.9-.7-4-.9-2.2-2.4-3.2-4.7-3.2s-3.8 1.1-4.7 3.4c-.5 1.2-.7 2.8-.7 4.6 0 1.5.2 2.8.7 3.9.9 2 2.4 3 4.7 3 1.6 0 2.8-.6 3.9-1.9z"/><path d="m198.6 151.1h3.3v3.7h-3.3zm0 7.4h3.3v19.5h-3.3z"/><path d="m207.5 152.9h3.3v5.5h3.1v2.7h-3.1v12.8c0 .7.2 1.1.7 1.4.3.1.7.2 1.3.2h.5c.2 0 .4 0 .6-.1v2.6c-.4.1-.8.2-1.2.2s-.8.1-1.3.1c-1.5 0-2.6-.4-3.1-1.2s-.8-1.8-.8-3.1v-12.9h-2.6v-2.7h2.6z"/><path d="m229.5 158.4h3.6c-.5 1.3-1.5 4.1-3.1 8.6-1.2 3.4-2.2 6.1-3 8.2-1.9 5-3.2 8-4 9.1s-2.1 1.6-4 1.6c-.5 0-.8 0-1.1-.1-.2 0-.6-.1-.9-.2v-3c.6.2 1 .3 1.2.3.3 0 .5.1.7.1.6 0 1.1-.1 1.3-.3.3-.2.5-.4.7-.7.1-.1.3-.6.7-1.5s.7-1.6.8-2l-7.2-20.1h3.7l5.2 15.9z"/></svg>