<svg enable-background="new 0 0 265 180" viewBox="0 0 265 180" xmlns="http://www.w3.org/2000/svg"><path clip-rule="evenodd" d="m134.5 31.1v-1.4c-1.4-.2-1.7-.6-1.7-2.7v-12.7c1-.9 1.7-1.2 2.5-1.2 1.3 0 2 1.1 2 3.4v10.4c0 2.2-.2 2.6-1.7 2.7v1.4h11.8v-1.4c-1.4-.2-1.7-.6-1.7-2.7v-10.3c0-4.7-2.4-7.3-6.5-7.3-2.2 0-4 .6-6.5 2.4v-11.5h-1.4c-2.8 1.4-6.4 2.6-8.8 2.9v1.4c1.6 0 1.7.1 1.7 1.9v20.4c0 2.2-.2 2.6-1.7 2.7v1.4h12zm-18.6 0v-1.5c-1.7-.1-2-.5-2-2.8v-23.7c2.7 1.7 4.5 4.1 6.4 8.3h1.6l-.9-10.3h-24l-.9 10.3h1.6c1.2-3.5 4-7.3 6.3-8.3v23.7c0 2.3-.3 2.7-2 2.8v1.5zm50.4-1.7c-1.9 1.7-4.3 2.5-7 2.5-6 0-10.1-4.4-10.1-10.8 0-6.7 4.5-11.5 10.8-11.5 5.8 0 9.4 3.8 9.7 10h-11.8c.1 1.9.3 2.8.8 4 .8 1.7 2.4 2.9 4.4 2.9 1.9 0 3.5-.7 5.8-2.6l.9 1c-1.4 2.4-2.2 3.4-3.5 4.5zm-4.3-11.2h-4.2c.2-5 .8-6.9 2.2-6.9 1.3 0 2.1 2.1 2.1 5.7-.1.3-.1.7-.1 1.2zm-104.2 38.1-4.9 15h-4.8l-8-25.9c-.6-1.8-1.2-2.6-2.2-2.7v-1.5h13.6v1.5c-.9.2-1.3.8-1.3 1.6 0 .1 0 .3.1.5l4.4 14.2 2-6.4-2.4-8.3c-.4-1.2-.6-1.5-1.5-1.6v-1.5h14.3v1.5c-1.6.1-2.4.8-2.4 2.1 0 .1 0 .4.1.6l3.7 13 3-12c.2-.7.3-1.3.3-1.6 0-1-.7-1.7-2.1-2.1v-1.5h6.8v1.5c-1.5.3-1.9.9-2.6 3.7l-6.6 24.8h-5zm25.2-8.1c2.6 0 4.6-1.5 4.6-3.4s-2.1-3.5-4.7-3.5c-2.7 0-4.7 1.5-4.7 3.5 0 1.9 2.1 3.4 4.8 3.4zm5.5 21.8v1.4h-12v-1.4c1.4-.2 1.7-.6 1.7-2.7v-11.5c0-1.5-.2-1.7-1.7-1.7v-1.4c2.4-.3 6.5-1.5 8.9-2.8h1.4v17.3c0 2.2.3 2.6 1.7 2.8zm10 2.2c5.2 0 8.8-2.9 8.8-7.2 0-1.5-.4-2.9-1.3-4.1-.7-.9-1.4-1.6-3.4-3.1-3.9-2.9-4.5-3.6-4.5-4.6 0-.8.7-1.4 1.5-1.4 2 0 4 2.2 5.1 5.7h1.6l-.4-5.7c-3.6-1.4-4.9-1.7-7.5-1.7-2.3 0-4.3.5-5.6 1.4-1.6 1.1-2.5 3-2.5 5.1 0 1.7.6 3.3 1.8 4.8.9 1.1 1.2 1.4 4.9 4.1 2.6 1.9 3 2.4 3 3.4s-.8 1.6-2 1.6c-2.3 0-4.7-2.5-5.9-6.2h-1.9l.3 5.5c3.5 1.9 5.3 2.4 8 2.4zm27.6-2.5c-1.9 1.7-4.3 2.5-7 2.5-6 0-10.1-4.4-10.1-10.8 0-6.7 4.5-11.5 10.8-11.5 5.8 0 9.4 3.8 9.7 10h-11.8c.1 1.9.3 2.8.8 4 .8 1.7 2.4 2.9 4.4 2.9 1.9 0 3.5-.7 5.8-2.6l.9 1c-1.4 2.3-2.2 3.4-3.5 4.5zm-4.3-11.2h-4.2c.2-5 .8-6.9 2.2-6.9 1.3 0 2.1 2.1 2.1 5.7-.1.3-.1.7-.1 1.2zm29.4 11.4v1.5h-6.3v-1.5c1.6-.2 2-.7 2-2.8v-21.5c0-2.2-.3-2.7-2-2.8v-1.5h11.7l5.2 14.2 4.8-14.2h11.7v1.5c-1.6.1-2 .5-2 2.8v21.4c0 2.3.3 2.7 2 2.8v1.5h-13.7v-1.5c1.6-.1 2-.5 2-2.8v-18.4l-7.6 22.8h-2l-8-22.1v17.8c-.1 2.2.2 2.5 2.2 2.8zm44.4 2.3c1.9 0 3.7-.9 5.7-2.9l-.4-1.3c-.2 0-.4 0-.6 0-.8 0-.9-.4-.9-2.4v-10.3c0-3.6-2.3-5.3-6.9-5.3-3.1 0-5.3.6-7.5 2s-3.4 3.1-3.4 4.9 1.2 3 2.9 3c1.9 0 3.5-1.5 3.5-3.2 0-.4 0-.7-.1-1-.4-1.1-.5-1.4-.5-1.6 0-.1 0-.2 0-.3 0-.9.7-1.7 1.7-1.7 1.2 0 1.8.9 1.8 2.8v3.6c-1.8.8-3.8 1.8-5.6 2.8-4 2.3-5.3 3.9-5.3 6.3 0 2.8 2.3 4.7 5.6 4.7 2.2 0 3.7-.6 5.7-2.5 1.2 1.7 2.5 2.4 4.3 2.4zm-8.8-6.4c0 1.9.9 3 2.2 3 1.4 0 2.1-.8 2.1-2.8v-5.8c-2.9 1.4-4.3 3.2-4.3 5.6zm27.3 5.6v-1.4c-1.4-.2-1.7-.6-1.7-2.7v-12.3c1.1-.9 1.7-1.2 2.5-1.2 1.2 0 1.8 1.1 1.8 3.3v10.1c0 2.1-.2 2.5-1.7 2.7v1.4h12v-1.3c-1.4-.2-1.7-.6-1.7-2.7v-11c0-2-.6-3.7-1.8-4.7s-3.1-1.7-4.8-1.7c-2.2 0-4.1.7-6.3 2.4v-2.4h-1.4c-2.4 1.3-6.5 2.6-8.9 2.8v1.4h.8c.4 0 .9.4.9.8v12.2c0 2.1-.2 2.5-1.7 2.7v1.4h12z" fill-rule="evenodd"/><path d="m59.2 82.2 5.1 21.8 6.1-21.8h3.9l6.1 21.8 5.1-21.8h4l-7 26.8h-3.8l-6.2-22.2-6.2 22.2h-3.8l-7-26.8z"/><path d="m92.3 82.1h3.3v10c.8-1 1.5-1.7 2.1-2.1 1.1-.7 2.4-1 4-1 2.8 0 4.8 1 5.8 3 .5 1.1.8 2.6.8 4.5v12.5h-3.4v-12.3c0-1.4-.2-2.5-.5-3.2-.6-1.1-1.7-1.6-3.4-1.6-1.4 0-2.6.5-3.7 1.4s-1.7 2.7-1.7 5.3v10.4h-3.3z"/><path d="m127.2 91.5c1.7 1.7 2.6 4.1 2.6 7.4 0 3.2-.8 5.8-2.3 7.8-1.5 2.1-3.9 3.1-7.1 3.1-2.7 0-4.8-.9-6.4-2.7s-2.4-4.3-2.4-7.3c0-3.3.8-5.9 2.5-7.8s3.9-2.9 6.7-2.9c2.6-.2 4.7.7 6.4 2.4zm-2 13c.8-1.6 1.2-3.5 1.2-5.5 0-1.8-.3-3.3-.9-4.5-.9-1.8-2.5-2.7-4.7-2.7-2 0-3.4.8-4.3 2.3s-1.4 3.4-1.4 5.5.5 3.8 1.4 5.2 2.3 2.1 4.3 2.1c2.1 0 3.6-.8 4.4-2.4z"/><path d="m145.1 82.2h12.2c2 0 3.7.3 5 .9 2.5 1.1 3.7 3.3 3.7 6.3 0 1.6-.3 2.9-1 3.9s-1.6 1.8-2.8 2.5c1 .4 1.8 1 2.4 1.7.5.7.8 1.8.9 3.4l.1 3.6c0 1 .1 1.8.3 2.3.2.9.6 1.4 1.2 1.6v.6h-4.5c-.1-.2-.2-.5-.3-.9s-.1-1.1-.2-2.1l-.2-4.5c-.1-1.8-.7-2.9-1.9-3.5-.7-.3-1.7-.5-3.2-.5h-8v11.5h-3.6v-26.8zm11.8 12.3c1.7 0 3-.3 3.9-1 1-.7 1.4-1.9 1.4-3.7 0-1.9-.7-3.2-2-3.9-.7-.4-1.7-.5-2.9-.5h-8.6v9.2h8.2z"/><path d="m181.7 97.2c.8-.1 1.3-.4 1.5-.9.1-.3.2-.7.2-1.3 0-1.1-.4-1.9-1.2-2.4s-1.9-.8-3.4-.8c-1.7 0-2.9.5-3.6 1.4-.4.5-.7 1.3-.8 2.3h-3.1c.1-2.4.8-4.1 2.3-5s3.2-1.4 5.2-1.4c2.3 0 4.2.4 5.6 1.3s2.1 2.2 2.1 4.1v11.3c0 .3.1.6.2.8s.4.3.9.3h.5c.2 0 .4 0 .6-.1v2.4c-.5.1-.9.2-1.2.3-.3 0-.6.1-1.1.1-1.1 0-2-.4-2.5-1.2-.3-.4-.5-1-.6-1.8-.7.9-1.6 1.6-2.9 2.3-1.3.6-2.6 1-4.1 1-1.8 0-3.3-.5-4.4-1.7s-1.7-2.5-1.7-4.1c0-1.8.6-3.2 1.7-4.2s2.6-1.6 4.5-1.8zm-6.9 8.9c.7.5 1.5.8 2.5.8 1.2 0 2.3-.3 3.4-.8 1.8-.9 2.7-2.3 2.7-4.4v-2.6c-.4.3-.9.5-1.5.6-.6.2-1.3.3-1.9.4l-2 .3c-1.2.2-2.1.4-2.7.7-1 .6-1.5 1.5-1.5 2.7 0 1 .3 1.8 1 2.3z"/><path d="m192.1 89.5h3.1v2.8c.9-1.1 1.9-2 2.9-2.5s2.2-.7 3.5-.7c2.8 0 4.6 1 5.6 2.9.5 1.1.8 2.6.8 4.5v12.5h-3.3v-12.3c0-1.2-.2-2.2-.5-2.9-.6-1.2-1.6-1.8-3.2-1.8-.8 0-1.4.1-1.9.2-.9.3-1.7.8-2.4 1.6-.5.6-.9 1.3-1.1 2s-.2 1.7-.2 2.9v10.2h-3.3z"/><path d="m55.2 117.2h4.1l9.7 26.8h-4l-2.7-8h-10.6l-2.9 8h-3.7zm5.9 15.9-4.1-11.9-4.3 11.9z"/><path d="m72.7 124.5 3.8 15.4 3.8-15.4h3.7l3.8 15.3 4-15.3h3.3l-5.7 19.6h-3.4l-4-15.1-3.9 15.1h-3.4l-5.6-19.6z"/><path d="m108.7 132.2c.8-.1 1.3-.4 1.5-.9.1-.3.2-.7.2-1.3 0-1.1-.4-1.9-1.2-2.4s-1.9-.8-3.4-.8c-1.7 0-2.9.5-3.6 1.4-.4.5-.7 1.3-.8 2.3h-3.1c.1-2.4.8-4.1 2.3-5s3.2-1.4 5.2-1.4c2.3 0 4.2.4 5.6 1.3s2.1 2.2 2.1 4.1v11.3c0 .3.1.6.2.8s.4.3.9.3h.5c.2 0 .4 0 .6-.1v2.4c-.5.1-.9.2-1.2.3-.3 0-.6.1-1.1.1-1.1 0-2-.4-2.5-1.2-.3-.4-.5-1-.6-1.8-.7.9-1.6 1.6-2.9 2.3-1.3.6-2.6 1-4.1 1-1.8 0-3.3-.5-4.4-1.7s-1.7-2.5-1.7-4.1c0-1.8.6-3.2 1.7-4.2s2.6-1.6 4.5-1.8zm-6.9 8.9c.7.5 1.5.8 2.5.8 1.2 0 2.3-.3 3.4-.8 1.8-.9 2.7-2.3 2.7-4.4v-2.6c-.4.3-.9.5-1.5.6-.6.2-1.3.3-1.9.4l-2 .3c-1.2.2-2.1.4-2.7.7-1 .6-1.5 1.5-1.5 2.7-.1 1 .3 1.8 1 2.3z"/><path d="m131.2 124.5h3.6c-.5 1.3-1.5 4.1-3.1 8.6-1.2 3.4-2.2 6.1-3 8.2-1.9 5-3.2 8-4 9.1s-2.1 1.6-4 1.6c-.5 0-.8 0-1.1-.1-.2 0-.6-.1-.9-.2v-3c.6.2 1 .3 1.2.3.3 0 .5.1.7.1.6 0 1.1-.1 1.3-.3.3-.2.5-.4.7-.7.1-.1.3-.6.7-1.5s.7-1.6.8-2l-7.2-20.1h3.7l5.2 15.9z"/><path d="m149.6 118.5c.8-1.1 2.2-1.7 4.4-1.7h.6c.2 0 .5 0 .7.1v3c-.3 0-.6 0-.7 0s-.3 0-.4 0c-1 0-1.6.3-1.8.8s-.3 1.8-.3 4h3.3v2.6h-3.3v16.9h-3.2v-16.9h-2.7v-2.6h2.7v-3.1c.1-1.4.3-2.4.7-3.1z"/><path d="m158.6 124.5h3.1v3.4c.3-.7.9-1.5 1.9-2.4s2.1-1.4 3.5-1.4h.3c.1 0 .4 0 .7.1v3.5c-.2 0-.4-.1-.5-.1-.2 0-.3 0-.5 0-1.7 0-2.9.5-3.8 1.6s-1.3 2.3-1.3 3.7v11.2h-3.3v-19.6z"/><path d="m185.1 126.5c1.7 1.7 2.6 4.1 2.6 7.4 0 3.2-.8 5.8-2.3 7.8-1.5 2.1-3.9 3.1-7.1 3.1-2.7 0-4.8-.9-6.4-2.7s-2.4-4.3-2.4-7.3c0-3.3.8-5.9 2.5-7.8s3.9-2.9 6.7-2.9c2.6-.2 4.7.7 6.4 2.4zm-2 13c.8-1.6 1.2-3.5 1.2-5.5 0-1.8-.3-3.3-.9-4.5-.9-1.8-2.5-2.7-4.7-2.7-2 0-3.4.8-4.3 2.3s-1.4 3.4-1.4 5.5.5 3.8 1.4 5.2 2.3 2.1 4.3 2.1c2.1 0 3.6-.8 4.4-2.4z"/><path d="m191.7 124.5h3.3v2.8c.8-1 1.5-1.7 2.1-2.1 1.1-.7 2.3-1.1 3.7-1.1 1.6 0 2.8.4 3.8 1.2.5.4 1 1.1 1.5 1.9.7-1 1.6-1.8 2.6-2.3s2.1-.8 3.3-.8c2.6 0 4.4.9 5.4 2.8.5 1 .8 2.4.8 4.1v13h-3.4v-13.6c0-1.3-.3-2.2-1-2.7s-1.4-.7-2.4-.7c-1.3 0-2.4.4-3.3 1.3s-1.4 2.3-1.4 4.3v11.4h-3.3v-12.8c0-1.3-.2-2.3-.5-2.9-.5-.9-1.4-1.4-2.8-1.4-1.2 0-2.4.5-3.4 1.4s-1.5 2.7-1.5 5.2v10.4h-3.3v-19.4z"/><path d="m57.3 152.3h5.2l7.7 22.7 7.7-22.7h5.2v26.8h-3.5v-15.8c0-.5 0-1.5 0-2.7 0-1.3 0-2.6 0-4.1l-7.6 22.6h-3.6l-7.7-22.6v.8c0 .7 0 1.7.1 3 0 1.3.1 2.3.1 3v15.8h-3.5v-26.8z"/><path d="m98.6 167.2c.8-.1 1.3-.4 1.5-.9.1-.3.2-.7.2-1.3 0-1.1-.4-1.9-1.2-2.4s-1.9-.8-3.4-.8c-1.7 0-2.9.5-3.6 1.4-.4.5-.7 1.3-.8 2.3h-3.1c.1-2.4.8-4.1 2.3-5s3.2-1.4 5.2-1.4c2.3 0 4.2.4 5.6 1.3s2.1 2.2 2.1 4.1v11.3c0 .3.1.6.2.8s.4.3.9.3h.5c.2 0 .4 0 .6-.1v2.4c-.5.1-.9.2-1.2.3-.3 0-.6.1-1.1.1-1.1 0-2-.4-2.5-1.2-.3-.4-.5-1-.6-1.8-.7.9-1.6 1.6-2.9 2.3-1.3.6-2.6 1-4.1 1-1.8 0-3.3-.5-4.4-1.7s-1.7-2.5-1.7-4.1c0-1.8.6-3.2 1.7-4.2s2.6-1.6 4.5-1.8zm-6.9 8.9c.7.5 1.5.8 2.5.8 1.2 0 2.3-.3 3.4-.8 1.8-.9 2.7-2.3 2.7-4.4v-2.6c-.4.3-.9.5-1.5.6-.6.2-1.3.3-1.9.4l-2 .3c-1.2.2-2.1.4-2.7.7-1 .6-1.5 1.5-1.5 2.7-.1 1 .3 1.8 1 2.3z"/><path d="m119.7 160.1c.6.4 1.2 1 2 1.9v-9.9h3.2v26.9h-3v-2.7c-.8 1.2-1.7 2.1-2.7 2.6s-2.2.8-3.6.8c-2.2 0-4.1-.9-5.6-2.7-1.6-1.8-2.4-4.3-2.4-7.3 0-2.8.7-5.3 2.2-7.4s3.5-3.1 6.2-3.1c1.4 0 2.7.3 3.7.9zm-7.4 14.7c.9 1.4 2.3 2.1 4.3 2.1 1.5 0 2.8-.7 3.7-2 1-1.3 1.5-3.2 1.5-5.6 0-2.5-.5-4.3-1.5-5.5s-2.2-1.8-3.7-1.8c-1.6 0-3 .6-4 1.9s-1.5 3.1-1.5 5.6c-.1 2.1.3 3.9 1.2 5.3z"/><path d="m140.5 152.3h5.2l7.7 22.7 7.7-22.7h5.2v26.8h-3.5v-15.8c0-.5 0-1.5 0-2.7 0-1.3 0-2.6 0-4.1l-7.7 22.6h-3.6l-7.7-22.6v.8c0 .7 0 1.7.1 3 0 1.3.1 2.3.1 3v15.8h-3.5z"/><path d="m183.3 160.1c1.3.7 2.3 1.5 3 2.5s1.1 2.1 1.3 3.5c.2.9.3 2.3.3 4.3h-14.2c.1 2 .5 3.6 1.4 4.8s2.2 1.8 4 1.8c1.7 0 3.1-.6 4.1-1.7.6-.7 1-1.4 1.2-2.3h3.2c-.1.7-.4 1.5-.8 2.4s-1 1.6-1.6 2.2c-1 1-2.2 1.6-3.7 2-.8.2-1.7.3-2.7.3-2.4 0-4.5-.9-6.2-2.7s-2.5-4.3-2.5-7.4.8-5.7 2.5-7.7 3.9-2.9 6.6-2.9c1.5-.1 2.8.2 4.1.9zm1.2 7.6c-.1-1.4-.4-2.6-.9-3.4-.9-1.6-2.4-2.4-4.5-2.4-1.5 0-2.8.5-3.8 1.6s-1.6 2.5-1.6 4.2z"/><path d="m192.1 159.5h3.1v2.8c.9-1.1 1.9-2 2.9-2.5s2.2-.7 3.5-.7c2.8 0 4.6 1 5.6 2.9.5 1.1.8 2.6.8 4.5v12.5h-3.3v-12.3c0-1.2-.2-2.2-.5-2.9-.6-1.2-1.6-1.8-3.2-1.8-.8 0-1.4.1-1.9.2-.9.3-1.7.8-2.4 1.6-.5.6-.9 1.3-1.1 2s-.2 1.7-.2 2.9v10.2h-3.3z"/></svg>