<svg enable-background="new 0 0 265 157.7" viewBox="0 0 265 157.7" xmlns="http://www.w3.org/2000/svg"><path d="m57.2 105.6c.1 1.5.4 2.8 1 3.7 1.2 1.8 3.2 2.7 6.1 2.7 1.3 0 2.5-.2 3.6-.6 2.1-.8 3.1-2.1 3.1-4.1 0-1.5-.4-2.5-1.3-3.1s-2.3-1.1-4.2-1.6l-3.5-.8c-2.3-.5-3.9-1.1-4.9-1.8-1.7-1.1-2.5-2.8-2.5-5 0-2.4.8-4.4 2.4-5.9s3.9-2.3 6.9-2.3c2.7 0 5.1.7 7 2 1.9 1.4 2.9 3.5 2.9 6.5h-3.4c-.2-1.4-.5-2.5-1.1-3.3-1.1-1.4-2.9-2.1-5.4-2.1-2.1 0-3.5.5-4.4 1.4s-1.3 1.9-1.3 3.1c0 1.3.5 2.3 1.6 2.9.7.4 2.3.9 4.7 1.5l3.6.9c1.8.4 3.1 1 4.1 1.7 1.7 1.3 2.5 3.1 2.5 5.5 0 3-1.1 5.1-3.2 6.4s-4.5 1.7-7.3 1.7c-3.3 0-5.8-.9-7.6-2.6s-2.7-4-2.7-6.9h3.3z"/><path d="m79.3 87.4h3.2v15.6l8.4-8.3h4.2l-7.5 7.3 7.9 12.3h-4.2l-6.2-10-2.7 2.6v7.3h-3.2v-26.8z"/><path d="m110.2 95.2c1.3.7 2.3 1.5 3 2.5s1.1 2.1 1.3 3.5c.2.9.3 2.3.3 4.3h-14.2c.1 2 .5 3.6 1.4 4.8s2.2 1.8 4 1.8c1.7 0 3.1-.6 4.1-1.7.6-.7 1-1.4 1.2-2.3h3.2c-.1.7-.4 1.5-.8 2.4-.5.9-1 1.6-1.6 2.2-1 1-2.2 1.6-3.7 2-.8.2-1.7.3-2.7.3-2.4 0-4.5-.9-6.2-2.7s-2.5-4.3-2.5-7.4.8-5.7 2.5-7.7 3.9-2.9 6.6-2.9c1.4-.1 2.8.2 4.1.9zm1.1 7.7c-.1-1.4-.4-2.6-.9-3.4-.9-1.6-2.4-2.4-4.5-2.4-1.5 0-2.8.5-3.8 1.6s-1.6 2.5-1.6 4.2z"/><path d="m119.5 89.2h3.3v5.5h3.1v2.7h-3.1v12.8c0 .7.2 1.1.7 1.4.3.1.7.2 1.3.2h.5s.4 0 .6-.1v2.6c-.4.1-.8.2-1.2.2s-.8.1-1.3.1c-1.5 0-2.6-.4-3.1-1.2s-.8-1.8-.8-3.1v-13h-2.6v-2.7h2.6z"/><path d="m142.2 95.7c1.4 1.1 2.2 2.9 2.5 5.5h-3.2c-.2-1.2-.6-2.2-1.3-3s-1.8-1.2-3.3-1.2c-2.1 0-3.6 1-4.5 3.1-.6 1.3-.9 3-.9 4.9 0 2 .4 3.6 1.2 4.9s2.1 2 3.9 2c1.4 0 2.4-.4 3.2-1.2s1.3-2 1.7-3.4h3.2c-.4 2.6-1.3 4.5-2.7 5.7-1.5 1.2-3.3 1.8-5.6 1.8-2.6 0-4.6-.9-6.1-2.8s-2.3-4.2-2.3-7c0-3.4.8-6.1 2.5-8s3.8-2.9 6.4-2.9c2.1 0 3.9.5 5.3 1.6z"/><path d="m148 87.3h3.3v10c.8-1 1.5-1.7 2.1-2.1 1.1-.7 2.4-1 4-1 2.8 0 4.8 1 5.8 3 .5 1.1.8 2.6.8 4.5v12.5h-3.4v-12.3c0-1.4-.2-2.5-.5-3.2-.6-1.1-1.7-1.6-3.4-1.6-1.4 0-2.6.5-3.7 1.4s-1.7 2.7-1.7 5.3v10.4h-3.3z"/><path d="m168.8 87.4h3.3v3.7h-3.3zm0 7.3h3.3v19.5h-3.3z"/><path d="m177.1 94.7h3.1v2.8c.9-1.1 1.9-2 2.9-2.5s2.2-.7 3.5-.7c2.8 0 4.6 1 5.6 2.9.5 1.1.8 2.6.8 4.5v12.5h-3.3v-12.3c0-1.2-.2-2.2-.5-2.9-.6-1.2-1.6-1.8-3.2-1.8-.8 0-1.4.1-1.9.2-.9.3-1.7.8-2.4 1.6-.5.6-.9 1.3-1.1 2s-.2 1.7-.2 2.9v10.2h-3.3z"/><path d="m208.7 95.4c.6.4 1.2 1 1.9 1.9v-2.5h3v17.8c0 2.5-.4 4.4-1.1 5.9-1.4 2.7-3.9 4-7.7 4-2.1 0-3.9-.5-5.3-1.4s-2.2-2.4-2.4-4.4h3.3c.2.9.5 1.6.9 2 .7.7 1.9 1.1 3.5 1.1 2.5 0 4.1-.9 4.9-2.7.5-1 .7-2.9.6-5.6-.7 1-1.4 1.7-2.4 2.2-.9.5-2.1.7-3.7.7-2.1 0-4-.8-5.5-2.3-1.6-1.5-2.4-4-2.4-7.5 0-3.3.8-5.8 2.4-7.7s3.5-2.8 5.8-2.8c1.8.2 3.1.6 4.2 1.3zm.4 3.6c-1-1.2-2.3-1.8-3.8-1.8-2.3 0-3.9 1.1-4.7 3.3-.4 1.2-.7 2.7-.7 4.5 0 2.2.4 3.9 1.3 5 .9 1.2 2.1 1.7 3.6 1.7 2.3 0 4-1.1 5-3.2.5-1.2.8-2.6.8-4.2 0-2.4-.5-4.2-1.5-5.3z"/><path d="m67.5 122.4h3.7v11.1h13.8v-11.1h3.7v26.8h-3.7v-12.5h-13.9v12.5h-3.7v-26.8z"/><path d="m93.9 122.4h3.3v3.7h-3.3zm0 7.4h3.3v19.5h-3.3z"/><path d="m104.2 143.1c.1 1.1.4 1.9.8 2.5.8 1.1 2.3 1.6 4.4 1.6 1.2 0 2.3-.3 3.3-.8.9-.5 1.4-1.3 1.4-2.5 0-.8-.4-1.5-1.1-1.9-.5-.3-1.4-.6-2.9-.9l-2.7-.7c-1.7-.4-2.9-.9-3.7-1.4-1.4-.9-2.2-2.1-2.2-3.7 0-1.9.7-3.3 2-4.5 1.4-1.1 3.2-1.7 5.5-1.7 3 0 5.1.9 6.5 2.6.8 1.1 1.2 2.3 1.2 3.5h-3.1c-.1-.7-.3-1.4-.8-2-.8-.9-2.1-1.3-4-1.3-1.3 0-2.2.2-2.9.7s-1 1.1-1 1.9.4 1.5 1.3 2c.5.3 1.2.6 2.2.8l2.2.5c2.4.6 4 1.1 4.8 1.7 1.3.8 1.9 2.2 1.9 4 0 1.7-.7 3.2-2 4.5s-3.4 1.9-6.1 1.9c-2.9 0-5-.7-6.3-2-1.2-1.3-1.9-3-2-4.9h3.3z"/><path d="m132.1 122.4h18.6v3.3h-15v8.1h13.2v3.2h-13.2v12.2h-3.6z"/><path d="m164.7 137.4c.8-.1 1.3-.4 1.5-.9.1-.3.2-.7.2-1.3 0-1.1-.4-1.9-1.2-2.4s-1.9-.8-3.4-.8c-1.7 0-2.9.5-3.6 1.4-.4.5-.7 1.3-.8 2.3h-3.1c.1-2.4.8-4.1 2.3-5s3.2-1.4 5.2-1.4c2.3 0 4.2.4 5.6 1.3s2.1 2.2 2.1 4.1v11.3c0 .3.1.6.2.8s.4.3.9.3h.5c.2 0 .4 0 .6-.1v2.4c-.5.1-.9.2-1.2.3-.3 0-.6.1-1.1.1-1.1 0-2-.4-2.5-1.2-.3-.4-.5-1-.6-1.8-.7.9-1.6 1.6-2.9 2.3s-2.6 1-4.1 1c-1.8 0-3.3-.6-4.4-1.7-1.2-1.1-1.7-2.5-1.7-4.1 0-1.8.6-3.2 1.7-4.2s2.6-1.6 4.5-1.8zm-7 8.9c.7.5 1.5.8 2.5.8 1.2 0 2.3-.3 3.4-.8 1.8-.9 2.7-2.3 2.7-4.4v-2.6c-.4.3-.9.5-1.5.6s-1.3.3-1.9.4l-2 .3c-1.2.2-2.1.4-2.7.7-1 .6-1.5 1.5-1.5 2.7 0 1 .3 1.7 1 2.3z"/><path d="m175.6 124.2h3.3v5.5h3.1v2.7h-3v12.8c0 .7.2 1.1.7 1.4.3.1.7.2 1.3.2h.5s.4 0 .6-.1v2.6c-.4.1-.8.2-1.2.2s-.8.1-1.3.1c-1.5 0-2.6-.4-3.1-1.2s-.8-1.8-.8-3.1v-12.9h-2.7v-2.7h2.6z"/><path d="m197.4 130.2c1.3.7 2.3 1.5 3 2.5s1.1 2.1 1.3 3.5c.2.9.3 2.3.3 4.3h-14.2c.1 2 .5 3.6 1.4 4.8s2.2 1.8 4 1.8c1.7 0 3.1-.6 4.1-1.7.6-.7 1-1.4 1.2-2.3h3.2c-.1.7-.4 1.5-.8 2.4s-1 1.6-1.6 2.2c-1 1-2.2 1.6-3.7 2-.8.2-1.7.3-2.7.3-2.4 0-4.5-.9-6.2-2.7s-2.5-4.3-2.5-7.4.8-5.7 2.5-7.7 3.9-2.9 6.6-2.9c1.5-.1 2.9.3 4.1.9zm1.2 7.7c-.1-1.4-.4-2.6-.9-3.4-.9-1.6-2.4-2.4-4.5-2.4-1.5 0-2.8.5-3.8 1.6s-1.6 2.5-1.6 4.2z"/><path d="m106.9 35.6v-25.6h-10.6v-4.5h25.6v4.5h-10.5v25.6zm3-1.5v-25.6h10.5v-1.5h-22.6v1.5h10.5v25.6z"/><path d="m124.9 35.6v-30.1h4.5v10.5h1.5v-1.5h1.5v-1.5h6v1.5h3v1.5h1.5v3h1.5v16.5h-4.5v-16.4h-1.5v-1.5h-6v1.5h-1.5v1.5h-1.5v15zm3-1.5v-15h1.5v-1.5h-1.5v-10.6h-1.5v27.1zm4.5-16.5v-1.5h-1.5v1.5zm4.5-3h-3v1.5h3zm6 19.5v-13.5h-1.5v13.5z"/><path d="m154.7 35.6v-1.5h-3v-1.5h-1.5v-3h-1.5v-10.5h1.5v-3h1.5v-1.5h3v-1.5h6v1.5h3v1.5h1.5v3h1.5v6h-13.5v4.5h1.5v1.5h6v-1.5h1.5v-1.5h4.5v3h-1.5v1.5h-1.5v1.5h-3v1.5zm-3-7.5v-7.5h-1.5v7.5zm10.5-6v-3h-1.5v-1.5h-6v1.5h-1.5v3zm-3-7.5h-3v1.5h3zm0 19.5v-1.5h-3v1.5zm6-10.5v-3h-1.5v3z"/><path d="m40 73.6v-1.5h-4.5v-1.5h-1.5v-1.5h-1.5v-1.5h-1.5v-3h-1.5v-12h1.5v-3h1.5v-1.6h1.5v-1.5h1.5v-1.5h4.5v-1.5h7.5v1.5h4.5v1.5h1.5v3h1.5v1.5h1.5v1.5h-6v-1.5h-1.5v-1.5h-3v-1.5h-4.5v1.5h-3v1.5h-1.5v1.5h-1.5v3h-1.5v6h1.5v3h1.5v1.5h1.5v1.5h3v1.5h4.5v-1.5h3v-1.5h1.5v-1.5h6v1.5h-1.5v1.5h-1.5v3h-1.5v1.5h-4.5v1.5h-7.5zm0-4.5h-3v-1.5h-1.5v-1.5h-1.5v-3h-1.5v-9h-1.5v9h1.5v3h1.5v1.5h1.5v1.5h1.5v1.5h3zm-6-15v-3h-1.5v3zm1.5-3v-1.5h-1.5v1.5zm1.5-1.5v-1.6h-1.5v1.5h1.5zm3-1.6v-1.5h-3v1.5zm6-3h-4.5v1.5h4.5zm0 27.1v-1.5h-4.5v1.5zm1.5-24.1h3v1.5h1.5v-1.5h-1.5v-1.5h-3zm3.1 22.6v-1.5h-3v1.5zm1.5-1.5v-1.5h-1.5v1.5z"/><path d="m59.8 73.6v-30.1h4.5v10.5h1.5v-1.5h1.5v-1.5h6v1.5h3v1.5h1.5v3h1.5v16.5h-4.5v-16.4h-1.5v-1.5h-6v1.5h-1.5v1.5h-1.5v15zm3-1.5v-15h1.5v-1.5h-1.5v-10.6h-1.5v27.1zm4.5-16.5v-1.5h-1.5v1.5zm4.5-3h-3v1.5h3zm6.1 19.5v-13.5h-1.5v13.5z"/><path d="m89.6 73.6v-1.5h-3v-1.5h-1.5v-3h-1.5v-10.5h1.5v-3h1.5v-1.5h3v-1.5h6v1.5h1.5v1.5h1.5v-3h4.5v22.6h-4.5v-3h-1.5v1.5h-1.5v1.5h-6zm-4.5-15v7.5h1.5v-7.5zm10.5 10.5v-1.5h1.5v-1.5h1.5v-7.5h-1.5v-1.5h-1.5v-1.5h-6v1.5h-1.5v10.5h1.5v1.5zm-1.5-15v-1.5h-3v1.5zm0 18v-1.5h-3v1.5zm6-3v3h1.5v-19.5h-1.5v3h-1.5v1.5h1.5v10.5h-1.5v1.5z"/><path d="m108 73.6v-22.5h4.5v3h1.5v-1.5h1.5v-1.5h4.5v1.5h1.5v1.5h3v-1.5h1.5v-1.5h6v1.5h1.5v1.5h1.5v3h1.5v16.5h-4.5v-16.5h-1.5v-1.5h-4.5v1.5h-1.5v16.5h-4.5v-16.5h-1.5v-1.5h-3v1.5h-1.5v1.5h-1.5v15zm3-1.5v-15h1.5v-1.5h-1.5v-3h-1.5v19.6h1.5zm7.6-19.5h-1.5v1.5h1.5zm3 19.5h1.5v-16.5h-1.5zm9-19.5h-3v1.5h3zm4.5 19.5v-13.5h-1.5v13.5z"/><path d="m146.9 73.6v-1.5h-3v-1.5h-1.5v-3h-1.5v-10.5h1.5v-3h1.5v-1.5h3v-1.5h6v1.5h3v1.5h1.5v3h1.5v6h-13.5v4.5h1.5v1.5h6v-1.5h1.5v-1.5h4.5v3h-1.5v1.5h-1.5v1.5h-3v1.5zm-3-7.5v-7.5h-1.5v7.5zm10.5-6v-3h-1.5v-1.5h-6v1.5h-1.5v3zm-3-7.5h-3v1.5h3zm0 19.5v-1.5h-3v1.5zm6-10.5v-3h-1.5v3z"/><path d="m163.5 73.6v-30.1h4.5v30.1zm3.1-1.5v-27.1h-1.6v27.1z"/><path d="m178.8 73.6v-1.5h-3v-1.5h-1.5v-3h-1.5v-10.5h1.5v-3h1.5v-1.5h3v-1.5h6v1.5h3v1.5h1.5v3h1.5v6h-13.5v4.5h1.5v1.5h6v-1.5h1.5v-1.5h4.5v3h-1.5v1.5h-1.5v1.5h-3v1.5zm-3-7.5v-7.5h-1.5v7.5zm10.5-6v-3h-1.5v-1.5h-6v1.5h-1.5v3zm-3-7.5h-3v1.5h3zm0 19.5v-1.5h-3v1.5zm6-10.5v-3h-1.5v3z"/><path d="m200.8 73.6v-1.5h-3v-1.5h-1.5v-3h-1.5v-10.5h1.5v-3h1.5v-1.5h3v-1.5h6v1.5h3v1.5h1.5v3h1.5v10.5h-1.5v3h-1.5v1.5h-3v1.5zm-4.5-15v7.5h1.5v-7.5zm10.5 10.5v-1.5h1.5v-10.5h-1.5v-1.5h-6v1.5h-1.5v10.5h1.5v1.5zm-1.5-15v-1.5h-3v1.5zm0 18v-1.5h-3v1.5zm6-6v-7.5h-1.5v7.5z"/><path d="m217.3 73.6v-22.5h4.5v3h1.5v-1.5h1.5v-1.5h4.5v1.5h3v1.5h1.5v3h1.5v16.5h-4.5v-16.5h-1.5v-1.5h-4.5v1.5h-1.5v1.5h-1.5v15zm3-1.5v-15h1.5v-1.5h-1.5v-3h-1.5v19.6h1.5zm7.5-19.5h-1.5v1.5h1.5zm6 19.5v-13.5h-1.5v13.5z"/></svg>