<svg enable-background="new 0 0 265 157.7" viewBox="0 0 265 157.7" xmlns="http://www.w3.org/2000/svg"><path d="m63.9 104.6c.1 1.5.4 2.8 1 3.7 1.2 1.8 3.2 2.7 6.1 2.7 1.3 0 2.5-.2 3.6-.6 2.1-.8 3.1-2.1 3.1-4.1 0-1.5-.4-2.5-1.3-3.1s-2.3-1.1-4.2-1.6l-3.5-.8c-2.3-.5-3.9-1.1-4.9-1.8-1.7-1.1-2.5-2.8-2.5-5 0-2.4.8-4.4 2.4-5.9s3.9-2.3 6.9-2.3c2.7 0 5.1.7 7 2 1.9 1.4 2.9 3.5 2.9 6.5h-3.4c-.1-1.4-.5-2.5-1.1-3.3-1.1-1.4-2.9-2.1-5.4-2.1-2.1 0-3.5.5-4.4 1.4s-1.3 1.9-1.3 3.1c0 1.3.5 2.3 1.6 2.9.7.4 2.3.9 4.7 1.5l3.6.9c1.8.4 3.1 1 4.1 1.7 1.7 1.3 2.5 3.1 2.5 5.5 0 3-1.1 5.1-3.2 6.4s-4.6 1.9-7.3 1.9c-3.3 0-5.8-.9-7.6-2.6s-2.7-4-2.7-6.9h3.3z"/><path d="m86 86.3h3.3v10c.8-1 1.5-1.7 2.1-2.1 1.1-.7 2.4-1 4-1 2.8 0 4.8 1 5.8 3 .5 1.1.8 2.6.8 4.5v12.5h-3.4v-12.3c0-1.4-.2-2.5-.5-3.2-.6-1.1-1.7-1.6-3.4-1.6-1.4 0-2.6.5-3.7 1.4s-1.7 2.7-1.7 5.3v10.4h-3.3z"/><path d="m121 95.6c1.7 1.7 2.6 4.1 2.6 7.4 0 3.2-.8 5.8-2.3 7.8-1.5 2.1-3.9 3.1-7.1 3.1-2.7 0-4.8-.9-6.4-2.7s-2.4-4.3-2.4-7.3c0-3.3.8-5.9 2.5-7.8s3.9-2.9 6.7-2.9c2.6-.1 4.7.8 6.4 2.4zm-2 13c.8-1.6 1.2-3.5 1.2-5.5 0-1.8-.3-3.3-.9-4.5-.9-1.8-2.5-2.7-4.7-2.7-2 0-3.4.8-4.3 2.3s-1.4 3.4-1.4 5.5.5 3.8 1.4 5.2 2.3 2.1 4.3 2.1c2.1.1 3.6-.7 4.4-2.4z"/><path d="m141.8 95.6c1.7 1.7 2.6 4.1 2.6 7.4 0 3.2-.8 5.8-2.3 7.8-1.5 2.1-3.9 3.1-7.1 3.1-2.7 0-4.8-.9-6.4-2.7s-2.4-4.3-2.4-7.3c0-3.3.8-5.9 2.5-7.8s3.9-2.9 6.7-2.9c2.6-.1 4.7.8 6.4 2.4zm-2 13c.8-1.6 1.2-3.5 1.2-5.5 0-1.8-.3-3.3-.9-4.5-.9-1.8-2.5-2.7-4.7-2.7-2 0-3.4.8-4.3 2.3s-1.4 3.4-1.4 5.5.5 3.8 1.4 5.2 2.3 2.1 4.3 2.1c2.1.1 3.6-.7 4.4-2.4z"/><path d="m149.1 88.2h3.3v5.5h3.1v2.7h-3.1v12.8c0 .7.2 1.1.7 1.4.3.1.7.2 1.3.2h.5c.2 0 .4 0 .6-.1v2.6c-.4.1-.8.2-1.2.2s-.8.1-1.3.1c-1.5 0-2.6-.4-3.1-1.2s-.8-1.8-.8-3.1v-12.9h-2.6v-2.7h2.6z"/><path d="m158.8 86.4h3.3v3.7h-3.3zm0 7.4h3.3v19.5h-3.3z"/><path d="m167.1 93.7h3.1v2.8c.9-1.1 1.9-2 2.9-2.5s2.2-.7 3.5-.7c2.8 0 4.6 1 5.6 2.9.5 1.1.8 2.6.8 4.5v12.5h-3.3v-12.3c0-1.2-.2-2.2-.5-2.9-.6-1.2-1.6-1.8-3.2-1.8-.8 0-1.4.1-1.9.2-.9.3-1.7.8-2.4 1.6-.5.6-.9 1.3-1.1 2s-.2 1.7-.2 2.9v10.2h-3.3z"/><path d="m198.8 94.5c.6.4 1.2 1 1.9 1.9v-2.5h3v17.8c0 2.5-.4 4.4-1.1 5.9-1.4 2.7-3.9 4-7.7 4-2.1 0-3.9-.5-5.3-1.4s-2.2-2.4-2.4-4.4h3.3c.2.9.5 1.6.9 2 .7.7 1.9 1.1 3.5 1.1 2.5 0 4.1-.9 4.9-2.7.5-1 .7-2.9.6-5.6-.7 1-1.4 1.7-2.4 2.2-.9.5-2.1.7-3.7.7-2.1 0-4-.8-5.5-2.3-1.6-1.5-2.4-4-2.4-7.5 0-3.3.8-5.8 2.4-7.7s3.5-2.8 5.8-2.8c1.7.1 3.1.5 4.2 1.3zm.4 3.5c-1-1.2-2.3-1.8-3.8-1.8-2.3 0-3.9 1.1-4.7 3.3-.4 1.2-.7 2.7-.7 4.5 0 2.2.4 3.9 1.3 5 .9 1.2 2.1 1.7 3.6 1.7 2.3 0 4-1.1 5-3.2.5-1.2.8-2.6.8-4.2 0-2.3-.5-4.1-1.5-5.3z"/><path d="m43.9 122.7c.8-1.1 2.2-1.7 4.4-1.7h.6c.2 0 .5 0 .7.1v3c-.3 0-.6 0-.7 0-.2 0-.3 0-.4 0-1 0-1.6.3-1.8.8s-.3 1.8-.3 4h3.3v2.6h-3.3v16.9h-3.2v-16.9h-2.7v-2.6h2.7v-3.1c.1-1.4.3-2.4.7-3.1z"/><path d="m67 130.6c1.7 1.7 2.6 4.1 2.6 7.4 0 3.2-.8 5.8-2.3 7.8-1.5 2.1-3.9 3.1-7.1 3.1-2.7 0-4.8-.9-6.4-2.7s-2.4-4.3-2.4-7.3c0-3.3.8-5.9 2.5-7.8s3.9-2.9 6.7-2.9c2.5-.1 4.6.8 6.4 2.4zm-2.1 13c.8-1.6 1.2-3.5 1.2-5.5 0-1.8-.3-3.3-.9-4.5-.9-1.8-2.5-2.7-4.7-2.7-2 0-3.4.8-4.3 2.3s-1.4 3.4-1.4 5.5.5 3.8 1.4 5.2 2.3 2.1 4.3 2.1c2.1.1 3.6-.7 4.4-2.4z"/><path d="m73.7 128.7h3.1v3.4c.3-.7.9-1.5 1.9-2.4s2.1-1.4 3.5-1.4h.3c.1 0 .4 0 .7.1v3.5c-.2 0-.4-.1-.5-.1-.2 0-.3 0-.5 0-1.7 0-2.9.5-3.8 1.6s-1.3 2.3-1.3 3.7v11.2h-3.3v-19.6z"/><path d="m115.8 123.4c1.9 1.8 2.9 3.8 3.1 6.1h-3.5c-.4-1.7-1.2-3.1-2.4-4.1s-2.8-1.5-5-1.5c-2.6 0-4.7.9-6.3 2.8s-2.4 4.7-2.4 8.5c0 3.1.7 5.7 2.2 7.6 1.4 2 3.6 2.9 6.4 2.9 2.6 0 4.6-1 6-3.1.7-1.1 1.3-2.5 1.6-4.3h3.5c-.3 2.8-1.3 5.2-3.1 7.1-2.1 2.3-4.9 3.5-8.5 3.5-3.1 0-5.7-.9-7.8-2.8-2.8-2.5-4.1-6.4-4.1-11.6 0-4 1-7.2 3.1-9.7 2.2-2.8 5.3-4.1 9.3-4.1 3.5 0 6.1.9 7.9 2.7z"/><path d="m123.4 121.3h3.3v10c.8-1 1.5-1.7 2.1-2.1 1.1-.7 2.4-1 4-1 2.8 0 4.8 1 5.8 3 .5 1.1.8 2.6.8 4.5v12.5h-3.4v-12.3c0-1.4-.2-2.5-.5-3.2-.6-1.1-1.7-1.6-3.4-1.6-1.4 0-2.6.5-3.7 1.4s-1.7 2.7-1.7 5.3v10.4h-3.3z"/><path d="m154.7 136.4c.8-.1 1.3-.4 1.5-.9.1-.3.2-.7.2-1.3 0-1.1-.4-1.9-1.2-2.4s-1.9-.8-3.4-.8c-1.7 0-2.9.5-3.6 1.4-.4.5-.7 1.3-.8 2.3h-3.1c.1-2.4.8-4.1 2.3-5s3.2-1.4 5.2-1.4c2.3 0 4.2.4 5.6 1.3s2.1 2.2 2.1 4.1v11.3c0 .3.1.6.2.8s.4.3.9.3h.5c.2 0 .4 0 .6-.1v2.4c-.5.1-.9.2-1.2.3-.3 0-.6.1-1.1.1-1.1 0-2-.4-2.5-1.2-.3-.4-.5-1-.6-1.8-.7.9-1.6 1.6-2.9 2.3-1.3.6-2.6 1-4.1 1-1.8 0-3.3-.5-4.4-1.7s-1.7-2.5-1.7-4.1c0-1.8.6-3.2 1.7-4.2s2.6-1.6 4.5-1.8zm-6.9 8.9c.7.5 1.5.8 2.5.8 1.2 0 2.3-.3 3.4-.8 1.8-.9 2.7-2.3 2.7-4.4v-2.6c-.4.3-.9.5-1.5.6-.6.2-1.3.3-1.9.4l-2 .3c-1.2.2-2.1.4-2.7.7-1 .6-1.5 1.5-1.5 2.7 0 1 .3 1.7 1 2.3z"/><path d="m165 128.7h3.1v2.8c.9-1.1 1.9-2 2.9-2.5s2.2-.7 3.5-.7c2.8 0 4.6 1 5.6 2.9.5 1.1.8 2.6.8 4.5v12.5h-3.3v-12.3c0-1.2-.2-2.2-.5-2.9-.6-1.2-1.6-1.8-3.2-1.8-.8 0-1.4.1-1.9.2-.9.3-1.7.8-2.4 1.6-.5.6-.9 1.3-1.1 2s-.2 1.7-.2 2.9v10.2h-3.3z"/><path d="m196.7 129.5c.6.4 1.2 1 1.9 1.9v-2.5h3v17.8c0 2.5-.4 4.4-1.1 5.9-1.4 2.7-3.9 4-7.7 4-2.1 0-3.9-.5-5.3-1.4s-2.2-2.4-2.4-4.4h3.3c.2.9.5 1.6.9 2 .7.7 1.9 1.1 3.5 1.1 2.5 0 4.1-.9 4.9-2.7.5-1 .7-2.9.6-5.6-.7 1-1.4 1.7-2.4 2.2-.9.5-2.1.7-3.7.7-2.1 0-4-.8-5.5-2.3-1.6-1.5-2.4-4-2.4-7.5 0-3.3.8-5.8 2.4-7.7 1.6-1.8 3.5-2.8 5.8-2.8 1.7.1 3.1.5 4.2 1.3zm.4 3.5c-1-1.2-2.3-1.8-3.8-1.8-2.3 0-3.9 1.1-4.7 3.3-.4 1.2-.7 2.7-.7 4.5 0 2.2.4 3.9 1.3 5 .9 1.2 2.1 1.7 3.6 1.7 2.3 0 4-1.1 5-3.2.5-1.2.8-2.6.8-4.2 0-2.3-.5-4.1-1.5-5.3z"/><path d="m218.7 129.2c1.3.7 2.3 1.5 3 2.5s1.1 2.1 1.3 3.5c.2.9.3 2.3.3 4.3h-14.3c.1 2 .5 3.6 1.4 4.8s2.2 1.8 4 1.8c1.7 0 3.1-.6 4.1-1.7.6-.7 1-1.4 1.2-2.3h3.2c-.1.7-.4 1.5-.8 2.4s-1 1.6-1.6 2.2c-1 1-2.2 1.6-3.7 2-.8.2-1.7.3-2.7.3-2.4 0-4.5-.9-6.2-2.7s-2.5-4.3-2.5-7.4.8-5.7 2.5-7.7 3.9-2.9 6.6-2.9c1.6 0 2.9.3 4.2.9zm1.2 7.7c-.1-1.4-.4-2.6-.9-3.4-.9-1.6-2.4-2.4-4.5-2.4-1.5 0-2.8.5-3.8 1.6s-1.6 2.5-1.6 4.2z"/><path d="m151.5 6.2c0 .7-.6 1.3-1.3 1.3s-1.2-.4-1.3-1.1c-.4-.2-1.8-.6-6.4-.2-3.6.4-8.3 1.1-13.3 2.3-1.5.4-3.1.7-4.6 1.1-.6 1.6-2.4 6.1-4.1 11.2-2.8 8.2-4.3 14.1-4.3 17.1 0 .7-.6 1.3-1.3 1.3s-1.3-.6-1.3-1.3c0-3.3 1.5-9.4 4.5-18 1.3-3.8 2.6-7.2 3.5-9.4-7.6 2.1-13.8 4.6-16.8 6.7-1.6 1.1-1.8 1.8-1.8 2 .3.7-.1 1.4-.8 1.7-.2.1-.3.1-.4.1-.6 0-1.1-.4-1.3-.9-.3-.9-.3-2.3 1.5-4 1.8-1.6 5.1-3.4 9.9-5.2 4.2-1.5 9.2-3.1 14.6-4.4 5.1-1.2 10.2-2.2 14.3-2.7 4.7-.6 7.8-.5 9.3.2 1.3.6 1.4 1.7 1.4 2.2z"/><path d="m124.4 39.1c-.7-.3-1-.9-.7-1.6 0-.2 5.5-17.6 10.1-28.2.3-.7 1.1-1 1.7-.7.7.3 1 1.1.7 1.8-2.2 5.1-4.6 11.8-6.6 17.4 1.1-1.5 2.1-2.8 3-3.8 1.8-1.9 3.2-2.9 4.5-2.9 1.1 0 1.6.5 1.9.9 1 1.3.5 3.4-.4 6.8-.2.6-.3 1.1-.4 1.8-.4 1.7-.7 3-.8 4-.1 1.3 0 1.7.1 1.8s.5.2.7.2c1 0 2.5-1.1 4.2-3.2 1.4-1.8 2.4-3.5 2.4-3.6.4-.6 1.1-.8 1.8-.5.6.4.8 1.1.5 1.8 0 .1-1.1 2-2.6 3.9-.9 1.1-1.8 2.1-2.7 2.7-1.2 1-2.5 1.4-3.6 1.4-1.2 0-2.2-.4-2.8-1.2-1.4-1.7-.6-4.6.2-8.1l.5-1.8c.3-1.3.6-2.3.7-3.2.1-.6.1-1 .1-1.2-.5.1-2.3 1.1-6.4 7.1-2.5 3.8-4.6 7.6-4.6 7.6-.3.4-.7.7-1.2.7 0 .3-.1.2-.3.1z"/><path d="m145.7 36.8c-.7-.9-1.6-2.6-1.1-5.4.5-2.7 1.8-5.3 3.8-7.3 1.7-1.8 3.8-2.9 5.5-3.1 1.6-.2 2.8.5 3.4 1.8.7 1.6.1 4-1.4 6.3-1 1.4-2.3 2.7-3.9 3.6-1.5.9-3.1 1.4-4.8 1.5.7 1.7 2.6 2.1 4.3 2.1 2.5 0 4.9-1.1 7-3.2 1.7-1.7 2.6-3.3 2.6-3.3.4-.7 1.1-.9 1.8-.6.6.4.9 1.1.5 1.8 0 .1-1.1 2-3 3.9-2.6 2.6-5.7 4-8.9 4-2.5.2-4.6-.6-5.8-2.1zm8.6-13.1c-.8.1-2.4.7-3.9 2.3s-2.6 3.6-3.1 5.7c2.6-.3 5-1.7 6.5-4 1.1-1.6 1.4-3.2 1.1-3.8 0-.1-.1-.2-.4-.2-.1 0-.2 0-.2 0z"/><path d="m66.6 44.8c-.2.9-.6 1.8-1.3 2.7-.9 1.2-2.4 2.1-4.5 2.6-1.7.4-3.9.6-6.5.6-2.7 0-5.7-.2-8.9-.6-.7 3.1 1.9 5.6 6.1 9.2 2.2 1.8 4.4 3.7 5.8 5.9.8 1.3 1.3 2.5 1.5 3.7.2 1.4 0 2.9-.6 4.3-.9 2.1-2.4 3.9-4.3 5.4-1.8 1.4-3.9 2.5-6.2 3.2-2.1.7-4.4 1-6.6 1-2.5 0-4.8-.4-6.9-1.2-2.9-1.1-5.1-3-6.4-5.4-.7-1.3-1-2.8-1.1-4.3-.1-1.6.2-3.4.8-5.2.2-.7 1-1.1 1.7-.8.7.2 1.1 1 .8 1.7-2.5 7.4 2.1 10.4 5 11.6 3.4 1.3 7.9 1.4 11.8.1 4.3-1.3 7.4-3.9 8.8-7.1.8-1.9.7-3.6-.6-5.5-1.2-1.8-3.3-3.6-5.4-5.4s-4.3-3.6-5.6-5.7c-.8-1.2-1.3-2.3-1.4-3.6-.1-.7-.1-1.4 0-2.2-1.8-.2-3.6-.4-5.4-.7-14.6-1.8-31.1-3.8-33.4 3.8-.2.7-1 1.1-1.6.9-.7-.2-1.1-.9-.9-1.6.7-2.4 2.4-4.3 5.1-5.5 2.2-1 5-1.6 8.7-1.8 6.6-.4 14.6.7 22.5 1.6l6.1.7c1.4-2.5 3.5-4.6 6.3-6.1 2.5-1.3 5.5-2.1 8.4-2.1 3.9-.1 6.8 1.1 7.9 3.2.4.8.5 1.7.3 2.6zm-2.7-1.4c-.5-1.1-2.8-1.8-5.5-1.8-4.1.1-9.1 1.9-11.8 6 2.8.3 5.4.4 7.7.4 4.8 0 7.8-.7 8.9-2.1.6-.7 1.1-1.7.7-2.5z"/><path d="m77.4 47.9-7.3 1.5c-1.4 3.5-2.5 6.5-3.3 9.1-.8 2.7-1.4 4.9-1.5 6.7-.3 2.4.1 3.3.4 3.7.1.2.4.5 1.1.5 1.1 0 2.6-1.2 4.2-3.2 1.4-1.7 2.4-3.5 2.4-3.5.4-.7 1.1-.9 1.8-.5.6.4.8 1.2.5 1.8 0 .1-1.1 2-2.6 3.9-.9 1.1-1.8 2.1-2.7 2.8-1.4.8-2.6 1.3-3.7 1.3-1.8 0-2.8-.9-3.3-1.7-1.4-2.1-1.1-6.1.9-12.6.8-2.5 1.8-5.2 2.7-7.7l-1.4.3h-.3c-.6 0-1.1-.4-1.3-1.1-.1-.7.3-1.4 1-1.5l3.1-.7c.7-1.8 1.5-3.5 2.1-4.9.3-.7 1.1-1 1.7-.7.7.3 1 1.1.7 1.8l-1.4 3.2 5.6-1.1c.7-.1 1.4.4 1.6 1.1s-.3 1.4-1 1.5z"/><path d="m73.8 70.3c-.8-1-1.3-2.3-1.3-3.9 0-1.9.7-4.2 1.8-6.1.5-.9 1.2-1.7 1.9-2.3.5-.4 1.1-.8 1.7-.9.1-.2.2-.4.3-.6 1-1.7 2.4-2.6 4-2.6 1.4 0 2.6.8 3.4 2.3.6 1.2.9 2.7.9 4.4 0 1.8-.3 3.6-.9 5.2 3.6-1.1 6.1-3.5 7.4-6.9-.4-.3-.9-.6-1.3-.9-.9-.8-1.6-1.8-1.9-2.9-.3-1-.3-1.9 0-2.9.5-1.4 1.5-2.3 2.8-2.5 1.2-.1 2.2.6 2.9 1.8.7 1.3 1 2.9.7 4.8l-.1.7c1.1.1 2.2-.2 3.5-.7 2.1-.9 3.8-2.3 3.8-2.3.5-.4 1.1-.4 1.6-.1.5.4.7 1 .5 1.5-3.4 9.9-2.6 12.6-2.1 13.3.2.2.4.4 1.1.4 1.1 0 2.6-1.2 4.2-3.2 1.4-1.7 2.4-3.5 2.4-3.5.4-.7 1.2-.9 1.8-.5s.9 1.2.5 1.8c0 .1-1.1 2-2.6 3.9-.9 1.1-1.8 2.1-2.7 2.8-1.2.9-2.4 1.4-3.6 1.4-1.7 0-2.7-.8-3.2-1.5-1-1.4-1.2-3.6-.7-6.7.2-1.6.7-3.4 1.3-5.5-.4.2-.8.4-1.2.6-1.9.8-3.6 1.1-5.3.9-1.8 5.2-6.2 8.6-11.4 9-.7.9-1.4 1.6-2.2 2.1-1.2.7-2.5 1.1-3.9 1.1-2.1.2-3.4-.7-4.1-1.5zm3.2-9.2-.4.6c-.9 1.5-1.4 3.3-1.4 4.8 0 .7.1 1.6.6 2.2.5.5 1.2.8 2.3.8s2.1-.4 2.9-1.1c-1-.4-1.8-1.1-2.5-2-.9-1.3-1.4-3-1.4-4.9v-.4zm2.6.3c0 1.3.4 2.5 1 3.4.5.7 1.2 1.1 2.1 1.3.8-1.6 1.2-3.6 1.2-5.5 0-2.3-.7-4.1-1.7-4.1-.8 0-1.6.7-2.1 1.9 0 .2-.1.4-.2.5-.1.8-.3 1.6-.3 2.5zm12.9-8.3c-.1.4-.4 1.6 1.1 3l.2.1c.1-1.2.1-2.4-.4-3.3-.2-.3-.4-.4-.4-.4-.1-.1-.4.1-.5.6z"/><path d="m125.1 55.6c0 .1-1.2 6.8-3.2 13.3-1.2 3.9-2.4 7-3.6 9.3-1.7 3.2-3.5 4.8-5.4 4.8-.7 0-1.3-.6-1.3-1.3s.6-1.3 1.3-1.3c.5 0 1-.4 1.3-.7.6-.6 1.2-1.5 1.8-2.7.9-1.7 1.8-3.9 2.7-6.7-1.3 1.1-2.5 1.7-3.7 1.7-1.7 0-2.7-.8-3.2-1.5-1-1.4-1.2-3.6-.7-6.7.4-2.4 1.2-5.4 2.5-9 .3-.7 1-1.1 1.7-.8s1 1 .8 1.7c-3.4 9.9-2.6 12.6-2.1 13.3.2.2.4.4 1.1.4 1 0 2.4-1.1 3.8-3.1 1.2-1.7 2-3.5 2-3.5l.1-.3c1.1-4.2 1.6-7.4 1.6-7.4.1-.7.8-1.2 1.5-1.1.6.2 1.1.9 1 1.6z"/><path d="m190.6 77.2c0 .1-1.8 1.9-4.7 3.5-1.8.9-3.6 1.6-5.6 2-1.2.2-2.4.4-3.7.4-1.2 0-2.5-.1-3.7-.4-1.8-.3-3.3-1-4.6-2-1.2-.9-2.2-2.1-3-3.6-.7-1.4-1.1-2.9-1.4-4.7-.2-1.6-.2-3.4-.1-5.3.2-1.9.6-3.9 1.1-5.9l-11.1 1.2c-1 4.1-2.1 7.5-2.4 8.3-.1.6-.6 1.1-1.3 1.1s-1.3-.6-1.3-1.3v-.1c0-.2 0-.3.1-.4 0 0 1.1-3.2 2.1-7.3l-3.9.4h-.1c-.7 0-1.2-.5-1.3-1.2s.4-1.4 1.2-1.4l4.9-.5.1-.4c.7-3.2 1.1-6 1.1-8.3.1-2.7-.3-4.7-1.1-5.9-.5-.8-1.2-1.2-2.2-1.3-3.8-.3-6.6 2.4-8.4 4.6-1.8 2.4-3.2 5.4-3.9 8.6-.7 3.1-.8 5.9-.1 7.9.2.7-.1 1.4-.8 1.7s-1.4-.1-1.7-.8c-.8-2.5-.8-5.7 0-9.3.8-3.5 2.5-6.9 4.5-9.5 1.4-1.8 3-3.2 4.6-4.2 1.9-1.1 3.9-1.6 6-1.4 1.8.1 3.2 1 4.2 2.5 1.1 1.7 1.6 4.1 1.5 7.4 0 2.4-.4 5.2-1.1 8.4l11.4-1.2c1.2-3.5 2.9-6.9 4.9-9.8s4.1-5.1 6.4-6.8c2.5-1.8 5.1-2.8 7.6-2.8.7 0 1.3.6 1.3 1.3s-.6 1.3-1.3 1.3c-3.9 0-8.2 3-11.8 8.4-1.7 2.4-3.1 5.2-4.2 8 .7 0 1.4.4 1.4 1.2 0 .7-.4 1.4-1.2 1.4l-1.2.1c-.7 2.2-1.1 4.4-1.3 6.5-.4 4.2 0 11.5 6.9 12.8 3.9.7 7.7.1 11.2-1.7 2.6-1.4 4.1-3 4.1-3 .5-.5 1.3-.6 1.8-.1s.6 1.1.1 1.6z"/><path d="m196.8 64c0 .1-1.1 2-2.7 3.9-.9 1.1-1.8 2.1-2.7 2.7-1.2 1-2.4 1.4-3.6 1.4-1.7 0-2.7-.8-3.2-1.5-.4-.6-.7-1.3-.8-2.2-1.9 2.5-3.8 3.8-5.6 3.8-1.7 0-2.7-.8-3.2-1.5-1-1.4-1.2-3.6-.7-6.7.4-2.4 1.2-5.4 2.5-9 .2-.7 1-1.1 1.7-.8s1.1 1 .8 1.7c-3.4 9.9-2.6 12.6-2.1 13.3.1.2.4.4 1 .4 1 0 2.4-1.1 3.8-3.1 1.2-1.7 2-3.5 2-3.5 0-.1.1-.2.2-.3.4-2.2 1.2-4.8 2.2-7.8.2-.7 1-1.1 1.7-.8s1.1 1 .8 1.7c-3.4 9.9-2.6 12.6-2.1 13.3.1.2.4.4 1 .4 1.1 0 2.6-1.2 4.3-3.2 1.4-1.7 2.4-3.5 2.4-3.5.4-.6 1.2-.8 1.8-.5.7.4.9 1.1.5 1.8z"/><path d="m192.7 71.9c-.6-.3-.9-1-.7-1.6 0 0 2.4-7.4 5.3-15.5.3-.7 1-1.1 1.7-.8s1.1 1 .8 1.7c-.6 1.6-1.1 3.2-1.6 4.6 1-1.4 1.9-2.6 2.8-3.6 1.8-1.9 3.2-2.9 4.5-2.9 1.1 0 1.6.5 1.9.9 1 1.3.5 3.4-.4 6.8-.2.6-.3 1.1-.4 1.8-.4 1.7-.7 3-.8 4-.1 1.3 0 1.7.1 1.8s.5.2.7.2c1 0 2.6-1.2 4.2-3.2 1.4-1.7 2.4-3.5 2.4-3.5.4-.6 1.1-.8 1.8-.5.6.4.8 1.1.5 1.8 0 .1-1.1 2-2.6 3.9-.9 1.1-1.8 2.1-2.7 2.7-1.2 1-2.5 1.4-3.6 1.4-1.2 0-2.2-.4-2.8-1.2-1.4-1.7-.6-4.6.2-8.1l.5-1.8c.3-1.3.6-2.3.7-3.2.1-.6.1-1 .1-1.2-.5.1-2.3 1.1-6.4 7.1-2.5 3.8-4.6 7.6-4.6 7.6-.3.4-.7.7-1.2.7-.1.3-.2.2-.4.1z"/><path d="m227.7 47.9-7.3 1.5c-1.4 3.5-2.5 6.5-3.3 9.1-.8 2.7-1.4 4.9-1.5 6.7-.3 2.4.1 3.3.4 3.7.1.2.4.5 1.1.5 1.1 0 2.6-1.2 4.2-3.2 1.4-1.7 2.4-3.5 2.4-3.5.4-.7 1.1-.9 1.8-.5.6.4.8 1.2.5 1.8 0 .1-1.1 2-2.6 3.9-.9 1.1-1.8 2.1-2.7 2.8-1.2.9-2.5 1.4-3.6 1.4-1.8 0-2.8-.9-3.3-1.7-1.4-2.1-1.1-6.1.9-12.6.8-2.5 1.8-5.2 2.7-7.7l-1.4.3h-.3c-.6 0-1.1-.4-1.3-1.1-.1-.7.3-1.4 1-1.5l3.1-.7c.7-1.8 1.5-3.5 2.1-4.9.3-.7 1.1-1 1.7-.7.7.3 1 1.1.7 1.8l-1.4 3.2 5.6-1.1c.7-.1 1.4.4 1.6 1.1.1.6-.4 1.3-1.1 1.4z"/><path d="m250 70.5c-1-1.4-1.2-3.6-.7-6.7.2-1.6.7-3.4 1.3-5.5-.4.2-.8.4-1.2.6-1.9.8-3.6 1.1-5.3.9-1 3-2.8 5.9-5 8.1-2.6 2.6-5.7 4-8.9 4-2.6 0-4.6-.8-5.9-2.3-.7-.9-1.6-2.6-1.1-5.4.5-2.7 1.8-5.3 3.8-7.3 1.7-1.8 3.8-2.9 5.5-3.1 1.6-.2 2.8.5 3.4 1.8.7 1.6.1 4-1.4 6.3-1 1.4-2.3 2.7-3.9 3.6-1.5.9-3.1 1.4-4.8 1.5.7 1.7 2.6 2.1 4.3 2.1 2.5 0 4.9-1.1 7-3.2 1.8-1.8 3.1-4 4.5-7.1-.4-.3-.9-.6-1.3-.9-.9-.8-1.6-1.8-1.9-2.9-.3-1-.3-1.9 0-2.9.5-1.4 1.5-2.3 2.8-2.5 1.2-.1 2.2.6 2.9 1.8.7 1.3 1 2.9.7 4.8l-.1.7c1.1.1 2.2-.2 3.5-.7 2.1-.9 3.8-2.3 3.8-2.3.5-.4 1.1-.4 1.6-.1.5.4.7 1 .5 1.5-3.4 9.9-2.6 12.6-2.1 13.3.2.2.4.4 1.1.4 1.1 0 2.6-1.2 4.2-3.2 1.4-1.7 2.4-3.5 2.4-3.5.4-.7 1.2-.9 1.8-.5s.9 1.2.5 1.8c0 .1-1.1 2-2.6 3.9-.9 1.1-1.8 2.1-2.7 2.8-1.2.9-2.4 1.4-3.6 1.4-1.7.3-2.6-.5-3.1-1.2zm-17.1-14c-.8.1-2.4.7-3.9 2.3s-2.6 3.6-3.1 5.7c2.6-.3 5-1.7 6.5-4 1.1-1.6 1.4-3.2 1.1-3.8 0-.1-.1-.2-.4-.2-.1 0-.2 0-.2 0zm8.1-3.4c-.1.4-.4 1.6 1.1 3l.2.1c.1-1.2.1-2.4-.4-3.3-.2-.3-.4-.4-.4-.4-.1-.1-.3.1-.5.6z"/></svg>