<svg enable-background="new 0 0 265 157.7" viewBox="0 0 265 157.7" xmlns="http://www.w3.org/2000/svg"><path d="m33.1 87.4h3.6v23.6h13.5v3.2h-17.1z"/><path d="m53.4 87.4h3.3v3.7h-3.3zm0 7.3h3.3v19.5h-3.3z"/><path d="m63.3 94.7 5.2 15.9 5.5-15.9h3.6l-7.4 19.6h-3.5l-7.2-19.6z"/><path d="m80.4 87.4h3.3v3.7h-3.3zm0 7.3h3.3v19.5h-3.3z"/><path d="m88.7 94.7h3.1v2.8c.9-1.1 1.9-2 2.9-2.5s2.2-.7 3.5-.7c2.8 0 4.6 1 5.6 2.9.5 1.1.8 2.6.8 4.5v12.5h-3.3v-12.3c0-1.2-.2-2.2-.5-2.9-.6-1.2-1.6-1.8-3.2-1.8-.8 0-1.4.1-1.9.2-.9.3-1.7.8-2.4 1.6-.5.6-.9 1.3-1.1 2s-.2 1.7-.2 2.9v10.2h-3.3z"/><path d="m120.4 95.4c.6.4 1.2 1 1.9 1.9v-2.5h3v17.8c0 2.5-.4 4.4-1.1 5.9-1.4 2.7-3.9 4-7.7 4-2.1 0-3.9-.5-5.3-1.4s-2.2-2.4-2.4-4.4h3.3c.2.9.5 1.6.9 2 .7.7 1.9 1.1 3.5 1.1 2.5 0 4.1-.9 4.9-2.7.5-1 .7-2.9.6-5.6-.7 1-1.4 1.7-2.4 2.2-.9.5-2.1.7-3.7.7-2.1 0-4-.8-5.5-2.3-1.6-1.5-2.4-4-2.4-7.5 0-3.3.8-5.8 2.4-7.7s3.5-2.8 5.8-2.8c1.7.2 3.1.6 4.2 1.3zm.4 3.6c-1-1.2-2.3-1.8-3.8-1.8-2.3 0-3.9 1.1-4.7 3.3-.4 1.2-.7 2.7-.7 4.5 0 2.2.4 3.9 1.3 5 .9 1.2 2.1 1.7 3.6 1.7 2.3 0 4-1.1 5-3.2.5-1.2.8-2.6.8-4.2 0-2.4-.5-4.2-1.5-5.3z"/><path d="m140.7 87.4h3.3v3.7h-3.3zm0 7.3h3.3v19.5h-3.3z"/><path d="m149 94.7h3.1v2.8c.9-1.1 1.9-2 2.9-2.5s2.2-.7 3.5-.7c2.8 0 4.6 1 5.6 2.9.5 1.1.8 2.6.8 4.5v12.5h-3.3v-12.3c0-1.2-.2-2.2-.5-2.9-.6-1.2-1.6-1.8-3.2-1.8-.8 0-1.4.1-1.9.2-.9.3-1.7.8-2.4 1.6-.5.6-.9 1.3-1.1 2s-.2 1.7-.2 2.9v10.2h-3.3z"/><path d="m180.7 87.4h3.7v11.1h13.8v-11.1h3.7v26.8h-3.7v-12.5h-13.8v12.5h-3.7z"/><path d="m219.3 95.2c1.3.7 2.3 1.5 3 2.5s1.1 2.1 1.3 3.5c.2.9.3 2.3.3 4.3h-14.2c.1 2 .5 3.6 1.4 4.8s2.2 1.8 4 1.8c1.7 0 3.1-.6 4.1-1.7.6-.7 1-1.4 1.2-2.3h3.2c-.1.7-.4 1.5-.8 2.4-.5.9-1 1.6-1.6 2.2-1 1-2.2 1.6-3.7 2-.8.2-1.7.3-2.7.3-2.4 0-4.5-.9-6.2-2.7s-2.5-4.3-2.5-7.4.8-5.7 2.5-7.7 3.9-2.9 6.6-2.9c1.5-.1 2.8.2 4.1.9zm1.2 7.7c-.1-1.4-.4-2.6-.9-3.4-.9-1.6-2.4-2.4-4.5-2.4-1.5 0-2.8.5-3.8 1.6s-1.6 2.5-1.6 4.2z"/><path d="m228.1 94.7h3.1v3.3c.3-.7.9-1.5 1.9-2.4s2.1-1.4 3.5-1.4h.3c.1 0 .4 0 .7.1v3.5c-.2 0-.4-.1-.5-.1-.2 0-.3 0-.5 0-1.7 0-2.9.5-3.8 1.6s-1.3 2.3-1.3 3.7v11.2h-3.3v-19.5z"/><path d="m62.4 126.2c1.8 2.4 2.7 5.4 2.7 9.1 0 4-1 7.3-3 10-2.4 3.1-5.8 4.7-10.2 4.7-4.1 0-7.4-1.4-9.7-4.1-2.1-2.6-3.2-6-3.2-10 0-3.6.9-6.7 2.7-9.3 2.3-3.3 5.7-5 10.3-5 4.7.1 8.2 1.6 10.4 4.6zm-3.2 17.1c1.4-2.3 2.1-4.9 2.1-7.9 0-3.2-.8-5.7-2.5-7.6s-3.9-2.9-6.8-2.9c-2.8 0-5 1-6.8 2.9s-2.6 4.7-2.6 8.4c0 3 .8 5.5 2.3 7.5s3.9 3.1 7.3 3.1c3.3 0 5.6-1.2 7-3.5z"/><path d="m70.5 129.7 3.8 15.4 3.8-15.4h3.7l3.8 15.3 4-15.3h3.3l-5.7 19.6h-3.4l-4-15.1-3.8 15h-3.4l-5.6-19.6h3.5z"/><path d="m96 129.7h3.1v2.8c.9-1.1 1.9-2 2.9-2.5s2.2-.7 3.5-.7c2.8 0 4.6 1 5.6 2.9.5 1.1.8 2.6.8 4.5v12.5h-3.3v-12.3c0-1.2-.2-2.2-.5-2.9-.6-1.2-1.6-1.8-3.2-1.8-.8 0-1.4.1-1.9.2-.9.3-1.7.8-2.4 1.6-.5.6-.9 1.3-1.1 2s-.2 1.7-.2 2.9v10.2h-3.3z"/><path d="m128 122.4h18.6v3.3h-15v8.1h13.2v3.2h-13.2v12.2h-3.6z"/><path d="m164.2 131.6c1.7 1.7 2.6 4.1 2.6 7.4 0 3.2-.8 5.8-2.3 7.8-1.5 2.1-3.9 3.1-7.1 3.1-2.7 0-4.8-.9-6.4-2.7s-2.4-4.3-2.4-7.3c0-3.3.8-5.9 2.5-7.8s3.9-2.9 6.7-2.9c2.6-.1 4.7.7 6.4 2.4zm-2 13c.8-1.6 1.2-3.5 1.2-5.5 0-1.8-.3-3.3-.9-4.5-.9-1.8-2.5-2.7-4.7-2.7-2 0-3.4.8-4.3 2.3s-1.4 3.4-1.4 5.5.5 3.8 1.4 5.2 2.3 2.1 4.3 2.1c2.1.1 3.6-.7 4.4-2.4z"/><path d="m170.9 129.7h3.1v3.4c.3-.7.9-1.5 1.9-2.4s2.1-1.4 3.5-1.4h.3c.1 0 .4 0 .7.1v3.5c-.2 0-.4-.1-.5-.1-.2 0-.3 0-.5 0-1.7 0-2.9.5-3.8 1.6s-1.3 2.3-1.3 3.7v11.2h-3.3v-19.6z"/><path d="m195.4 130.2c1.3.7 2.3 1.5 3 2.5s1.1 2.1 1.3 3.5c.2.9.3 2.3.3 4.3h-14.2c.1 2 .5 3.6 1.4 4.8s2.2 1.8 4 1.8c1.7 0 3.1-.6 4.1-1.7.6-.7 1-1.4 1.2-2.3h3.2c-.1.7-.4 1.5-.8 2.4s-1 1.6-1.6 2.2c-1 1-2.2 1.6-3.7 2-.8.2-1.7.3-2.7.3-2.4 0-4.5-.9-6.2-2.7s-2.5-4.3-2.5-7.4.8-5.7 2.5-7.7 3.9-2.9 6.6-2.9c1.4-.1 2.8.3 4.1.9zm1.2 7.7c-.1-1.4-.4-2.6-.9-3.4-.9-1.6-2.4-2.4-4.5-2.4-1.5 0-2.8.5-3.8 1.6s-1.6 2.5-1.6 4.2z"/><path d="m206 143.1c.1 1.1.4 1.9.8 2.5.8 1.1 2.3 1.6 4.4 1.6 1.2 0 2.3-.3 3.3-.8.9-.5 1.4-1.3 1.4-2.5 0-.8-.4-1.5-1.1-1.9-.5-.3-1.4-.6-2.9-.9l-2.7-.7c-1.7-.4-2.9-.9-3.7-1.4-1.4-.9-2.2-2.1-2.2-3.7 0-1.9.7-3.3 2-4.5 1.4-1.1 3.2-1.7 5.5-1.7 3 0 5.1.9 6.5 2.6.8 1.1 1.2 2.3 1.2 3.5h-3.1c-.1-.7-.3-1.4-.8-2-.8-.9-2.1-1.3-4-1.3-1.3 0-2.2.2-2.9.7s-1 1.1-1 1.9.4 1.5 1.3 2c.5.3 1.2.6 2.2.8l2.2.5c2.4.6 4 1.1 4.8 1.7 1.3.8 1.9 2.2 1.9 4 0 1.7-.7 3.2-2 4.5s-3.4 1.9-6.1 1.9c-2.9 0-5-.7-6.3-2-1.2-1.3-1.9-3-2-4.9h3.3z"/><path d="m223.4 124.2h3.3v5.5h3.1v2.7h-3.1v12.8c0 .7.2 1.1.7 1.4.3.1.7.2 1.3.2h.5s.4 0 .6-.1v2.6c-.4.1-.8.2-1.2.2s-.8.1-1.3.1c-1.5 0-2.6-.4-3.1-1.2s-.8-1.8-.8-3.1v-12.9h-2.6v-2.7h2.6z"/><path d="m90.8 17.7h28.3v3.6h-11.2v21.9h-5.8v-21.9h-11.3z"/><path d="m127.9 29.4c.1-.4 1-4.9 7.1-4.9 5.6 0 8.3 2.9 8.3 7.5v11.2h-5.4v-11.4c0-2.4-1.8-3.6-4.4-3.6-4.7 0-5.6 4-5.6 4v11h-5.4v-25.5c3 0 5.4-.5 5.4-.5z"/><path d="m159.8 40c5 0 5-4.2 5-4.2l5.3 1.3s-1.4 6.5-10.8 6.5c-5.9 0-11.1-3.4-11.1-9.6 0-5.4 4.3-9.5 11.1-9.5 10.3 0 10.8 7.6 10.3 10.2l-16-.3c.1 2.8 1.8 5.6 6.2 5.6zm-.6-12c-4.5 0-5.2 3.8-5.2 3.8l10-.3s-.4-3.5-4.8-3.5z"/><path d="m27.3 48.4h10.1v25.5h-5.8v-21.9l-9.9 21.9h-5.7l-9.9-21.9v21.9h-5.9v-25.5h10.1l8.5 19.9z"/><path d="m53.6 55.3c7.1 0 11.3 4.2 11.3 9.5 0 5.4-4.2 9.6-11.3 9.6s-11.3-4.2-11.3-9.6c0-5.3 4.2-9.5 11.3-9.5zm0 15.5c4.2 0 5.6-3 5.6-5.9 0-3-1.4-5.9-5.6-5.9s-5.6 2.9-5.6 5.9c0 2.9 1.4 5.9 5.6 5.9z"/><path d="m66.9 55.7h4.3v-3.6l5.2-3.3v6.9h8.4v3.2h-8.4v8.3c0 2.2.9 3.6 3.2 3.6 2.9 0 4.3-2.6 4.3-2.6l1.1 3.5s-2.2 2.7-6.9 2.7c-4.4 0-7.1-2.1-7.1-6.8v-8.7h-4.2v-3.2z"/><path d="m88.7 48.4h5.4v4.2h-5.4zm0 7.3h5.4v18.2h-5.4z"/><path d="m109.8 55.3c7.1 0 11.3 4.2 11.3 9.5 0 5.4-4.2 9.6-11.3 9.6s-11.3-4.2-11.3-9.6c0-5.3 4.2-9.5 11.3-9.5zm0 15.5c4.2 0 5.6-3 5.6-5.9 0-3-1.4-5.9-5.6-5.9s-5.6 2.9-5.6 5.9c0 2.9 1.4 5.9 5.6 5.9z"/><path d="m140.5 62.5c0-2.4-1.7-3.6-4.6-3.6-4.3 0-5.4 4-5.4 4v11h-5.5v-18.2h3.2l1.5 5.2s.4-5.6 7.6-5.6c6 0 8.5 2.9 8.5 7.5v11.2h-5.4v-11.5z"/><path d="m163.5 48.4h21.5v3.6h-15.6v7.4h14.6v3.6h-14.7v10.9h-5.8z"/><path d="m207.5 70.8c1.5 0 2.5-1.6 2.5-1.6l1.1 3.5s-1.5 1.7-4.4 1.7c-3.9 0-4.9-2.5-4.9-6.2-.2.3-3.3 6.2-8.9 6.2-3.3 0-5.4-1.6-5.4-4.3 0-3.1 3.6-6.6 13.6-7.4 0-1.7-.4-3.7-3.7-3.7-5 0-5 4-5 4l-5.6-1.4s1.7-6.2 10.9-6.2c5.9 0 9 3.2 8.9 6.9l-.3 6.8c-.2.9.2 1.7 1.2 1.7zm-12.5 0c3.8 0 6-5.1 6-5.1v-1.3c-6 .6-7.9 2.8-7.9 4.6 0 .7.3 1.8 1.9 1.8z"/><path d="m214 48.4h5.4v4.2h-5.4zm0 7.3h5.4v18.2h-5.4z"/><path d="m230.7 73.9h-5.4v-18.2h3.2l1.5 5.2s-.1-5.6 5.2-5.6c3.8 0 4.9 2.2 4.9 4.8 0 2.3-.4 3.5-.4 3.5l-5.3 1.3s.6-1.8.6-4.3c0-1.3-.8-1.6-1.4-1.6-2.3 0-2.8 4-2.8 4v10.9z"/><path d="m241.4 55.7h5.9l5.7 13.1 6-13.1h5.9l-10.6 20.3c-2.2 4.1-4.2 5.7-7.7 5.7s-5.1-2.7-5.1-2.7l1.1-3.5s.9 2.6 3.5 2.6c2 0 3.3-2.3 4.4-4.7z"/></svg>