<?xml version="1.0" encoding="utf-8"?>
<!-- Generator: Adobe Illustrator 24.2.1, SVG Export Plug-In . SVG Version: 6.00 Build 0)  -->
<svg version="1.1" id="Layer_1" xmlns="http://www.w3.org/2000/svg" xmlns:xlink="http://www.w3.org/1999/xlink" x="0px" y="0px"
	 viewBox="0 0 265 180" style="enable-background:new 0 0 265 180;" xml:space="preserve">
<style type="text/css">
	.st0{fill-rule:evenodd;clip-rule:evenodd;}
</style>
<path class="st0" d="M134.5,31.1v-1.4c-1.4-0.2-1.7-0.6-1.7-2.7V14.3c1-0.9,1.7-1.2,2.5-1.2c1.3,0,2,1.1,2,3.4v10.4
	c0,2.2-0.2,2.6-1.7,2.7v1.4h11.8v-1.4c-1.4-0.2-1.7-0.6-1.7-2.7V16.6c0-4.7-2.4-7.3-6.5-7.3c-2.2,0-4,0.6-6.5,2.4V0.2h-1.4
	c-2.8,1.4-6.4,2.6-8.8,2.9v1.4c1.6,0,1.7,0.1,1.7,1.9v20.4c0,2.2-0.2,2.6-1.7,2.7v1.4H134.5z M115.9,31.1v-1.5c-1.7-0.1-2-0.5-2-2.8
	V3.1c2.7,1.7,4.5,4.1,6.4,8.3h1.6l-0.9-10.3H97l-0.9,10.3h1.6c1.2-3.5,4-7.3,6.3-8.3v23.7c0,2.3-0.3,2.7-2,2.8v1.5H115.9z
	 M166.3,29.4c-1.9,1.7-4.3,2.5-7,2.5c-6,0-10.1-4.4-10.1-10.8c0-6.7,4.5-11.5,10.8-11.5c5.8,0,9.4,3.8,9.7,10h-11.8
	c0.1,1.9,0.3,2.8,0.8,4c0.8,1.7,2.4,2.9,4.4,2.9c1.9,0,3.5-0.7,5.8-2.6l0.9,1C168.4,27.3,167.6,28.3,166.3,29.4z M162,18.2h-4.2
	c0.2-5,0.8-6.9,2.2-6.9c1.3,0,2.1,2.1,2.1,5.7C162,17.3,162,17.7,162,18.2z M57.8,56.3l-4.9,15h-4.8l-8-25.9
	c-0.6-1.8-1.2-2.6-2.2-2.7v-1.5h13.6v1.5c-0.9,0.2-1.3,0.8-1.3,1.6c0,0.1,0,0.3,0.1,0.5l4.4,14.2l2-6.4l-2.4-8.3
	c-0.4-1.2-0.6-1.5-1.5-1.6v-1.5h14.3v1.5c-1.6,0.1-2.4,0.8-2.4,2.1c0,0.1,0,0.4,0.1,0.6l3.7,13l3-12c0.2-0.7,0.3-1.3,0.3-1.6
	c0-1-0.7-1.7-2.1-2.1v-1.5h6.8v1.5c-1.5,0.3-1.9,0.9-2.6,3.7l-6.6,24.8h-5L57.8,56.3z M83,48.2c2.6,0,4.6-1.5,4.6-3.4
	c0-1.9-2.1-3.5-4.7-3.5c-2.7,0-4.7,1.5-4.7,3.5C78.2,46.7,80.3,48.2,83,48.2z M88.5,70v1.4H76.5V70c1.4-0.2,1.7-0.6,1.7-2.7V55.8
	c0-1.5-0.2-1.7-1.7-1.7v-1.4c2.4-0.3,6.5-1.5,8.9-2.8h1.4v17.3C86.8,69.4,87.1,69.8,88.5,70z M98.5,72.2c5.2,0,8.8-2.9,8.8-7.2
	c0-1.5-0.4-2.9-1.3-4.1c-0.7-0.9-1.4-1.6-3.4-3.1c-3.9-2.9-4.5-3.6-4.5-4.6c0-0.8,0.7-1.4,1.5-1.4c2,0,4,2.2,5.1,5.7h1.6l-0.4-5.7
	c-3.6-1.4-4.9-1.7-7.5-1.7c-2.3,0-4.3,0.5-5.6,1.4c-1.6,1.1-2.5,3-2.5,5.1c0,1.7,0.6,3.3,1.8,4.8c0.9,1.1,1.2,1.4,4.9,4.1
	c2.6,1.9,3,2.4,3,3.4c0,1-0.8,1.6-2,1.6c-2.3,0-4.7-2.5-5.9-6.2h-1.9l0.3,5.5C94,71.7,95.8,72.2,98.5,72.2z M126.1,69.7
	c-1.9,1.7-4.3,2.5-7,2.5c-6,0-10.1-4.4-10.1-10.8c0-6.7,4.5-11.5,10.8-11.5c5.8,0,9.4,3.8,9.7,10h-11.8c0.1,1.9,0.3,2.8,0.8,4
	c0.8,1.7,2.4,2.9,4.4,2.9c1.9,0,3.5-0.7,5.8-2.6l0.9,1C128.2,67.5,127.4,68.6,126.1,69.7z M121.8,58.5h-4.2c0.2-5,0.8-6.9,2.2-6.9
	c1.3,0,2.1,2.1,2.1,5.7C121.8,57.6,121.8,58,121.8,58.5z M151.2,69.9v1.5h-6.3v-1.5c1.6-0.2,2-0.7,2-2.8V45.6c0-2.2-0.3-2.7-2-2.8
	v-1.5h11.7l5.2,14.2l4.8-14.2h11.7v1.5c-1.6,0.1-2,0.5-2,2.8v21.4c0,2.3,0.3,2.7,2,2.8v1.5h-13.7v-1.5c1.6-0.1,2-0.5,2-2.8V48.6
	L159,71.4h-2l-8-22.1v17.8C148.9,69.3,149.2,69.6,151.2,69.9z M195.6,72.2c1.9,0,3.7-0.9,5.7-2.9l-0.4-1.3c-0.2,0-0.4,0-0.6,0
	c-0.8,0-0.9-0.4-0.9-2.4V55.3c0-3.6-2.3-5.3-6.9-5.3c-3.1,0-5.3,0.6-7.5,2c-2.2,1.4-3.4,3.1-3.4,4.9c0,1.8,1.2,3,2.9,3
	c1.9,0,3.5-1.5,3.5-3.2c0-0.4,0-0.7-0.1-1c-0.4-1.1-0.5-1.4-0.5-1.6c0-0.1,0-0.2,0-0.3c0-0.9,0.7-1.7,1.7-1.7c1.2,0,1.8,0.9,1.8,2.8
	v3.6c-1.8,0.8-3.8,1.8-5.6,2.8c-4,2.3-5.3,3.9-5.3,6.3c0,2.8,2.3,4.7,5.6,4.7c2.2,0,3.7-0.6,5.7-2.5
	C192.5,71.5,193.8,72.2,195.6,72.2z M186.8,65.8c0,1.9,0.9,3,2.2,3c1.4,0,2.1-0.8,2.1-2.8v-5.8C188.2,61.6,186.8,63.4,186.8,65.8z
	 M214.1,71.4V70c-1.4-0.2-1.7-0.6-1.7-2.7V55c1.1-0.9,1.7-1.2,2.5-1.2c1.2,0,1.8,1.1,1.8,3.3v10.1c0,2.1-0.2,2.5-1.7,2.7v1.4H227V70
	c-1.4-0.2-1.7-0.6-1.7-2.7v-11c0-2-0.6-3.7-1.8-4.7c-1.2-1-3.1-1.7-4.8-1.7c-2.2,0-4.1,0.7-6.3,2.4v-2.4h-1.4
	c-2.4,1.3-6.5,2.6-8.9,2.8v1.4c0.4,0,0.7,0,0.8,0c0.4,0,0.9,0.4,0.9,0.8v12.2c0,2.1-0.2,2.5-1.7,2.7v1.4H214.1z"/>
<g>
	<path d="M59.2,82.2l5.1,21.8l6.1-21.8h3.9l6.1,21.8l5.1-21.8h4l-7,26.8h-3.8l-6.2-22.2l-6.2,22.2h-3.8l-7-26.8H59.2z"/>
	<path d="M92.3,82.1h3.3v10c0.8-1,1.5-1.7,2.1-2.1c1.1-0.7,2.4-1,4-1c2.8,0,4.8,1,5.8,3c0.5,1.1,0.8,2.6,0.8,4.5v12.5h-3.4V96.7
		c0-1.4-0.2-2.5-0.5-3.2c-0.6-1.1-1.7-1.6-3.4-1.6c-1.4,0-2.6,0.5-3.7,1.4s-1.7,2.7-1.7,5.3v10.4h-3.3V82.1z"/>
	<path d="M127.2,91.5c1.7,1.7,2.6,4.1,2.6,7.4c0,3.2-0.8,5.8-2.3,7.8c-1.5,2.1-3.9,3.1-7.1,3.1c-2.7,0-4.8-0.9-6.4-2.7
		c-1.6-1.8-2.4-4.3-2.4-7.3c0-3.3,0.8-5.9,2.5-7.8c1.7-1.9,3.9-2.9,6.7-2.9C123.4,88.9,125.5,89.8,127.2,91.5z M125.2,104.5
		c0.8-1.6,1.2-3.5,1.2-5.5c0-1.8-0.3-3.3-0.9-4.5c-0.9-1.8-2.5-2.7-4.7-2.7c-2,0-3.4,0.8-4.3,2.3c-0.9,1.5-1.4,3.4-1.4,5.5
		c0,2.1,0.5,3.8,1.4,5.2c0.9,1.4,2.3,2.1,4.3,2.1C122.9,106.9,124.4,106.1,125.2,104.5z"/>
	<path d="M145.1,82.2h12.2c2,0,3.7,0.3,5,0.9c2.5,1.1,3.7,3.3,3.7,6.3c0,1.6-0.3,2.9-1,3.9c-0.7,1-1.6,1.8-2.8,2.5
		c1,0.4,1.8,1,2.4,1.7c0.5,0.7,0.8,1.8,0.9,3.4l0.1,3.6c0,1,0.1,1.8,0.3,2.3c0.2,0.9,0.6,1.4,1.2,1.6v0.6h-4.5
		c-0.1-0.2-0.2-0.5-0.3-0.9s-0.1-1.1-0.2-2.1l-0.2-4.5c-0.1-1.8-0.7-2.9-1.9-3.5c-0.7-0.3-1.7-0.5-3.2-0.5h-8v11.5h-3.6V82.2z
		 M156.9,94.5c1.7,0,3-0.3,3.9-1c1-0.7,1.4-1.9,1.4-3.7c0-1.9-0.7-3.2-2-3.9c-0.7-0.4-1.7-0.5-2.9-0.5h-8.6v9.2H156.9z"/>
	<path d="M181.7,97.2c0.8-0.1,1.3-0.4,1.5-0.9c0.1-0.3,0.2-0.7,0.2-1.3c0-1.1-0.4-1.9-1.2-2.4c-0.8-0.5-1.9-0.8-3.4-0.8
		c-1.7,0-2.9,0.5-3.6,1.4c-0.4,0.5-0.7,1.3-0.8,2.3h-3.1c0.1-2.4,0.8-4.1,2.3-5c1.5-0.9,3.2-1.4,5.2-1.4c2.3,0,4.2,0.4,5.6,1.3
		c1.4,0.9,2.1,2.2,2.1,4.1v11.3c0,0.3,0.1,0.6,0.2,0.8c0.1,0.2,0.4,0.3,0.9,0.3c0.1,0,0.3,0,0.5,0c0.2,0,0.4,0,0.6-0.1v2.4
		c-0.5,0.1-0.9,0.2-1.2,0.3c-0.3,0-0.6,0.1-1.1,0.1c-1.1,0-2-0.4-2.5-1.2c-0.3-0.4-0.5-1-0.6-1.8c-0.7,0.9-1.6,1.6-2.9,2.3
		c-1.3,0.6-2.6,1-4.1,1c-1.8,0-3.3-0.5-4.4-1.7s-1.7-2.5-1.7-4.1c0-1.8,0.6-3.2,1.7-4.2c1.1-1,2.6-1.6,4.5-1.8L181.7,97.2z
		 M174.8,106.1c0.7,0.5,1.5,0.8,2.5,0.8c1.2,0,2.3-0.3,3.4-0.8c1.8-0.9,2.7-2.3,2.7-4.4v-2.6c-0.4,0.3-0.9,0.5-1.5,0.6
		c-0.6,0.2-1.3,0.3-1.9,0.4l-2,0.3c-1.2,0.2-2.1,0.4-2.7,0.7c-1,0.6-1.5,1.5-1.5,2.7C173.8,104.8,174.1,105.6,174.8,106.1z"/>
	<path d="M192.1,89.5h3.1v2.8c0.9-1.1,1.9-2,2.9-2.5c1-0.5,2.2-0.7,3.5-0.7c2.8,0,4.6,1,5.6,2.9c0.5,1.1,0.8,2.6,0.8,4.5v12.5h-3.3
		V96.7c0-1.2-0.2-2.2-0.5-2.9c-0.6-1.2-1.6-1.8-3.2-1.8c-0.8,0-1.4,0.1-1.9,0.2c-0.9,0.3-1.7,0.8-2.4,1.6c-0.5,0.6-0.9,1.3-1.1,2
		c-0.2,0.7-0.2,1.7-0.2,2.9v10.2h-3.3V89.5z"/>
	<path d="M55.2,117.2h4.1l9.7,26.8h-4l-2.7-8H51.7l-2.9,8h-3.7L55.2,117.2z M61.1,133.1l-4.1-11.9l-4.3,11.9H61.1z"/>
	<path d="M72.7,124.5l3.8,15.4l3.8-15.4H84l3.8,15.3l4-15.3h3.3l-5.7,19.6H86l-4-15.1l-3.9,15.1h-3.4l-5.6-19.6H72.7z"/>
	<path d="M108.7,132.2c0.8-0.1,1.3-0.4,1.5-0.9c0.1-0.3,0.2-0.7,0.2-1.3c0-1.1-0.4-1.9-1.2-2.4c-0.8-0.5-1.9-0.8-3.4-0.8
		c-1.7,0-2.9,0.5-3.6,1.4c-0.4,0.5-0.7,1.3-0.8,2.3h-3.1c0.1-2.4,0.8-4.1,2.3-5c1.5-0.9,3.2-1.4,5.2-1.4c2.3,0,4.2,0.4,5.6,1.3
		c1.4,0.9,2.1,2.2,2.1,4.1v11.3c0,0.3,0.1,0.6,0.2,0.8c0.1,0.2,0.4,0.3,0.9,0.3c0.1,0,0.3,0,0.5,0c0.2,0,0.4,0,0.6-0.1v2.4
		c-0.5,0.1-0.9,0.2-1.2,0.3c-0.3,0-0.6,0.1-1.1,0.1c-1.1,0-2-0.4-2.5-1.2c-0.3-0.4-0.5-1-0.6-1.8c-0.7,0.9-1.6,1.6-2.9,2.3
		c-1.3,0.6-2.6,1-4.1,1c-1.8,0-3.3-0.5-4.4-1.7s-1.7-2.5-1.7-4.1c0-1.8,0.6-3.2,1.7-4.2c1.1-1,2.6-1.6,4.5-1.8L108.7,132.2z
		 M101.8,141.1c0.7,0.5,1.5,0.8,2.5,0.8c1.2,0,2.3-0.3,3.4-0.8c1.8-0.9,2.7-2.3,2.7-4.4v-2.6c-0.4,0.3-0.9,0.5-1.5,0.6
		c-0.6,0.2-1.3,0.3-1.9,0.4l-2,0.3c-1.2,0.2-2.1,0.4-2.7,0.7c-1,0.6-1.5,1.5-1.5,2.7C100.7,139.8,101.1,140.6,101.8,141.1z"/>
	<path d="M131.2,124.5h3.6c-0.5,1.3-1.5,4.1-3.1,8.6c-1.2,3.4-2.2,6.1-3,8.2c-1.9,5-3.2,8-4,9.1s-2.1,1.6-4,1.6
		c-0.5,0-0.8,0-1.1-0.1c-0.2,0-0.6-0.1-0.9-0.2v-3c0.6,0.2,1,0.3,1.2,0.3c0.3,0,0.5,0.1,0.7,0.1c0.6,0,1.1-0.1,1.3-0.3
		c0.3-0.2,0.5-0.4,0.7-0.7c0.1-0.1,0.3-0.6,0.7-1.5c0.4-0.9,0.7-1.6,0.8-2l-7.2-20.1h3.7l5.2,15.9L131.2,124.5z"/>
	<path d="M149.6,118.5c0.8-1.1,2.2-1.7,4.4-1.7c0.2,0,0.4,0,0.6,0c0.2,0,0.5,0,0.7,0.1v3c-0.3,0-0.6,0-0.7,0s-0.3,0-0.4,0
		c-1,0-1.6,0.3-1.8,0.8c-0.2,0.5-0.3,1.8-0.3,4h3.3v2.6h-3.3v16.9h-3.2v-16.9h-2.7v-2.6h2.7v-3.1C149,120.2,149.2,119.2,149.6,118.5
		z"/>
	<path d="M158.6,124.5h3.1v3.4c0.3-0.7,0.9-1.5,1.9-2.4s2.1-1.4,3.5-1.4c0.1,0,0.2,0,0.3,0c0.1,0,0.4,0,0.7,0.1v3.5
		c-0.2,0-0.4-0.1-0.5-0.1c-0.2,0-0.3,0-0.5,0c-1.7,0-2.9,0.5-3.8,1.6c-0.9,1.1-1.3,2.3-1.3,3.7v11.2h-3.3V124.5z"/>
	<path d="M185.1,126.5c1.7,1.7,2.6,4.1,2.6,7.4c0,3.2-0.8,5.8-2.3,7.8c-1.5,2.1-3.9,3.1-7.1,3.1c-2.7,0-4.8-0.9-6.4-2.7
		s-2.4-4.3-2.4-7.3c0-3.3,0.8-5.9,2.5-7.8s3.9-2.9,6.7-2.9C181.3,123.9,183.4,124.8,185.1,126.5z M183.1,139.5
		c0.8-1.6,1.2-3.5,1.2-5.5c0-1.8-0.3-3.3-0.9-4.5c-0.9-1.8-2.5-2.7-4.7-2.7c-2,0-3.4,0.8-4.3,2.3c-0.9,1.5-1.4,3.4-1.4,5.5
		c0,2.1,0.5,3.8,1.4,5.2c0.9,1.4,2.3,2.1,4.3,2.1C180.8,141.9,182.3,141.1,183.1,139.5z"/>
	<path d="M191.7,124.5h3.3v2.8c0.8-1,1.5-1.7,2.1-2.1c1.1-0.7,2.3-1.1,3.7-1.1c1.6,0,2.8,0.4,3.8,1.2c0.5,0.4,1,1.1,1.5,1.9
		c0.7-1,1.6-1.8,2.6-2.3c1-0.5,2.1-0.8,3.3-0.8c2.6,0,4.4,0.9,5.4,2.8c0.5,1,0.8,2.4,0.8,4.1v13h-3.4v-13.6c0-1.3-0.3-2.2-1-2.7
		c-0.7-0.5-1.4-0.7-2.4-0.7c-1.3,0-2.4,0.4-3.3,1.3c-0.9,0.9-1.4,2.3-1.4,4.3v11.4h-3.3v-12.8c0-1.3-0.2-2.3-0.5-2.9
		c-0.5-0.9-1.4-1.4-2.8-1.4c-1.2,0-2.4,0.5-3.4,1.4s-1.5,2.7-1.5,5.2v10.4h-3.3V124.5z"/>
	<path d="M57.3,152.3h5.2l7.7,22.7l7.7-22.7h5.2v26.8h-3.5v-15.8c0-0.5,0-1.5,0-2.7c0-1.3,0-2.6,0-4.1L72,179.1h-3.6l-7.7-22.6v0.8
		c0,0.7,0,1.7,0.1,3c0,1.3,0.1,2.3,0.1,3v15.8h-3.5V152.3z"/>
	<path d="M98.6,167.2c0.8-0.1,1.3-0.4,1.5-0.9c0.1-0.3,0.2-0.7,0.2-1.3c0-1.1-0.4-1.9-1.2-2.4c-0.8-0.5-1.9-0.8-3.4-0.8
		c-1.7,0-2.9,0.5-3.6,1.4c-0.4,0.5-0.7,1.3-0.8,2.3h-3.1c0.1-2.4,0.8-4.1,2.3-5c1.5-0.9,3.2-1.4,5.2-1.4c2.3,0,4.2,0.4,5.6,1.3
		c1.4,0.9,2.1,2.2,2.1,4.1v11.3c0,0.3,0.1,0.6,0.2,0.8c0.1,0.2,0.4,0.3,0.9,0.3c0.1,0,0.3,0,0.5,0c0.2,0,0.4,0,0.6-0.1v2.4
		c-0.5,0.1-0.9,0.2-1.2,0.3c-0.3,0-0.6,0.1-1.1,0.1c-1.1,0-2-0.4-2.5-1.2c-0.3-0.4-0.5-1-0.6-1.8c-0.7,0.9-1.6,1.6-2.9,2.3
		c-1.3,0.6-2.6,1-4.1,1c-1.8,0-3.3-0.5-4.4-1.7s-1.7-2.5-1.7-4.1c0-1.8,0.6-3.2,1.7-4.2c1.1-1,2.6-1.6,4.5-1.8L98.6,167.2z
		 M91.7,176.1c0.7,0.5,1.5,0.8,2.5,0.8c1.2,0,2.3-0.3,3.4-0.8c1.8-0.9,2.7-2.3,2.7-4.4v-2.6c-0.4,0.3-0.9,0.5-1.5,0.6
		c-0.6,0.2-1.3,0.3-1.9,0.4l-2,0.3c-1.2,0.2-2.1,0.4-2.7,0.7c-1,0.6-1.5,1.5-1.5,2.7C90.6,174.8,91,175.6,91.7,176.1z"/>
	<path d="M119.7,160.1c0.6,0.4,1.2,1,2,1.9v-9.9h3.2v26.9h-3v-2.7c-0.8,1.2-1.7,2.1-2.7,2.6c-1,0.5-2.2,0.8-3.6,0.8
		c-2.2,0-4.1-0.9-5.6-2.7c-1.6-1.8-2.4-4.3-2.4-7.3c0-2.8,0.7-5.3,2.2-7.4s3.5-3.1,6.2-3.1C117.4,159.2,118.7,159.5,119.7,160.1z
		 M112.3,174.8c0.9,1.4,2.3,2.1,4.3,2.1c1.5,0,2.8-0.7,3.7-2c1-1.3,1.5-3.2,1.5-5.6c0-2.5-0.5-4.3-1.5-5.5c-1-1.2-2.2-1.8-3.7-1.8
		c-1.6,0-3,0.6-4,1.9c-1,1.3-1.5,3.1-1.5,5.6C111,171.6,111.4,173.4,112.3,174.8z"/>
	<path d="M140.5,152.3h5.2l7.7,22.7l7.7-22.7h5.2v26.8h-3.5v-15.8c0-0.5,0-1.5,0-2.7c0-1.3,0-2.6,0-4.1l-7.7,22.6h-3.6l-7.7-22.6
		v0.8c0,0.7,0,1.7,0.1,3c0,1.3,0.1,2.3,0.1,3v15.8h-3.5V152.3z"/>
	<path d="M183.3,160.1c1.3,0.7,2.3,1.5,3,2.5c0.7,1,1.1,2.1,1.3,3.5c0.2,0.9,0.3,2.3,0.3,4.3h-14.2c0.1,2,0.5,3.6,1.4,4.8
		c0.9,1.2,2.2,1.8,4,1.8c1.7,0,3.1-0.6,4.1-1.7c0.6-0.7,1-1.4,1.2-2.3h3.2c-0.1,0.7-0.4,1.5-0.8,2.4s-1,1.6-1.6,2.2
		c-1,1-2.2,1.6-3.7,2c-0.8,0.2-1.7,0.3-2.7,0.3c-2.4,0-4.5-0.9-6.2-2.7c-1.7-1.8-2.5-4.3-2.5-7.4c0-3.1,0.8-5.7,2.5-7.7
		c1.7-2,3.9-2.9,6.6-2.9C180.7,159.1,182,159.4,183.3,160.1z M184.5,167.7c-0.1-1.4-0.4-2.6-0.9-3.4c-0.9-1.6-2.4-2.4-4.5-2.4
		c-1.5,0-2.8,0.5-3.8,1.6c-1,1.1-1.6,2.5-1.6,4.2H184.5z"/>
	<path d="M192.1,159.5h3.1v2.8c0.9-1.1,1.9-2,2.9-2.5c1-0.5,2.2-0.7,3.5-0.7c2.8,0,4.6,1,5.6,2.9c0.5,1.1,0.8,2.6,0.8,4.5v12.5h-3.3
		v-12.3c0-1.2-0.2-2.2-0.5-2.9c-0.6-1.2-1.6-1.8-3.2-1.8c-0.8,0-1.4,0.1-1.9,0.2c-0.9,0.3-1.7,0.8-2.4,1.6c-0.5,0.6-0.9,1.3-1.1,2
		c-0.2,0.7-0.2,1.7-0.2,2.9v10.2h-3.3V159.5z"/>
</g>
</svg>
