<?xml version="1.0" encoding="utf-8"?>
<!-- Generator: Adobe Illustrator 25.1.0, SVG Export Plug-In . SVG Version: 6.00 Build 0)  -->
<svg version="1.1" id="Layer_1" xmlns="http://www.w3.org/2000/svg" xmlns:xlink="http://www.w3.org/1999/xlink" x="0px" y="0px"
	 viewBox="0 0 265 157.7" style="enable-background:new 0 0 265 157.7;" xml:space="preserve">
<g>
	<g>
		<path d="M45.2,87.4l5.1,21.8l6.1-21.8h3.9l6.1,21.8l5.1-21.8h4l-7,26.8h-3.8L58.4,92l-6.2,22.2h-3.8l-7-26.8H45.2z"/>
		<path d="M78.3,87.3h3.3v10c0.8-1,1.5-1.7,2.1-2.1c1.1-0.7,2.4-1,4-1c2.8,0,4.8,1,5.8,3c0.5,1.1,0.8,2.6,0.8,4.5v12.5h-3.4v-12.3
			c0-1.4-0.2-2.5-0.5-3.2c-0.6-1.1-1.7-1.6-3.4-1.6c-1.4,0-2.6,0.5-3.7,1.4c-1.1,0.9-1.7,2.7-1.7,5.3v10.4h-3.3V87.3z"/>
		<path d="M113.3,96.6c1.7,1.7,2.6,4.1,2.6,7.4c0,3.2-0.8,5.8-2.3,7.8c-1.5,2.1-3.9,3.1-7.1,3.1c-2.7,0-4.8-0.9-6.4-2.7
			s-2.4-4.3-2.4-7.3c0-3.3,0.8-5.9,2.5-7.8s3.9-2.9,6.7-2.9C109.4,94.1,111.6,94.9,113.3,96.6z M111.3,109.6
			c0.8-1.6,1.2-3.5,1.2-5.5c0-1.8-0.3-3.3-0.9-4.5c-0.9-1.8-2.5-2.7-4.7-2.7c-2,0-3.4,0.8-4.3,2.3c-0.9,1.5-1.4,3.4-1.4,5.5
			c0,2.1,0.5,3.8,1.4,5.2c0.9,1.4,2.3,2.1,4.3,2.1C109,112.1,110.5,111.3,111.3,109.6z"/>
		<path d="M130.8,87.4h4.3l13.4,21.7V87.4h3.5v26.8h-4.1l-13.6-21.6v21.6h-3.5V87.4z"/>
		<path d="M169.4,95.2c1.3,0.7,2.3,1.5,3,2.5c0.7,1,1.1,2.1,1.3,3.5c0.2,0.9,0.3,2.3,0.3,4.3h-14.2c0.1,2,0.5,3.6,1.4,4.8
			c0.9,1.2,2.2,1.8,4,1.8c1.7,0,3.1-0.6,4.1-1.7c0.6-0.7,1-1.4,1.2-2.3h3.2c-0.1,0.7-0.4,1.5-0.8,2.4c-0.5,0.9-1,1.6-1.6,2.2
			c-1,1-2.2,1.6-3.7,2c-0.8,0.2-1.7,0.3-2.7,0.3c-2.4,0-4.5-0.9-6.2-2.7c-1.7-1.8-2.5-4.3-2.5-7.4c0-3.1,0.8-5.7,2.5-7.7
			c1.7-2,3.9-2.9,6.6-2.9C166.8,94.2,168.1,94.5,169.4,95.2z M170.6,102.9c-0.1-1.4-0.4-2.6-0.9-3.4c-0.9-1.6-2.4-2.4-4.5-2.4
			c-1.5,0-2.8,0.5-3.8,1.6c-1,1.1-1.6,2.5-1.6,4.2H170.6z"/>
		<path d="M179.7,94.7l5.2,15.9l5.4-15.9h3.6l-7.4,19.6h-3.5l-7.2-19.6H179.7z"/>
		<path d="M208.9,95.2c1.3,0.7,2.3,1.5,3,2.5c0.7,1,1.1,2.1,1.3,3.5c0.2,0.9,0.3,2.3,0.3,4.3h-14.2c0.1,2,0.5,3.6,1.4,4.8
			c0.9,1.2,2.2,1.8,4,1.8c1.7,0,3.1-0.6,4.1-1.7c0.6-0.7,1-1.4,1.2-2.3h3.2c-0.1,0.7-0.4,1.5-0.8,2.4c-0.5,0.9-1,1.6-1.6,2.2
			c-1,1-2.2,1.6-3.7,2c-0.8,0.2-1.7,0.3-2.7,0.3c-2.4,0-4.5-0.9-6.2-2.7c-1.7-1.8-2.5-4.3-2.5-7.4c0-3.1,0.8-5.7,2.5-7.7
			c1.7-2,3.9-2.9,6.6-2.9C206.3,94.2,207.6,94.5,208.9,95.2z M210.1,102.9c-0.1-1.4-0.4-2.6-0.9-3.4c-0.9-1.6-2.4-2.4-4.5-2.4
			c-1.5,0-2.8,0.5-3.8,1.6c-1,1.1-1.6,2.5-1.6,4.2H210.1z"/>
		<path d="M217.7,94.7h3.1V98c0.3-0.7,0.9-1.5,1.9-2.4s2.1-1.4,3.5-1.4c0.1,0,0.2,0,0.3,0c0.1,0,0.4,0,0.7,0.1v3.5
			c-0.2,0-0.4-0.1-0.5-0.1c-0.2,0-0.3,0-0.5,0c-1.7,0-2.9,0.5-3.8,1.6c-0.9,1.1-1.3,2.3-1.3,3.7v11.2h-3.3V94.7z"/>
		<path d="M40.3,122.4H44V146h13.5v3.2H40.3V122.4z"/>
		<path d="M74.9,131.6c1.7,1.7,2.6,4.1,2.6,7.4c0,3.2-0.8,5.8-2.3,7.8c-1.5,2.1-3.9,3.1-7.1,3.1c-2.7,0-4.8-0.9-6.4-2.7
			s-2.4-4.3-2.4-7.3c0-3.3,0.8-5.9,2.5-7.8c1.7-1.9,3.9-2.9,6.7-2.9C71,129.1,73.1,129.9,74.9,131.6z M72.8,144.6
			c0.8-1.6,1.2-3.5,1.2-5.5c0-1.8-0.3-3.3-0.9-4.5c-0.9-1.8-2.5-2.7-4.7-2.7c-2,0-3.4,0.8-4.3,2.3c-0.9,1.5-1.4,3.4-1.4,5.5
			c0,2.1,0.5,3.8,1.4,5.2c0.9,1.4,2.3,2.1,4.3,2.1C70.5,147.1,72,146.3,72.8,144.6z"/>
		<path d="M95.7,131.6c1.7,1.7,2.6,4.1,2.6,7.4c0,3.2-0.8,5.8-2.3,7.8c-1.5,2.1-3.9,3.1-7.1,3.1c-2.7,0-4.8-0.9-6.4-2.7
			s-2.4-4.3-2.4-7.3c0-3.3,0.8-5.9,2.5-7.8c1.7-1.9,3.9-2.9,6.7-2.9C91.8,129.1,93.9,129.9,95.7,131.6z M93.6,144.6
			c0.8-1.6,1.2-3.5,1.2-5.5c0-1.8-0.3-3.3-0.9-4.5c-0.9-1.8-2.5-2.7-4.7-2.7c-2,0-3.4,0.8-4.3,2.3c-0.9,1.5-1.4,3.4-1.4,5.5
			c0,2.1,0.5,3.8,1.4,5.2c0.9,1.4,2.3,2.1,4.3,2.1C91.3,147.1,92.8,146.3,93.6,144.6z"/>
		<path d="M102.2,122.4h3.2V138l8.4-8.3h4.2l-7.5,7.3l7.9,12.3h-4.2l-6.2-10l-2.7,2.6v7.3h-3.2V122.4z"/>
		<path d="M122.9,143.1c0.1,1.1,0.4,1.9,0.8,2.5c0.8,1.1,2.3,1.6,4.4,1.6c1.2,0,2.3-0.3,3.3-0.8c0.9-0.5,1.4-1.3,1.4-2.5
			c0-0.8-0.4-1.5-1.1-1.9c-0.5-0.3-1.4-0.6-2.9-0.9l-2.7-0.7c-1.7-0.4-2.9-0.9-3.7-1.4c-1.4-0.9-2.2-2.1-2.2-3.7
			c0-1.9,0.7-3.3,2-4.5c1.4-1.1,3.2-1.7,5.5-1.7c3,0,5.1,0.9,6.5,2.6c0.8,1.1,1.2,2.3,1.2,3.5h-3.1c-0.1-0.7-0.3-1.4-0.8-2
			c-0.8-0.9-2.1-1.3-4-1.3c-1.3,0-2.2,0.2-2.9,0.7c-0.7,0.5-1,1.1-1,1.9c0,0.8,0.4,1.5,1.3,2c0.5,0.3,1.2,0.6,2.2,0.8l2.2,0.5
			c2.4,0.6,4,1.1,4.8,1.7c1.3,0.8,1.9,2.2,1.9,4c0,1.7-0.7,3.2-2,4.5c-1.3,1.3-3.4,1.9-6.1,1.9c-2.9,0-5-0.7-6.3-2
			c-1.2-1.3-1.9-3-2-4.9H122.9z"/>
		<path d="M150.4,122.4H162c3.2,0,5.4,0.9,6.7,2.8c0.8,1.1,1.2,2.4,1.2,3.8c0,1.7-0.5,3.1-1.4,4.2c-0.5,0.6-1.2,1.1-2.2,1.6
			c1.4,0.5,2.4,1.1,3.1,1.8c1.2,1.2,1.8,2.8,1.8,4.8c0,1.7-0.5,3.3-1.6,4.7c-1.6,2.1-4.2,3.1-7.8,3.1h-11.4V122.4z M160.7,133.7
			c1.5,0,2.8-0.2,3.6-0.6c1.4-0.7,2-1.9,2-3.6c0-1.8-0.7-2.9-2.2-3.5c-0.8-0.3-2-0.5-3.6-0.5H154v8.3H160.7z M161.9,146.1
			c2.2,0,3.9-0.6,4.8-1.9c0.6-0.8,0.9-1.8,0.9-3c0-1.9-0.9-3.3-2.6-4c-0.9-0.4-2.2-0.6-3.7-0.6H154v9.4H161.9z"/>
		<path d="M185.5,137.4c0.8-0.1,1.3-0.4,1.5-0.9c0.1-0.3,0.2-0.7,0.2-1.3c0-1.1-0.4-1.9-1.2-2.4c-0.8-0.5-1.9-0.8-3.4-0.8
			c-1.7,0-2.9,0.5-3.6,1.4c-0.4,0.5-0.7,1.3-0.8,2.3h-3.1c0.1-2.4,0.8-4.1,2.3-5c1.5-0.9,3.2-1.4,5.2-1.4c2.3,0,4.2,0.4,5.6,1.3
			c1.4,0.9,2.1,2.2,2.1,4.1v11.3c0,0.3,0.1,0.6,0.2,0.8c0.1,0.2,0.4,0.3,0.9,0.3c0.1,0,0.3,0,0.5,0c0.2,0,0.4,0,0.6-0.1v2.4
			c-0.5,0.1-0.9,0.2-1.2,0.3c-0.3,0-0.6,0.1-1.1,0.1c-1.1,0-2-0.4-2.5-1.2c-0.3-0.4-0.5-1-0.6-1.8c-0.7,0.9-1.6,1.6-2.9,2.3
			s-2.6,1-4.1,1c-1.8,0-3.3-0.6-4.4-1.7c-1.2-1.1-1.7-2.5-1.7-4.1c0-1.8,0.6-3.2,1.7-4.2c1.1-1,2.6-1.6,4.5-1.8L185.5,137.4z
			 M178.6,146.3c0.7,0.5,1.5,0.8,2.5,0.8c1.2,0,2.3-0.3,3.4-0.8c1.8-0.9,2.7-2.3,2.7-4.4v-2.6c-0.4,0.3-0.9,0.5-1.5,0.6
			s-1.3,0.3-1.9,0.4l-2,0.3c-1.2,0.2-2.1,0.4-2.7,0.7c-1,0.6-1.5,1.5-1.5,2.7C177.5,145,177.9,145.7,178.6,146.3z"/>
		<path d="M208.7,130.7c1.4,1.1,2.2,2.9,2.5,5.5H208c-0.2-1.2-0.6-2.2-1.3-3c-0.7-0.8-1.8-1.2-3.3-1.2c-2.1,0-3.6,1-4.5,3.1
			c-0.6,1.3-0.9,3-0.9,4.9c0,2,0.4,3.6,1.2,4.9s2.1,2,3.9,2c1.4,0,2.4-0.4,3.2-1.2c0.8-0.8,1.3-2,1.7-3.4h3.2
			c-0.4,2.6-1.3,4.5-2.7,5.7c-1.5,1.2-3.3,1.8-5.6,1.8c-2.6,0-4.6-0.9-6.1-2.8c-1.5-1.9-2.3-4.2-2.3-7c0-3.4,0.8-6.1,2.5-8
			s3.8-2.9,6.4-2.9C205.6,129.1,207.4,129.6,208.7,130.7z"/>
		<path d="M214.4,122.4h3.2V138l8.4-8.3h4.2l-7.5,7.3l7.9,12.3h-4.2l-6.2-10l-2.7,2.6v7.3h-3.2V122.4z"/>
	</g>
</g>
<g>
	<path d="M121.1,10.5c-1.2,0.7-3,1.2-5.2,1.5c-0.2,0.8-0.7,2.4-1.5,4.8l-1.7,5.5l-1.4,4.8c-1.1,3.9-1.8,6.8-2.3,9.4
		c-4.5-0.3-6.6-2.2-5.4-7.1c0.2-0.8,0.6-1.8,1-3.3c0.5-1.5,0.9-2.9,1.4-4.1l1.8-5.1l1.6-4.6c-5-0.4-7-2.8-4.8-6.3
		c2,0.5,4.7,0.8,8.1,0.8c3.8,0,7.5-0.3,11.2-0.9C124,7.4,123.4,9.2,121.1,10.5z"/>
	<path d="M145.3,22c0.8-0.1,1.9,0.4,2,1l-0.3,0.5c-1.4,2.7-2.5,4.7-4.3,7.1c-2.5,3.4-5.3,5.6-8.7,5.7c-2.4,0-4-1.5-4-4.3
		c-0.1-3.1,3-8.9,2.8-9.8c0-0.5-0.2-0.8-0.8-0.8c-0.7,0-1.5,0.5-2.3,1.5c-1.6,2-2.7,4.4-3.5,6.5c-0.7,2.2-1.2,4.5-1.4,6.9
		c-2.9,0.6-6.6,0.2-6.6-2.8c0-0.5,0.2-1.4,0.5-2.4c0.3-1.1,0.8-3,1.7-5.5c0.8-2.5,1.5-4.7,2.1-6.6c1.6-5.5,2.6-9.7,3-12.6
		c4.7,0,7.1,0.8,7.1,2.7c0,0.5-0.2,1.4-0.7,3l-0.8,2.3l-1.1,3.1l-1.2,3.4c2.4-2.7,4.9-4.1,7.7-4.1c2.2,0,3.8,1.2,3.8,3.4
		c0,1.1-0.5,2.9-1.5,5.3c-1,2.4-1.5,4-1.5,4.8c0,0.7,0.3,1,0.8,1c1.6,0,3.9-3,7-8.9L145.3,22z"/>
	<path d="M162.9,22c0.8-0.2,1.9,0.4,2.1,1l-0.3,0.5c-1.8,3.4-3.7,6.1-6.2,8.7c-2.4,2.5-5.5,4-8.6,4c-4,0-7-2.9-7-7.4
		c0-1.9,0.5-3.8,1.5-5.7c1-1.9,2.4-3.4,4.2-4.6c1.8-1.2,3.7-1.9,5.7-1.9c3.2,0,5.8,1.8,5.8,4.5c0,1.4-0.6,2.7-1.8,3.9
		c-2.4,2.4-5.8,3.7-8.9,4c0.1,1.6,1,2.5,2.5,2.5c1.6,0,3.5-0.9,5.6-2.7s3.9-4,5.3-6.5L162.9,22z M151.6,22.7c-0.8,1-1.4,2.2-1.8,3.6
		c2.8-0.8,5-2.7,5-4.2c0-0.5-0.4-0.9-0.9-0.9C153.2,21.1,152.4,21.6,151.6,22.7z"/>
	<path d="M33.9,47.8c-1.2,0.7-3,1.2-5.2,1.5c-0.2,0.8-0.7,2.4-1.5,4.8l-1.7,5.5l-1.4,4.8c-1.1,3.9-1.8,6.8-2.3,9.4
		c-4.5-0.3-6.6-2.2-5.4-7.1c0.2-0.8,0.6-1.8,1-3.3c0.5-1.5,0.9-2.9,1.4-4.1l1.8-5.1l1.6-4.6c-5-0.4-7-2.8-4.8-6.3
		c2,0.5,4.7,0.8,8.1,0.8c3.8,0,7.5-0.3,11.2-0.9C36.7,44.7,36.1,46.6,33.9,47.8z"/>
	<path d="M49.4,59.4c0.8-0.2,1.9,0.4,2.1,1l-0.3,0.5c-1.8,3.4-3.7,6.1-6.2,8.7c-2.4,2.5-5.5,4-8.6,4c-4,0-7-2.9-7-7.4
		c0-1.9,0.5-3.8,1.5-5.7c1-1.9,2.4-3.4,4.2-4.6c1.8-1.2,3.7-1.9,5.7-1.9c3.2,0,5.8,1.8,5.8,4.5c0,1.4-0.6,2.7-1.8,3.9
		c-2.4,2.4-5.8,3.7-8.9,4c0.1,1.6,1,2.5,2.5,2.5c1.6,0,3.5-0.9,5.6-2.7c2.1-1.8,3.9-4,5.3-6.5L49.4,59.4z M38.1,60
		c-0.8,1-1.4,2.2-1.8,3.6c2.8-0.8,5-2.7,5-4.2c0-0.5-0.4-0.9-0.9-0.9C39.7,58.5,38.9,59,38.1,60z"/>
	<path d="M71.3,59.4c0.8-0.2,1.9,0.4,2,1L73,60.8l-1,1.8c-0.2,0.4-0.5,1-1,1.8c-0.5,0.9-0.9,1.5-1.2,2c-0.3,0.4-0.6,1-1.2,1.8
		c-1,1.5-1.6,2.1-2.7,3.2c-1.4,1.4-3,2.2-4.7,2.2c-2.1,0-3.8-1.4-4.1-3.8c-2,2.5-3.9,3.8-6,3.8c-2.7,0-4.5-2.4-4.5-6.1
		c0-5.3,4-13.4,9.8-13.4c2.1,0,3.8,1.2,4.3,3.2c1-1.7,2.2-2.6,3.5-2.6c1.5,0,2.9,0.8,3.6,2c-0.8,1.6-1.3,2.9-1.7,3.8
		c-0.4,0.9-0.8,2.1-1.4,3.7c-0.5,1.6-0.8,2.7-0.8,3.4c0,1.4,1,1.3,2,0.2c0.5-0.5,1.1-1.3,1.8-2.3c0.6-1,1.1-1.9,1.5-2.6l1.4-2.6
		c0.1-0.3,0.2-0.5,0.3-0.6L71.3,59.4z M58.1,64.2c0.6-1.6,0.9-3,0.9-4.1c0-1-0.4-1.4-1-1.4c-1.8-0.2-4.3,5.5-4.2,8.2
		c0,1.2,0.4,1.8,1,1.8C55.9,68.6,57.1,66.6,58.1,64.2z"/>
	<path d="M106.9,59.4c0.8-0.1,1.9,0.4,2.1,1l-0.3,0.5c-4.5,8.5-8.8,12.8-13,12.8c-2.4,0-4-1.4-4-4c0-3.6,2.7-8.5,2.7-10.2
		c0-0.5-0.2-0.8-0.7-0.8c-0.6,0-1.4,0.5-2.2,1.5c-1.6,2-2.9,4.5-3.6,6.6c-0.6,1.8-1.1,3.9-1.4,6.3c-4.2,0.6-6.3-0.5-6.3-3.2
		c0-1.2,0.4-3.1,1.4-5.6c0.9-2.6,1.4-4.2,1.4-4.7c0-0.6-0.2-0.8-0.7-0.8c-0.9,0-2,0.9-3.2,2.6c-1.2,1.7-2.2,3.6-2.8,5.4v0
		c-0.6,1.8-1.2,4-1.7,6.8c-4.3,0.5-6.5-0.4-6.5-3.2c0-1,0.2-1.7,0.6-3.1l0.4-1.2l0.5-1.4c0.2-0.7,0.4-1.2,0.5-1.4
		c1.3-3.6,2.1-6.7,2.4-9.1c4.3-0.2,6.5,0.7,6.5,2.6c0,0.5-0.1,1.2-0.4,2.2c2.4-3.3,4.9-4.9,7.5-4.9c2.4,0,3.8,1.6,3.8,4
		c0,0.6-0.1,1.3-0.3,2c2.7-4,5.5-6,8.5-6c2.2,0,3.7,1.2,3.7,3.4c0,1.1-0.5,2.9-1.4,5.3c-1,2.4-1.4,4-1.4,4.8c0,1.3,1.3,1.3,2.7,0
		c0.7-0.7,1.4-1.6,2.2-2.7c1.4-2.2,2.2-3.6,3.1-5.1L106.9,59.4z"/>
	<path d="M138.3,63.4c0,2.5-1.4,5.1-3.9,7.2c-2.4,2-6.3,3.4-10.5,3.4c-2.9,0-5.2-0.5-6.9-1.6c-0.7-0.4-1-1.3-0.8-2.1
		c0.8-2.7,1.9-6.4,3.4-11c1.5-4.7,2.4-7.8,2.9-9.5c-0.7-1.1-1-2.4-1-3.7c1.2-0.8,2.6-1.5,4.4-2c1.8-0.6,3.6-0.8,5.3-0.8
		c6.1,0,9.1,3.1,9.1,6.5c0,1.5-0.5,2.9-1.5,4.4c-1,1.5-2.4,2.6-4.1,3.5C137,58.7,138.3,60.8,138.3,63.4z M129.4,67
		c1.4-1.1,2.1-2.4,2.1-3.7c0-2.1-1.7-3.4-5.3-3.4h-0.5l-2.7,8.5c0.6,0.1,1.2,0.2,1.7,0.2C126.4,68.6,128,68.1,129.4,67z M130.6,48.3
		c-0.5,0-1.1,0.1-1.7,0.2c-0.1,1.2-0.7,3.6-1.8,7.1c2-0.2,3.7-0.8,4.9-1.8c1.2-1,1.9-2,1.9-3.1C133.9,49.4,132.6,48.3,130.6,48.3z"
		/>
	<path d="M164.9,59.4c0.8-0.2,1.9,0.4,2,1l-0.3,0.5c-4.4,8.5-8.5,12.7-12.4,12.7c-2.6,0-4-2-4-4.5v0c-2.4,3.1-4.7,4.6-7,4.6
		c-2.2,0-3.8-1.6-3.8-4.8c0-1.2,0.2-2.7,0.7-4.3l1.6-5.3c0.6-1.9,1-3.6,1.1-5.1c2.8-0.1,6.1,0.4,6.1,3.3c0,0.8-0.4,2.5-1.4,5
		c-0.9,2.6-1.4,4.3-1.4,5.1c0,0.8,0.2,1.2,0.8,1.2c0.7,0,1.5-0.6,2.4-1.9c0.9-1.3,1.7-2.8,2.4-4.5c1.2-2.8,1.9-5.4,2.2-7.9
		c2.9-0.1,5.9,0.7,5.9,3.1c0,0.7-0.5,2.4-1.5,5c-1,2.6-1.4,4.3-1.4,5.1c0,0.8,0.2,1.2,0.8,1.2c1,0,2.5-1.6,3.9-3.8
		c1.4-2.3,2.2-3.7,3-5.1L164.9,59.4z"/>
	<path d="M161.9,69.3c0-1.2,0.3-2.8,0.9-4.5l2-5.5c0.8-2,1.2-3.8,1.4-5.2c2.6,0,6.5,0.6,6.5,2.8c0,0.8-0.6,2.6-1.9,5.6
		c-1.2,3-1.9,4.8-1.9,5.5c0,0.6,0.2,0.9,0.6,0.9c0.8,0,2-1,3.8-2.9c1.7-1.9,3.2-4,4.3-6.3l0.2-0.4c0.7-0.2,1.9,0.4,2.1,1l-0.3,0.5
		c-1.4,2.7-3.4,5.5-5.8,8.2c-2.4,2.7-5.4,4.5-8,4.5C163.4,73.6,161.9,72,161.9,69.3z M167.5,50.2c0.5-0.7,1-2,1.6-3.8
		c0.6-1.8,0.8-3.4,0.8-4.6c2.2,0.1,6.3,0.9,6.3,3.1c0,1.2-0.8,2.5-2.3,4.1c-1.5,1.6-3,2.4-4.3,2.4C168.7,51.3,168,50.9,167.5,50.2z"
		/>
	<path d="M175.9,68.3c0-1,0.2-2.3,0.5-3.9c0.4-1.6,0.7-2.8,1-3.8l1.5-4.7c1.9-5.8,3-10.1,3.4-12.8c4.5,0.1,6.7,1.2,6.7,3.2
		c0,0.8-0.5,2.6-1.5,5.5c-1,2.8-2,5.7-3,8.7c-1,3-1.5,5-1.5,6.3c0,1.2,0.4,1.8,1.2,1.8c0.9,0,2.2-0.9,3.8-2.6c1.6-1.8,3-3.8,4.3-6.1
		l0.2-0.4c0.8-0.1,1.9,0.4,2.1,1l-0.3,0.5c-1.5,2.9-3.3,5.6-5.7,8.3c-2.4,2.7-5.3,4.4-8.1,4.4C177.6,73.6,175.9,71.7,175.9,68.3z"/>
	<path d="M215.4,59.4c0.8-0.1,2,0.4,2.1,1l-0.3,0.5c-0.7,1.3-1.3,2.4-1.8,3.4c-0.5,0.9-1.2,2-2.2,3.3c-0.9,1.2-1.7,2.3-2.6,3.1
		c-1.6,1.6-4,3-6,3c-2.6,0-4.3-1.8-4.2-4.4c-1.9,2.9-4,4.4-6.2,4.4c-2.9,0-4.6-2.6-4.6-6.2c-0.2-6.1,5.1-13.4,10.3-13.3
		c1.8,0,3.1,0.7,3.8,2.1c1.3-4.5,2.3-8.6,3-12.2c4.8,0.1,6.7,1.2,6.7,3.1c0,0.8-0.5,2.7-1.5,5.6l-2.9,8.9c-1,3-1.5,5.1-1.5,6.2
		c0,0.8,0.2,1.2,0.7,1.2c0.6,0,1.4-0.6,2.4-2c2.1-2.7,3.6-5.3,4.6-7.2L215.4,59.4z M202,60.3c0-0.9-0.4-1.5-1-1.5
		c-1.8-0.2-4.5,5.5-4.3,8.2c0,1.1,0.3,1.7,1,1.7C199.7,68.7,202,62.6,202,60.3z"/>
	<path d="M233.1,59.4c0.8-0.2,1.9,0.4,2.1,1l-0.3,0.5c-1.8,3.4-3.7,6.1-6.2,8.7c-2.4,2.5-5.5,4-8.6,4c-4,0-7-2.9-7-7.4
		c0-1.9,0.5-3.8,1.5-5.7c1-1.9,2.4-3.4,4.2-4.6c1.8-1.2,3.7-1.9,5.7-1.9c3.2,0,5.8,1.8,5.8,4.5c0,1.4-0.6,2.7-1.8,3.9
		c-2.4,2.4-5.8,3.7-8.9,4c0.1,1.6,1,2.5,2.5,2.5c1.6,0,3.5-0.9,5.6-2.7c2.1-1.8,3.9-4,5.3-6.5L233.1,59.4z M221.8,60
		c-0.8,1-1.4,2.2-1.8,3.6c2.8-0.8,5-2.7,5-4.2c0-0.5-0.4-0.9-0.9-0.9C223.3,58.5,222.6,59,221.8,60z"/>
	<path d="M250.2,59.4c0.8-0.1,1.9,0.4,2.1,1l-0.3,0.5c-1.2,2.3-2.3,4.2-4.1,6.6c-2.5,3.4-5.5,6-8.9,6.1c-2.6,0-4.5-1.7-4.5-4.7
		c0-4.3,4.2-9.7,4.2-11.1c0-0.4-0.5-1-1.5-1.6l-1.7,3.2l-0.4,0.9c-0.4,0.1-1.9-0.5-2.1-1l0.3-0.6c0.7-1.3,1.3-2.6,1.8-3.8
		c-2.1-2.2-0.8-6.4,0.6-8.9c0.6,0.1,1.3,0.3,1.9,0.6c1.2,0.4,2.6,1.4,2.6,2.3c0,0.8-0.5,2.2-1.5,4.3c2.7,1.1,4.6,1.9,5.7,2.6
		c1.1,0.6,1.7,1.3,1.7,2c0,0.6-0.4,1.5-1,2.8l-2,4c-0.7,1.3-1,2.3-1,3c0,0.6,0.2,1,0.7,1c0.9,0,2.4-1.5,3.9-3.5
		c1.4-2,2.6-3.9,3.4-5.3L250.2,59.4z"/>
</g>
</svg>
