<svg enable-background="new 0 0 265 157.7" viewBox="0 0 265 157.7" xmlns="http://www.w3.org/2000/svg"><path d="m45.2 87.4 5.1 21.8 6.1-21.8h3.9l6.1 21.8 5.1-21.8h4l-7 26.8h-3.8l-6.3-22.2-6.2 22.2h-3.8l-7-26.8z"/><path d="m78.3 87.3h3.3v10c.8-1 1.5-1.7 2.1-2.1 1.1-.7 2.4-1 4-1 2.8 0 4.8 1 5.8 3 .5 1.1.8 2.6.8 4.5v12.5h-3.4v-12.3c0-1.4-.2-2.5-.5-3.2-.6-1.1-1.7-1.6-3.4-1.6-1.4 0-2.6.5-3.7 1.4s-1.7 2.7-1.7 5.3v10.4h-3.3z"/><path d="m113.3 96.6c1.7 1.7 2.6 4.1 2.6 7.4 0 3.2-.8 5.8-2.3 7.8-1.5 2.1-3.9 3.1-7.1 3.1-2.7 0-4.8-.9-6.4-2.7s-2.4-4.3-2.4-7.3c0-3.3.8-5.9 2.5-7.8s3.9-2.9 6.7-2.9c2.5-.1 4.7.7 6.4 2.4zm-2 13c.8-1.6 1.2-3.5 1.2-5.5 0-1.8-.3-3.3-.9-4.5-.9-1.8-2.5-2.7-4.7-2.7-2 0-3.4.8-4.3 2.3s-1.4 3.4-1.4 5.5.5 3.8 1.4 5.2 2.3 2.1 4.3 2.1c2.1.1 3.6-.7 4.4-2.4z"/><path d="m130.8 87.4h4.3l13.4 21.7v-21.7h3.5v26.8h-4.1l-13.6-21.6v21.6h-3.5z"/><path d="m169.4 95.2c1.3.7 2.3 1.5 3 2.5s1.1 2.1 1.3 3.5c.2.9.3 2.3.3 4.3h-14.2c.1 2 .5 3.6 1.4 4.8s2.2 1.8 4 1.8c1.7 0 3.1-.6 4.1-1.7.6-.7 1-1.4 1.2-2.3h3.2c-.1.7-.4 1.5-.8 2.4-.5.9-1 1.6-1.6 2.2-1 1-2.2 1.6-3.7 2-.8.2-1.7.3-2.7.3-2.4 0-4.5-.9-6.2-2.7s-2.5-4.3-2.5-7.4.8-5.7 2.5-7.7 3.9-2.9 6.6-2.9c1.5-.1 2.8.2 4.1.9zm1.2 7.7c-.1-1.4-.4-2.6-.9-3.4-.9-1.6-2.4-2.4-4.5-2.4-1.5 0-2.8.5-3.8 1.6s-1.6 2.5-1.6 4.2z"/><path d="m179.7 94.7 5.2 15.9 5.4-15.9h3.6l-7.4 19.6h-3.5l-7.2-19.6z"/><path d="m208.9 95.2c1.3.7 2.3 1.5 3 2.5s1.1 2.1 1.3 3.5c.2.9.3 2.3.3 4.3h-14.2c.1 2 .5 3.6 1.4 4.8s2.2 1.8 4 1.8c1.7 0 3.1-.6 4.1-1.7.6-.7 1-1.4 1.2-2.3h3.2c-.1.7-.4 1.5-.8 2.4-.5.9-1 1.6-1.6 2.2-1 1-2.2 1.6-3.7 2-.8.2-1.7.3-2.7.3-2.4 0-4.5-.9-6.2-2.7s-2.5-4.3-2.5-7.4.8-5.7 2.5-7.7 3.9-2.9 6.6-2.9c1.5-.1 2.8.2 4.1.9zm1.2 7.7c-.1-1.4-.4-2.6-.9-3.4-.9-1.6-2.4-2.4-4.5-2.4-1.5 0-2.8.5-3.8 1.6s-1.6 2.5-1.6 4.2z"/><path d="m217.7 94.7h3.1v3.3c.3-.7.9-1.5 1.9-2.4s2.1-1.4 3.5-1.4h.3c.1 0 .4 0 .7.1v3.5c-.2 0-.4-.1-.5-.1-.2 0-.3 0-.5 0-1.7 0-2.9.5-3.8 1.6s-1.3 2.3-1.3 3.7v11.2h-3.3v-19.5z"/><path d="m40.3 122.4h3.7v23.6h13.5v3.2h-17.2z"/><path d="m74.9 131.6c1.7 1.7 2.6 4.1 2.6 7.4 0 3.2-.8 5.8-2.3 7.8-1.5 2.1-3.9 3.1-7.1 3.1-2.7 0-4.8-.9-6.4-2.7s-2.4-4.3-2.4-7.3c0-3.3.8-5.9 2.5-7.8s3.9-2.9 6.7-2.9c2.5-.1 4.6.7 6.4 2.4zm-2.1 13c.8-1.6 1.2-3.5 1.2-5.5 0-1.8-.3-3.3-.9-4.5-.9-1.8-2.5-2.7-4.7-2.7-2 0-3.4.8-4.3 2.3s-1.4 3.4-1.4 5.5.5 3.8 1.4 5.2 2.3 2.1 4.3 2.1c2.1.1 3.6-.7 4.4-2.4z"/><path d="m95.7 131.6c1.7 1.7 2.6 4.1 2.6 7.4 0 3.2-.8 5.8-2.3 7.8-1.5 2.1-3.9 3.1-7.1 3.1-2.7 0-4.8-.9-6.4-2.7s-2.4-4.3-2.4-7.3c0-3.3.8-5.9 2.5-7.8s3.9-2.9 6.7-2.9c2.5-.1 4.6.7 6.4 2.4zm-2.1 13c.8-1.6 1.2-3.5 1.2-5.5 0-1.8-.3-3.3-.9-4.5-.9-1.8-2.5-2.7-4.7-2.7-2 0-3.4.8-4.3 2.3s-1.4 3.4-1.4 5.5.5 3.8 1.4 5.2 2.3 2.1 4.3 2.1c2.1.1 3.6-.7 4.4-2.4z"/><path d="m102.2 122.4h3.2v15.6l8.4-8.3h4.2l-7.5 7.3 7.9 12.3h-4.2l-6.2-10-2.7 2.6v7.3h-3.2v-26.8z"/><path d="m122.9 143.1c.1 1.1.4 1.9.8 2.5.8 1.1 2.3 1.6 4.4 1.6 1.2 0 2.3-.3 3.3-.8.9-.5 1.4-1.3 1.4-2.5 0-.8-.4-1.5-1.1-1.9-.5-.3-1.4-.6-2.9-.9l-2.7-.7c-1.7-.4-2.9-.9-3.7-1.4-1.4-.9-2.2-2.1-2.2-3.7 0-1.9.7-3.3 2-4.5 1.4-1.1 3.2-1.7 5.5-1.7 3 0 5.1.9 6.5 2.6.8 1.1 1.2 2.3 1.2 3.5h-3.1c-.1-.7-.3-1.4-.8-2-.8-.9-2.1-1.3-4-1.3-1.3 0-2.2.2-2.9.7s-1 1.1-1 1.9.4 1.5 1.3 2c.5.3 1.2.6 2.2.8l2.2.5c2.4.6 4 1.1 4.8 1.7 1.3.8 1.9 2.2 1.9 4 0 1.7-.7 3.2-2 4.5s-3.4 1.9-6.1 1.9c-2.9 0-5-.7-6.3-2-1.2-1.3-1.9-3-2-4.9h3.3z"/><path d="m150.4 122.4h11.6c3.2 0 5.4.9 6.7 2.8.8 1.1 1.2 2.4 1.2 3.8 0 1.7-.5 3.1-1.4 4.2-.5.6-1.2 1.1-2.2 1.6 1.4.5 2.4 1.1 3.1 1.8 1.2 1.2 1.8 2.8 1.8 4.8 0 1.7-.5 3.3-1.6 4.7-1.6 2.1-4.2 3.1-7.8 3.1h-11.4zm10.3 11.3c1.5 0 2.8-.2 3.6-.6 1.4-.7 2-1.9 2-3.6 0-1.8-.7-2.9-2.2-3.5-.8-.3-2-.5-3.6-.5h-6.5v8.3h6.7zm1.2 12.4c2.2 0 3.9-.6 4.8-1.9.6-.8.9-1.8.9-3 0-1.9-.9-3.3-2.6-4-.9-.4-2.2-.6-3.7-.6h-7.3v9.4h7.9z"/><path d="m185.5 137.4c.8-.1 1.3-.4 1.5-.9.1-.3.2-.7.2-1.3 0-1.1-.4-1.9-1.2-2.4s-1.9-.8-3.4-.8c-1.7 0-2.9.5-3.6 1.4-.4.5-.7 1.3-.8 2.3h-3.1c.1-2.4.8-4.1 2.3-5s3.2-1.4 5.2-1.4c2.3 0 4.2.4 5.6 1.3s2.1 2.2 2.1 4.1v11.3c0 .3.1.6.2.8s.4.3.9.3h.5c.2 0 .4 0 .6-.1v2.4c-.5.1-.9.2-1.2.3-.3 0-.6.1-1.1.1-1.1 0-2-.4-2.5-1.2-.3-.4-.5-1-.6-1.8-.7.9-1.6 1.6-2.9 2.3s-2.6 1-4.1 1c-1.8 0-3.3-.6-4.4-1.7-1.2-1.1-1.7-2.5-1.7-4.1 0-1.8.6-3.2 1.7-4.2s2.6-1.6 4.5-1.8zm-6.9 8.9c.7.5 1.5.8 2.5.8 1.2 0 2.3-.3 3.4-.8 1.8-.9 2.7-2.3 2.7-4.4v-2.6c-.4.3-.9.5-1.5.6s-1.3.3-1.9.4l-2 .3c-1.2.2-2.1.4-2.7.7-1 .6-1.5 1.5-1.5 2.7-.1 1 .3 1.7 1 2.3z"/><path d="m208.7 130.7c1.4 1.1 2.2 2.9 2.5 5.5h-3.2c-.2-1.2-.6-2.2-1.3-3s-1.8-1.2-3.3-1.2c-2.1 0-3.6 1-4.5 3.1-.6 1.3-.9 3-.9 4.9 0 2 .4 3.6 1.2 4.9s2.1 2 3.9 2c1.4 0 2.4-.4 3.2-1.2s1.3-2 1.7-3.4h3.2c-.4 2.6-1.3 4.5-2.7 5.7-1.5 1.2-3.3 1.8-5.6 1.8-2.6 0-4.6-.9-6.1-2.8s-2.3-4.2-2.3-7c0-3.4.8-6.1 2.5-8s3.8-2.9 6.4-2.9c2.2 0 4 .5 5.3 1.6z"/><path d="m214.4 122.4h3.2v15.6l8.4-8.3h4.2l-7.5 7.3 7.9 12.3h-4.2l-6.2-10-2.7 2.6v7.3h-3.2v-26.8z"/><path d="m121.1 10.5c-1.2.7-3 1.2-5.2 1.5-.2.8-.7 2.4-1.5 4.8l-1.7 5.5-1.4 4.8c-1.1 3.9-1.8 6.8-2.3 9.4-4.5-.3-6.6-2.2-5.4-7.1.2-.8.6-1.8 1-3.3.5-1.5.9-2.9 1.4-4.1l1.8-5.1 1.6-4.6c-5-.4-7-2.8-4.8-6.3 2 .5 4.7.8 8.1.8 3.8 0 7.5-.3 11.2-.9.1 1.5-.5 3.3-2.8 4.6z"/><path d="m145.3 22c.8-.1 1.9.4 2 1l-.3.5c-1.4 2.7-2.5 4.7-4.3 7.1-2.5 3.4-5.3 5.6-8.7 5.7-2.4 0-4-1.5-4-4.3-.1-3.1 3-8.9 2.8-9.8 0-.5-.2-.8-.8-.8-.7 0-1.5.5-2.3 1.5-1.6 2-2.7 4.4-3.5 6.5-.7 2.2-1.2 4.5-1.4 6.9-2.9.6-6.6.2-6.6-2.8 0-.5.2-1.4.5-2.4.3-1.1.8-3 1.7-5.5.8-2.5 1.5-4.7 2.1-6.6 1.6-5.5 2.6-9.7 3-12.6 4.7 0 7.1.8 7.1 2.7 0 .5-.2 1.4-.7 3l-.8 2.3-1.1 3.1-1.2 3.4c2.4-2.7 4.9-4.1 7.7-4.1 2.2 0 3.8 1.2 3.8 3.4 0 1.1-.5 2.9-1.5 5.3s-1.5 4-1.5 4.8c0 .7.3 1 .8 1 1.6 0 3.9-3 7-8.9z"/><path d="m162.9 22c.8-.2 1.9.4 2.1 1l-.3.5c-1.8 3.4-3.7 6.1-6.2 8.7-2.4 2.5-5.5 4-8.6 4-4 0-7-2.9-7-7.4 0-1.9.5-3.8 1.5-5.7s2.4-3.4 4.2-4.6 3.7-1.9 5.7-1.9c3.2 0 5.8 1.8 5.8 4.5 0 1.4-.6 2.7-1.8 3.9-2.4 2.4-5.8 3.7-8.9 4 .1 1.6 1 2.5 2.5 2.5 1.6 0 3.5-.9 5.6-2.7s3.9-4 5.3-6.5zm-11.3.7c-.8 1-1.4 2.2-1.8 3.6 2.8-.8 5-2.7 5-4.2 0-.5-.4-.9-.9-.9-.7-.1-1.5.4-2.3 1.5z"/><path d="m33.9 47.8c-1.2.7-3 1.2-5.2 1.5-.2.8-.7 2.4-1.5 4.8l-1.7 5.5-1.4 4.8c-1.1 3.9-1.8 6.8-2.3 9.4-4.5-.3-6.6-2.2-5.4-7.1.2-.8.6-1.8 1-3.3.5-1.5.9-2.9 1.4-4.1l1.8-5.1 1.6-4.6c-5-.4-7-2.8-4.8-6.3 2 .5 4.7.8 8.1.8 3.8 0 7.5-.3 11.2-.9 0 1.5-.6 3.4-2.8 4.6z"/><path d="m49.4 59.4c.8-.2 1.9.4 2.1 1l-.3.5c-1.8 3.4-3.7 6.1-6.2 8.7-2.4 2.5-5.5 4-8.6 4-4 0-7-2.9-7-7.4 0-1.9.5-3.8 1.5-5.7s2.4-3.4 4.2-4.6 3.7-1.9 5.7-1.9c3.2 0 5.8 1.8 5.8 4.5 0 1.4-.6 2.7-1.8 3.9-2.4 2.4-5.8 3.7-8.9 4 .1 1.6 1 2.5 2.5 2.5 1.6 0 3.5-.9 5.6-2.7s3.9-4 5.3-6.5zm-11.3.6c-.8 1-1.4 2.2-1.8 3.6 2.8-.8 5-2.7 5-4.2 0-.5-.4-.9-.9-.9-.7 0-1.5.5-2.3 1.5z"/><path d="m71.3 59.4c.8-.2 1.9.4 2 1l-.3.4-1 1.8c-.2.4-.5 1-1 1.8-.5.9-.9 1.5-1.2 2-.3.4-.6 1-1.2 1.8-1 1.5-1.6 2.1-2.7 3.2-1.4 1.4-3 2.2-4.7 2.2-2.1 0-3.8-1.4-4.1-3.8-2 2.5-3.9 3.8-6 3.8-2.7 0-4.5-2.4-4.5-6.1 0-5.3 4-13.4 9.8-13.4 2.1 0 3.8 1.2 4.3 3.2 1-1.7 2.2-2.6 3.5-2.6 1.5 0 2.9.8 3.6 2-.8 1.6-1.3 2.9-1.7 3.8s-.8 2.1-1.4 3.7c-.5 1.6-.8 2.7-.8 3.4 0 1.4 1 1.3 2 .2.5-.5 1.1-1.3 1.8-2.3.6-1 1.1-1.9 1.5-2.6l1.4-2.6c.1-.3.2-.5.3-.6zm-13.2 4.8c.6-1.6.9-3 .9-4.1 0-1-.4-1.4-1-1.4-1.8-.2-4.3 5.5-4.2 8.2 0 1.2.4 1.8 1 1.8 1.1-.1 2.3-2.1 3.3-4.5z"/><path d="m106.9 59.4c.8-.1 1.9.4 2.1 1l-.3.5c-4.5 8.5-8.8 12.8-13 12.8-2.4 0-4-1.4-4-4 0-3.6 2.7-8.5 2.7-10.2 0-.5-.2-.8-.7-.8-.6 0-1.4.5-2.2 1.5-1.6 2-2.9 4.5-3.6 6.6-.6 1.8-1.1 3.9-1.4 6.3-4.2.6-6.3-.5-6.3-3.2 0-1.2.4-3.1 1.4-5.6.9-2.6 1.4-4.2 1.4-4.7 0-.6-.2-.8-.7-.8-.9 0-2 .9-3.2 2.6s-2.2 3.6-2.8 5.4c-.6 1.8-1.2 4-1.7 6.8-4.3.5-6.5-.4-6.5-3.2 0-1 .2-1.7.6-3.1l.4-1.2.5-1.4c.2-.7.4-1.2.5-1.4 1.3-3.6 2.1-6.7 2.4-9.1 4.3-.2 6.5.7 6.5 2.6 0 .5-.1 1.2-.4 2.2 2.4-3.3 4.9-4.9 7.5-4.9 2.4 0 3.8 1.6 3.8 4 0 .6-.1 1.3-.3 2 2.7-4 5.5-6 8.5-6 2.2 0 3.7 1.2 3.7 3.4 0 1.1-.5 2.9-1.4 5.3-1 2.4-1.4 4-1.4 4.8 0 1.3 1.3 1.3 2.7 0 .7-.7 1.4-1.6 2.2-2.7 1.4-2.2 2.2-3.6 3.1-5.1z"/><path d="m138.3 63.4c0 2.5-1.4 5.1-3.9 7.2-2.4 2-6.3 3.4-10.5 3.4-2.9 0-5.2-.5-6.9-1.6-.7-.4-1-1.3-.8-2.1.8-2.7 1.9-6.4 3.4-11 1.5-4.7 2.4-7.8 2.9-9.5-.7-1.1-1-2.4-1-3.7 1.2-.8 2.6-1.5 4.4-2 1.8-.6 3.6-.8 5.3-.8 6.1 0 9.1 3.1 9.1 6.5 0 1.5-.5 2.9-1.5 4.4s-2.4 2.6-4.1 3.5c2.3 1 3.6 3.1 3.6 5.7zm-8.9 3.6c1.4-1.1 2.1-2.4 2.1-3.7 0-2.1-1.7-3.4-5.3-3.4h-.5l-2.7 8.5c.6.1 1.2.2 1.7.2 1.7 0 3.3-.5 4.7-1.6zm1.2-18.7c-.5 0-1.1.1-1.7.2-.1 1.2-.7 3.6-1.8 7.1 2-.2 3.7-.8 4.9-1.8s1.9-2 1.9-3.1c0-1.3-1.3-2.4-3.3-2.4z"/><path d="m164.9 59.4c.8-.2 1.9.4 2 1l-.3.5c-4.4 8.5-8.5 12.7-12.4 12.7-2.6 0-4-2-4-4.5-2.4 3.1-4.7 4.6-7 4.6-2.2 0-3.8-1.6-3.8-4.8 0-1.2.2-2.7.7-4.3l1.6-5.3c.6-1.9 1-3.6 1.1-5.1 2.8-.1 6.1.4 6.1 3.3 0 .8-.4 2.5-1.4 5-.9 2.6-1.4 4.3-1.4 5.1s.2 1.2.8 1.2c.7 0 1.5-.6 2.4-1.9s1.7-2.8 2.4-4.5c1.2-2.8 1.9-5.4 2.2-7.9 2.9-.1 5.9.7 5.9 3.1 0 .7-.5 2.4-1.5 5s-1.4 4.3-1.4 5.1.2 1.2.8 1.2c1 0 2.5-1.6 3.9-3.8 1.4-2.3 2.2-3.7 3-5.1z"/><path d="m161.9 69.3c0-1.2.3-2.8.9-4.5l2-5.5c.8-2 1.2-3.8 1.4-5.2 2.6 0 6.5.6 6.5 2.8 0 .8-.6 2.6-1.9 5.6-1.2 3-1.9 4.8-1.9 5.5 0 .6.2.9.6.9.8 0 2-1 3.8-2.9 1.7-1.9 3.2-4 4.3-6.3l.2-.4c.7-.2 1.9.4 2.1 1l-.3.5c-1.4 2.7-3.4 5.5-5.8 8.2s-5.4 4.5-8 4.5c-2.4.1-3.9-1.5-3.9-4.2zm5.6-19.1c.5-.7 1-2 1.6-3.8s.8-3.4.8-4.6c2.2.1 6.3.9 6.3 3.1 0 1.2-.8 2.5-2.3 4.1s-3 2.4-4.3 2.4c-.9-.1-1.6-.5-2.1-1.2z"/><path d="m175.9 68.3c0-1 .2-2.3.5-3.9.4-1.6.7-2.8 1-3.8l1.5-4.7c1.9-5.8 3-10.1 3.4-12.8 4.5.1 6.7 1.2 6.7 3.2 0 .8-.5 2.6-1.5 5.5-1 2.8-2 5.7-3 8.7s-1.5 5-1.5 6.3c0 1.2.4 1.8 1.2 1.8.9 0 2.2-.9 3.8-2.6 1.6-1.8 3-3.8 4.3-6.1l.2-.4c.8-.1 1.9.4 2.1 1l-.3.5c-1.5 2.9-3.3 5.6-5.7 8.3s-5.3 4.4-8.1 4.4c-2.9-.1-4.6-2-4.6-5.4z"/><path d="m215.4 59.4c.8-.1 2 .4 2.1 1l-.3.5c-.7 1.3-1.3 2.4-1.8 3.4-.5.9-1.2 2-2.2 3.3-.9 1.2-1.7 2.3-2.6 3.1-1.6 1.6-4 3-6 3-2.6 0-4.3-1.8-4.2-4.4-1.9 2.9-4 4.4-6.2 4.4-2.9 0-4.6-2.6-4.6-6.2-.2-6.1 5.1-13.4 10.3-13.3 1.8 0 3.1.7 3.8 2.1 1.3-4.5 2.3-8.6 3-12.2 4.8.1 6.7 1.2 6.7 3.1 0 .8-.5 2.7-1.5 5.6l-2.9 8.9c-1 3-1.5 5.1-1.5 6.2 0 .8.2 1.2.7 1.2.6 0 1.4-.6 2.4-2 2.1-2.7 3.6-5.3 4.6-7.2zm-13.4.9c0-.9-.4-1.5-1-1.5-1.8-.2-4.5 5.5-4.3 8.2 0 1.1.3 1.7 1 1.7 2 0 4.3-6.1 4.3-8.4z"/><path d="m233.1 59.4c.8-.2 1.9.4 2.1 1l-.3.5c-1.8 3.4-3.7 6.1-6.2 8.7-2.4 2.5-5.5 4-8.6 4-4 0-7-2.9-7-7.4 0-1.9.5-3.8 1.5-5.7s2.4-3.4 4.2-4.6 3.7-1.9 5.7-1.9c3.2 0 5.8 1.8 5.8 4.5 0 1.4-.6 2.7-1.8 3.9-2.4 2.4-5.8 3.7-8.9 4 .1 1.6 1 2.5 2.5 2.5 1.6 0 3.5-.9 5.6-2.7s3.9-4 5.3-6.5zm-11.3.6c-.8 1-1.4 2.2-1.8 3.6 2.8-.8 5-2.7 5-4.2 0-.5-.4-.9-.9-.9-.8 0-1.5.5-2.3 1.5z"/><path d="m250.2 59.4c.8-.1 1.9.4 2.1 1l-.3.5c-1.2 2.3-2.3 4.2-4.1 6.6-2.5 3.4-5.5 6-8.9 6.1-2.6 0-4.5-1.7-4.5-4.7 0-4.3 4.2-9.7 4.2-11.1 0-.4-.5-1-1.5-1.6l-1.7 3.2-.4.9c-.4.1-1.9-.5-2.1-1l.3-.6c.7-1.3 1.3-2.6 1.8-3.8-2.1-2.2-.8-6.4.6-8.9.6.1 1.3.3 1.9.6 1.2.4 2.6 1.4 2.6 2.3 0 .8-.5 2.2-1.5 4.3 2.7 1.1 4.6 1.9 5.7 2.6 1.1.6 1.7 1.3 1.7 2 0 .6-.4 1.5-1 2.8l-2 4c-.7 1.3-1 2.3-1 3 0 .6.2 1 .7 1 .9 0 2.4-1.5 3.9-3.5 1.4-2 2.6-3.9 3.4-5.3z"/></svg>