<?xml version="1.0" standalone="no"?>
<!DOCTYPE svg PUBLIC "-//W3C//DTD SVG 20010904//EN"
 "http://www.w3.org/TR/2001/REC-SVG-20010904/DTD/svg10.dtd">
<svg version="1.0" xmlns="http://www.w3.org/2000/svg"
 width="2084.000000pt" height="2084.000000pt" viewBox="0 0 2084.000000 2084.000000"
 preserveAspectRatio="xMidYMid meet">
<metadata>
Created by potrace 1.11, written by Peter Selinger 2001-2013
</metadata>
<g transform="translate(0.000000,2084.000000) scale(0.100000,-0.100000)"
fill="#000000" stroke="none">
<path d="M10515 18350 c-2 -8 -4 -484 -3 -1057 l0 -1043 3102 0 3101 0 -1
1053 c-1 578 -2 1054 -3 1057 0 3 -1394 5 -3096 5 -2749 0 -3096 -2 -3100 -15z"/>
<path d="M4163 14152 l-33 -3 0 -5840 0 -5839 38 -1 c48 0 2320 0 2350 0 l22
1 0 4094 c0 2370 4 4097 9 4100 13 8 26 -12 49 -79 22 -66 141 -407 252 -725
75 -212 101 -289 139 -400 12 -36 26 -74 31 -85 5 -11 81 -229 170 -485 89
-256 229 -658 312 -895 82 -236 168 -482 189 -545 22 -63 48 -137 59 -165 10
-27 46 -131 80 -230 34 -99 65 -189 70 -200 5 -11 50 -139 100 -285 50 -146
107 -310 127 -365 41 -119 104 -299 143 -410 15 -44 44 -125 63 -180 20 -55
56 -161 82 -235 25 -74 57 -164 70 -200 13 -36 29 -83 36 -105 7 -22 17 -44
21 -49 4 -6 8 -17 8 -25 0 -9 11 -45 25 -81 21 -56 193 -548 535 -1530 45
-129 110 -316 145 -415 35 -99 88 -251 119 -339 30 -87 58 -161 60 -164 4 -4
1599 -6 1922 -3 l61 1 26 78 c14 42 58 169 97 282 71 203 105 303 278 805 49
143 102 294 117 335 14 41 28 80 29 85 2 6 6 17 9 25 3 8 18 51 33 95 15 44
42 123 60 175 18 52 74 214 124 360 51 146 114 328 140 405 26 77 69 199 93
270 62 178 204 588 227 655 10 30 53 154 95 275 42 121 101 292 132 380 30 88
70 205 89 260 19 55 39 111 44 125 25 73 205 593 221 640 11 30 32 93 48 140
16 47 61 177 100 290 40 113 92 266 117 340 25 74 49 144 54 155 5 11 21 56
36 100 14 44 37 109 50 145 13 36 69 198 125 360 147 430 179 521 264 765 64
184 86 249 100 295 1 3 5 12 8 20 4 8 37 105 75 215 46 133 74 201 85 203 13
3 15 -417 15 -4133 0 -2275 2 -4139 6 -4142 6 -7 2396 -10 2397 -3 7 27 2
11673 -5 11677 -6 4 -3461 8 -3592 4 -14 -1 -23 -9 -27 -23 -2 -13 -26 -88
-51 -168 -26 -80 -67 -206 -91 -280 -23 -74 -127 -396 -230 -715 -102 -319
-199 -620 -215 -670 -16 -49 -56 -173 -89 -275 -66 -204 -228 -709 -268 -835
-14 -44 -41 -125 -59 -180 -18 -55 -65 -201 -104 -325 -40 -124 -87 -270 -105
-325 -18 -55 -65 -201 -105 -325 -39 -124 -102 -319 -139 -435 -38 -115 -100
-309 -139 -430 -39 -121 -103 -321 -143 -445 -40 -124 -74 -229 -75 -235 -1
-5 -11 -37 -22 -70 -20 -58 -101 -311 -294 -910 -49 -154 -93 -291 -98 -305
-5 -14 -47 -146 -95 -295 -47 -148 -92 -288 -100 -310 -7 -22 -39 -121 -70
-220 -31 -99 -62 -193 -68 -210 -7 -16 -11 -33 -9 -37 1 -5 -7 -8 -18 -8 -11
0 -20 1 -20 3 0 2 -48 142 -106 312 -58 171 -123 362 -144 425 -21 63 -96 282
-165 485 -70 204 -131 386 -137 405 -5 19 -16 49 -23 65 -7 17 -22 59 -33 95
-11 36 -82 245 -157 465 -75 220 -176 517 -225 660 -48 143 -120 355 -159 470
-40 116 -85 248 -101 295 -16 47 -92 272 -170 500 -78 228 -157 462 -176 520
-19 58 -37 112 -41 120 -6 18 -279 817 -298 875 -25 75 -303 890 -340 995 -20
58 -38 112 -40 120 -2 8 -57 173 -123 365 -66 193 -157 460 -202 595 -46 135
-86 249 -91 254 -7 8 -3507 16 -3586 8z"/>
</g>
</svg>
